<?xml version="1.0" standalone="no"?>
 <!DOCTYPE svg PUBLIC "-//W3C//DTD SVG 1.1//EN" 
 "http://www.w3.org/Graphics/SVG/1.1/DTD/svg11.dtd"> 
<svg
  xmlns:svg="http://www.w3.org/2000/svg"
  xmlns="http://www.w3.org/2000/svg"
  xmlns:xlink="http://www.w3.org/1999/xlink"
  version="1.1"
  width="60.550000mm" height="44.050000mm" viewBox="136.975000 81.475000 60.550000 44.050000">
<title>SVG Image created as TPS_Calibration_Board-B_Cu.svg date 2025/05/30 06:41:43 </title>
  <desc>Image generated by PCBNEW </desc>
<g style="fill:#000000; fill-opacity:1.0000;stroke:#000000; stroke-opacity:1.0000;
stroke-linecap:round; stroke-linejoin:round;"
 transform="translate(0 0) scale(1 1)">
</g>
<g style="fill:#000000; fill-opacity:1.0000; stroke:none;">
<circle cx="192.0000" cy="108.8000" r="0.7500" /> 
</g>
<g style="fill:#000000; fill-opacity:1.0000; stroke:none;">
<circle cx="192.0000" cy="113.6800" r="0.7500" /> 
</g>
<g style="fill:#000000; fill-opacity:1.0000; stroke:none;">
<circle cx="183.8200" cy="96.1300" r="0.8000" /> 
<circle cx="183.8200" cy="98.6700" r="0.8000" /> 
<circle cx="183.8200" cy="101.2100" r="0.8000" /> 
<circle cx="183.8200" cy="103.7500" r="0.8000" /> 
<circle cx="176.2000" cy="103.7500" r="0.8000" /> 
<circle cx="176.2000" cy="101.2100" r="0.8000" /> 
<circle cx="176.2000" cy="98.6700" r="0.8000" /> 
<path style="fill:#000000; fill-opacity:1.0000; stroke:none;fill-rule:evenodd;"
d="M 175.4000,96.9300
175.4000,95.3300
177.0000,95.3300
177.0000,96.9300
Z" /> 
<path style="fill:#000000; fill-opacity:1.0000; stroke:none;fill-rule:evenodd;"
d="M 155.1250,120.6500
155.2207,120.6690
155.3018,120.7232
155.3560,120.8043
155.3750,120.9000
155.3750,121.7000
155.3560,121.7957
155.3018,121.8768
155.2207,121.9310
155.1250,121.9500
153.8750,121.9500
153.7793,121.9310
153.6982,121.8768
153.6440,121.7957
153.6250,121.7000
153.6250,120.9000
153.6440,120.8043
153.6982,120.7232
153.7793,120.6690
153.8750,120.6500
Z" /> 
<path style="fill:#000000; fill-opacity:1.0000; stroke:none;fill-rule:evenodd;"
d="M 155.1250,117.5500
155.2207,117.5690
155.3018,117.6232
155.3560,117.7043
155.3750,117.8000
155.3750,118.6000
155.3560,118.6957
155.3018,118.7768
155.2207,118.8310
155.1250,118.8500
153.8750,118.8500
153.7793,118.8310
153.6982,118.7768
153.6440,118.6957
153.6250,118.6000
153.6250,117.8000
153.6440,117.7043
153.6982,117.6232
153.7793,117.5690
153.8750,117.5500
Z" /> 
<path style="fill:#000000; fill-opacity:1.0000; stroke:none;fill-rule:evenodd;"
d="M 185.7000,86.8750
185.6810,86.9707
185.6268,87.0518
185.5457,87.1060
185.4500,87.1250
184.6500,87.1250
184.5543,87.1060
184.4732,87.0518
184.4190,86.9707
184.4000,86.8750
184.4000,85.6250
184.4190,85.5293
184.4732,85.4482
184.5543,85.3940
184.6500,85.3750
185.4500,85.3750
185.5457,85.3940
185.6268,85.4482
185.6810,85.5293
185.7000,85.6250
Z" /> 
<path style="fill:#000000; fill-opacity:1.0000; stroke:none;fill-rule:evenodd;"
d="M 182.6000,86.8750
182.5810,86.9707
182.5268,87.0518
182.4457,87.1060
182.3500,87.1250
181.5500,87.1250
181.4543,87.1060
181.3732,87.0518
181.3190,86.9707
181.3000,86.8750
181.3000,85.6250
181.3190,85.5293
181.3732,85.4482
181.4543,85.3940
181.5500,85.3750
182.3500,85.3750
182.4457,85.3940
182.5268,85.4482
182.5810,85.5293
182.6000,85.6250
Z" /> 
<path style="fill:#000000; fill-opacity:1.0000; stroke:none;fill-rule:evenodd;"
d="M 154.6250,103.5500
154.7207,103.5690
154.8018,103.6232
154.8560,103.7043
154.8750,103.8000
154.8750,104.6000
154.8560,104.6957
154.8018,104.7768
154.7207,104.8310
154.6250,104.8500
153.3750,104.8500
153.2793,104.8310
153.1982,104.7768
153.1440,104.6957
153.1250,104.6000
153.1250,103.8000
153.1440,103.7043
153.1982,103.6232
153.2793,103.5690
153.3750,103.5500
Z" /> 
<path style="fill:#000000; fill-opacity:1.0000; stroke:none;fill-rule:evenodd;"
d="M 154.6250,106.6500
154.7207,106.6690
154.8018,106.7232
154.8560,106.8043
154.8750,106.9000
154.8750,107.7000
154.8560,107.7957
154.8018,107.8768
154.7207,107.9310
154.6250,107.9500
153.3750,107.9500
153.2793,107.9310
153.1982,107.8768
153.1440,107.7957
153.1250,107.7000
153.1250,106.9000
153.1440,106.8043
153.1982,106.7232
153.2793,106.6690
153.3750,106.6500
Z" /> 
<path style="fill:#000000; fill-opacity:1.0000; stroke:none;fill-rule:evenodd;"
d="M 173.1250,101.0500
173.2207,101.0690
173.3018,101.1232
173.3560,101.2043
173.3750,101.3000
173.3750,102.1000
173.3560,102.1957
173.3018,102.2768
173.2207,102.3310
173.1250,102.3500
171.8750,102.3500
171.7793,102.3310
171.6982,102.2768
171.6440,102.1957
171.6250,102.1000
171.6250,101.3000
171.6440,101.2043
171.6982,101.1232
171.7793,101.0690
171.8750,101.0500
Z" /> 
<path style="fill:#000000; fill-opacity:1.0000; stroke:none;fill-rule:evenodd;"
d="M 173.1250,104.1500
173.2207,104.1690
173.3018,104.2232
173.3560,104.3043
173.3750,104.4000
173.3750,105.2000
173.3560,105.2957
173.3018,105.3768
173.2207,105.4310
173.1250,105.4500
171.8750,105.4500
171.7793,105.4310
171.6982,105.3768
171.6440,105.2957
171.6250,105.2000
171.6250,104.4000
171.6440,104.3043
171.6982,104.2232
171.7793,104.1690
171.8750,104.1500
Z" /> 
<path style="fill:#000000; fill-opacity:1.0000; stroke:none;fill-rule:evenodd;"
d="M 188.1250,95.0500
188.2207,95.0690
188.3018,95.1232
188.3560,95.2043
188.3750,95.3000
188.3750,96.1000
188.3560,96.1957
188.3018,96.2768
188.2207,96.3310
188.1250,96.3500
186.8750,96.3500
186.7793,96.3310
186.6982,96.2768
186.6440,96.1957
186.6250,96.1000
186.6250,95.3000
186.6440,95.2043
186.6982,95.1232
186.7793,95.0690
186.8750,95.0500
Z" /> 
<path style="fill:#000000; fill-opacity:1.0000; stroke:none;fill-rule:evenodd;"
d="M 188.1250,98.1500
188.2207,98.1690
188.3018,98.2232
188.3560,98.3043
188.3750,98.4000
188.3750,99.2000
188.3560,99.2957
188.3018,99.3768
188.2207,99.4310
188.1250,99.4500
186.8750,99.4500
186.7793,99.4310
186.6982,99.3768
186.6440,99.2957
186.6250,99.2000
186.6250,98.4000
186.6440,98.3043
186.6982,98.2232
186.7793,98.1690
186.8750,98.1500
Z" /> 
</g>
<g style="fill:none; 
stroke:#000000; stroke-width:1.1000; stroke-opacity:1; 
stroke-linecap:round; stroke-linejoin:round;">
<path d="M193.7200 84.6800
L195.2200 84.6800
" />
<path d="M188.6100 84.6800
L189.6100 84.6800
" />
<path d="M193.7200 93.3200
L195.2200 93.3200
" />
<path d="M188.6100 93.3200
L189.6100 93.3200
" />
<path style="fill:#000000; fill-opacity:1.0000; stroke:none;fill-rule:evenodd;"
d="M 149.6500,105.0600
149.6500,103.3600
151.3500,103.3600
151.3500,105.0600
Z" /> 
</g>
<g style="fill:#000000; fill-opacity:1.0000; stroke:none;">
<circle cx="150.5000" cy="106.7500" r="0.8500" /> 
<circle cx="150.5000" cy="109.2900" r="0.8500" /> 
<path style="fill:#000000; fill-opacity:1.0000; stroke:none;fill-rule:evenodd;"
d="M 140.6500,88.0750
140.6500,86.3750
142.3500,86.3750
142.3500,88.0750
Z" /> 
<circle cx="141.5000" cy="89.7650" r="0.8500" /> 
<circle cx="141.5000" cy="92.3050" r="0.8500" /> 
<path style="fill:#000000; fill-opacity:1.0000; stroke:none;fill-rule:evenodd;"
d="M 140.6500,116.5200
140.6500,114.8200
142.3500,114.8200
142.3500,116.5200
Z" /> 
<circle cx="141.5000" cy="118.2100" r="0.8500" /> 
<circle cx="141.5000" cy="120.7500" r="0.8500" /> 
<path style="fill:#000000; fill-opacity:1.0000; stroke:none;fill-rule:evenodd;"
d="M 190.4750,120.6625
190.5707,120.6815
190.6518,120.7357
190.7060,120.8168
190.7250,120.9125
190.7250,121.5875
190.7060,121.6832
190.6518,121.7643
190.5707,121.8185
190.4750,121.8375
189.5250,121.8375
189.4293,121.8185
189.3482,121.7643
189.2940,121.6832
189.2750,121.5875
189.2750,120.9125
189.2940,120.8168
189.3482,120.7357
189.4293,120.6815
189.5250,120.6625
Z" /> 
<path style="fill:#000000; fill-opacity:1.0000; stroke:none;fill-rule:evenodd;"
d="M 190.4750,118.5875
190.5707,118.6065
190.6518,118.6607
190.7060,118.7418
190.7250,118.8375
190.7250,119.5125
190.7060,119.6082
190.6518,119.6893
190.5707,119.7435
190.4750,119.7625
189.5250,119.7625
189.4293,119.7435
189.3482,119.6893
189.2940,119.6082
189.2750,119.5125
189.2750,118.8375
189.2940,118.7418
189.3482,118.6607
189.4293,118.6065
189.5250,118.5875
Z" /> 
<path style="fill:#000000; fill-opacity:1.0000; stroke:none;fill-rule:evenodd;"
d="M 170.1250,90.2250
170.1060,90.3207
170.0518,90.4018
169.9707,90.4560
169.8750,90.4750
169.2000,90.4750
169.1043,90.4560
169.0232,90.4018
168.9690,90.3207
168.9500,90.2250
168.9500,89.2750
168.9690,89.1793
169.0232,89.0982
169.1043,89.0440
169.2000,89.0250
169.8750,89.0250
169.9707,89.0440
170.0518,89.0982
170.1060,89.1793
170.1250,89.2750
Z" /> 
<path style="fill:#000000; fill-opacity:1.0000; stroke:none;fill-rule:evenodd;"
d="M 168.0500,90.2250
168.0310,90.3207
167.9768,90.4018
167.8957,90.4560
167.8000,90.4750
167.1250,90.4750
167.0293,90.4560
166.9482,90.4018
166.8940,90.3207
166.8750,90.2250
166.8750,89.2750
166.8940,89.1793
166.9482,89.0982
167.0293,89.0440
167.1250,89.0250
167.8000,89.0250
167.8957,89.0440
167.9768,89.0982
168.0310,89.1793
168.0500,89.2750
Z" /> 
<path style="fill:#000000; fill-opacity:1.0000; stroke:none;fill-rule:evenodd;"
d="M 170.1250,93.7250
170.1060,93.8207
170.0518,93.9018
169.9707,93.9560
169.8750,93.9750
169.2000,93.9750
169.1043,93.9560
169.0232,93.9018
168.9690,93.8207
168.9500,93.7250
168.9500,92.7750
168.9690,92.6793
169.0232,92.5982
169.1043,92.5440
169.2000,92.5250
169.8750,92.5250
169.9707,92.5440
170.0518,92.5982
170.1060,92.6793
170.1250,92.7750
Z" /> 
<path style="fill:#000000; fill-opacity:1.0000; stroke:none;fill-rule:evenodd;"
d="M 168.0500,93.7250
168.0310,93.8207
167.9768,93.9018
167.8957,93.9560
167.8000,93.9750
167.1250,93.9750
167.0293,93.9560
166.9482,93.9018
166.8940,93.8207
166.8750,93.7250
166.8750,92.7750
166.8940,92.6793
166.9482,92.5982
167.0293,92.5440
167.1250,92.5250
167.8000,92.5250
167.8957,92.5440
167.9768,92.5982
168.0310,92.6793
168.0500,92.7750
Z" /> 
<path style="fill:#000000; fill-opacity:1.0000; stroke:none;fill-rule:evenodd;"
d="M 177.5125,92.7250
177.4935,92.8207
177.4393,92.9018
177.3582,92.9560
177.2625,92.9750
176.5875,92.9750
176.4918,92.9560
176.4107,92.9018
176.3565,92.8207
176.3375,92.7250
176.3375,91.7750
176.3565,91.6793
176.4107,91.5982
176.4918,91.5440
176.5875,91.5250
177.2625,91.5250
177.3582,91.5440
177.4393,91.5982
177.4935,91.6793
177.5125,91.7750
Z" /> 
<path style="fill:#000000; fill-opacity:1.0000; stroke:none;fill-rule:evenodd;"
d="M 179.5875,92.7250
179.5685,92.8207
179.5143,92.9018
179.4332,92.9560
179.3375,92.9750
178.6625,92.9750
178.5668,92.9560
178.4857,92.9018
178.4315,92.8207
178.4125,92.7250
178.4125,91.7750
178.4315,91.6793
178.4857,91.5982
178.5668,91.5440
178.6625,91.5250
179.3375,91.5250
179.4332,91.5440
179.5143,91.5982
179.5685,91.6793
179.5875,91.7750
Z" /> 
<path style="fill:#000000; fill-opacity:1.0000; stroke:none;fill-rule:evenodd;"
d="M 179.5875,89.7150
179.5685,89.8107
179.5143,89.8918
179.4332,89.9460
179.3375,89.9650
178.6625,89.9650
178.5668,89.9460
178.4857,89.8918
178.4315,89.8107
178.4125,89.7150
178.4125,88.7650
178.4315,88.6693
178.4857,88.5882
178.5668,88.5340
178.6625,88.5150
179.3375,88.5150
179.4332,88.5340
179.5143,88.5882
179.5685,88.6693
179.5875,88.7650
Z" /> 
<path style="fill:#000000; fill-opacity:1.0000; stroke:none;fill-rule:evenodd;"
d="M 177.5125,89.7150
177.4935,89.8107
177.4393,89.8918
177.3582,89.9460
177.2625,89.9650
176.5875,89.9650
176.4918,89.9460
176.4107,89.8918
176.3565,89.8107
176.3375,89.7150
176.3375,88.7650
176.3565,88.6693
176.4107,88.5882
176.4918,88.5340
176.5875,88.5150
177.2625,88.5150
177.3582,88.5340
177.4393,88.5882
177.4935,88.6693
177.5125,88.7650
Z" /> 
<path style="fill:#000000; fill-opacity:1.0000; stroke:none;fill-rule:evenodd;"
d="M 179.5875,86.7050
179.5685,86.8007
179.5143,86.8818
179.4332,86.9360
179.3375,86.9550
178.6625,86.9550
178.5668,86.9360
178.4857,86.8818
178.4315,86.8007
178.4125,86.7050
178.4125,85.7550
178.4315,85.6593
178.4857,85.5782
178.5668,85.5240
178.6625,85.5050
179.3375,85.5050
179.4332,85.5240
179.5143,85.5782
179.5685,85.6593
179.5875,85.7550
Z" /> 
<path style="fill:#000000; fill-opacity:1.0000; stroke:none;fill-rule:evenodd;"
d="M 177.5125,86.7050
177.4935,86.8007
177.4393,86.8818
177.3582,86.9360
177.2625,86.9550
176.5875,86.9550
176.4918,86.9360
176.4107,86.8818
176.3565,86.8007
176.3375,86.7050
176.3375,85.7550
176.3565,85.6593
176.4107,85.5782
176.4918,85.5240
176.5875,85.5050
177.2625,85.5050
177.3582,85.5240
177.4393,85.5782
177.4935,85.6593
177.5125,85.7550
Z" /> 
<path style="fill:#000000; fill-opacity:1.0000; stroke:none;fill-rule:evenodd;"
d="M 185.9750,107.5875
186.0707,107.6065
186.1518,107.6607
186.2060,107.7418
186.2250,107.8375
186.2250,108.5125
186.2060,108.6082
186.1518,108.6893
186.0707,108.7435
185.9750,108.7625
185.0250,108.7625
184.9293,108.7435
184.8482,108.6893
184.7940,108.6082
184.7750,108.5125
184.7750,107.8375
184.7940,107.7418
184.8482,107.6607
184.9293,107.6065
185.0250,107.5875
Z" /> 
<path style="fill:#000000; fill-opacity:1.0000; stroke:none;fill-rule:evenodd;"
d="M 185.9750,109.6625
186.0707,109.6815
186.1518,109.7357
186.2060,109.8168
186.2250,109.9125
186.2250,110.5875
186.2060,110.6832
186.1518,110.7643
186.0707,110.8185
185.9750,110.8375
185.0250,110.8375
184.9293,110.8185
184.8482,110.7643
184.7940,110.6832
184.7750,110.5875
184.7750,109.9125
184.7940,109.8168
184.8482,109.7357
184.9293,109.6815
185.0250,109.6625
Z" /> 
<path style="fill:#000000; fill-opacity:1.0000; stroke:none;fill-rule:evenodd;"
d="M 150.4875,99.7750
150.5065,99.6793
150.5607,99.5982
150.6418,99.5440
150.7375,99.5250
151.4125,99.5250
151.5082,99.5440
151.5893,99.5982
151.6435,99.6793
151.6625,99.7750
151.6625,100.7250
151.6435,100.8207
151.5893,100.9018
151.5082,100.9560
151.4125,100.9750
150.7375,100.9750
150.6418,100.9560
150.5607,100.9018
150.5065,100.8207
150.4875,100.7250
Z" /> 
<path style="fill:#000000; fill-opacity:1.0000; stroke:none;fill-rule:evenodd;"
d="M 148.4125,99.7750
148.4315,99.6793
148.4857,99.5982
148.5668,99.5440
148.6625,99.5250
149.3375,99.5250
149.4332,99.5440
149.5143,99.5982
149.5685,99.6793
149.5875,99.7750
149.5875,100.7250
149.5685,100.8207
149.5143,100.9018
149.4332,100.9560
149.3375,100.9750
148.6625,100.9750
148.5668,100.9560
148.4857,100.9018
148.4315,100.8207
148.4125,100.7250
Z" /> 
<path style="fill:#000000; fill-opacity:1.0000; stroke:none;fill-rule:evenodd;"
d="M 185.0250,115.3750
184.9293,115.3560
184.8482,115.3018
184.7940,115.2207
184.7750,115.1250
184.7750,114.4500
184.7940,114.3543
184.8482,114.2732
184.9293,114.2190
185.0250,114.2000
185.9750,114.2000
186.0707,114.2190
186.1518,114.2732
186.2060,114.3543
186.2250,114.4500
186.2250,115.1250
186.2060,115.2207
186.1518,115.3018
186.0707,115.3560
185.9750,115.3750
Z" /> 
<path style="fill:#000000; fill-opacity:1.0000; stroke:none;fill-rule:evenodd;"
d="M 185.0250,113.3000
184.9293,113.2810
184.8482,113.2268
184.7940,113.1457
184.7750,113.0500
184.7750,112.3750
184.7940,112.2793
184.8482,112.1982
184.9293,112.1440
185.0250,112.1250
185.9750,112.1250
186.0707,112.1440
186.1518,112.1982
186.2060,112.2793
186.2250,112.3750
186.2250,113.0500
186.2060,113.1457
186.1518,113.2268
186.0707,113.2810
185.9750,113.3000
Z" /> 
<circle cx="160.0000" cy="117.6500" r="0.3000" /> 
</g>
<g style="fill:#000000; fill-opacity:1.0000; stroke:none;">
<circle cx="160.0000" cy="118.8500" r="0.3000" /> 
</g>
<g style="fill:#000000; fill-opacity:1.0000; stroke:none;">
<circle cx="160.0000" cy="120.1500" r="0.3000" /> 
</g>
<g style="fill:#000000; fill-opacity:1.0000; stroke:none;">
<circle cx="160.0000" cy="121.2500" r="0.3000" /> 
<path style="fill:#000000; fill-opacity:1.0000; stroke:none;fill-rule:evenodd;"
d="M 159.1250,121.7000
159.1250,117.2000
162.0750,117.2000
162.0750,121.7000
Z" /> 
</g>
<g style="fill:#000000; fill-opacity:1.0000; stroke:none;">
<circle cx="161.2000" cy="117.6500" r="0.3000" /> 
</g>
<g style="fill:#000000; fill-opacity:1.0000; stroke:none;">
<circle cx="161.2000" cy="118.8500" r="0.3000" /> 
</g>
<g style="fill:#000000; fill-opacity:1.0000; stroke:none;">
<circle cx="161.2000" cy="120.1500" r="0.3000" /> 
</g>
<g style="fill:#000000; fill-opacity:1.0000; stroke:none;">
<circle cx="161.2000" cy="121.2500" r="0.3000" /> 
<path style="fill:#000000; fill-opacity:1.0000; stroke:none;fill-rule:evenodd;"
d="M 149.9750,120.7000
150.0707,120.7190
150.1518,120.7732
150.2060,120.8543
150.2250,120.9500
150.2250,121.6250
150.2060,121.7207
150.1518,121.8018
150.0707,121.8560
149.9750,121.8750
149.0250,121.8750
148.9293,121.8560
148.8482,121.8018
148.7940,121.7207
148.7750,121.6250
148.7750,120.9500
148.7940,120.8543
148.8482,120.7732
148.9293,120.7190
149.0250,120.7000
Z" /> 
<path style="fill:#000000; fill-opacity:1.0000; stroke:none;fill-rule:evenodd;"
d="M 149.9750,118.6250
150.0707,118.6440
150.1518,118.6982
150.2060,118.7793
150.2250,118.8750
150.2250,119.5500
150.2060,119.6457
150.1518,119.7268
150.0707,119.7810
149.9750,119.8000
149.0250,119.8000
148.9293,119.7810
148.8482,119.7268
148.7940,119.6457
148.7750,119.5500
148.7750,118.8750
148.7940,118.7793
148.8482,118.6982
148.9293,118.6440
149.0250,118.6250
Z" /> 
</g>
<g style="fill:#000000; fill-opacity:1.0000; stroke:none;">
<circle cx="155.0000" cy="89.5000" r="0.3000" /> 
</g>
<g style="fill:#000000; fill-opacity:1.0000; stroke:none;">
<circle cx="167.5000" cy="91.2500" r="0.3000" /> 
</g>
<g style="fill:#000000; fill-opacity:1.0000; stroke:none;">
<circle cx="171.0000" cy="88.7500" r="0.3000" /> 
</g>
<g style="fill:#000000; fill-opacity:1.0000; stroke:none;">
<circle cx="171.0000" cy="92.2500" r="0.3000" /> 
</g>
<g style="fill:#000000; fill-opacity:1.0000; stroke:none;">
<circle cx="174.0000" cy="88.7500" r="0.3000" /> 
</g>
<g style="fill:#000000; fill-opacity:1.0000; stroke:none;">
<circle cx="172.9775" cy="91.2512" r="0.3000" /> 
</g>
<g style="fill:#000000; fill-opacity:1.0000; stroke:none;">
<circle cx="172.9785" cy="94.7824" r="0.3000" /> 
</g>
<g style="fill:#000000; fill-opacity:1.0000; stroke:none;">
<circle cx="168.5000" cy="94.7500" r="0.3000" /> 
</g>
<g style="fill:#000000; fill-opacity:1.0000; stroke:none;">
<circle cx="174.0000" cy="91.2500" r="0.3000" /> 
</g>
<g style="fill:#000000; fill-opacity:1.0000; stroke:none;">
<circle cx="176.7090" cy="93.7607" r="0.3000" /> 
</g>
<g style="fill:#000000; fill-opacity:1.0000; stroke:none;">
<circle cx="174.5000" cy="92.2500" r="0.3000" /> 
</g>
<g style="fill:#000000; fill-opacity:1.0000; stroke:none;">
<circle cx="168.5000" cy="91.7500" r="0.3000" /> 
</g>
<g style="fill:#000000; fill-opacity:1.0000; stroke:none;">
<circle cx="168.5000" cy="88.2500" r="0.3000" /> 
</g>
<g style="fill:#000000; fill-opacity:1.0000; stroke:none;">
<circle cx="148.5000" cy="101.2500" r="0.3000" /> 
</g>
<g style="fill:#000000; fill-opacity:1.0000; stroke:none;">
<circle cx="152.5000" cy="100.2500" r="0.3000" /> 
</g>
<g style="fill:#000000; fill-opacity:1.0000; stroke:none;">
<circle cx="187.5000" cy="88.2500" r="0.3000" /> 
</g>
<g style="fill:#000000; fill-opacity:1.0000; stroke:none;">
<circle cx="186.0000" cy="89.2500" r="0.3000" /> 
</g>
<g style="fill:#000000; fill-opacity:1.0000; stroke:none;">
<circle cx="186.5000" cy="88.2500" r="0.3000" /> 
</g>
<g style="fill:#000000; fill-opacity:1.0000; stroke:none;">
<circle cx="185.5000" cy="91.2500" r="0.3000" /> 
</g>
<g style="fill:#000000; fill-opacity:1.0000; stroke:none;">
<circle cx="189.0000" cy="94.7500" r="0.3000" /> 
</g>
<g style="fill:#000000; fill-opacity:1.0000; stroke:none;">
<circle cx="186.6357" cy="89.9000" r="0.3000" /> 
</g>
<g style="fill:#000000; fill-opacity:1.0000; stroke:none;">
<circle cx="187.0000" cy="92.2500" r="0.3000" /> 
</g>
<g style="fill:#000000; fill-opacity:1.0000; stroke:none;">
<circle cx="186.5000" cy="86.2500" r="0.3000" /> 
</g>
<g style="fill:#000000; fill-opacity:1.0000; stroke:none;">
<circle cx="181.0000" cy="86.7500" r="0.3000" /> 
</g>
<g style="fill:#000000; fill-opacity:1.0000; stroke:none;">
<circle cx="181.5000" cy="92.2500" r="0.3000" /> 
</g>
<g style="fill:#000000; fill-opacity:1.0000; stroke:none;">
<circle cx="175.0000" cy="87.7500" r="0.3000" /> 
</g>
<g style="fill:#000000; fill-opacity:1.0000; stroke:none;">
<circle cx="181.0000" cy="89.2500" r="0.3000" /> 
</g>
<g style="fill:#000000; fill-opacity:1.0000; stroke:none;">
<circle cx="180.5000" cy="85.7500" r="0.3000" /> 
</g>
<g style="fill:#000000; fill-opacity:1.0000; stroke:none;">
<circle cx="173.0000" cy="96.2500" r="0.3000" /> 
</g>
<g style="fill:#000000; fill-opacity:1.0000; stroke:none;">
<circle cx="162.0000" cy="91.7500" r="0.3000" /> 
</g>
<g style="fill:#000000; fill-opacity:1.0000; stroke:none;">
<circle cx="168.0000" cy="102.2500" r="0.3000" /> 
</g>
<g style="fill:#000000; fill-opacity:1.0000; stroke:none;">
<circle cx="170.5000" cy="104.2500" r="0.3000" /> 
</g>
<g style="fill:#000000; fill-opacity:1.0000; stroke:none;">
<circle cx="174.0000" cy="105.2500" r="0.3000" /> 
</g>
<g style="fill:#000000; fill-opacity:1.0000; stroke:none;">
<circle cx="147.0000" cy="99.7500" r="0.3000" /> 
</g>
<g style="fill:#000000; fill-opacity:1.0000; stroke:none;">
<circle cx="165.0000" cy="88.7500" r="0.3000" /> 
</g>
<g style="fill:#000000; fill-opacity:1.0000; stroke:none;">
<circle cx="166.0000" cy="90.7500" r="0.3000" /> 
</g>
<g style="fill:#000000; fill-opacity:1.0000; stroke:none;">
<circle cx="162.6032" cy="90.9473" r="0.3000" /> 
</g>
<g style="fill:#000000; fill-opacity:1.0000; stroke:none;">
<circle cx="160.5000" cy="88.7500" r="0.3000" /> 
</g>
<g style="fill:#000000; fill-opacity:1.0000; stroke:none;">
<circle cx="157.5000" cy="109.2500" r="0.3000" /> 
</g>
<g style="fill:#000000; fill-opacity:1.0000; stroke:none;">
<circle cx="156.5000" cy="88.7500" r="0.3000" /> 
</g>
<g style="fill:#000000; fill-opacity:1.0000; stroke:none;">
<circle cx="162.5000" cy="88.7500" r="0.3000" /> 
</g>
<g style="fill:#000000; fill-opacity:1.0000; stroke:none;">
<circle cx="166.0000" cy="104.2500" r="0.3000" /> 
</g>
<g style="fill:#000000; fill-opacity:1.0000; stroke:none;">
<circle cx="155.5000" cy="102.2500" r="0.3000" /> 
</g>
<g style="fill:#000000; fill-opacity:1.0000; stroke:none;">
<circle cx="159.5000" cy="102.2500" r="0.3000" /> 
</g>
<g style="fill:#000000; fill-opacity:1.0000; stroke:none;">
<circle cx="155.0000" cy="100.2500" r="0.3000" /> 
</g>
<g style="fill:#000000; fill-opacity:1.0000; stroke:none;">
<circle cx="157.5000" cy="95.7500" r="0.3000" /> 
</g>
<g style="fill:#000000; fill-opacity:1.0000; stroke:none;">
<circle cx="157.5000" cy="102.7500" r="0.3000" /> 
</g>
<g style="fill:#000000; fill-opacity:1.0000; stroke:none;">
<circle cx="158.5000" cy="102.7500" r="0.3000" /> 
</g>
<g style="fill:#000000; fill-opacity:1.0000; stroke:none;">
<circle cx="184.0000" cy="111.7500" r="0.3000" /> 
</g>
<g style="fill:#000000; fill-opacity:1.0000; stroke:none;">
<circle cx="160.5000" cy="103.7500" r="0.3000" /> 
</g>
<g style="fill:#000000; fill-opacity:1.0000; stroke:none;">
<circle cx="171.0000" cy="100.7500" r="0.3000" /> 
</g>
<g style="fill:#000000; fill-opacity:1.0000; stroke:none;">
<circle cx="168.5000" cy="101.2500" r="0.3000" /> 
</g>
<g style="fill:#000000; fill-opacity:1.0000; stroke:none;">
<circle cx="170.5000" cy="96.2500" r="0.3000" /> 
</g>
<g style="fill:#000000; fill-opacity:1.0000; stroke:none;">
<circle cx="158.0000" cy="100.2500" r="0.3000" /> 
</g>
<g style="fill:#000000; fill-opacity:1.0000; stroke:none;">
<circle cx="169.5000" cy="100.7500" r="0.3000" /> 
</g>
<g style="fill:#000000; fill-opacity:1.0000; stroke:none;">
<circle cx="169.0000" cy="104.7500" r="0.3000" /> 
</g>
<g style="fill:#000000; fill-opacity:1.0000; stroke:none;">
<circle cx="188.0000" cy="119.2500" r="0.3000" /> 
</g>
<g style="fill:#000000; fill-opacity:1.0000; stroke:none;">
<circle cx="188.0000" cy="121.2500" r="0.3000" /> 
</g>
<g style="fill:#000000; fill-opacity:1.0000; stroke:none;">
<circle cx="156.0000" cy="121.2500" r="0.3000" /> 
</g>
<g style="fill:#000000; fill-opacity:1.0000; stroke:none;">
<circle cx="157.5000" cy="112.7500" r="0.3000" /> 
</g>
<g style="fill:#000000; fill-opacity:1.0000; stroke:none;">
<circle cx="172.0000" cy="111.7500" r="0.3000" /> 
</g>
<g style="fill:#000000; fill-opacity:1.0000; stroke:none;">
<circle cx="165.0000" cy="120.2500" r="0.3000" /> 
</g>
<g style="fill:#000000; fill-opacity:1.0000; stroke:none;">
<circle cx="164.6935" cy="114.7648" r="0.3000" /> 
</g>
<g style="fill:#000000; fill-opacity:1.0000; stroke:none;">
<circle cx="156.0000" cy="119.2500" r="0.3000" /> 
</g>
<g style="fill:#000000; fill-opacity:1.0000; stroke:none;">
<circle cx="164.9350" cy="118.8150" r="0.3000" /> 
</g>
<g style="fill:#000000; fill-opacity:1.0000; stroke:none;">
<circle cx="148.0000" cy="121.2500" r="0.3000" /> 
</g>
<g style="fill:#000000; fill-opacity:1.0000; stroke:none;">
<circle cx="149.0000" cy="117.2500" r="0.3000" /> 
</g>
<g style="fill:none; 
stroke:#000000; stroke-width:0.2000; stroke-opacity:1; 
stroke-linecap:round; stroke-linejoin:round;">
<path d="M167.4625 91.2125
L167.4625 89.7500
" />
<path d="M167.5000 91.2500
L167.4625 91.2125
" />
<path d="M167.4625 91.2875
L167.5000 91.2500
" />
<path d="M167.4625 93.2500
L167.4625 91.2875
" />
<path d="M171.0000 92.2500
L170.5375 92.2500
" />
<path d="M170.5375 92.2500
L169.5375 93.2500
" />
<path d="M171.0000 88.7500
L170.5375 88.7500
" />
<path d="M170.5375 88.7500
L169.5375 89.7500
" />
<path d="M168.5000 94.7500
L171.5000 94.7500
" />
<path d="M171.5000 94.7500
L172.0000 94.2500
" />
<path d="M172.0000 94.2500
L172.0000 90.7500
" />
<path d="M172.0000 90.7500
L174.0000 88.7500
" />
<path d="M172.9785 94.7824
L172.9785 91.2715
" />
<path d="M172.9785 91.2715
L173.0000 91.2500
" />
<path d="M148.5000 100.7500
L148.5000 101.2500
" />
<path d="M149.0000 100.2500
L148.5000 100.7500
" />
<path d="M152.5000 100.2500
L151.0750 100.2500
" />
<path d="M185.5000 91.2500
L184.5000 90.2500
" />
<path d="M184.5000 90.2500
L184.5000 89.7500
" />
<path d="M184.5000 89.7500
L186.0000 88.2500
" />
<path d="M186.0000 88.2500
L186.5000 88.2500
" />
<path d="M186.4000 93.1500
L187.5000 94.2500
" />
<path d="M186.6357 89.9000
L186.4000 90.1357
" />
<path d="M186.4000 90.1357
L186.4000 93.1500
" />
<path d="M187.5000 94.2500
L188.5000 94.2500
" />
<path d="M188.5000 94.2500
L189.0000 94.7500
" />
<path d="M186.0000 86.2500
L186.5000 86.2500
" />
<path d="M185.0500 86.2500
L186.0000 86.2500
" />
<path d="M181.0000 86.7500
L181.4500 86.7500
" />
<path d="M181.4500 86.7500
L181.9500 86.2500
" />
<path d="M179.0000 92.2500
L179.5000 92.7500
" />
<path d="M179.5000 92.7500
L180.4400 92.7500
" />
<path d="M180.4400 92.7500
L183.8200 96.1300
" />
<path d="M179.0000 86.2300
L179.0000 89.2400
" />
<path d="M179.0000 92.2500
L179.0000 89.2400
" />
<path d="M175.0000 91.7500
L175.5000 92.2500
" />
<path d="M175.0000 88.2500
L175.0000 91.7500
" />
<path d="M175.5000 92.2500
L176.9250 92.2500
" />
<path d="M175.0000 87.7500
L175.0000 88.2500
" />
<path d="M175.0000 88.2500
L175.9900 89.2400
" />
<path d="M175.9900 89.2400
L176.9250 89.2400
" />
<path d="M175.0000 87.7500
L176.5200 86.2300
" />
<path d="M176.5200 86.2300
L176.9250 86.2300
" />
<path d="M185.5000 114.7875
L190.8925 114.7875
" />
<path d="M190.8925 114.7875
L192.0000 113.6800
" />
<path d="M185.5000 108.1750
L191.3750 108.1750
" />
<path d="M191.3750 108.1750
L192.0000 108.8000
" />
<path d="M170.5000 104.2500
L168.5000 102.2500
" />
<path d="M168.5000 102.2500
L168.0000 102.2500
" />
<path d="M183.8200 96.1300
L187.5700 96.1300
" />
<path d="M187.5700 96.1300
L188.0000 95.7000
" />
<path d="M183.8200 98.6700
L187.8700 98.6700
" />
<path d="M187.8700 98.6700
L188.0000 98.8000
" />
<path d="M172.5000 104.8000
L173.5500 104.8000
" />
<path d="M173.5500 104.8000
L174.0000 105.2500
" />
<path d="M176.2000 101.2100
L172.9900 101.2100
" />
<path d="M172.9900 101.2100
L172.5000 101.7000
" />
<path d="M143.0150 89.7650
L141.5000 89.7650
" />
<path d="M166.0000 104.2500
L161.1515 104.2500
" />
<path d="M161.1515 104.2500
L147.1915 118.2100
" />
<path d="M147.1915 118.2100
L141.5000 118.2100
" />
<path d="M165.0000 89.2500
L165.0000 88.7500
" />
<path d="M165.0000 89.7500
L165.0000 89.2500
" />
<path d="M166.0000 90.7500
L165.0000 89.7500
" />
<path d="M160.5000 88.7500
L162.5000 90.7500
" />
<path d="M159.0000 102.2500
L159.5000 102.2500
" />
<path d="M157.0000 100.2500
L159.0000 102.2500
" />
<path d="M155.0000 100.2500
L157.0000 100.2500
" />
<path d="M154.0000 107.3000
L156.9500 107.3000
" />
<path d="M156.9500 107.3000
L160.5000 103.7500
" />
<path d="M154.0000 104.2000
L150.5100 104.2000
" />
<path d="M150.5100 104.2000
L150.5000 104.2100
" />
<path d="M185.5000 111.2500
L185.0000 111.7500
" />
<path d="M185.0000 111.7500
L184.0000 111.7500
" />
<path d="M185.5000 112.7125
L185.5000 111.2500
" />
<path d="M185.5000 111.2500
L185.5000 110.2500
" />
<path d="M188.0750 119.1750
L188.0000 119.2500
" />
<path d="M190.0000 119.1750
L188.0750 119.1750
" />
<path d="M190.0000 121.2500
L188.0000 121.2500
" />
<path d="M154.5000 121.3000
L155.9500 121.3000
" />
<path d="M155.9500 121.3000
L156.0000 121.2500
" />
<path d="M163.0000 116.2500
L164.5000 114.7500
" />
<path d="M156.0500 118.2000
L157.5000 116.7500
" />
<path d="M154.5000 118.2000
L156.0500 118.2000
" />
<path d="M157.5000 116.7500
L158.0000 116.2500
" />
<path d="M158.0000 116.2500
L163.0000 116.2500
" />
<path d="M154.5000 121.3000
L154.5000 121.6250
" />
<path d="M148.0375 121.2875
L148.0000 121.2500
" />
<path d="M149.5000 121.2875
L148.0375 121.2875
" />
<path d="M149.0000 117.2500
L149.5000 117.7500
" />
<path d="M149.5000 117.7500
L149.5000 119.2125
" />
<path d="M155.5000 102.2500
L143.0150 89.7650
" />
<path d="M162.0000 91.7500
L166.5000 96.2500
" />
<path d="M166.5000 96.2500
L168.5000 96.2500
" />
<path d="M168.5000 96.2500
L169.5000 95.2500
" />
<path d="M169.5000 95.2500
L172.0000 95.2500
" />
<path d="M172.0000 95.2500
L173.0000 96.2500
" />
</g> 
</svg>
