<?xml version="1.0" standalone="no"?>
 <!DOCTYPE svg PUBLIC "-//W3C//DTD SVG 1.1//EN" 
 "http://www.w3.org/Graphics/SVG/1.1/DTD/svg11.dtd"> 
<svg
  xmlns:svg="http://www.w3.org/2000/svg"
  xmlns="http://www.w3.org/2000/svg"
  xmlns:xlink="http://www.w3.org/1999/xlink"
  version="1.1"
  width="60.550000mm" height="44.050000mm" viewBox="136.975000 81.475000 60.550000 44.050000">
<title>SVG Image created as TPS_Calibration_Board-B_SilkS.svg date 2025/05/30 06:41:43 </title>
  <desc>Image generated by PCBNEW </desc>
<g style="fill:#000000; fill-opacity:1.0000;stroke:#000000; stroke-opacity:1.0000;
stroke-linecap:round; stroke-linejoin:round;"
 transform="translate(0 0) scale(1 1)">
</g>
<g style="fill:none; 
stroke:#000000; stroke-width:0.1500; stroke-opacity:1; 
stroke-linecap:round; stroke-linejoin:round;">
<g transform="rotate(-90.000000 152.6800 119.7500)">
<text x="152.6800" y="120.2500"
transform="scale(-1 1) translate(-305.360000 0)"
textLength="3.1548" font-size="1.3333" lengthAdjust="spacingAndGlyphs"
text-anchor="middle" opacity="0" stroke-opacity="0">R12</text>
</g>
<g class="stroked-text"><desc>R12</desc>
<path d="M153.1348 119.1071
L152.6586 118.7738
" />
<path d="M153.1348 118.5357
L152.1348 118.5357
" />
<path d="M152.1348 118.5357
L152.1348 118.9167
" />
<path d="M152.1348 118.9167
L152.1824 119.0119
" />
<path d="M152.1824 119.0119
L152.2301 119.0595
" />
<path d="M152.2301 119.0595
L152.3253 119.1071
" />
<path d="M152.3253 119.1071
L152.4682 119.1071
" />
<path d="M152.4682 119.1071
L152.5634 119.0595
" />
<path d="M152.5634 119.0595
L152.6110 119.0119
" />
<path d="M152.6110 119.0119
L152.6586 118.9167
" />
<path d="M152.6586 118.9167
L152.6586 118.5357
" />
<path d="M153.1348 120.0595
L153.1348 119.4881
" />
<path d="M153.1348 119.7738
L152.1348 119.7738
" />
<path d="M152.1348 119.7738
L152.2777 119.6786
" />
<path d="M152.2777 119.6786
L152.3729 119.5833
" />
<path d="M152.3729 119.5833
L152.4205 119.4881
" />
<path d="M152.2301 120.4405
L152.1824 120.4881
" />
<path d="M152.1824 120.4881
L152.1348 120.5833
" />
<path d="M152.1348 120.5833
L152.1348 120.8214
" />
<path d="M152.1348 120.8214
L152.1824 120.9167
" />
<path d="M152.1824 120.9167
L152.2301 120.9643
" />
<path d="M152.2301 120.9643
L152.3253 121.0119
" />
<path d="M152.3253 121.0119
L152.4205 121.0119
" />
<path d="M152.4205 121.0119
L152.5634 120.9643
" />
<path d="M152.5634 120.9643
L153.1348 120.3929
" />
<path d="M153.1348 120.3929
L153.1348 121.0119
" />
</g><text x="183.5000" y="84.9300"
transform="scale(-1 1) translate(-367.000000 0)"
textLength="2.2024" font-size="1.3333" lengthAdjust="spacingAndGlyphs"
text-anchor="middle" opacity="0" stroke-opacity="0">R6</text>
<g class="stroked-text"><desc>R6</desc>
<path d="M183.6667 84.8848
L184.0000 84.4086
" />
<path d="M184.2381 84.8848
L184.2381 83.8848
" />
<path d="M184.2381 83.8848
L183.8571 83.8848
" />
<path d="M183.8571 83.8848
L183.7619 83.9324
" />
<path d="M183.7619 83.9324
L183.7143 83.9801
" />
<path d="M183.7143 83.9801
L183.6667 84.0753
" />
<path d="M183.6667 84.0753
L183.6667 84.2182
" />
<path d="M183.6667 84.2182
L183.7143 84.3134
" />
<path d="M183.7143 84.3134
L183.7619 84.3610
" />
<path d="M183.7619 84.3610
L183.8571 84.4086
" />
<path d="M183.8571 84.4086
L184.2381 84.4086
" />
<path d="M182.8095 83.8848
L183.0000 83.8848
" />
<path d="M183.0000 83.8848
L183.0952 83.9324
" />
<path d="M183.0952 83.9324
L183.1429 83.9801
" />
<path d="M183.1429 83.9801
L183.2381 84.1229
" />
<path d="M183.2381 84.1229
L183.2857 84.3134
" />
<path d="M183.2857 84.3134
L183.2857 84.6943
" />
<path d="M183.2857 84.6943
L183.2381 84.7896
" />
<path d="M183.2381 84.7896
L183.1905 84.8372
" />
<path d="M183.1905 84.8372
L183.0952 84.8848
" />
<path d="M183.0952 84.8848
L182.9048 84.8848
" />
<path d="M182.9048 84.8848
L182.8095 84.8372
" />
<path d="M182.8095 84.8372
L182.7619 84.7896
" />
<path d="M182.7619 84.7896
L182.7143 84.6943
" />
<path d="M182.7143 84.6943
L182.7143 84.4562
" />
<path d="M182.7143 84.4562
L182.7619 84.3610
" />
<path d="M182.7619 84.3610
L182.8095 84.3134
" />
<path d="M182.8095 84.3134
L182.9048 84.2658
" />
<path d="M182.9048 84.2658
L183.0952 84.2658
" />
<path d="M183.0952 84.2658
L183.1905 84.3134
" />
<path d="M183.1905 84.3134
L183.2381 84.3610
" />
<path d="M183.2381 84.3610
L183.2857 84.4562
" />
</g><g transform="rotate(-90.000000 152.1800 105.7500)">
<text x="152.1800" y="106.2500"
transform="scale(-1 1) translate(-304.360000 0)"
textLength="2.2024" font-size="1.3333" lengthAdjust="spacingAndGlyphs"
text-anchor="middle" opacity="0" stroke-opacity="0">R3</text>
</g>
<g class="stroked-text"><desc>R3</desc>
<path d="M152.6348 105.5833
L152.1586 105.2500
" />
<path d="M152.6348 105.0119
L151.6348 105.0119
" />
<path d="M151.6348 105.0119
L151.6348 105.3929
" />
<path d="M151.6348 105.3929
L151.6824 105.4881
" />
<path d="M151.6824 105.4881
L151.7301 105.5357
" />
<path d="M151.7301 105.5357
L151.8253 105.5833
" />
<path d="M151.8253 105.5833
L151.9682 105.5833
" />
<path d="M151.9682 105.5833
L152.0634 105.5357
" />
<path d="M152.0634 105.5357
L152.1110 105.4881
" />
<path d="M152.1110 105.4881
L152.1586 105.3929
" />
<path d="M152.1586 105.3929
L152.1586 105.0119
" />
<path d="M151.6348 105.9167
L151.6348 106.5357
" />
<path d="M151.6348 106.5357
L152.0158 106.2024
" />
<path d="M152.0158 106.2024
L152.0158 106.3452
" />
<path d="M152.0158 106.3452
L152.0634 106.4405
" />
<path d="M152.0634 106.4405
L152.1110 106.4881
" />
<path d="M152.1110 106.4881
L152.2062 106.5357
" />
<path d="M152.2062 106.5357
L152.4443 106.5357
" />
<path d="M152.4443 106.5357
L152.5396 106.4881
" />
<path d="M152.5396 106.4881
L152.5872 106.4405
" />
<path d="M152.5872 106.4405
L152.6348 106.3452
" />
<path d="M152.6348 106.3452
L152.6348 106.0595
" />
<path d="M152.6348 106.0595
L152.5872 105.9643
" />
<path d="M152.5872 105.9643
L152.5396 105.9167
" />
</g><g transform="rotate(-90.000000 170.6800 103.2500)">
<text x="170.6800" y="103.7500"
transform="scale(-1 1) translate(-341.360000 0)"
textLength="2.2024" font-size="1.3333" lengthAdjust="spacingAndGlyphs"
text-anchor="middle" opacity="0" stroke-opacity="0">R2</text>
</g>
<g class="stroked-text"><desc>R2</desc>
<path d="M171.1348 103.0833
L170.6586 102.7500
" />
<path d="M171.1348 102.5119
L170.1348 102.5119
" />
<path d="M170.1348 102.5119
L170.1348 102.8929
" />
<path d="M170.1348 102.8929
L170.1824 102.9881
" />
<path d="M170.1824 102.9881
L170.2301 103.0357
" />
<path d="M170.2301 103.0357
L170.3253 103.0833
" />
<path d="M170.3253 103.0833
L170.4682 103.0833
" />
<path d="M170.4682 103.0833
L170.5634 103.0357
" />
<path d="M170.5634 103.0357
L170.6110 102.9881
" />
<path d="M170.6110 102.9881
L170.6586 102.8929
" />
<path d="M170.6586 102.8929
L170.6586 102.5119
" />
<path d="M170.2301 103.4643
L170.1824 103.5119
" />
<path d="M170.1824 103.5119
L170.1348 103.6071
" />
<path d="M170.1348 103.6071
L170.1348 103.8452
" />
<path d="M170.1348 103.8452
L170.1824 103.9405
" />
<path d="M170.1824 103.9405
L170.2301 103.9881
" />
<path d="M170.2301 103.9881
L170.3253 104.0357
" />
<path d="M170.3253 104.0357
L170.4205 104.0357
" />
<path d="M170.4205 104.0357
L170.5634 103.9881
" />
<path d="M170.5634 103.9881
L171.1348 103.4167
" />
<path d="M171.1348 103.4167
L171.1348 104.0357
" />
</g><g transform="rotate(-90.000000 185.6800 97.2500)">
<text x="185.6800" y="97.7500"
transform="scale(-1 1) translate(-371.360000 0)"
textLength="2.2024" font-size="1.3333" lengthAdjust="spacingAndGlyphs"
text-anchor="middle" opacity="0" stroke-opacity="0">R1</text>
</g>
<g class="stroked-text"><desc>R1</desc>
<path d="M186.1348 97.0833
L185.6586 96.7500
" />
<path d="M186.1348 96.5119
L185.1348 96.5119
" />
<path d="M185.1348 96.5119
L185.1348 96.8929
" />
<path d="M185.1348 96.8929
L185.1824 96.9881
" />
<path d="M185.1824 96.9881
L185.2301 97.0357
" />
<path d="M185.2301 97.0357
L185.3253 97.0833
" />
<path d="M185.3253 97.0833
L185.4682 97.0833
" />
<path d="M185.4682 97.0833
L185.5634 97.0357
" />
<path d="M185.5634 97.0357
L185.6110 96.9881
" />
<path d="M185.6110 96.9881
L185.6586 96.8929
" />
<path d="M185.6586 96.8929
L185.6586 96.5119
" />
<path d="M186.1348 98.0357
L186.1348 97.4643
" />
<path d="M186.1348 97.7500
L185.1348 97.7500
" />
<path d="M185.1348 97.7500
L185.2777 97.6548
" />
<path d="M185.2777 97.6548
L185.3729 97.5595
" />
<path d="M185.3729 97.5595
L185.4205 97.4643
" />
</g><g transform="rotate(-90.000000 188.3200 120.2125)">
<text x="188.3200" y="120.7125"
transform="scale(-1 1) translate(-376.640000 0)"
textLength="3.1548" font-size="1.3333" lengthAdjust="spacingAndGlyphs"
text-anchor="middle" opacity="0" stroke-opacity="0">C16</text>
</g>
<g class="stroked-text"><desc>C16</desc>
<path d="M188.6796 119.5696
L188.7272 119.5220
" />
<path d="M188.7272 119.5220
L188.7748 119.3792
" />
<path d="M188.7748 119.3792
L188.7748 119.2839
" />
<path d="M188.7748 119.2839
L188.7272 119.1411
" />
<path d="M188.7272 119.1411
L188.6320 119.0458
" />
<path d="M188.6320 119.0458
L188.5367 118.9982
" />
<path d="M188.5367 118.9982
L188.3462 118.9506
" />
<path d="M188.3462 118.9506
L188.2034 118.9506
" />
<path d="M188.2034 118.9506
L188.0129 118.9982
" />
<path d="M188.0129 118.9982
L187.9177 119.0458
" />
<path d="M187.9177 119.0458
L187.8224 119.1411
" />
<path d="M187.8224 119.1411
L187.7748 119.2839
" />
<path d="M187.7748 119.2839
L187.7748 119.3792
" />
<path d="M187.7748 119.3792
L187.8224 119.5220
" />
<path d="M187.8224 119.5220
L187.8701 119.5696
" />
<path d="M188.7748 120.5220
L188.7748 119.9506
" />
<path d="M188.7748 120.2363
L187.7748 120.2363
" />
<path d="M187.7748 120.2363
L187.9177 120.1411
" />
<path d="M187.9177 120.1411
L188.0129 120.0458
" />
<path d="M188.0129 120.0458
L188.0605 119.9506
" />
<path d="M187.7748 121.3792
L187.7748 121.1887
" />
<path d="M187.7748 121.1887
L187.8224 121.0935
" />
<path d="M187.8224 121.0935
L187.8701 121.0458
" />
<path d="M187.8701 121.0458
L188.0129 120.9506
" />
<path d="M188.0129 120.9506
L188.2034 120.9030
" />
<path d="M188.2034 120.9030
L188.5843 120.9030
" />
<path d="M188.5843 120.9030
L188.6796 120.9506
" />
<path d="M188.6796 120.9506
L188.7272 120.9982
" />
<path d="M188.7272 120.9982
L188.7748 121.0935
" />
<path d="M188.7748 121.0935
L188.7748 121.2839
" />
<path d="M188.7748 121.2839
L188.7272 121.3792
" />
<path d="M188.7272 121.3792
L188.6796 121.4268
" />
<path d="M188.6796 121.4268
L188.5843 121.4744
" />
<path d="M188.5843 121.4744
L188.3462 121.4744
" />
<path d="M188.3462 121.4744
L188.2510 121.4268
" />
<path d="M188.2510 121.4268
L188.2034 121.3792
" />
<path d="M188.2034 121.3792
L188.1558 121.2839
" />
<path d="M188.1558 121.2839
L188.1558 121.0935
" />
<path d="M188.1558 121.0935
L188.2034 120.9982
" />
<path d="M188.2034 120.9982
L188.2510 120.9506
" />
<path d="M188.2510 120.9506
L188.3462 120.9030
" />
</g><text x="168.5000" y="88.5700"
transform="scale(-1 1) translate(-337.000000 0)"
textLength="3.1548" font-size="1.3333" lengthAdjust="spacingAndGlyphs"
text-anchor="middle" opacity="0" stroke-opacity="0">C15</text>
<g class="stroked-text"><desc>C15</desc>
<path d="M169.1429 88.4296
L169.1905 88.4772
" />
<path d="M169.1905 88.4772
L169.3333 88.5248
" />
<path d="M169.3333 88.5248
L169.4286 88.5248
" />
<path d="M169.4286 88.5248
L169.5714 88.4772
" />
<path d="M169.5714 88.4772
L169.6667 88.3820
" />
<path d="M169.6667 88.3820
L169.7143 88.2867
" />
<path d="M169.7143 88.2867
L169.7619 88.0962
" />
<path d="M169.7619 88.0962
L169.7619 87.9534
" />
<path d="M169.7619 87.9534
L169.7143 87.7629
" />
<path d="M169.7143 87.7629
L169.6667 87.6677
" />
<path d="M169.6667 87.6677
L169.5714 87.5724
" />
<path d="M169.5714 87.5724
L169.4286 87.5248
" />
<path d="M169.4286 87.5248
L169.3333 87.5248
" />
<path d="M169.3333 87.5248
L169.1905 87.5724
" />
<path d="M169.1905 87.5724
L169.1429 87.6201
" />
<path d="M168.1905 88.5248
L168.7619 88.5248
" />
<path d="M168.4762 88.5248
L168.4762 87.5248
" />
<path d="M168.4762 87.5248
L168.5714 87.6677
" />
<path d="M168.5714 87.6677
L168.6667 87.7629
" />
<path d="M168.6667 87.7629
L168.7619 87.8105
" />
<path d="M167.2857 87.5248
L167.7619 87.5248
" />
<path d="M167.7619 87.5248
L167.8095 88.0010
" />
<path d="M167.8095 88.0010
L167.7619 87.9534
" />
<path d="M167.7619 87.9534
L167.6667 87.9058
" />
<path d="M167.6667 87.9058
L167.4286 87.9058
" />
<path d="M167.4286 87.9058
L167.3333 87.9534
" />
<path d="M167.3333 87.9534
L167.2857 88.0010
" />
<path d="M167.2857 88.0010
L167.2381 88.0962
" />
<path d="M167.2381 88.0962
L167.2381 88.3343
" />
<path d="M167.2381 88.3343
L167.2857 88.4296
" />
<path d="M167.2857 88.4296
L167.3333 88.4772
" />
<path d="M167.3333 88.4772
L167.4286 88.5248
" />
<path d="M167.4286 88.5248
L167.6667 88.5248
" />
<path d="M167.6667 88.5248
L167.7619 88.4772
" />
<path d="M167.7619 88.4772
L167.8095 88.4296
" />
</g><text x="168.5000" y="91.7500"
transform="scale(-1 1) translate(-337.000000 0)"
textLength="3.1548" font-size="1.3333" lengthAdjust="spacingAndGlyphs"
text-anchor="middle" opacity="0" stroke-opacity="0">C14</text>
<g class="stroked-text"><desc>C14</desc>
<path d="M169.1429 91.6096
L169.1905 91.6572
" />
<path d="M169.1905 91.6572
L169.3333 91.7048
" />
<path d="M169.3333 91.7048
L169.4286 91.7048
" />
<path d="M169.4286 91.7048
L169.5714 91.6572
" />
<path d="M169.5714 91.6572
L169.6667 91.5620
" />
<path d="M169.6667 91.5620
L169.7143 91.4667
" />
<path d="M169.7143 91.4667
L169.7619 91.2762
" />
<path d="M169.7619 91.2762
L169.7619 91.1334
" />
<path d="M169.7619 91.1334
L169.7143 90.9429
" />
<path d="M169.7143 90.9429
L169.6667 90.8477
" />
<path d="M169.6667 90.8477
L169.5714 90.7524
" />
<path d="M169.5714 90.7524
L169.4286 90.7048
" />
<path d="M169.4286 90.7048
L169.3333 90.7048
" />
<path d="M169.3333 90.7048
L169.1905 90.7524
" />
<path d="M169.1905 90.7524
L169.1429 90.8001
" />
<path d="M168.1905 91.7048
L168.7619 91.7048
" />
<path d="M168.4762 91.7048
L168.4762 90.7048
" />
<path d="M168.4762 90.7048
L168.5714 90.8477
" />
<path d="M168.5714 90.8477
L168.6667 90.9429
" />
<path d="M168.6667 90.9429
L168.7619 90.9905
" />
<path d="M167.3333 91.0382
L167.3333 91.7048
" />
<path d="M167.5714 90.6572
L167.8095 91.3715
" />
<path d="M167.8095 91.3715
L167.1905 91.3715
" />
</g><text x="177.9625" y="91.0700"
transform="scale(-1 1) translate(-355.925000 0)"
textLength="3.1548" font-size="1.3333" lengthAdjust="spacingAndGlyphs"
text-anchor="middle" opacity="0" stroke-opacity="0">C11</text>
<g class="stroked-text"><desc>C11</desc>
<path d="M178.6054 90.9296
L178.6530 90.9772
" />
<path d="M178.6530 90.9772
L178.7958 91.0248
" />
<path d="M178.7958 91.0248
L178.8911 91.0248
" />
<path d="M178.8911 91.0248
L179.0339 90.9772
" />
<path d="M179.0339 90.9772
L179.1292 90.8820
" />
<path d="M179.1292 90.8820
L179.1768 90.7867
" />
<path d="M179.1768 90.7867
L179.2244 90.5962
" />
<path d="M179.2244 90.5962
L179.2244 90.4534
" />
<path d="M179.2244 90.4534
L179.1768 90.2629
" />
<path d="M179.1768 90.2629
L179.1292 90.1677
" />
<path d="M179.1292 90.1677
L179.0339 90.0724
" />
<path d="M179.0339 90.0724
L178.8911 90.0248
" />
<path d="M178.8911 90.0248
L178.7958 90.0248
" />
<path d="M178.7958 90.0248
L178.6530 90.0724
" />
<path d="M178.6530 90.0724
L178.6054 90.1201
" />
<path d="M177.6530 91.0248
L178.2244 91.0248
" />
<path d="M177.9387 91.0248
L177.9387 90.0248
" />
<path d="M177.9387 90.0248
L178.0339 90.1677
" />
<path d="M178.0339 90.1677
L178.1292 90.2629
" />
<path d="M178.1292 90.2629
L178.2244 90.3105
" />
<path d="M176.7006 91.0248
L177.2720 91.0248
" />
<path d="M176.9863 91.0248
L176.9863 90.0248
" />
<path d="M176.9863 90.0248
L177.0815 90.1677
" />
<path d="M177.0815 90.1677
L177.1768 90.2629
" />
<path d="M177.1768 90.2629
L177.2720 90.3105
" />
</g><text x="177.9625" y="88.0600"
transform="scale(-1 1) translate(-355.925000 0)"
textLength="3.1548" font-size="1.3333" lengthAdjust="spacingAndGlyphs"
text-anchor="middle" opacity="0" stroke-opacity="0">C10</text>
<g class="stroked-text"><desc>C10</desc>
<path d="M178.6054 87.9196
L178.6530 87.9672
" />
<path d="M178.6530 87.9672
L178.7958 88.0148
" />
<path d="M178.7958 88.0148
L178.8911 88.0148
" />
<path d="M178.8911 88.0148
L179.0339 87.9672
" />
<path d="M179.0339 87.9672
L179.1292 87.8720
" />
<path d="M179.1292 87.8720
L179.1768 87.7767
" />
<path d="M179.1768 87.7767
L179.2244 87.5862
" />
<path d="M179.2244 87.5862
L179.2244 87.4434
" />
<path d="M179.2244 87.4434
L179.1768 87.2529
" />
<path d="M179.1768 87.2529
L179.1292 87.1577
" />
<path d="M179.1292 87.1577
L179.0339 87.0624
" />
<path d="M179.0339 87.0624
L178.8911 87.0148
" />
<path d="M178.8911 87.0148
L178.7958 87.0148
" />
<path d="M178.7958 87.0148
L178.6530 87.0624
" />
<path d="M178.6530 87.0624
L178.6054 87.1101
" />
<path d="M177.6530 88.0148
L178.2244 88.0148
" />
<path d="M177.9387 88.0148
L177.9387 87.0148
" />
<path d="M177.9387 87.0148
L178.0339 87.1577
" />
<path d="M178.0339 87.1577
L178.1292 87.2529
" />
<path d="M178.1292 87.2529
L178.2244 87.3005
" />
<path d="M177.0339 87.0148
L176.9387 87.0148
" />
<path d="M176.9387 87.0148
L176.8435 87.0624
" />
<path d="M176.8435 87.0624
L176.7958 87.1101
" />
<path d="M176.7958 87.1101
L176.7482 87.2053
" />
<path d="M176.7482 87.2053
L176.7006 87.3958
" />
<path d="M176.7006 87.3958
L176.7006 87.6339
" />
<path d="M176.7006 87.6339
L176.7482 87.8243
" />
<path d="M176.7482 87.8243
L176.7958 87.9196
" />
<path d="M176.7958 87.9196
L176.8435 87.9672
" />
<path d="M176.8435 87.9672
L176.9387 88.0148
" />
<path d="M176.9387 88.0148
L177.0339 88.0148
" />
<path d="M177.0339 88.0148
L177.1292 87.9672
" />
<path d="M177.1292 87.9672
L177.1768 87.9196
" />
<path d="M177.1768 87.9196
L177.2244 87.8243
" />
<path d="M177.2244 87.8243
L177.2720 87.6339
" />
<path d="M177.2720 87.6339
L177.2720 87.3958
" />
<path d="M177.2720 87.3958
L177.2244 87.2053
" />
<path d="M177.2244 87.2053
L177.1768 87.1101
" />
<path d="M177.1768 87.1101
L177.1292 87.0624
" />
<path d="M177.1292 87.0624
L177.0339 87.0148
" />
</g><text x="177.9625" y="85.0500"
transform="scale(-1 1) translate(-355.925000 0)"
textLength="2.2024" font-size="1.3333" lengthAdjust="spacingAndGlyphs"
text-anchor="middle" opacity="0" stroke-opacity="0">C9</text>
<g class="stroked-text"><desc>C9</desc>
<path d="M178.1292 84.9096
L178.1768 84.9572
" />
<path d="M178.1768 84.9572
L178.3196 85.0048
" />
<path d="M178.3196 85.0048
L178.4149 85.0048
" />
<path d="M178.4149 85.0048
L178.5577 84.9572
" />
<path d="M178.5577 84.9572
L178.6530 84.8620
" />
<path d="M178.6530 84.8620
L178.7006 84.7667
" />
<path d="M178.7006 84.7667
L178.7482 84.5762
" />
<path d="M178.7482 84.5762
L178.7482 84.4334
" />
<path d="M178.7482 84.4334
L178.7006 84.2429
" />
<path d="M178.7006 84.2429
L178.6530 84.1477
" />
<path d="M178.6530 84.1477
L178.5577 84.0524
" />
<path d="M178.5577 84.0524
L178.4149 84.0048
" />
<path d="M178.4149 84.0048
L178.3196 84.0048
" />
<path d="M178.3196 84.0048
L178.1768 84.0524
" />
<path d="M178.1768 84.0524
L178.1292 84.1001
" />
<path d="M177.6530 85.0048
L177.4625 85.0048
" />
<path d="M177.4625 85.0048
L177.3673 84.9572
" />
<path d="M177.3673 84.9572
L177.3196 84.9096
" />
<path d="M177.3196 84.9096
L177.2244 84.7667
" />
<path d="M177.2244 84.7667
L177.1768 84.5762
" />
<path d="M177.1768 84.5762
L177.1768 84.1953
" />
<path d="M177.1768 84.1953
L177.2244 84.1001
" />
<path d="M177.2244 84.1001
L177.2720 84.0524
" />
<path d="M177.2720 84.0524
L177.3673 84.0048
" />
<path d="M177.3673 84.0048
L177.5577 84.0048
" />
<path d="M177.5577 84.0048
L177.6530 84.0524
" />
<path d="M177.6530 84.0524
L177.7006 84.1001
" />
<path d="M177.7006 84.1001
L177.7482 84.1953
" />
<path d="M177.7482 84.1953
L177.7482 84.4334
" />
<path d="M177.7482 84.4334
L177.7006 84.5286
" />
<path d="M177.7006 84.5286
L177.6530 84.5762
" />
<path d="M177.6530 84.5762
L177.5577 84.6239
" />
<path d="M177.5577 84.6239
L177.3673 84.6239
" />
<path d="M177.3673 84.6239
L177.2720 84.5762
" />
<path d="M177.2720 84.5762
L177.2244 84.5286
" />
<path d="M177.2244 84.5286
L177.1768 84.4334
" />
</g><g transform="rotate(-90.000000 183.8200 109.2125)">
<text x="183.8200" y="109.7125"
transform="scale(-1 1) translate(-367.640000 0)"
textLength="2.2024" font-size="1.3333" lengthAdjust="spacingAndGlyphs"
text-anchor="middle" opacity="0" stroke-opacity="0">C3</text>
</g>
<g class="stroked-text"><desc>C3</desc>
<path d="M184.1796 109.0458
L184.2272 108.9982
" />
<path d="M184.2272 108.9982
L184.2748 108.8554
" />
<path d="M184.2748 108.8554
L184.2748 108.7601
" />
<path d="M184.2748 108.7601
L184.2272 108.6173
" />
<path d="M184.2272 108.6173
L184.1320 108.5220
" />
<path d="M184.1320 108.5220
L184.0367 108.4744
" />
<path d="M184.0367 108.4744
L183.8462 108.4268
" />
<path d="M183.8462 108.4268
L183.7034 108.4268
" />
<path d="M183.7034 108.4268
L183.5129 108.4744
" />
<path d="M183.5129 108.4744
L183.4177 108.5220
" />
<path d="M183.4177 108.5220
L183.3224 108.6173
" />
<path d="M183.3224 108.6173
L183.2748 108.7601
" />
<path d="M183.2748 108.7601
L183.2748 108.8554
" />
<path d="M183.2748 108.8554
L183.3224 108.9982
" />
<path d="M183.3224 108.9982
L183.3701 109.0458
" />
<path d="M183.2748 109.3792
L183.2748 109.9982
" />
<path d="M183.2748 109.9982
L183.6558 109.6649
" />
<path d="M183.6558 109.6649
L183.6558 109.8077
" />
<path d="M183.6558 109.8077
L183.7034 109.9030
" />
<path d="M183.7034 109.9030
L183.7510 109.9506
" />
<path d="M183.7510 109.9506
L183.8462 109.9982
" />
<path d="M183.8462 109.9982
L184.0843 109.9982
" />
<path d="M184.0843 109.9982
L184.1796 109.9506
" />
<path d="M184.1796 109.9506
L184.2272 109.9030
" />
<path d="M184.2272 109.9030
L184.2748 109.8077
" />
<path d="M184.2748 109.8077
L184.2748 109.5220
" />
<path d="M184.2748 109.5220
L184.2272 109.4268
" />
<path d="M184.2272 109.4268
L184.1796 109.3792
" />
</g><text x="150.0375" y="102.4300"
transform="scale(-1 1) translate(-300.075000 0)"
textLength="2.2024" font-size="1.3333" lengthAdjust="spacingAndGlyphs"
text-anchor="middle" opacity="0" stroke-opacity="0">C2</text>
<g class="stroked-text"><desc>C2</desc>
<path d="M150.2042 102.2896
L150.2518 102.3372
" />
<path d="M150.2518 102.3372
L150.3946 102.3848
" />
<path d="M150.3946 102.3848
L150.4899 102.3848
" />
<path d="M150.4899 102.3848
L150.6327 102.3372
" />
<path d="M150.6327 102.3372
L150.7280 102.2420
" />
<path d="M150.7280 102.2420
L150.7756 102.1467
" />
<path d="M150.7756 102.1467
L150.8232 101.9562
" />
<path d="M150.8232 101.9562
L150.8232 101.8134
" />
<path d="M150.8232 101.8134
L150.7756 101.6229
" />
<path d="M150.7756 101.6229
L150.7280 101.5277
" />
<path d="M150.7280 101.5277
L150.6327 101.4324
" />
<path d="M150.6327 101.4324
L150.4899 101.3848
" />
<path d="M150.4899 101.3848
L150.3946 101.3848
" />
<path d="M150.3946 101.3848
L150.2518 101.4324
" />
<path d="M150.2518 101.4324
L150.2042 101.4801
" />
<path d="M149.8232 101.4801
L149.7756 101.4324
" />
<path d="M149.7756 101.4324
L149.6804 101.3848
" />
<path d="M149.6804 101.3848
L149.4423 101.3848
" />
<path d="M149.4423 101.3848
L149.3470 101.4324
" />
<path d="M149.3470 101.4324
L149.2994 101.4801
" />
<path d="M149.2994 101.4801
L149.2518 101.5753
" />
<path d="M149.2518 101.5753
L149.2518 101.6705
" />
<path d="M149.2518 101.6705
L149.2994 101.8134
" />
<path d="M149.2994 101.8134
L149.8708 102.3848
" />
<path d="M149.8708 102.3848
L149.2518 102.3848
" />
</g><g transform="rotate(-90.000000 187.1800 113.7500)">
<text x="187.1800" y="114.2500"
transform="scale(-1 1) translate(-374.360000 0)"
textLength="2.2024" font-size="1.3333" lengthAdjust="spacingAndGlyphs"
text-anchor="middle" opacity="0" stroke-opacity="0">C1</text>
</g>
<g class="stroked-text"><desc>C1</desc>
<path d="M187.5396 113.5833
L187.5872 113.5357
" />
<path d="M187.5872 113.5357
L187.6348 113.3929
" />
<path d="M187.6348 113.3929
L187.6348 113.2976
" />
<path d="M187.6348 113.2976
L187.5872 113.1548
" />
<path d="M187.5872 113.1548
L187.4920 113.0595
" />
<path d="M187.4920 113.0595
L187.3967 113.0119
" />
<path d="M187.3967 113.0119
L187.2062 112.9643
" />
<path d="M187.2062 112.9643
L187.0634 112.9643
" />
<path d="M187.0634 112.9643
L186.8729 113.0119
" />
<path d="M186.8729 113.0119
L186.7777 113.0595
" />
<path d="M186.7777 113.0595
L186.6824 113.1548
" />
<path d="M186.6824 113.1548
L186.6348 113.2976
" />
<path d="M186.6348 113.2976
L186.6348 113.3929
" />
<path d="M186.6348 113.3929
L186.6824 113.5357
" />
<path d="M186.6824 113.5357
L186.7301 113.5833
" />
<path d="M187.6348 114.5357
L187.6348 113.9643
" />
<path d="M187.6348 114.2500
L186.6348 114.2500
" />
<path d="M186.6348 114.2500
L186.7777 114.1548
" />
<path d="M186.7777 114.1548
L186.8729 114.0595
" />
<path d="M186.8729 114.0595
L186.9205 113.9643
" />
</g><g transform="rotate(-90.000000 147.8200 120.2500)">
<text x="147.8200" y="120.7500"
transform="scale(-1 1) translate(-295.640000 0)"
textLength="2.2024" font-size="1.3333" lengthAdjust="spacingAndGlyphs"
text-anchor="middle" opacity="0" stroke-opacity="0">C8</text>
</g>
<g class="stroked-text"><desc>C8</desc>
<path d="M148.1796 120.0833
L148.2272 120.0357
" />
<path d="M148.2272 120.0357
L148.2748 119.8929
" />
<path d="M148.2748 119.8929
L148.2748 119.7976
" />
<path d="M148.2748 119.7976
L148.2272 119.6548
" />
<path d="M148.2272 119.6548
L148.1320 119.5595
" />
<path d="M148.1320 119.5595
L148.0367 119.5119
" />
<path d="M148.0367 119.5119
L147.8462 119.4643
" />
<path d="M147.8462 119.4643
L147.7034 119.4643
" />
<path d="M147.7034 119.4643
L147.5129 119.5119
" />
<path d="M147.5129 119.5119
L147.4177 119.5595
" />
<path d="M147.4177 119.5595
L147.3224 119.6548
" />
<path d="M147.3224 119.6548
L147.2748 119.7976
" />
<path d="M147.2748 119.7976
L147.2748 119.8929
" />
<path d="M147.2748 119.8929
L147.3224 120.0357
" />
<path d="M147.3224 120.0357
L147.3701 120.0833
" />
<path d="M147.7034 120.6548
L147.6558 120.5595
" />
<path d="M147.6558 120.5595
L147.6082 120.5119
" />
<path d="M147.6082 120.5119
L147.5129 120.4643
" />
<path d="M147.5129 120.4643
L147.4653 120.4643
" />
<path d="M147.4653 120.4643
L147.3701 120.5119
" />
<path d="M147.3701 120.5119
L147.3224 120.5595
" />
<path d="M147.3224 120.5595
L147.2748 120.6548
" />
<path d="M147.2748 120.6548
L147.2748 120.8452
" />
<path d="M147.2748 120.8452
L147.3224 120.9405
" />
<path d="M147.3224 120.9405
L147.3701 120.9881
" />
<path d="M147.3701 120.9881
L147.4653 121.0357
" />
<path d="M147.4653 121.0357
L147.5129 121.0357
" />
<path d="M147.5129 121.0357
L147.6082 120.9881
" />
<path d="M147.6082 120.9881
L147.6558 120.9405
" />
<path d="M147.6558 120.9405
L147.7034 120.8452
" />
<path d="M147.7034 120.8452
L147.7034 120.6548
" />
<path d="M147.7034 120.6548
L147.7510 120.5595
" />
<path d="M147.7510 120.5595
L147.7986 120.5119
" />
<path d="M147.7986 120.5119
L147.8939 120.4643
" />
<path d="M147.8939 120.4643
L148.0843 120.4643
" />
<path d="M148.0843 120.4643
L148.1796 120.5119
" />
<path d="M148.1796 120.5119
L148.2272 120.5595
" />
<path d="M148.2272 120.5595
L148.2748 120.6548
" />
<path d="M148.2748 120.6548
L148.2748 120.8452
" />
<path d="M148.2748 120.8452
L148.2272 120.9405
" />
<path d="M148.2272 120.9405
L148.1796 120.9881
" />
<path d="M148.1796 120.9881
L148.0843 121.0357
" />
<path d="M148.0843 121.0357
L147.8939 121.0357
" />
<path d="M147.8939 121.0357
L147.7986 120.9881
" />
<path d="M147.7986 120.9881
L147.7510 120.9405
" />
<path d="M147.7510 120.9405
L147.7034 120.8452
" />
</g></g>
<g style="fill:none; 
stroke:#000000; stroke-width:0.1200; stroke-opacity:1; 
stroke-linecap:round; stroke-linejoin:round;">
<path d="M155.4100 120.4771
L155.4100 119.0229
" />
<path d="M153.5900 120.4771
L153.5900 119.0229
" />
<path d="M182.7729 85.3400
L184.2271 85.3400
" />
<path d="M182.7729 87.1600
L184.2271 87.1600
" />
<path d="M153.0900 106.4771
L153.0900 105.0229
" />
<path d="M154.9100 106.4771
L154.9100 105.0229
" />
<path d="M171.5900 103.9771
L171.5900 102.5229
" />
<path d="M173.4100 103.9771
L173.4100 102.5229
" />
<path d="M186.5900 97.9771
L186.5900 96.5229
" />
<path d="M188.4100 97.9771
L188.4100 96.5229
" />
<path d="M190.7350 120.4738
L190.7350 119.9512
" />
<path d="M189.2650 120.4738
L189.2650 119.9512
" />
<path d="M168.2387 89.0150
L168.7613 89.0150
" />
<path d="M168.2387 90.4850
L168.7613 90.4850
" />
<path d="M168.2387 92.5150
L168.7613 92.5150
" />
<path d="M168.2387 93.9850
L168.7613 93.9850
" />
<path d="M177.7012 92.9850
L178.2238 92.9850
" />
<path d="M177.7012 91.5150
L178.2238 91.5150
" />
<path d="M177.7012 88.5050
L178.2238 88.5050
" />
<path d="M177.7012 89.9750
L178.2238 89.9750
" />
<path d="M177.7012 85.4950
L178.2238 85.4950
" />
<path d="M177.7012 86.9650
L178.2238 86.9650
" />
<path d="M184.7650 109.4738
L184.7650 108.9512
" />
<path d="M186.2350 109.4738
L186.2350 108.9512
" />
<path d="M150.2988 99.5150
L149.7762 99.5150
" />
<path d="M150.2988 100.9850
L149.7762 100.9850
" />
<path d="M186.2350 113.4887
L186.2350 114.0113
" />
<path d="M184.7650 113.4887
L184.7650 114.0113
" />
<path d="M150.2350 120.5113
L150.2350 119.9887
" />
<path d="M148.7650 120.5113
L148.7650 119.9887
" />
</g> 
</svg>
