<?xml version="1.0" standalone="no"?>
 <!DOCTYPE svg PUBLIC "-//W3C//DTD SVG 1.1//EN" 
 "http://www.w3.org/Graphics/SVG/1.1/DTD/svg11.dtd"> 
<svg
  xmlns:svg="http://www.w3.org/2000/svg"
  xmlns="http://www.w3.org/2000/svg"
  xmlns:xlink="http://www.w3.org/1999/xlink"
  version="1.1"
  width="60.550000mm" height="44.050000mm" viewBox="136.975000 81.475000 60.550000 44.050000">
<title>SVG Image created as TPS_Calibration_Board-F_Mask.svg date 2025/05/30 06:41:43 </title>
  <desc>Image generated by PCBNEW </desc>
<g style="fill:#000000; fill-opacity:1.0000;stroke:#000000; stroke-opacity:1.0000;
stroke-linecap:round; stroke-linejoin:round;"
 transform="translate(0 0) scale(1 1)">
</g>
<g style="fill:#000000; fill-opacity:1.0000; stroke:none;">
<circle cx="192.0000" cy="108.8000" r="0.7500" /> 
</g>
<g style="fill:#000000; fill-opacity:1.0000; stroke:none;">
<circle cx="192.0000" cy="113.6800" r="0.7500" /> 
<path style="fill:#000000; fill-opacity:1.0000; stroke:none;fill-rule:evenodd;"
d="M 175.6500,87.7250
175.6557,87.6963
175.6720,87.6720
175.6963,87.6557
175.7250,87.6500
176.4250,87.6500
176.4537,87.6557
176.4780,87.6720
176.4943,87.6963
176.5000,87.7250
176.5000,87.8750
176.4943,87.9037
176.4780,87.9280
176.4537,87.9443
176.4250,87.9500
175.7250,87.9500
175.6963,87.9443
175.6720,87.9280
175.6557,87.9037
175.6500,87.8750
Z" /> 
<path style="fill:#000000; fill-opacity:1.0000; stroke:none;fill-rule:evenodd;"
d="M 175.6500,88.3750
175.6557,88.3463
175.6720,88.3220
175.6963,88.3057
175.7250,88.3000
176.4250,88.3000
176.4537,88.3057
176.4780,88.3220
176.4943,88.3463
176.5000,88.3750
176.5000,88.5250
176.4943,88.5537
176.4780,88.5780
176.4537,88.5943
176.4250,88.6000
175.7250,88.6000
175.6963,88.5943
175.6720,88.5780
175.6557,88.5537
175.6500,88.5250
Z" /> 
<path style="fill:#000000; fill-opacity:1.0000; stroke:none;fill-rule:evenodd;"
d="M 175.6500,89.0250
175.6557,88.9963
175.6720,88.9720
175.6963,88.9557
175.7250,88.9500
176.4250,88.9500
176.4537,88.9557
176.4780,88.9720
176.4943,88.9963
176.5000,89.0250
176.5000,89.1750
176.4943,89.2037
176.4780,89.2280
176.4537,89.2443
176.4250,89.2500
175.7250,89.2500
175.6963,89.2443
175.6720,89.2280
175.6557,89.2037
175.6500,89.1750
Z" /> 
<path style="fill:#000000; fill-opacity:1.0000; stroke:none;fill-rule:evenodd;"
d="M 175.6500,89.6750
175.6557,89.6463
175.6720,89.6220
175.6963,89.6057
175.7250,89.6000
176.4250,89.6000
176.4537,89.6057
176.4780,89.6220
176.4943,89.6463
176.5000,89.6750
176.5000,89.8250
176.4943,89.8537
176.4780,89.8780
176.4537,89.8943
176.4250,89.9000
175.7250,89.9000
175.6963,89.8943
175.6720,89.8780
175.6557,89.8537
175.6500,89.8250
Z" /> 
<path style="fill:#000000; fill-opacity:1.0000; stroke:none;fill-rule:evenodd;"
d="M 176.9000,90.3750
176.9057,90.3463
176.9220,90.3220
176.9463,90.3057
176.9750,90.3000
177.1250,90.3000
177.1537,90.3057
177.1780,90.3220
177.1943,90.3463
177.2000,90.3750
177.2000,91.0750
177.1943,91.1037
177.1780,91.1280
177.1537,91.1443
177.1250,91.1500
176.9750,91.1500
176.9463,91.1443
176.9220,91.1280
176.9057,91.1037
176.9000,91.0750
Z" /> 
<path style="fill:#000000; fill-opacity:1.0000; stroke:none;fill-rule:evenodd;"
d="M 177.5500,90.3750
177.5557,90.3463
177.5720,90.3220
177.5963,90.3057
177.6250,90.3000
177.7750,90.3000
177.8037,90.3057
177.8280,90.3220
177.8443,90.3463
177.8500,90.3750
177.8500,91.0750
177.8443,91.1037
177.8280,91.1280
177.8037,91.1443
177.7750,91.1500
177.6250,91.1500
177.5963,91.1443
177.5720,91.1280
177.5557,91.1037
177.5500,91.0750
Z" /> 
<path style="fill:#000000; fill-opacity:1.0000; stroke:none;fill-rule:evenodd;"
d="M 178.2000,90.3750
178.2057,90.3463
178.2220,90.3220
178.2463,90.3057
178.2750,90.3000
178.4250,90.3000
178.4537,90.3057
178.4780,90.3220
178.4943,90.3463
178.5000,90.3750
178.5000,91.0750
178.4943,91.1037
178.4780,91.1280
178.4537,91.1443
178.4250,91.1500
178.2750,91.1500
178.2463,91.1443
178.2220,91.1280
178.2057,91.1037
178.2000,91.0750
Z" /> 
<path style="fill:#000000; fill-opacity:1.0000; stroke:none;fill-rule:evenodd;"
d="M 178.8500,90.3750
178.8557,90.3463
178.8720,90.3220
178.8963,90.3057
178.9250,90.3000
179.0750,90.3000
179.1037,90.3057
179.1280,90.3220
179.1443,90.3463
179.1500,90.3750
179.1500,91.0750
179.1443,91.1037
179.1280,91.1280
179.1037,91.1443
179.0750,91.1500
178.9250,91.1500
178.8963,91.1443
178.8720,91.1280
178.8557,91.1037
178.8500,91.0750
Z" /> 
<path style="fill:#000000; fill-opacity:1.0000; stroke:none;fill-rule:evenodd;"
d="M 179.5500,89.6750
179.5557,89.6463
179.5720,89.6220
179.5963,89.6057
179.6250,89.6000
180.3250,89.6000
180.3537,89.6057
180.3780,89.6220
180.3943,89.6463
180.4000,89.6750
180.4000,89.8250
180.3943,89.8537
180.3780,89.8780
180.3537,89.8943
180.3250,89.9000
179.6250,89.9000
179.5963,89.8943
179.5720,89.8780
179.5557,89.8537
179.5500,89.8250
Z" /> 
<path style="fill:#000000; fill-opacity:1.0000; stroke:none;fill-rule:evenodd;"
d="M 179.5500,89.0250
179.5557,88.9963
179.5720,88.9720
179.5963,88.9557
179.6250,88.9500
180.3250,88.9500
180.3537,88.9557
180.3780,88.9720
180.3943,88.9963
180.4000,89.0250
180.4000,89.1750
180.3943,89.2037
180.3780,89.2280
180.3537,89.2443
180.3250,89.2500
179.6250,89.2500
179.5963,89.2443
179.5720,89.2280
179.5557,89.2037
179.5500,89.1750
Z" /> 
<path style="fill:#000000; fill-opacity:1.0000; stroke:none;fill-rule:evenodd;"
d="M 179.5500,88.3750
179.5557,88.3463
179.5720,88.3220
179.5963,88.3057
179.6250,88.3000
180.3250,88.3000
180.3537,88.3057
180.3780,88.3220
180.3943,88.3463
180.4000,88.3750
180.4000,88.5250
180.3943,88.5537
180.3780,88.5780
180.3537,88.5943
180.3250,88.6000
179.6250,88.6000
179.5963,88.5943
179.5720,88.5780
179.5557,88.5537
179.5500,88.5250
Z" /> 
<path style="fill:#000000; fill-opacity:1.0000; stroke:none;fill-rule:evenodd;"
d="M 179.5500,87.7250
179.5557,87.6963
179.5720,87.6720
179.5963,87.6557
179.6250,87.6500
180.3250,87.6500
180.3537,87.6557
180.3780,87.6720
180.3943,87.6963
180.4000,87.7250
180.4000,87.8750
180.3943,87.9037
180.3780,87.9280
180.3537,87.9443
180.3250,87.9500
179.6250,87.9500
179.5963,87.9443
179.5720,87.9280
179.5557,87.9037
179.5500,87.8750
Z" /> 
<path style="fill:#000000; fill-opacity:1.0000; stroke:none;fill-rule:evenodd;"
d="M 178.8500,86.4750
178.8557,86.4463
178.8720,86.4220
178.8963,86.4057
178.9250,86.4000
179.0750,86.4000
179.1037,86.4057
179.1280,86.4220
179.1443,86.4463
179.1500,86.4750
179.1500,87.1750
179.1443,87.2037
179.1280,87.2280
179.1037,87.2443
179.0750,87.2500
178.9250,87.2500
178.8963,87.2443
178.8720,87.2280
178.8557,87.2037
178.8500,87.1750
Z" /> 
<path style="fill:#000000; fill-opacity:1.0000; stroke:none;fill-rule:evenodd;"
d="M 178.2000,86.4750
178.2057,86.4463
178.2220,86.4220
178.2463,86.4057
178.2750,86.4000
178.4250,86.4000
178.4537,86.4057
178.4780,86.4220
178.4943,86.4463
178.5000,86.4750
178.5000,87.1750
178.4943,87.2037
178.4780,87.2280
178.4537,87.2443
178.4250,87.2500
178.2750,87.2500
178.2463,87.2443
178.2220,87.2280
178.2057,87.2037
178.2000,87.1750
Z" /> 
<path style="fill:#000000; fill-opacity:1.0000; stroke:none;fill-rule:evenodd;"
d="M 177.5500,86.4750
177.5557,86.4463
177.5720,86.4220
177.5963,86.4057
177.6250,86.4000
177.7750,86.4000
177.8037,86.4057
177.8280,86.4220
177.8443,86.4463
177.8500,86.4750
177.8500,87.1750
177.8443,87.2037
177.8280,87.2280
177.8037,87.2443
177.7750,87.2500
177.6250,87.2500
177.5963,87.2443
177.5720,87.2280
177.5557,87.2037
177.5500,87.1750
Z" /> 
<path style="fill:#000000; fill-opacity:1.0000; stroke:none;fill-rule:evenodd;"
d="M 176.9000,86.4750
176.9057,86.4463
176.9220,86.4220
176.9463,86.4057
176.9750,86.4000
177.1250,86.4000
177.1537,86.4057
177.1780,86.4220
177.1943,86.4463
177.2000,86.4750
177.2000,87.1750
177.1943,87.2037
177.1780,87.2280
177.1537,87.2443
177.1250,87.2500
176.9750,87.2500
176.9463,87.2443
176.9220,87.2280
176.9057,87.2037
176.9000,87.1750
Z" /> 
<path style="fill:#000000; fill-opacity:1.0000; stroke:none;fill-rule:evenodd;"
d="M 176.9750,89.8250
176.9750,87.7250
179.0750,87.7250
179.0750,89.8250
Z" /> 
<path style="fill:#000000; fill-opacity:1.0000; stroke:none;fill-rule:evenodd;"
d="M 158.4492,99.6642
158.4221,99.6237
158.4126,99.5758
158.4221,99.5280
158.4492,99.4874
159.3331,98.6036
159.3736,98.5765
159.4215,98.5669
159.4693,98.5765
159.5099,98.6036
159.6866,98.7803
159.7137,98.8209
159.7233,98.8687
159.7137,98.9166
159.6866,98.9571
158.8028,99.8410
158.7622,99.8681
158.7144,99.8776
158.6665,99.8681
158.6260,99.8410
Z" /> 
<path style="fill:#000000; fill-opacity:1.0000; stroke:none;fill-rule:evenodd;"
d="M 159.0149,100.2299
158.9878,100.1893
158.9783,100.1415
158.9878,100.0937
159.0149,100.0531
159.8988,99.1692
159.9393,99.1421
159.9872,99.1326
160.0350,99.1421
160.0756,99.1692
160.2523,99.3460
160.2794,99.3866
160.2889,99.4344
160.2794,99.4822
160.2523,99.5228
159.3685,100.4067
159.3279,100.4338
159.2801,100.4433
159.2322,100.4338
159.1917,100.4067
Z" /> 
<path style="fill:#000000; fill-opacity:1.0000; stroke:none;fill-rule:evenodd;"
d="M 159.5806,100.7956
159.5535,100.7550
159.5440,100.7072
159.5535,100.6594
159.5806,100.6188
160.4645,99.7349
160.5050,99.7078
160.5529,99.6983
160.6007,99.7078
160.6412,99.7349
160.8180,99.9117
160.8451,99.9523
160.8546,100.0001
160.8451,100.0479
160.8180,100.0885
159.9341,100.9724
159.8936,100.9995
159.8457,101.0090
159.7979,100.9995
159.7574,100.9724
Z" /> 
<path style="fill:#000000; fill-opacity:1.0000; stroke:none;fill-rule:evenodd;"
d="M 160.1463,101.3613
160.1192,101.3207
160.1097,101.2729
160.1192,101.2250
160.1463,101.1845
161.0302,100.3006
161.0707,100.2735
161.1185,100.2640
161.1664,100.2735
161.2069,100.3006
161.3837,100.4774
161.4108,100.5179
161.4203,100.5658
161.4108,100.6136
161.3837,100.6542
160.4998,101.5380
160.4593,101.5651
160.4114,101.5747
160.3636,101.5651
160.3230,101.5380
Z" /> 
<path style="fill:#000000; fill-opacity:1.0000; stroke:none;fill-rule:evenodd;"
d="M 160.7120,101.9270
160.6849,101.8864
160.6753,101.8386
160.6849,101.7907
160.7120,101.7502
161.5958,100.8663
161.6364,100.8392
161.6842,100.8297
161.7321,100.8392
161.7726,100.8663
161.9494,101.0431
161.9765,101.0836
161.9860,101.1315
161.9765,101.1793
161.9494,101.2198
161.0655,102.1037
161.0250,102.1308
160.9771,102.1403
160.9293,102.1308
160.8887,102.1037
Z" /> 
<path style="fill:#000000; fill-opacity:1.0000; stroke:none;fill-rule:evenodd;"
d="M 161.2776,102.4926
161.2505,102.4521
161.2410,102.4043
161.2505,102.3564
161.2776,102.3159
162.1615,101.4320
162.2021,101.4049
162.2499,101.3954
162.2977,101.4049
162.3383,101.4320
162.5151,101.6088
162.5422,101.6493
162.5517,101.6971
162.5422,101.7450
162.5151,101.7855
161.6312,102.6694
161.5906,102.6965
161.5428,102.7060
161.4950,102.6965
161.4544,102.6694
Z" /> 
<path style="fill:#000000; fill-opacity:1.0000; stroke:none;fill-rule:evenodd;"
d="M 161.8433,103.0583
161.8162,103.0178
161.8067,102.9699
161.8162,102.9221
161.8433,102.8815
162.7272,101.9977
162.7678,101.9706
162.8156,101.9611
162.8634,101.9706
162.9040,101.9977
163.0808,102.1744
163.1079,102.2150
163.1174,102.2628
163.1079,102.3107
163.0808,102.3512
162.1969,103.2351
162.1563,103.2622
162.1085,103.2717
162.0607,103.2622
162.0201,103.2351
Z" /> 
<path style="fill:#000000; fill-opacity:1.0000; stroke:none;fill-rule:evenodd;"
d="M 162.4090,103.6240
162.3819,103.5835
162.3724,103.5356
162.3819,103.4878
162.4090,103.4472
163.2929,102.5634
163.3334,102.5363
163.3813,102.5267
163.4291,102.5363
163.4697,102.5634
163.6464,102.7401
163.6735,102.7807
163.6831,102.8285
163.6735,102.8764
163.6464,102.9169
162.7626,103.8008
162.7220,103.8279
162.6742,103.8374
162.6263,103.8279
162.5858,103.8008
Z" /> 
<path style="fill:#000000; fill-opacity:1.0000; stroke:none;fill-rule:evenodd;"
d="M 164.3536,102.9169
164.3265,102.8764
164.3169,102.8285
164.3265,102.7807
164.3536,102.7401
164.5303,102.5634
164.5709,102.5363
164.6187,102.5267
164.6666,102.5363
164.7071,102.5634
165.5910,103.4472
165.6181,103.4878
165.6276,103.5356
165.6181,103.5835
165.5910,103.6240
165.4142,103.8008
165.3737,103.8279
165.3258,103.8374
165.2780,103.8279
165.2374,103.8008
Z" /> 
<path style="fill:#000000; fill-opacity:1.0000; stroke:none;fill-rule:evenodd;"
d="M 164.9192,102.3512
164.8921,102.3107
164.8826,102.2628
164.8921,102.2150
164.9192,102.1744
165.0960,101.9977
165.1366,101.9706
165.1844,101.9611
165.2322,101.9706
165.2728,101.9977
166.1567,102.8815
166.1838,102.9221
166.1933,102.9699
166.1838,103.0178
166.1567,103.0583
165.9799,103.2351
165.9393,103.2622
165.8915,103.2717
165.8437,103.2622
165.8031,103.2351
Z" /> 
<path style="fill:#000000; fill-opacity:1.0000; stroke:none;fill-rule:evenodd;"
d="M 165.4849,101.7855
165.4578,101.7450
165.4483,101.6971
165.4578,101.6493
165.4849,101.6088
165.6617,101.4320
165.7023,101.4049
165.7501,101.3954
165.7979,101.4049
165.8385,101.4320
166.7224,102.3159
166.7495,102.3564
166.7590,102.4043
166.7495,102.4521
166.7224,102.4926
166.5456,102.6694
166.5050,102.6965
166.4572,102.7060
166.4094,102.6965
166.3688,102.6694
Z" /> 
<path style="fill:#000000; fill-opacity:1.0000; stroke:none;fill-rule:evenodd;"
d="M 166.0506,101.2198
166.0235,101.1793
166.0140,101.1315
166.0235,101.0836
166.0506,101.0431
166.2274,100.8663
166.2679,100.8392
166.3158,100.8297
166.3636,100.8392
166.4042,100.8663
167.2880,101.7502
167.3151,101.7907
167.3247,101.8386
167.3151,101.8864
167.2880,101.9270
167.1113,102.1037
167.0707,102.1308
167.0229,102.1403
166.9750,102.1308
166.9345,102.1037
Z" /> 
<path style="fill:#000000; fill-opacity:1.0000; stroke:none;fill-rule:evenodd;"
d="M 166.6163,100.6542
166.5892,100.6136
166.5797,100.5658
166.5892,100.5179
166.6163,100.4774
166.7931,100.3006
166.8336,100.2735
166.8815,100.2640
166.9293,100.2735
166.9698,100.3006
167.8537,101.1845
167.8808,101.2250
167.8903,101.2729
167.8808,101.3207
167.8537,101.3613
167.6770,101.5380
167.6364,101.5651
167.5886,101.5747
167.5407,101.5651
167.5002,101.5380
Z" /> 
<path style="fill:#000000; fill-opacity:1.0000; stroke:none;fill-rule:evenodd;"
d="M 167.1820,100.0885
167.1549,100.0479
167.1454,100.0001
167.1549,99.9523
167.1820,99.9117
167.3588,99.7349
167.3993,99.7078
167.4471,99.6983
167.4950,99.7078
167.5355,99.7349
168.4194,100.6188
168.4465,100.6594
168.4560,100.7072
168.4465,100.7550
168.4194,100.7956
168.2426,100.9724
168.2021,100.9995
168.1543,101.0090
168.1064,100.9995
168.0659,100.9724
Z" /> 
<path style="fill:#000000; fill-opacity:1.0000; stroke:none;fill-rule:evenodd;"
d="M 167.7477,99.5228
167.7206,99.4822
167.7111,99.4344
167.7206,99.3866
167.7477,99.3460
167.9244,99.1692
167.9650,99.1421
168.0128,99.1326
168.0607,99.1421
168.1012,99.1692
168.9851,100.0531
169.0122,100.0937
169.0217,100.1415
169.0122,100.1893
168.9851,100.2299
168.8083,100.4067
168.7678,100.4338
168.7199,100.4433
168.6721,100.4338
168.6315,100.4067
Z" /> 
<path style="fill:#000000; fill-opacity:1.0000; stroke:none;fill-rule:evenodd;"
d="M 168.3134,98.9571
168.2863,98.9166
168.2767,98.8687
168.2863,98.8209
168.3134,98.7803
168.4901,98.6036
168.5307,98.5765
168.5785,98.5669
168.6264,98.5765
168.6669,98.6036
169.5508,99.4874
169.5779,99.5280
169.5874,99.5758
169.5779,99.6237
169.5508,99.6642
169.3740,99.8410
169.3335,99.8681
169.2856,99.8776
169.2378,99.8681
169.1972,99.8410
Z" /> 
<path style="fill:#000000; fill-opacity:1.0000; stroke:none;fill-rule:evenodd;"
d="M 168.3134,97.7197
168.2863,97.6791
168.2767,97.6313
168.2863,97.5834
168.3134,97.5429
169.1972,96.6590
169.2378,96.6319
169.2856,96.6224
169.3335,96.6319
169.3740,96.6590
169.5508,96.8358
169.5779,96.8763
169.5874,96.9242
169.5779,96.9720
169.5508,97.0126
168.6669,97.8964
168.6264,97.9235
168.5785,97.9331
168.5307,97.9235
168.4901,97.8964
Z" /> 
<path style="fill:#000000; fill-opacity:1.0000; stroke:none;fill-rule:evenodd;"
d="M 167.7477,97.1540
167.7206,97.1134
167.7111,97.0656
167.7206,97.0178
167.7477,96.9772
168.6315,96.0933
168.6721,96.0662
168.7199,96.0567
168.7678,96.0662
168.8083,96.0933
168.9851,96.2701
169.0122,96.3107
169.0217,96.3585
169.0122,96.4063
168.9851,96.4469
168.1012,97.3308
168.0607,97.3579
168.0128,97.3674
167.9650,97.3579
167.9244,97.3308
Z" /> 
<path style="fill:#000000; fill-opacity:1.0000; stroke:none;fill-rule:evenodd;"
d="M 167.1820,96.5883
167.1549,96.5477
167.1454,96.4999
167.1549,96.4521
167.1820,96.4115
168.0659,95.5276
168.1064,95.5005
168.1543,95.4910
168.2021,95.5005
168.2426,95.5276
168.4194,95.7044
168.4465,95.7450
168.4560,95.7928
168.4465,95.8406
168.4194,95.8812
167.5355,96.7651
167.4950,96.7922
167.4471,96.8017
167.3993,96.7922
167.3588,96.7651
Z" /> 
<path style="fill:#000000; fill-opacity:1.0000; stroke:none;fill-rule:evenodd;"
d="M 166.6163,96.0226
166.5892,95.9821
166.5797,95.9342
166.5892,95.8864
166.6163,95.8458
167.5002,94.9620
167.5407,94.9349
167.5886,94.9253
167.6364,94.9349
167.6770,94.9620
167.8537,95.1387
167.8808,95.1793
167.8903,95.2271
167.8808,95.2750
167.8537,95.3155
166.9698,96.1994
166.9293,96.2265
166.8815,96.2360
166.8336,96.2265
166.7931,96.1994
Z" /> 
<path style="fill:#000000; fill-opacity:1.0000; stroke:none;fill-rule:evenodd;"
d="M 166.0506,95.4569
166.0235,95.4164
166.0140,95.3685
166.0235,95.3207
166.0506,95.2802
166.9345,94.3963
166.9750,94.3692
167.0229,94.3597
167.0707,94.3692
167.1113,94.3963
167.2880,94.5730
167.3151,94.6136
167.3247,94.6614
167.3151,94.7093
167.2880,94.7498
166.4042,95.6337
166.3636,95.6608
166.3158,95.6703
166.2679,95.6608
166.2274,95.6337
Z" /> 
<path style="fill:#000000; fill-opacity:1.0000; stroke:none;fill-rule:evenodd;"
d="M 165.4849,94.8912
165.4578,94.8507
165.4483,94.8029
165.4578,94.7550
165.4849,94.7145
166.3688,93.8306
166.4094,93.8035
166.4572,93.7940
166.5050,93.8035
166.5456,93.8306
166.7224,94.0074
166.7495,94.0479
166.7590,94.0957
166.7495,94.1436
166.7224,94.1841
165.8385,95.0680
165.7979,95.0951
165.7501,95.1046
165.7023,95.0951
165.6617,95.0680
Z" /> 
<path style="fill:#000000; fill-opacity:1.0000; stroke:none;fill-rule:evenodd;"
d="M 164.9192,94.3256
164.8921,94.2850
164.8826,94.2372
164.8921,94.1893
164.9192,94.1488
165.8031,93.2649
165.8437,93.2378
165.8915,93.2283
165.9393,93.2378
165.9799,93.2649
166.1567,93.4417
166.1838,93.4822
166.1933,93.5301
166.1838,93.5779
166.1567,93.6185
165.2728,94.5023
165.2322,94.5294
165.1844,94.5389
165.1366,94.5294
165.0960,94.5023
Z" /> 
<path style="fill:#000000; fill-opacity:1.0000; stroke:none;fill-rule:evenodd;"
d="M 164.3536,93.7599
164.3265,93.7193
164.3169,93.6715
164.3265,93.6236
164.3536,93.5831
165.2374,92.6992
165.2780,92.6721
165.3258,92.6626
165.3737,92.6721
165.4142,92.6992
165.5910,92.8760
165.6181,92.9165
165.6276,92.9644
165.6181,93.0122
165.5910,93.0528
164.7071,93.9366
164.6666,93.9637
164.6187,93.9733
164.5709,93.9637
164.5303,93.9366
Z" /> 
<path style="fill:#000000; fill-opacity:1.0000; stroke:none;fill-rule:evenodd;"
d="M 162.4090,93.0528
162.3819,93.0122
162.3724,92.9644
162.3819,92.9165
162.4090,92.8760
162.5858,92.6992
162.6263,92.6721
162.6742,92.6626
162.7220,92.6721
162.7626,92.6992
163.6464,93.5831
163.6735,93.6236
163.6831,93.6715
163.6735,93.7193
163.6464,93.7599
163.4697,93.9366
163.4291,93.9637
163.3813,93.9733
163.3334,93.9637
163.2929,93.9366
Z" /> 
<path style="fill:#000000; fill-opacity:1.0000; stroke:none;fill-rule:evenodd;"
d="M 161.8433,93.6185
161.8162,93.5779
161.8067,93.5301
161.8162,93.4822
161.8433,93.4417
162.0201,93.2649
162.0607,93.2378
162.1085,93.2283
162.1563,93.2378
162.1969,93.2649
163.0808,94.1488
163.1079,94.1893
163.1174,94.2372
163.1079,94.2850
163.0808,94.3256
162.9040,94.5023
162.8634,94.5294
162.8156,94.5389
162.7678,94.5294
162.7272,94.5023
Z" /> 
<path style="fill:#000000; fill-opacity:1.0000; stroke:none;fill-rule:evenodd;"
d="M 161.2776,94.1841
161.2505,94.1436
161.2410,94.0957
161.2505,94.0479
161.2776,94.0074
161.4544,93.8306
161.4950,93.8035
161.5428,93.7940
161.5906,93.8035
161.6312,93.8306
162.5151,94.7145
162.5422,94.7550
162.5517,94.8029
162.5422,94.8507
162.5151,94.8912
162.3383,95.0680
162.2977,95.0951
162.2499,95.1046
162.2021,95.0951
162.1615,95.0680
Z" /> 
<path style="fill:#000000; fill-opacity:1.0000; stroke:none;fill-rule:evenodd;"
d="M 160.7120,94.7498
160.6849,94.7093
160.6753,94.6614
160.6849,94.6136
160.7120,94.5730
160.8887,94.3963
160.9293,94.3692
160.9771,94.3597
161.0250,94.3692
161.0655,94.3963
161.9494,95.2802
161.9765,95.3207
161.9860,95.3685
161.9765,95.4164
161.9494,95.4569
161.7726,95.6337
161.7321,95.6608
161.6842,95.6703
161.6364,95.6608
161.5958,95.6337
Z" /> 
<path style="fill:#000000; fill-opacity:1.0000; stroke:none;fill-rule:evenodd;"
d="M 160.1463,95.3155
160.1192,95.2750
160.1097,95.2271
160.1192,95.1793
160.1463,95.1387
160.3230,94.9620
160.3636,94.9349
160.4114,94.9253
160.4593,94.9349
160.4998,94.9620
161.3837,95.8458
161.4108,95.8864
161.4203,95.9342
161.4108,95.9821
161.3837,96.0226
161.2069,96.1994
161.1664,96.2265
161.1185,96.2360
161.0707,96.2265
161.0302,96.1994
Z" /> 
<path style="fill:#000000; fill-opacity:1.0000; stroke:none;fill-rule:evenodd;"
d="M 159.5806,95.8812
159.5535,95.8406
159.5440,95.7928
159.5535,95.7450
159.5806,95.7044
159.7574,95.5276
159.7979,95.5005
159.8457,95.4910
159.8936,95.5005
159.9341,95.5276
160.8180,96.4115
160.8451,96.4521
160.8546,96.4999
160.8451,96.5477
160.8180,96.5883
160.6412,96.7651
160.6007,96.7922
160.5529,96.8017
160.5050,96.7922
160.4645,96.7651
Z" /> 
<path style="fill:#000000; fill-opacity:1.0000; stroke:none;fill-rule:evenodd;"
d="M 159.0149,96.4469
158.9878,96.4063
158.9783,96.3585
158.9878,96.3107
159.0149,96.2701
159.1917,96.0933
159.2322,96.0662
159.2801,96.0567
159.3279,96.0662
159.3685,96.0933
160.2523,96.9772
160.2794,97.0178
160.2889,97.0656
160.2794,97.1134
160.2523,97.1540
160.0756,97.3308
160.0350,97.3579
159.9872,97.3674
159.9393,97.3579
159.8988,97.3308
Z" /> 
<path style="fill:#000000; fill-opacity:1.0000; stroke:none;fill-rule:evenodd;"
d="M 158.4492,97.0126
158.4221,96.9720
158.4126,96.9242
158.4221,96.8763
158.4492,96.8358
158.6260,96.6590
158.6665,96.6319
158.7144,96.6224
158.7622,96.6319
158.8028,96.6590
159.6866,97.5429
159.7137,97.5834
159.7233,97.6313
159.7137,97.6791
159.6866,97.7197
159.5099,97.8964
159.4693,97.9235
159.4215,97.9331
159.3736,97.9235
159.3331,97.8964
Z" /> 
</g>
<g style="fill:#000000; fill-opacity:1.0000; stroke:none;">
<circle cx="183.8200" cy="96.1300" r="0.8000" /> 
<circle cx="183.8200" cy="98.6700" r="0.8000" /> 
<circle cx="183.8200" cy="101.2100" r="0.8000" /> 
<circle cx="183.8200" cy="103.7500" r="0.8000" /> 
<circle cx="176.2000" cy="103.7500" r="0.8000" /> 
<circle cx="176.2000" cy="101.2100" r="0.8000" /> 
<circle cx="176.2000" cy="98.6700" r="0.8000" /> 
<path style="fill:#000000; fill-opacity:1.0000; stroke:none;fill-rule:evenodd;"
d="M 175.4000,96.9300
175.4000,95.3300
177.0000,95.3300
177.0000,96.9300
Z" /> 
<path style="fill:#000000; fill-opacity:1.0000; stroke:none;fill-rule:evenodd;"
d="M 154.2500,91.6000
154.2500,92.9000
152.7000,92.9000
152.7000,91.6000
Z" /> 
<path style="fill:#000000; fill-opacity:1.0000; stroke:none;fill-rule:evenodd;"
d="M 146.3000,91.6000
146.3000,92.9000
144.7500,92.9000
144.7500,91.6000
Z" /> 
<path style="fill:#000000; fill-opacity:1.0000; stroke:none;fill-rule:evenodd;"
d="M 154.2500,87.1000
154.2500,88.4000
152.7000,88.4000
152.7000,87.1000
Z" /> 
<path style="fill:#000000; fill-opacity:1.0000; stroke:none;fill-rule:evenodd;"
d="M 146.3000,87.1000
146.3000,88.4000
144.7500,88.4000
144.7500,87.1000
Z" /> 
<path style="fill:#000000; fill-opacity:1.0000; stroke:none;fill-rule:evenodd;"
d="M 168.8500,114.1250
168.8690,114.0293
168.9232,113.9482
169.0043,113.8940
169.1000,113.8750
169.9000,113.8750
169.9957,113.8940
170.0768,113.9482
170.1310,114.0293
170.1500,114.1250
170.1500,115.3750
170.1310,115.4707
170.0768,115.5518
169.9957,115.6060
169.9000,115.6250
169.1000,115.6250
169.0043,115.6060
168.9232,115.5518
168.8690,115.4707
168.8500,115.3750
Z" /> 
<path style="fill:#000000; fill-opacity:1.0000; stroke:none;fill-rule:evenodd;"
d="M 165.7500,114.1250
165.7690,114.0293
165.8232,113.9482
165.9043,113.8940
166.0000,113.8750
166.8000,113.8750
166.8957,113.8940
166.9768,113.9482
167.0310,114.0293
167.0500,114.1250
167.0500,115.3750
167.0310,115.4707
166.9768,115.5518
166.8957,115.6060
166.8000,115.6250
166.0000,115.6250
165.9043,115.6060
165.8232,115.5518
165.7690,115.4707
165.7500,115.3750
Z" /> 
<path style="fill:#000000; fill-opacity:1.0000; stroke:none;fill-rule:evenodd;"
d="M 189.3000,100.6250
189.3190,100.5293
189.3732,100.4482
189.4543,100.3940
189.5500,100.3750
190.3500,100.3750
190.4457,100.3940
190.5268,100.4482
190.5810,100.5293
190.6000,100.6250
190.6000,101.8750
190.5810,101.9707
190.5268,102.0518
190.4457,102.1060
190.3500,102.1250
189.5500,102.1250
189.4543,102.1060
189.3732,102.0518
189.3190,101.9707
189.3000,101.8750
Z" /> 
<path style="fill:#000000; fill-opacity:1.0000; stroke:none;fill-rule:evenodd;"
d="M 192.4000,100.6250
192.4190,100.5293
192.4732,100.4482
192.5543,100.3940
192.6500,100.3750
193.4500,100.3750
193.5457,100.3940
193.6268,100.4482
193.6810,100.5293
193.7000,100.6250
193.7000,101.8750
193.6810,101.9707
193.6268,102.0518
193.5457,102.1060
193.4500,102.1250
192.6500,102.1250
192.5543,102.1060
192.4732,102.0518
192.4190,101.9707
192.4000,101.8750
Z" /> 
<path style="fill:#000000; fill-opacity:1.0000; stroke:none;fill-rule:evenodd;"
d="M 186.2000,115.3750
186.1810,115.4707
186.1268,115.5518
186.0457,115.6060
185.9500,115.6250
185.1500,115.6250
185.0543,115.6060
184.9732,115.5518
184.9190,115.4707
184.9000,115.3750
184.9000,114.1250
184.9190,114.0293
184.9732,113.9482
185.0543,113.8940
185.1500,113.8750
185.9500,113.8750
186.0457,113.8940
186.1268,113.9482
186.1810,114.0293
186.2000,114.1250
Z" /> 
<path style="fill:#000000; fill-opacity:1.0000; stroke:none;fill-rule:evenodd;"
d="M 183.1000,115.3750
183.0810,115.4707
183.0268,115.5518
182.9457,115.6060
182.8500,115.6250
182.0500,115.6250
181.9543,115.6060
181.8732,115.5518
181.8190,115.4707
181.8000,115.3750
181.8000,114.1250
181.8190,114.0293
181.8732,113.9482
181.9543,113.8940
182.0500,113.8750
182.8500,113.8750
182.9457,113.8940
183.0268,113.9482
183.0810,114.0293
183.1000,114.1250
Z" /> 
<path style="fill:#000000; fill-opacity:1.0000; stroke:none;fill-rule:evenodd;"
d="M 189.3000,96.6250
189.3190,96.5293
189.3732,96.4482
189.4543,96.3940
189.5500,96.3750
190.3500,96.3750
190.4457,96.3940
190.5268,96.4482
190.5810,96.5293
190.6000,96.6250
190.6000,97.8750
190.5810,97.9707
190.5268,98.0518
190.4457,98.1060
190.3500,98.1250
189.5500,98.1250
189.4543,98.1060
189.3732,98.0518
189.3190,97.9707
189.3000,97.8750
Z" /> 
<path style="fill:#000000; fill-opacity:1.0000; stroke:none;fill-rule:evenodd;"
d="M 192.4000,96.6250
192.4190,96.5293
192.4732,96.4482
192.5543,96.3940
192.6500,96.3750
193.4500,96.3750
193.5457,96.3940
193.6268,96.4482
193.6810,96.5293
193.7000,96.6250
193.7000,97.8750
193.6810,97.9707
193.6268,98.0518
193.5457,98.1060
193.4500,98.1250
192.6500,98.1250
192.5543,98.1060
192.4732,98.0518
192.4190,97.9707
192.4000,97.8750
Z" /> 
<path style="fill:#000000; fill-opacity:1.0000; stroke:none;fill-rule:evenodd;"
d="M 181.3000,87.1250
181.3190,87.0293
181.3732,86.9482
181.4543,86.8940
181.5500,86.8750
182.3500,86.8750
182.4457,86.8940
182.5268,86.9482
182.5810,87.0293
182.6000,87.1250
182.6000,88.3750
182.5810,88.4707
182.5268,88.5518
182.4457,88.6060
182.3500,88.6250
181.5500,88.6250
181.4543,88.6060
181.3732,88.5518
181.3190,88.4707
181.3000,88.3750
Z" /> 
<path style="fill:#000000; fill-opacity:1.0000; stroke:none;fill-rule:evenodd;"
d="M 184.4000,87.1250
184.4190,87.0293
184.4732,86.9482
184.5543,86.8940
184.6500,86.8750
185.4500,86.8750
185.5457,86.8940
185.6268,86.9482
185.6810,87.0293
185.7000,87.1250
185.7000,88.3750
185.6810,88.4707
185.6268,88.5518
185.5457,88.6060
185.4500,88.6250
184.6500,88.6250
184.5543,88.6060
184.4732,88.5518
184.4190,88.4707
184.4000,88.3750
Z" /> 
<path style="fill:#000000; fill-opacity:1.0000; stroke:none;fill-rule:evenodd;"
d="M 172.2000,93.8750
172.1810,93.9707
172.1268,94.0518
172.0457,94.1060
171.9500,94.1250
171.1500,94.1250
171.0543,94.1060
170.9732,94.0518
170.9190,93.9707
170.9000,93.8750
170.9000,92.6250
170.9190,92.5293
170.9732,92.4482
171.0543,92.3940
171.1500,92.3750
171.9500,92.3750
172.0457,92.3940
172.1268,92.4482
172.1810,92.5293
172.2000,92.6250
Z" /> 
<path style="fill:#000000; fill-opacity:1.0000; stroke:none;fill-rule:evenodd;"
d="M 169.1000,93.8750
169.0810,93.9707
169.0268,94.0518
168.9457,94.1060
168.8500,94.1250
168.0500,94.1250
167.9543,94.1060
167.8732,94.0518
167.8190,93.9707
167.8000,93.8750
167.8000,92.6250
167.8190,92.5293
167.8732,92.4482
167.9543,92.3940
168.0500,92.3750
168.8500,92.3750
168.9457,92.3940
169.0268,92.4482
169.0810,92.5293
169.1000,92.6250
Z" /> 
<path style="fill:#000000; fill-opacity:1.0000; stroke:none;fill-rule:evenodd;"
d="M 172.2000,90.3750
172.1810,90.4707
172.1268,90.5518
172.0457,90.6060
171.9500,90.6250
171.1500,90.6250
171.0543,90.6060
170.9732,90.5518
170.9190,90.4707
170.9000,90.3750
170.9000,89.1250
170.9190,89.0293
170.9732,88.9482
171.0543,88.8940
171.1500,88.8750
171.9500,88.8750
172.0457,88.8940
172.1268,88.9482
172.1810,89.0293
172.2000,89.1250
Z" /> 
<path style="fill:#000000; fill-opacity:1.0000; stroke:none;fill-rule:evenodd;"
d="M 169.1000,90.3750
169.0810,90.4707
169.0268,90.5518
168.9457,90.6060
168.8500,90.6250
168.0500,90.6250
167.9543,90.6060
167.8732,90.5518
167.8190,90.4707
167.8000,90.3750
167.8000,89.1250
167.8190,89.0293
167.8732,88.9482
167.9543,88.8940
168.0500,88.8750
168.8500,88.8750
168.9457,88.8940
169.0268,88.9482
169.0810,89.0293
169.1000,89.1250
Z" /> 
<path style="fill:#000000; fill-opacity:1.0000; stroke:none;fill-rule:evenodd;"
d="M 154.1750,121.3500
154.1636,121.4074
154.1311,121.4561
154.0824,121.4886
154.0250,121.5000
152.8500,121.5000
152.7926,121.4886
152.7439,121.4561
152.7114,121.4074
152.7000,121.3500
152.7000,121.0500
152.7114,120.9926
152.7439,120.9439
152.7926,120.9114
152.8500,120.9000
154.0250,120.9000
154.0824,120.9114
154.1311,120.9439
154.1636,120.9926
154.1750,121.0500
Z" /> 
<path style="fill:#000000; fill-opacity:1.0000; stroke:none;fill-rule:evenodd;"
d="M 154.1750,119.4500
154.1636,119.5074
154.1311,119.5561
154.0824,119.5886
154.0250,119.6000
152.8500,119.6000
152.7926,119.5886
152.7439,119.5561
152.7114,119.5074
152.7000,119.4500
152.7000,119.1500
152.7114,119.0926
152.7439,119.0439
152.7926,119.0114
152.8500,119.0000
154.0250,119.0000
154.0824,119.0114
154.1311,119.0439
154.1636,119.0926
154.1750,119.1500
Z" /> 
<path style="fill:#000000; fill-opacity:1.0000; stroke:none;fill-rule:evenodd;"
d="M 152.3000,120.4000
152.2886,120.4574
152.2561,120.5061
152.2074,120.5386
152.1500,120.5500
150.9750,120.5500
150.9176,120.5386
150.8689,120.5061
150.8364,120.4574
150.8250,120.4000
150.8250,120.1000
150.8364,120.0426
150.8689,119.9939
150.9176,119.9614
150.9750,119.9500
152.1500,119.9500
152.2074,119.9614
152.2561,119.9939
152.2886,120.0426
152.3000,120.1000
Z" /> 
</g>
<g style="fill:none; 
stroke:#000000; stroke-width:1.1000; stroke-opacity:1; 
stroke-linecap:round; stroke-linejoin:round;">
<path d="M193.7200 84.6800
L195.2200 84.6800
" />
<path d="M188.6100 84.6800
L189.6100 84.6800
" />
<path d="M193.7200 93.3200
L195.2200 93.3200
" />
<path d="M188.6100 93.3200
L189.6100 93.3200
" />
<path style="fill:#000000; fill-opacity:1.0000; stroke:none;fill-rule:evenodd;"
d="M 190.3500,92.6000
189.6500,92.6000
189.6500,91.6000
190.3500,91.6000
Z" /> 
<path style="fill:#000000; fill-opacity:1.0000; stroke:none;fill-rule:evenodd;"
d="M 190.3500,91.4000
189.6500,91.4000
189.6500,91.1000
190.3500,91.1000
Z" /> 
<path style="fill:#000000; fill-opacity:1.0000; stroke:none;fill-rule:evenodd;"
d="M 190.3500,90.9000
189.6500,90.9000
189.6500,90.6000
190.3500,90.6000
Z" /> 
<path style="fill:#000000; fill-opacity:1.0000; stroke:none;fill-rule:evenodd;"
d="M 190.3500,90.4000
189.6500,90.4000
189.6500,90.1000
190.3500,90.1000
Z" /> 
<path style="fill:#000000; fill-opacity:1.0000; stroke:none;fill-rule:evenodd;"
d="M 190.3500,89.9000
189.6500,89.9000
189.6500,89.6000
190.3500,89.6000
Z" /> 
<path style="fill:#000000; fill-opacity:1.0000; stroke:none;fill-rule:evenodd;"
d="M 190.3500,89.4000
189.6500,89.4000
189.6500,89.1000
190.3500,89.1000
Z" /> 
<path style="fill:#000000; fill-opacity:1.0000; stroke:none;fill-rule:evenodd;"
d="M 190.3500,88.9000
189.6500,88.9000
189.6500,88.6000
190.3500,88.6000
Z" /> 
<path style="fill:#000000; fill-opacity:1.0000; stroke:none;fill-rule:evenodd;"
d="M 190.3500,88.4000
189.6500,88.4000
189.6500,88.1000
190.3500,88.1000
Z" /> 
<path style="fill:#000000; fill-opacity:1.0000; stroke:none;fill-rule:evenodd;"
d="M 190.3500,87.9000
189.6500,87.9000
189.6500,87.6000
190.3500,87.6000
Z" /> 
<path style="fill:#000000; fill-opacity:1.0000; stroke:none;fill-rule:evenodd;"
d="M 190.3500,87.4000
189.6500,87.4000
189.6500,87.1000
190.3500,87.1000
Z" /> 
<path style="fill:#000000; fill-opacity:1.0000; stroke:none;fill-rule:evenodd;"
d="M 190.3500,86.9000
189.6500,86.9000
189.6500,86.6000
190.3500,86.6000
Z" /> 
<path style="fill:#000000; fill-opacity:1.0000; stroke:none;fill-rule:evenodd;"
d="M 190.3500,86.4000
189.6500,86.4000
189.6500,85.4000
190.3500,85.4000
Z" /> 
<path style="fill:#000000; fill-opacity:1.0000; stroke:none;fill-rule:evenodd;"
d="M 189.0500,86.1500
188.3500,86.1500
188.3500,85.8500
189.0500,85.8500
Z" /> 
<path style="fill:#000000; fill-opacity:1.0000; stroke:none;fill-rule:evenodd;"
d="M 189.0500,86.6500
188.3500,86.6500
188.3500,86.3500
189.0500,86.3500
Z" /> 
<path style="fill:#000000; fill-opacity:1.0000; stroke:none;fill-rule:evenodd;"
d="M 189.0500,87.1500
188.3500,87.1500
188.3500,86.8500
189.0500,86.8500
Z" /> 
<path style="fill:#000000; fill-opacity:1.0000; stroke:none;fill-rule:evenodd;"
d="M 189.0500,87.6500
188.3500,87.6500
188.3500,87.3500
189.0500,87.3500
Z" /> 
<path style="fill:#000000; fill-opacity:1.0000; stroke:none;fill-rule:evenodd;"
d="M 189.0500,88.1500
188.3500,88.1500
188.3500,87.8500
189.0500,87.8500
Z" /> 
<path style="fill:#000000; fill-opacity:1.0000; stroke:none;fill-rule:evenodd;"
d="M 189.0500,88.6500
188.3500,88.6500
188.3500,88.3500
189.0500,88.3500
Z" /> 
<path style="fill:#000000; fill-opacity:1.0000; stroke:none;fill-rule:evenodd;"
d="M 189.0500,89.6500
188.3500,89.6500
188.3500,89.3500
189.0500,89.3500
Z" /> 
<path style="fill:#000000; fill-opacity:1.0000; stroke:none;fill-rule:evenodd;"
d="M 189.0500,90.1500
188.3500,90.1500
188.3500,89.8500
189.0500,89.8500
Z" /> 
<path style="fill:#000000; fill-opacity:1.0000; stroke:none;fill-rule:evenodd;"
d="M 189.0500,90.6500
188.3500,90.6500
188.3500,90.3500
189.0500,90.3500
Z" /> 
<path style="fill:#000000; fill-opacity:1.0000; stroke:none;fill-rule:evenodd;"
d="M 189.0500,91.1500
188.3500,91.1500
188.3500,90.8500
189.0500,90.8500
Z" /> 
<path style="fill:#000000; fill-opacity:1.0000; stroke:none;fill-rule:evenodd;"
d="M 189.0500,91.6500
188.3500,91.6500
188.3500,91.3500
189.0500,91.3500
Z" /> 
<path style="fill:#000000; fill-opacity:1.0000; stroke:none;fill-rule:evenodd;"
d="M 189.0500,92.1500
188.3500,92.1500
188.3500,91.8500
189.0500,91.8500
Z" /> 
<path style="fill:#000000; fill-opacity:1.0000; stroke:none;fill-rule:evenodd;"
d="M 184.7625,119.1750
184.7815,119.0793
184.8357,118.9982
184.9168,118.9440
185.0125,118.9250
185.9375,118.9250
186.0332,118.9440
186.1143,118.9982
186.1685,119.0793
186.1875,119.1750
186.1875,121.3250
186.1685,121.4207
186.1143,121.5018
186.0332,121.5560
185.9375,121.5750
185.0125,121.5750
184.9168,121.5560
184.8357,121.5018
184.7815,121.4207
184.7625,121.3250
Z" /> 
<path style="fill:#000000; fill-opacity:1.0000; stroke:none;fill-rule:evenodd;"
d="M 181.7875,119.1750
181.8065,119.0793
181.8607,118.9982
181.9418,118.9440
182.0375,118.9250
182.9625,118.9250
183.0582,118.9440
183.1393,118.9982
183.1935,119.0793
183.2125,119.1750
183.2125,121.3250
183.1935,121.4207
183.1393,121.5018
183.0582,121.5560
182.9625,121.5750
182.0375,121.5750
181.9418,121.5560
181.8607,121.5018
181.8065,121.4207
181.7875,121.3250
Z" /> 
<path style="fill:#000000; fill-opacity:1.0000; stroke:none;fill-rule:evenodd;"
d="M 149.6500,105.0600
149.6500,103.3600
151.3500,103.3600
151.3500,105.0600
Z" /> 
</g>
<g style="fill:#000000; fill-opacity:1.0000; stroke:none;">
<circle cx="150.5000" cy="106.7500" r="0.8500" /> 
<circle cx="150.5000" cy="109.2900" r="0.8500" /> 
<path style="fill:#000000; fill-opacity:1.0000; stroke:none;fill-rule:evenodd;"
d="M 158.2700,87.1000
156.5700,87.1000
156.5700,85.4000
158.2700,85.4000
Z" /> 
<circle cx="159.9600" cy="86.2500" r="0.8500" /> 
<circle cx="162.5000" cy="86.2500" r="0.8500" /> 
<circle cx="165.0400" cy="86.2500" r="0.8500" /> 
<circle cx="167.5800" cy="86.2500" r="0.8500" /> 
<circle cx="170.1200" cy="86.2500" r="0.8500" /> 
<path style="fill:#000000; fill-opacity:1.0000; stroke:none;fill-rule:evenodd;"
d="M 140.6500,88.0750
140.6500,86.3750
142.3500,86.3750
142.3500,88.0750
Z" /> 
<circle cx="141.5000" cy="89.7650" r="0.8500" /> 
<circle cx="141.5000" cy="92.3050" r="0.8500" /> 
<path style="fill:#000000; fill-opacity:1.0000; stroke:none;fill-rule:evenodd;"
d="M 140.6500,116.5200
140.6500,114.8200
142.3500,114.8200
142.3500,116.5200
Z" /> 
<circle cx="141.5000" cy="118.2100" r="0.8500" /> 
<circle cx="141.5000" cy="120.7500" r="0.8500" /> 
<path style="fill:#000000; fill-opacity:1.0000; stroke:none;fill-rule:evenodd;"
d="M 148.9000,114.8000
148.9190,114.7043
148.9732,114.6232
149.0543,114.5690
149.1500,114.5500
149.8000,114.5500
149.8957,114.5690
149.9768,114.6232
150.0310,114.7043
150.0500,114.8000
150.0500,115.7000
150.0310,115.7957
149.9768,115.8768
149.8957,115.9310
149.8000,115.9500
149.1500,115.9500
149.0543,115.9310
148.9732,115.8768
148.9190,115.7957
148.9000,115.7000
Z" /> 
<path style="fill:#000000; fill-opacity:1.0000; stroke:none;fill-rule:evenodd;"
d="M 150.9500,114.8000
150.9690,114.7043
151.0232,114.6232
151.1043,114.5690
151.2000,114.5500
151.8500,114.5500
151.9457,114.5690
152.0268,114.6232
152.0810,114.7043
152.1000,114.8000
152.1000,115.7000
152.0810,115.7957
152.0268,115.8768
151.9457,115.9310
151.8500,115.9500
151.2000,115.9500
151.1043,115.9310
151.0232,115.8768
150.9690,115.7957
150.9500,115.7000
Z" /> 
<path style="fill:#000000; fill-opacity:1.0000; stroke:none;fill-rule:evenodd;"
d="M 177.6500,121.6500
177.6310,121.7457
177.5768,121.8268
177.4957,121.8810
177.4000,121.9000
174.6000,121.9000
174.5043,121.8810
174.4232,121.8268
174.3690,121.7457
174.3500,121.6500
174.3500,117.6500
174.3690,117.5543
174.4232,117.4732
174.5043,117.4190
174.6000,117.4000
177.4000,117.4000
177.4957,117.4190
177.5768,117.4732
177.6310,117.5543
177.6500,117.6500
Z" /> 
<path style="fill:#000000; fill-opacity:1.0000; stroke:none;fill-rule:evenodd;"
d="M 177.6500,112.8500
177.6310,112.9457
177.5768,113.0268
177.4957,113.0810
177.4000,113.1000
174.6000,113.1000
174.5043,113.0810
174.4232,113.0268
174.3690,112.9457
174.3500,112.8500
174.3500,108.8500
174.3690,108.7543
174.4232,108.6732
174.5043,108.6190
174.6000,108.6000
177.4000,108.6000
177.4957,108.6190
177.5768,108.6732
177.6310,108.7543
177.6500,108.8500
Z" /> 
<path style="fill:#000000; fill-opacity:1.0000; stroke:none;fill-rule:evenodd;"
d="M 168.4750,120.7000
168.5707,120.7190
168.6518,120.7732
168.7060,120.8543
168.7250,120.9500
168.7250,121.6250
168.7060,121.7207
168.6518,121.8018
168.5707,121.8560
168.4750,121.8750
167.5250,121.8750
167.4293,121.8560
167.3482,121.8018
167.2940,121.7207
167.2750,121.6250
167.2750,120.9500
167.2940,120.8543
167.3482,120.7732
167.4293,120.7190
167.5250,120.7000
Z" /> 
<path style="fill:#000000; fill-opacity:1.0000; stroke:none;fill-rule:evenodd;"
d="M 168.4750,118.6250
168.5707,118.6440
168.6518,118.6982
168.7060,118.7793
168.7250,118.8750
168.7250,119.5500
168.7060,119.6457
168.6518,119.7268
168.5707,119.7810
168.4750,119.8000
167.5250,119.8000
167.4293,119.7810
167.3482,119.7268
167.2940,119.6457
167.2750,119.5500
167.2750,118.8750
167.2940,118.7793
167.3482,118.6982
167.4293,118.6440
167.5250,118.6250
Z" /> 
<path style="fill:#000000; fill-opacity:1.0000; stroke:none;fill-rule:evenodd;"
d="M 183.9750,92.2000
184.0707,92.2190
184.1518,92.2732
184.2060,92.3543
184.2250,92.4500
184.2250,93.1250
184.2060,93.2207
184.1518,93.3018
184.0707,93.3560
183.9750,93.3750
183.0250,93.3750
182.9293,93.3560
182.8482,93.3018
182.7940,93.2207
182.7750,93.1250
182.7750,92.4500
182.7940,92.3543
182.8482,92.2732
182.9293,92.2190
183.0250,92.2000
Z" /> 
<path style="fill:#000000; fill-opacity:1.0000; stroke:none;fill-rule:evenodd;"
d="M 183.9750,90.1250
184.0707,90.1440
184.1518,90.1982
184.2060,90.2793
184.2250,90.3750
184.2250,91.0500
184.2060,91.1457
184.1518,91.2268
184.0707,91.2810
183.9750,91.3000
183.0250,91.3000
182.9293,91.2810
182.8482,91.2268
182.7940,91.1457
182.7750,91.0500
182.7750,90.3750
182.7940,90.2793
182.8482,90.1982
182.9293,90.1440
183.0250,90.1250
Z" /> 
<path style="fill:#000000; fill-opacity:1.0000; stroke:none;fill-rule:evenodd;"
d="M 168.7050,106.8000
168.6093,106.7810
168.5282,106.7268
168.4740,106.6457
168.4550,106.5500
168.4550,105.8750
168.4740,105.7793
168.5282,105.6982
168.6093,105.6440
168.7050,105.6250
169.6550,105.6250
169.7507,105.6440
169.8318,105.6982
169.8860,105.7793
169.9050,105.8750
169.9050,106.5500
169.8860,106.6457
169.8318,106.7268
169.7507,106.7810
169.6550,106.8000
Z" /> 
<path style="fill:#000000; fill-opacity:1.0000; stroke:none;fill-rule:evenodd;"
d="M 168.7050,108.8750
168.6093,108.8560
168.5282,108.8018
168.4740,108.7207
168.4550,108.6250
168.4550,107.9500
168.4740,107.8543
168.5282,107.7732
168.6093,107.7190
168.7050,107.7000
169.6550,107.7000
169.7507,107.7190
169.8318,107.7732
169.8860,107.8543
169.9050,107.9500
169.9050,108.6250
169.8860,108.7207
169.8318,108.8018
169.7507,108.8560
169.6550,108.8750
Z" /> 
<path style="fill:#000000; fill-opacity:1.0000; stroke:none;fill-rule:evenodd;"
d="M 165.2050,108.8750
165.1093,108.8560
165.0282,108.8018
164.9740,108.7207
164.9550,108.6250
164.9550,107.9500
164.9740,107.8543
165.0282,107.7732
165.1093,107.7190
165.2050,107.7000
166.1550,107.7000
166.2507,107.7190
166.3318,107.7732
166.3860,107.8543
166.4050,107.9500
166.4050,108.6250
166.3860,108.7207
166.3318,108.8018
166.2507,108.8560
166.1550,108.8750
Z" /> 
<path style="fill:#000000; fill-opacity:1.0000; stroke:none;fill-rule:evenodd;"
d="M 165.2050,106.8000
165.1093,106.7810
165.0282,106.7268
164.9740,106.6457
164.9550,106.5500
164.9550,105.8750
164.9740,105.7793
165.0282,105.6982
165.1093,105.6440
165.2050,105.6250
166.1550,105.6250
166.2507,105.6440
166.3318,105.6982
166.3860,105.7793
166.4050,105.8750
166.4050,106.5500
166.3860,106.6457
166.3318,106.7268
166.2507,106.7810
166.1550,106.8000
Z" /> 
<path style="fill:#000000; fill-opacity:1.0000; stroke:none;fill-rule:evenodd;"
d="M 162.1950,108.8750
162.0993,108.8560
162.0182,108.8018
161.9640,108.7207
161.9450,108.6250
161.9450,107.9500
161.9640,107.8543
162.0182,107.7732
162.0993,107.7190
162.1950,107.7000
163.1450,107.7000
163.2407,107.7190
163.3218,107.7732
163.3760,107.8543
163.3950,107.9500
163.3950,108.6250
163.3760,108.7207
163.3218,108.8018
163.2407,108.8560
163.1450,108.8750
Z" /> 
<path style="fill:#000000; fill-opacity:1.0000; stroke:none;fill-rule:evenodd;"
d="M 162.1950,106.8000
162.0993,106.7810
162.0182,106.7268
161.9640,106.6457
161.9450,106.5500
161.9450,105.8750
161.9640,105.7793
162.0182,105.6982
162.0993,105.6440
162.1950,105.6250
163.1450,105.6250
163.2407,105.6440
163.3218,105.6982
163.3760,105.7793
163.3950,105.8750
163.3950,106.5500
163.3760,106.6457
163.3218,106.7268
163.2407,106.7810
163.1450,106.8000
Z" /> 
<path style="fill:#000000; fill-opacity:1.0000; stroke:none;fill-rule:evenodd;"
d="M 159.0250,108.8750
158.9293,108.8560
158.8482,108.8018
158.7940,108.7207
158.7750,108.6250
158.7750,107.9500
158.7940,107.8543
158.8482,107.7732
158.9293,107.7190
159.0250,107.7000
159.9750,107.7000
160.0707,107.7190
160.1518,107.7732
160.2060,107.8543
160.2250,107.9500
160.2250,108.6250
160.2060,108.7207
160.1518,108.8018
160.0707,108.8560
159.9750,108.8750
Z" /> 
<path style="fill:#000000; fill-opacity:1.0000; stroke:none;fill-rule:evenodd;"
d="M 159.0250,106.8000
158.9293,106.7810
158.8482,106.7268
158.7940,106.6457
158.7750,106.5500
158.7750,105.8750
158.7940,105.7793
158.8482,105.6982
158.9293,105.6440
159.0250,105.6250
159.9750,105.6250
160.0707,105.6440
160.1518,105.6982
160.2060,105.7793
160.2250,105.8750
160.2250,106.5500
160.2060,106.6457
160.1518,106.7268
160.0707,106.7810
159.9750,106.8000
Z" /> 
<path style="fill:#000000; fill-opacity:1.0000; stroke:none;fill-rule:evenodd;"
d="M 158.8000,111.6250
158.8190,111.5293
158.8732,111.4482
158.9543,111.3940
159.0500,111.3750
159.9750,111.3750
160.0707,111.3940
160.1518,111.4482
160.2060,111.5293
160.2250,111.6250
160.2250,112.8750
160.2060,112.9707
160.1518,113.0518
160.0707,113.1060
159.9750,113.1250
159.0500,113.1250
158.9543,113.1060
158.8732,113.0518
158.8190,112.9707
158.8000,112.8750
Z" /> 
<path style="fill:#000000; fill-opacity:1.0000; stroke:none;fill-rule:evenodd;"
d="M 161.7750,111.6250
161.7940,111.5293
161.8482,111.4482
161.9293,111.3940
162.0250,111.3750
162.9500,111.3750
163.0457,111.3940
163.1268,111.4482
163.1810,111.5293
163.2000,111.6250
163.2000,112.8750
163.1810,112.9707
163.1268,113.0518
163.0457,113.1060
162.9500,113.1250
162.0250,113.1250
161.9293,113.1060
161.8482,113.0518
161.7940,112.9707
161.7750,112.8750
Z" /> 
<path style="fill:#000000; fill-opacity:1.0000; stroke:none;fill-rule:evenodd;"
d="M 157.1250,117.8450
157.1250,117.2450
158.6750,117.2450
158.6750,117.8450
Z" /> 
<path style="fill:#000000; fill-opacity:1.0000; stroke:none;fill-rule:evenodd;"
d="M 157.1250,119.1150
157.1250,118.5150
158.6750,118.5150
158.6750,119.1150
Z" /> 
<path style="fill:#000000; fill-opacity:1.0000; stroke:none;fill-rule:evenodd;"
d="M 157.1250,120.3850
157.1250,119.7850
158.6750,119.7850
158.6750,120.3850
Z" /> 
<path style="fill:#000000; fill-opacity:1.0000; stroke:none;fill-rule:evenodd;"
d="M 157.1250,121.6550
157.1250,121.0550
158.6750,121.0550
158.6750,121.6550
Z" /> 
<path style="fill:#000000; fill-opacity:1.0000; stroke:none;fill-rule:evenodd;"
d="M 162.5250,121.6550
162.5250,121.0550
164.0750,121.0550
164.0750,121.6550
Z" /> 
<path style="fill:#000000; fill-opacity:1.0000; stroke:none;fill-rule:evenodd;"
d="M 162.5250,120.3850
162.5250,119.7850
164.0750,119.7850
164.0750,120.3850
Z" /> 
<path style="fill:#000000; fill-opacity:1.0000; stroke:none;fill-rule:evenodd;"
d="M 162.5250,119.1150
162.5250,118.5150
164.0750,118.5150
164.0750,119.1150
Z" /> 
<path style="fill:#000000; fill-opacity:1.0000; stroke:none;fill-rule:evenodd;"
d="M 162.5250,117.8450
162.5250,117.2450
164.0750,117.2450
164.0750,117.8450
Z" /> 
<path style="fill:#000000; fill-opacity:1.0000; stroke:none;fill-rule:evenodd;"
d="M 159.3000,121.0000
159.3000,117.9000
161.9000,117.9000
161.9000,121.0000
Z" /> 
</g> 
</svg>
