<?xml version="1.0" standalone="no"?>
 <!DOCTYPE svg PUBLIC "-//W3C//DTD SVG 1.1//EN" 
 "http://www.w3.org/Graphics/SVG/1.1/DTD/svg11.dtd"> 
<svg
  xmlns:svg="http://www.w3.org/2000/svg"
  xmlns="http://www.w3.org/2000/svg"
  xmlns:xlink="http://www.w3.org/1999/xlink"
  version="1.1"
  width="60.550000mm" height="44.050000mm" viewBox="136.975000 81.475000 60.550000 44.050000">
<title>SVG Image created as TPS_Calibration_Board-F_SilkS.svg date 2025/05/30 06:41:43 </title>
  <desc>Image generated by PCBNEW </desc>
<g style="fill:#000000; fill-opacity:1.0000;stroke:#000000; stroke-opacity:1.0000;
stroke-linecap:round; stroke-linejoin:round;"
 transform="translate(0 0) scale(1 1)">
</g>
<g style="fill:none; 
stroke:#000000; stroke-width:0.1500; stroke-opacity:1; 
stroke-linecap:round; stroke-linejoin:round;">
<g transform="rotate(-90.000000 195.5250 111.2400)">
<text x="195.5250" y="111.7400"
textLength="2.0595" font-size="1.3333" lengthAdjust="spacingAndGlyphs"
text-anchor="middle" opacity="0" stroke-opacity="0">Y1</text>
</g>
<g class="stroked-text"><desc>Y1</desc>
<path d="M195.5036 111.7162
L195.9798 111.7162
" />
<path d="M194.9798 112.0495
L195.5036 111.7162
" />
<path d="M195.5036 111.7162
L194.9798 111.3829
" />
<path d="M195.9798 110.5257
L195.9798 111.0971
" />
<path d="M195.9798 110.8114
L194.9798 110.8114
" />
<path d="M194.9798 110.8114
L195.1227 110.9067
" />
<path d="M195.1227 110.9067
L195.2179 111.0019
" />
<path d="M195.2179 111.0019
L195.2655 111.0971
" />
</g><text x="178.0250" y="85.9450"
textLength="2.2500" font-size="1.3333" lengthAdjust="spacingAndGlyphs"
text-anchor="middle" opacity="0" stroke-opacity="0">U3</text>
<g class="stroked-text"><desc>U3</desc>
<path d="M177.2631 84.8998
L177.2631 85.7093
" />
<path d="M177.2631 85.7093
L177.3107 85.8046
" />
<path d="M177.3107 85.8046
L177.3583 85.8522
" />
<path d="M177.3583 85.8522
L177.4536 85.8998
" />
<path d="M177.4536 85.8998
L177.6440 85.8998
" />
<path d="M177.6440 85.8998
L177.7393 85.8522
" />
<path d="M177.7393 85.8522
L177.7869 85.8046
" />
<path d="M177.7869 85.8046
L177.8345 85.7093
" />
<path d="M177.8345 85.7093
L177.8345 84.8998
" />
<path d="M178.2155 84.8998
L178.8345 84.8998
" />
<path d="M178.8345 84.8998
L178.5012 85.2808
" />
<path d="M178.5012 85.2808
L178.6440 85.2808
" />
<path d="M178.6440 85.2808
L178.7393 85.3284
" />
<path d="M178.7393 85.3284
L178.7869 85.3760
" />
<path d="M178.7869 85.3760
L178.8345 85.4712
" />
<path d="M178.8345 85.4712
L178.8345 85.7093
" />
<path d="M178.8345 85.7093
L178.7869 85.8046
" />
<path d="M178.7869 85.8046
L178.7393 85.8522
" />
<path d="M178.7393 85.8522
L178.6440 85.8998
" />
<path d="M178.6440 85.8998
L178.3583 85.8998
" />
<path d="M178.3583 85.8998
L178.2631 85.8522
" />
<path d="M178.2631 85.8522
L178.2155 85.8046
" />
</g><g transform="rotate(-45.000000 159.8422 94.0922)">
<text x="159.8422" y="94.5922"
textLength="2.2500" font-size="1.3333" lengthAdjust="spacingAndGlyphs"
text-anchor="middle" opacity="0" stroke-opacity="0">U2</text>
</g>
<g class="stroked-text"><desc>U2</desc>
<path d="M158.9180 94.2455
L159.4904 94.8179
" />
<path d="M159.4904 94.8179
L159.5914 94.8515
" />
<path d="M159.5914 94.8515
L159.6587 94.8515
" />
<path d="M159.6587 94.8515
L159.7598 94.8179
" />
<path d="M159.7598 94.8179
L159.8944 94.6832
" />
<path d="M159.8944 94.6832
L159.9281 94.5822
" />
<path d="M159.9281 94.5822
L159.9281 94.5148
" />
<path d="M159.9281 94.5148
L159.8944 94.4138
" />
<path d="M159.8944 94.4138
L159.3220 93.8414
" />
<path d="M159.6924 93.6057
L159.6924 93.5384
" />
<path d="M159.6924 93.5384
L159.7261 93.4373
" />
<path d="M159.7261 93.4373
L159.8944 93.2690
" />
<path d="M159.8944 93.2690
L159.9955 93.2353
" />
<path d="M159.9955 93.2353
L160.0628 93.2353
" />
<path d="M160.0628 93.2353
L160.1638 93.2690
" />
<path d="M160.1638 93.2690
L160.2312 93.3363
" />
<path d="M160.2312 93.3363
L160.2985 93.4710
" />
<path d="M160.2985 93.4710
L160.2985 94.2791
" />
<path d="M160.2985 94.2791
L160.7362 93.8414
" />
</g><text x="180.0100" y="94.3000"
textLength="2.2500" font-size="1.3333" lengthAdjust="spacingAndGlyphs"
text-anchor="middle" opacity="0" stroke-opacity="0">U1</text>
<g class="stroked-text"><desc>U1</desc>
<path d="M179.2481 93.2548
L179.2481 94.0643
" />
<path d="M179.2481 94.0643
L179.2957 94.1596
" />
<path d="M179.2957 94.1596
L179.3433 94.2072
" />
<path d="M179.3433 94.2072
L179.4386 94.2548
" />
<path d="M179.4386 94.2548
L179.6290 94.2548
" />
<path d="M179.6290 94.2548
L179.7243 94.2072
" />
<path d="M179.7243 94.2072
L179.7719 94.1596
" />
<path d="M179.7719 94.1596
L179.8195 94.0643
" />
<path d="M179.8195 94.0643
L179.8195 93.2548
" />
<path d="M180.8195 94.2548
L180.2481 94.2548
" />
<path d="M180.5338 94.2548
L180.5338 93.2548
" />
<path d="M180.5338 93.2548
L180.4386 93.3977
" />
<path d="M180.4386 93.3977
L180.3433 93.4929
" />
<path d="M180.3433 93.4929
L180.2481 93.5405
" />
</g><text x="149.5000" y="95.0000"
textLength="3.2976" font-size="1.3333" lengthAdjust="spacingAndGlyphs"
text-anchor="middle" opacity="0" stroke-opacity="0">SW1</text>
<g class="stroked-text"><desc>SW1</desc>
<path d="M148.1667 94.9072
L148.3095 94.9548
" />
<path d="M148.3095 94.9548
L148.5476 94.9548
" />
<path d="M148.5476 94.9548
L148.6429 94.9072
" />
<path d="M148.6429 94.9072
L148.6905 94.8596
" />
<path d="M148.6905 94.8596
L148.7381 94.7643
" />
<path d="M148.7381 94.7643
L148.7381 94.6691
" />
<path d="M148.7381 94.6691
L148.6905 94.5739
" />
<path d="M148.6905 94.5739
L148.6429 94.5262
" />
<path d="M148.6429 94.5262
L148.5476 94.4786
" />
<path d="M148.5476 94.4786
L148.3571 94.4310
" />
<path d="M148.3571 94.4310
L148.2619 94.3834
" />
<path d="M148.2619 94.3834
L148.2143 94.3358
" />
<path d="M148.2143 94.3358
L148.1667 94.2405
" />
<path d="M148.1667 94.2405
L148.1667 94.1453
" />
<path d="M148.1667 94.1453
L148.2143 94.0501
" />
<path d="M148.2143 94.0501
L148.2619 94.0024
" />
<path d="M148.2619 94.0024
L148.3571 93.9548
" />
<path d="M148.3571 93.9548
L148.5952 93.9548
" />
<path d="M148.5952 93.9548
L148.7381 94.0024
" />
<path d="M149.0714 93.9548
L149.3095 94.9548
" />
<path d="M149.3095 94.9548
L149.5000 94.2405
" />
<path d="M149.5000 94.2405
L149.6905 94.9548
" />
<path d="M149.6905 94.9548
L149.9286 93.9548
" />
<path d="M150.8333 94.9548
L150.2619 94.9548
" />
<path d="M150.5476 94.9548
L150.5476 93.9548
" />
<path d="M150.5476 93.9548
L150.4524 94.0977
" />
<path d="M150.4524 94.0977
L150.3571 94.1929
" />
<path d="M150.3571 94.1929
L150.2619 94.2405
" />
</g><text x="167.9500" y="113.4300"
textLength="3.1548" font-size="1.3333" lengthAdjust="spacingAndGlyphs"
text-anchor="middle" opacity="0" stroke-opacity="0">R11</text>
<g class="stroked-text"><desc>R11</desc>
<path d="M167.3071 113.3848
L166.9738 112.9086
" />
<path d="M166.7357 113.3848
L166.7357 112.3848
" />
<path d="M166.7357 112.3848
L167.1167 112.3848
" />
<path d="M167.1167 112.3848
L167.2119 112.4324
" />
<path d="M167.2119 112.4324
L167.2595 112.4801
" />
<path d="M167.2595 112.4801
L167.3071 112.5753
" />
<path d="M167.3071 112.5753
L167.3071 112.7182
" />
<path d="M167.3071 112.7182
L167.2595 112.8134
" />
<path d="M167.2595 112.8134
L167.2119 112.8610
" />
<path d="M167.2119 112.8610
L167.1167 112.9086
" />
<path d="M167.1167 112.9086
L166.7357 112.9086
" />
<path d="M168.2595 113.3848
L167.6881 113.3848
" />
<path d="M167.9738 113.3848
L167.9738 112.3848
" />
<path d="M167.9738 112.3848
L167.8786 112.5277
" />
<path d="M167.8786 112.5277
L167.7833 112.6229
" />
<path d="M167.7833 112.6229
L167.6881 112.6705
" />
<path d="M169.2119 113.3848
L168.6405 113.3848
" />
<path d="M168.9262 113.3848
L168.9262 112.3848
" />
<path d="M168.9262 112.3848
L168.8310 112.5277
" />
<path d="M168.8310 112.5277
L168.7357 112.6229
" />
<path d="M168.7357 112.6229
L168.6405 112.6705
" />
</g><text x="191.5500" y="99.7500"
textLength="3.1548" font-size="1.3333" lengthAdjust="spacingAndGlyphs"
text-anchor="middle" opacity="0" stroke-opacity="0">R10</text>
<g class="stroked-text"><desc>R10</desc>
<path d="M190.9071 99.7048
L190.5738 99.2286
" />
<path d="M190.3357 99.7048
L190.3357 98.7048
" />
<path d="M190.3357 98.7048
L190.7167 98.7048
" />
<path d="M190.7167 98.7048
L190.8119 98.7524
" />
<path d="M190.8119 98.7524
L190.8595 98.8001
" />
<path d="M190.8595 98.8001
L190.9071 98.8953
" />
<path d="M190.9071 98.8953
L190.9071 99.0382
" />
<path d="M190.9071 99.0382
L190.8595 99.1334
" />
<path d="M190.8595 99.1334
L190.8119 99.1810
" />
<path d="M190.8119 99.1810
L190.7167 99.2286
" />
<path d="M190.7167 99.2286
L190.3357 99.2286
" />
<path d="M191.8595 99.7048
L191.2881 99.7048
" />
<path d="M191.5738 99.7048
L191.5738 98.7048
" />
<path d="M191.5738 98.7048
L191.4786 98.8477
" />
<path d="M191.4786 98.8477
L191.3833 98.9429
" />
<path d="M191.3833 98.9429
L191.2881 98.9905
" />
<path d="M192.4786 98.7048
L192.5738 98.7048
" />
<path d="M192.5738 98.7048
L192.6690 98.7524
" />
<path d="M192.6690 98.7524
L192.7167 98.8001
" />
<path d="M192.7167 98.8001
L192.7643 98.8953
" />
<path d="M192.7643 98.8953
L192.8119 99.0858
" />
<path d="M192.8119 99.0858
L192.8119 99.3239
" />
<path d="M192.8119 99.3239
L192.7643 99.5143
" />
<path d="M192.7643 99.5143
L192.7167 99.6096
" />
<path d="M192.7167 99.6096
L192.6690 99.6572
" />
<path d="M192.6690 99.6572
L192.5738 99.7048
" />
<path d="M192.5738 99.7048
L192.4786 99.7048
" />
<path d="M192.4786 99.7048
L192.3833 99.6572
" />
<path d="M192.3833 99.6572
L192.3357 99.6096
" />
<path d="M192.3357 99.6096
L192.2881 99.5143
" />
<path d="M192.2881 99.5143
L192.2405 99.3239
" />
<path d="M192.2405 99.3239
L192.2405 99.0858
" />
<path d="M192.2405 99.0858
L192.2881 98.8953
" />
<path d="M192.2881 98.8953
L192.3357 98.8001
" />
<path d="M192.3357 98.8001
L192.3833 98.7524
" />
<path d="M192.3833 98.7524
L192.4786 98.7048
" />
</g><text x="184.0000" y="117.0700"
textLength="2.2024" font-size="1.3333" lengthAdjust="spacingAndGlyphs"
text-anchor="middle" opacity="0" stroke-opacity="0">R9</text>
<g class="stroked-text"><desc>R9</desc>
<path d="M183.8333 117.0248
L183.5000 116.5486
" />
<path d="M183.2619 117.0248
L183.2619 116.0248
" />
<path d="M183.2619 116.0248
L183.6429 116.0248
" />
<path d="M183.6429 116.0248
L183.7381 116.0724
" />
<path d="M183.7381 116.0724
L183.7857 116.1201
" />
<path d="M183.7857 116.1201
L183.8333 116.2153
" />
<path d="M183.8333 116.2153
L183.8333 116.3582
" />
<path d="M183.8333 116.3582
L183.7857 116.4534
" />
<path d="M183.7857 116.4534
L183.7381 116.5010
" />
<path d="M183.7381 116.5010
L183.6429 116.5486
" />
<path d="M183.6429 116.5486
L183.2619 116.5486
" />
<path d="M184.3095 117.0248
L184.5000 117.0248
" />
<path d="M184.5000 117.0248
L184.5952 116.9772
" />
<path d="M184.5952 116.9772
L184.6429 116.9296
" />
<path d="M184.6429 116.9296
L184.7381 116.7867
" />
<path d="M184.7381 116.7867
L184.7857 116.5962
" />
<path d="M184.7857 116.5962
L184.7857 116.2153
" />
<path d="M184.7857 116.2153
L184.7381 116.1201
" />
<path d="M184.7381 116.1201
L184.6905 116.0724
" />
<path d="M184.6905 116.0724
L184.5952 116.0248
" />
<path d="M184.5952 116.0248
L184.4048 116.0248
" />
<path d="M184.4048 116.0248
L184.3095 116.0724
" />
<path d="M184.3095 116.0724
L184.2619 116.1201
" />
<path d="M184.2619 116.1201
L184.2143 116.2153
" />
<path d="M184.2143 116.2153
L184.2143 116.4534
" />
<path d="M184.2143 116.4534
L184.2619 116.5486
" />
<path d="M184.2619 116.5486
L184.3095 116.5962
" />
<path d="M184.3095 116.5962
L184.4048 116.6439
" />
<path d="M184.4048 116.6439
L184.5952 116.6439
" />
<path d="M184.5952 116.6439
L184.6905 116.5962
" />
<path d="M184.6905 116.5962
L184.7381 116.5486
" />
<path d="M184.7381 116.5486
L184.7857 116.4534
" />
</g><text x="191.5000" y="95.9300"
textLength="2.2024" font-size="1.3333" lengthAdjust="spacingAndGlyphs"
text-anchor="middle" opacity="0" stroke-opacity="0">R8</text>
<g class="stroked-text"><desc>R8</desc>
<path d="M191.3333 95.8848
L191.0000 95.4086
" />
<path d="M190.7619 95.8848
L190.7619 94.8848
" />
<path d="M190.7619 94.8848
L191.1429 94.8848
" />
<path d="M191.1429 94.8848
L191.2381 94.9324
" />
<path d="M191.2381 94.9324
L191.2857 94.9801
" />
<path d="M191.2857 94.9801
L191.3333 95.0753
" />
<path d="M191.3333 95.0753
L191.3333 95.2182
" />
<path d="M191.3333 95.2182
L191.2857 95.3134
" />
<path d="M191.2857 95.3134
L191.2381 95.3610
" />
<path d="M191.2381 95.3610
L191.1429 95.4086
" />
<path d="M191.1429 95.4086
L190.7619 95.4086
" />
<path d="M191.9048 95.3134
L191.8095 95.2658
" />
<path d="M191.8095 95.2658
L191.7619 95.2182
" />
<path d="M191.7619 95.2182
L191.7143 95.1229
" />
<path d="M191.7143 95.1229
L191.7143 95.0753
" />
<path d="M191.7143 95.0753
L191.7619 94.9801
" />
<path d="M191.7619 94.9801
L191.8095 94.9324
" />
<path d="M191.8095 94.9324
L191.9048 94.8848
" />
<path d="M191.9048 94.8848
L192.0952 94.8848
" />
<path d="M192.0952 94.8848
L192.1905 94.9324
" />
<path d="M192.1905 94.9324
L192.2381 94.9801
" />
<path d="M192.2381 94.9801
L192.2857 95.0753
" />
<path d="M192.2857 95.0753
L192.2857 95.1229
" />
<path d="M192.2857 95.1229
L192.2381 95.2182
" />
<path d="M192.2381 95.2182
L192.1905 95.2658
" />
<path d="M192.1905 95.2658
L192.0952 95.3134
" />
<path d="M192.0952 95.3134
L191.9048 95.3134
" />
<path d="M191.9048 95.3134
L191.8095 95.3610
" />
<path d="M191.8095 95.3610
L191.7619 95.4086
" />
<path d="M191.7619 95.4086
L191.7143 95.5039
" />
<path d="M191.7143 95.5039
L191.7143 95.6943
" />
<path d="M191.7143 95.6943
L191.7619 95.7896
" />
<path d="M191.7619 95.7896
L191.8095 95.8372
" />
<path d="M191.8095 95.8372
L191.9048 95.8848
" />
<path d="M191.9048 95.8848
L192.0952 95.8848
" />
<path d="M192.0952 95.8848
L192.1905 95.8372
" />
<path d="M192.1905 95.8372
L192.2381 95.7896
" />
<path d="M192.2381 95.7896
L192.2857 95.6943
" />
<path d="M192.2857 95.6943
L192.2857 95.5039
" />
<path d="M192.2857 95.5039
L192.2381 95.4086
" />
<path d="M192.2381 95.4086
L192.1905 95.3610
" />
<path d="M192.1905 95.3610
L192.0952 95.3134
" />
</g><text x="183.5000" y="86.4300"
textLength="2.2024" font-size="1.3333" lengthAdjust="spacingAndGlyphs"
text-anchor="middle" opacity="0" stroke-opacity="0">R7</text>
<g class="stroked-text"><desc>R7</desc>
<path d="M183.3333 86.3848
L183.0000 85.9086
" />
<path d="M182.7619 86.3848
L182.7619 85.3848
" />
<path d="M182.7619 85.3848
L183.1429 85.3848
" />
<path d="M183.1429 85.3848
L183.2381 85.4324
" />
<path d="M183.2381 85.4324
L183.2857 85.4801
" />
<path d="M183.2857 85.4801
L183.3333 85.5753
" />
<path d="M183.3333 85.5753
L183.3333 85.7182
" />
<path d="M183.3333 85.7182
L183.2857 85.8134
" />
<path d="M183.2857 85.8134
L183.2381 85.8610
" />
<path d="M183.2381 85.8610
L183.1429 85.9086
" />
<path d="M183.1429 85.9086
L182.7619 85.9086
" />
<path d="M183.6667 85.3848
L184.3333 85.3848
" />
<path d="M184.3333 85.3848
L183.9048 86.3848
" />
</g><text x="170.0000" y="95.5700"
textLength="2.2024" font-size="1.3333" lengthAdjust="spacingAndGlyphs"
text-anchor="middle" opacity="0" stroke-opacity="0">R5</text>
<g class="stroked-text"><desc>R5</desc>
<path d="M169.8333 95.5248
L169.5000 95.0486
" />
<path d="M169.2619 95.5248
L169.2619 94.5248
" />
<path d="M169.2619 94.5248
L169.6429 94.5248
" />
<path d="M169.6429 94.5248
L169.7381 94.5724
" />
<path d="M169.7381 94.5724
L169.7857 94.6201
" />
<path d="M169.7857 94.6201
L169.8333 94.7153
" />
<path d="M169.8333 94.7153
L169.8333 94.8582
" />
<path d="M169.8333 94.8582
L169.7857 94.9534
" />
<path d="M169.7857 94.9534
L169.7381 95.0010
" />
<path d="M169.7381 95.0010
L169.6429 95.0486
" />
<path d="M169.6429 95.0486
L169.2619 95.0486
" />
<path d="M170.7381 94.5248
L170.2619 94.5248
" />
<path d="M170.2619 94.5248
L170.2143 95.0010
" />
<path d="M170.2143 95.0010
L170.2619 94.9534
" />
<path d="M170.2619 94.9534
L170.3571 94.9058
" />
<path d="M170.3571 94.9058
L170.5952 94.9058
" />
<path d="M170.5952 94.9058
L170.6905 94.9534
" />
<path d="M170.6905 94.9534
L170.7381 95.0010
" />
<path d="M170.7381 95.0010
L170.7857 95.0962
" />
<path d="M170.7857 95.0962
L170.7857 95.3343
" />
<path d="M170.7857 95.3343
L170.7381 95.4296
" />
<path d="M170.7381 95.4296
L170.6905 95.4772
" />
<path d="M170.6905 95.4772
L170.5952 95.5248
" />
<path d="M170.5952 95.5248
L170.3571 95.5248
" />
<path d="M170.3571 95.5248
L170.2619 95.4772
" />
<path d="M170.2619 95.4772
L170.2143 95.4296
" />
</g><text x="170.0375" y="92.0300"
textLength="2.2024" font-size="1.3333" lengthAdjust="spacingAndGlyphs"
text-anchor="middle" opacity="0" stroke-opacity="0">R4</text>
<g class="stroked-text"><desc>R4</desc>
<path d="M169.8708 91.9848
L169.5375 91.5086
" />
<path d="M169.2994 91.9848
L169.2994 90.9848
" />
<path d="M169.2994 90.9848
L169.6804 90.9848
" />
<path d="M169.6804 90.9848
L169.7756 91.0324
" />
<path d="M169.7756 91.0324
L169.8232 91.0801
" />
<path d="M169.8232 91.0801
L169.8708 91.1753
" />
<path d="M169.8708 91.1753
L169.8708 91.3182
" />
<path d="M169.8708 91.3182
L169.8232 91.4134
" />
<path d="M169.8232 91.4134
L169.7756 91.4610
" />
<path d="M169.7756 91.4610
L169.6804 91.5086
" />
<path d="M169.6804 91.5086
L169.2994 91.5086
" />
<path d="M170.7280 91.3182
L170.7280 91.9848
" />
<path d="M170.4899 90.9372
L170.2518 91.6515
" />
<path d="M170.2518 91.6515
L170.8708 91.6515
" />
</g><text x="152.5000" y="123.1500"
textLength="2.2500" font-size="1.3333" lengthAdjust="spacingAndGlyphs"
text-anchor="middle" opacity="0" stroke-opacity="0">Q1</text>
<g class="stroked-text"><desc>Q1</desc>
<path d="M152.4048 123.2001
L152.3095 123.1524
" />
<path d="M152.3095 123.1524
L152.2143 123.0572
" />
<path d="M152.2143 123.0572
L152.0714 122.9143
" />
<path d="M152.0714 122.9143
L151.9762 122.8667
" />
<path d="M151.9762 122.8667
L151.8810 122.8667
" />
<path d="M151.9286 123.1048
L151.8333 123.0572
" />
<path d="M151.8333 123.0572
L151.7381 122.9620
" />
<path d="M151.7381 122.9620
L151.6905 122.7715
" />
<path d="M151.6905 122.7715
L151.6905 122.4382
" />
<path d="M151.6905 122.4382
L151.7381 122.2477
" />
<path d="M151.7381 122.2477
L151.8333 122.1524
" />
<path d="M151.8333 122.1524
L151.9286 122.1048
" />
<path d="M151.9286 122.1048
L152.1190 122.1048
" />
<path d="M152.1190 122.1048
L152.2143 122.1524
" />
<path d="M152.2143 122.1524
L152.3095 122.2477
" />
<path d="M152.3095 122.2477
L152.3571 122.4382
" />
<path d="M152.3571 122.4382
L152.3571 122.7715
" />
<path d="M152.3571 122.7715
L152.3095 122.9620
" />
<path d="M152.3095 122.9620
L152.2143 123.0572
" />
<path d="M152.2143 123.0572
L152.1190 123.1048
" />
<path d="M152.1190 123.1048
L151.9286 123.1048
" />
<path d="M153.3095 123.1048
L152.7381 123.1048
" />
<path d="M153.0238 123.1048
L153.0238 122.1048
" />
<path d="M153.0238 122.1048
L152.9286 122.2477
" />
<path d="M152.9286 122.2477
L152.8333 122.3429
" />
<path d="M152.8333 122.3429
L152.7381 122.3905
" />
</g><g transform="rotate(-90.000000 186.6000 89.0000)">
<text x="186.6000" y="89.5000"
textLength="2.2024" font-size="1.3333" lengthAdjust="spacingAndGlyphs"
text-anchor="middle" opacity="0" stroke-opacity="0">P1</text>
</g>
<g class="stroked-text"><desc>P1</desc>
<path d="M187.0548 89.7381
L186.0548 89.7381
" />
<path d="M186.0548 89.7381
L186.0548 89.3571
" />
<path d="M186.0548 89.3571
L186.1024 89.2619
" />
<path d="M186.1024 89.2619
L186.1501 89.2143
" />
<path d="M186.1501 89.2143
L186.2453 89.1667
" />
<path d="M186.2453 89.1667
L186.3882 89.1667
" />
<path d="M186.3882 89.1667
L186.4834 89.2143
" />
<path d="M186.4834 89.2143
L186.5310 89.2619
" />
<path d="M186.5310 89.2619
L186.5786 89.3571
" />
<path d="M186.5786 89.3571
L186.5786 89.7381
" />
<path d="M187.0548 88.2143
L187.0548 88.7857
" />
<path d="M187.0548 88.5000
L186.0548 88.5000
" />
<path d="M186.0548 88.5000
L186.1977 88.5952
" />
<path d="M186.1977 88.5952
L186.2929 88.6905
" />
<path d="M186.2929 88.6905
L186.3405 88.7857
" />
</g><text x="183.9875" y="118.4700"
textLength="2.0119" font-size="1.3333" lengthAdjust="spacingAndGlyphs"
text-anchor="middle" opacity="0" stroke-opacity="0">L1</text>
<g class="stroked-text"><desc>L1</desc>
<path d="M183.8208 118.4248
L183.3446 118.4248
" />
<path d="M183.3446 118.4248
L183.3446 117.4248
" />
<path d="M184.6780 118.4248
L184.1065 118.4248
" />
<path d="M184.3923 118.4248
L184.3923 117.4248
" />
<path d="M184.3923 117.4248
L184.2970 117.5677
" />
<path d="M184.2970 117.5677
L184.2018 117.6629
" />
<path d="M184.2018 117.6629
L184.1065 117.7105
" />
</g><text x="150.5000" y="102.3800"
textLength="2.9643" font-size="1.3333" lengthAdjust="spacingAndGlyphs"
text-anchor="middle" opacity="0" stroke-opacity="0">JP1</text>
<g class="stroked-text"><desc>JP1</desc>
<path d="M149.6667 101.3348
L149.6667 102.0491
" />
<path d="M149.6667 102.0491
L149.6190 102.1920
" />
<path d="M149.6190 102.1920
L149.5238 102.2872
" />
<path d="M149.5238 102.2872
L149.3810 102.3348
" />
<path d="M149.3810 102.3348
L149.2857 102.3348
" />
<path d="M150.1429 102.3348
L150.1429 101.3348
" />
<path d="M150.1429 101.3348
L150.5238 101.3348
" />
<path d="M150.5238 101.3348
L150.6190 101.3824
" />
<path d="M150.6190 101.3824
L150.6667 101.4301
" />
<path d="M150.6667 101.4301
L150.7143 101.5253
" />
<path d="M150.7143 101.5253
L150.7143 101.6682
" />
<path d="M150.7143 101.6682
L150.6667 101.7634
" />
<path d="M150.6667 101.7634
L150.6190 101.8110
" />
<path d="M150.6190 101.8110
L150.5238 101.8586
" />
<path d="M150.5238 101.8586
L150.1429 101.8586
" />
<path d="M151.6667 102.3348
L151.0952 102.3348
" />
<path d="M151.3810 102.3348
L151.3810 101.3348
" />
<path d="M151.3810 101.3348
L151.2857 101.4777
" />
<path d="M151.2857 101.4777
L151.1905 101.5729
" />
<path d="M151.1905 101.5729
L151.0952 101.6205
" />
</g><g transform="rotate(-90.000000 155.0900 86.2500)">
<text x="155.0900" y="86.7500"
textLength="1.9643" font-size="1.3333" lengthAdjust="spacingAndGlyphs"
text-anchor="middle" opacity="0" stroke-opacity="0">J3</text>
</g>
<g class="stroked-text"><desc>J3</desc>
<path d="M154.5448 86.5833
L155.2591 86.5833
" />
<path d="M155.2591 86.5833
L155.4020 86.6310
" />
<path d="M155.4020 86.6310
L155.4972 86.7262
" />
<path d="M155.4972 86.7262
L155.5448 86.8690
" />
<path d="M155.5448 86.8690
L155.5448 86.9643
" />
<path d="M154.5448 86.2024
L154.5448 85.5833
" />
<path d="M154.5448 85.5833
L154.9258 85.9167
" />
<path d="M154.9258 85.9167
L154.9258 85.7738
" />
<path d="M154.9258 85.7738
L154.9734 85.6786
" />
<path d="M154.9734 85.6786
L155.0210 85.6310
" />
<path d="M155.0210 85.6310
L155.1162 85.5833
" />
<path d="M155.1162 85.5833
L155.3543 85.5833
" />
<path d="M155.3543 85.5833
L155.4496 85.6310
" />
<path d="M155.4496 85.6310
L155.4972 85.6786
" />
<path d="M155.4972 85.6786
L155.5448 85.7738
" />
<path d="M155.5448 85.7738
L155.5448 86.0595
" />
<path d="M155.5448 86.0595
L155.4972 86.1548
" />
<path d="M155.4972 86.1548
L155.4496 86.2024
" />
</g><text x="141.5000" y="85.3950"
textLength="1.9643" font-size="1.3333" lengthAdjust="spacingAndGlyphs"
text-anchor="middle" opacity="0" stroke-opacity="0">J2</text>
<g class="stroked-text"><desc>J2</desc>
<path d="M141.1667 84.3498
L141.1667 85.0641
" />
<path d="M141.1667 85.0641
L141.1190 85.2070
" />
<path d="M141.1190 85.2070
L141.0238 85.3022
" />
<path d="M141.0238 85.3022
L140.8810 85.3498
" />
<path d="M140.8810 85.3498
L140.7857 85.3498
" />
<path d="M141.5952 84.4451
L141.6429 84.3974
" />
<path d="M141.6429 84.3974
L141.7381 84.3498
" />
<path d="M141.7381 84.3498
L141.9762 84.3498
" />
<path d="M141.9762 84.3498
L142.0714 84.3974
" />
<path d="M142.0714 84.3974
L142.1190 84.4451
" />
<path d="M142.1190 84.4451
L142.1667 84.5403
" />
<path d="M142.1667 84.5403
L142.1667 84.6355
" />
<path d="M142.1667 84.6355
L142.1190 84.7784
" />
<path d="M142.1190 84.7784
L141.5476 85.3498
" />
<path d="M141.5476 85.3498
L142.1667 85.3498
" />
</g><text x="141.5000" y="113.8400"
textLength="1.9643" font-size="1.3333" lengthAdjust="spacingAndGlyphs"
text-anchor="middle" opacity="0" stroke-opacity="0">J1</text>
<g class="stroked-text"><desc>J1</desc>
<path d="M141.1667 112.7948
L141.1667 113.5091
" />
<path d="M141.1667 113.5091
L141.1190 113.6520
" />
<path d="M141.1190 113.6520
L141.0238 113.7472
" />
<path d="M141.0238 113.7472
L140.8810 113.7948
" />
<path d="M140.8810 113.7948
L140.7857 113.7948
" />
<path d="M142.1667 113.7948
L141.5952 113.7948
" />
<path d="M141.8810 113.7948
L141.8810 112.7948
" />
<path d="M141.8810 112.7948
L141.7857 112.9377
" />
<path d="M141.7857 112.9377
L141.6905 113.0329
" />
<path d="M141.6905 113.0329
L141.5952 113.0805
" />
</g><text x="150.5000" y="114.1000"
textLength="2.0595" font-size="1.3333" lengthAdjust="spacingAndGlyphs"
text-anchor="middle" opacity="0" stroke-opacity="0">F1</text>
<g class="stroked-text"><desc>F1</desc>
<path d="M150.1667 113.5310
L149.8333 113.5310
" />
<path d="M149.8333 114.0548
L149.8333 113.0548
" />
<path d="M149.8333 113.0548
L150.3095 113.0548
" />
<path d="M151.2143 114.0548
L150.6429 114.0548
" />
<path d="M150.9286 114.0548
L150.9286 113.0548
" />
<path d="M150.9286 113.0548
L150.8333 113.1977
" />
<path d="M150.8333 113.1977
L150.7381 113.2929
" />
<path d="M150.7381 113.2929
L150.6429 113.3405
" />
</g><g transform="rotate(-90.000000 171.9000 115.2500)">
<text x="171.9000" y="115.7500"
textLength="2.2024" font-size="1.3333" lengthAdjust="spacingAndGlyphs"
text-anchor="middle" opacity="0" stroke-opacity="0">D1</text>
</g>
<g class="stroked-text"><desc>D1</desc>
<path d="M172.3548 115.9881
L171.3548 115.9881
" />
<path d="M171.3548 115.9881
L171.3548 115.7500
" />
<path d="M171.3548 115.7500
L171.4024 115.6071
" />
<path d="M171.4024 115.6071
L171.4977 115.5119
" />
<path d="M171.4977 115.5119
L171.5929 115.4643
" />
<path d="M171.5929 115.4643
L171.7834 115.4167
" />
<path d="M171.7834 115.4167
L171.9262 115.4167
" />
<path d="M171.9262 115.4167
L172.1167 115.4643
" />
<path d="M172.1167 115.4643
L172.2120 115.5119
" />
<path d="M172.2120 115.5119
L172.3072 115.6071
" />
<path d="M172.3072 115.6071
L172.3548 115.7500
" />
<path d="M172.3548 115.7500
L172.3548 115.9881
" />
<path d="M172.3548 114.4643
L172.3548 115.0357
" />
<path d="M172.3548 114.7500
L171.3548 114.7500
" />
<path d="M171.3548 114.7500
L171.4977 114.8452
" />
<path d="M171.4977 114.8452
L171.5929 114.9405
" />
<path d="M171.5929 114.9405
L171.6405 115.0357
" />
</g><g transform="rotate(-90.000000 169.6800 120.2500)">
<text x="169.6800" y="120.7500"
textLength="3.1548" font-size="1.3333" lengthAdjust="spacingAndGlyphs"
text-anchor="middle" opacity="0" stroke-opacity="0">C13</text>
</g>
<g class="stroked-text"><desc>C13</desc>
<path d="M170.0396 120.8929
L170.0872 120.9405
" />
<path d="M170.0872 120.9405
L170.1348 121.0833
" />
<path d="M170.1348 121.0833
L170.1348 121.1786
" />
<path d="M170.1348 121.1786
L170.0872 121.3214
" />
<path d="M170.0872 121.3214
L169.9920 121.4167
" />
<path d="M169.9920 121.4167
L169.8967 121.4643
" />
<path d="M169.8967 121.4643
L169.7062 121.5119
" />
<path d="M169.7062 121.5119
L169.5634 121.5119
" />
<path d="M169.5634 121.5119
L169.3729 121.4643
" />
<path d="M169.3729 121.4643
L169.2777 121.4167
" />
<path d="M169.2777 121.4167
L169.1824 121.3214
" />
<path d="M169.1824 121.3214
L169.1348 121.1786
" />
<path d="M169.1348 121.1786
L169.1348 121.0833
" />
<path d="M169.1348 121.0833
L169.1824 120.9405
" />
<path d="M169.1824 120.9405
L169.2301 120.8929
" />
<path d="M170.1348 119.9405
L170.1348 120.5119
" />
<path d="M170.1348 120.2262
L169.1348 120.2262
" />
<path d="M169.1348 120.2262
L169.2777 120.3214
" />
<path d="M169.2777 120.3214
L169.3729 120.4167
" />
<path d="M169.3729 120.4167
L169.4205 120.5119
" />
<path d="M169.1348 119.6071
L169.1348 118.9881
" />
<path d="M169.1348 118.9881
L169.5158 119.3214
" />
<path d="M169.5158 119.3214
L169.5158 119.1786
" />
<path d="M169.5158 119.1786
L169.5634 119.0833
" />
<path d="M169.5634 119.0833
L169.6110 119.0357
" />
<path d="M169.6110 119.0357
L169.7062 118.9881
" />
<path d="M169.7062 118.9881
L169.9443 118.9881
" />
<path d="M169.9443 118.9881
L170.0396 119.0357
" />
<path d="M170.0396 119.0357
L170.0872 119.0833
" />
<path d="M170.0872 119.0833
L170.1348 119.1786
" />
<path d="M170.1348 119.1786
L170.1348 119.4643
" />
<path d="M170.1348 119.4643
L170.0872 119.5595
" />
<path d="M170.0872 119.5595
L170.0396 119.6071
" />
</g><g transform="rotate(-90.000000 185.0300 91.7500)">
<text x="185.0300" y="92.2500"
textLength="3.1548" font-size="1.3333" lengthAdjust="spacingAndGlyphs"
text-anchor="middle" opacity="0" stroke-opacity="0">C12</text>
</g>
<g class="stroked-text"><desc>C12</desc>
<path d="M185.3896 92.3929
L185.4372 92.4405
" />
<path d="M185.4372 92.4405
L185.4848 92.5833
" />
<path d="M185.4848 92.5833
L185.4848 92.6786
" />
<path d="M185.4848 92.6786
L185.4372 92.8214
" />
<path d="M185.4372 92.8214
L185.3420 92.9167
" />
<path d="M185.3420 92.9167
L185.2467 92.9643
" />
<path d="M185.2467 92.9643
L185.0562 93.0119
" />
<path d="M185.0562 93.0119
L184.9134 93.0119
" />
<path d="M184.9134 93.0119
L184.7229 92.9643
" />
<path d="M184.7229 92.9643
L184.6277 92.9167
" />
<path d="M184.6277 92.9167
L184.5324 92.8214
" />
<path d="M184.5324 92.8214
L184.4848 92.6786
" />
<path d="M184.4848 92.6786
L184.4848 92.5833
" />
<path d="M184.4848 92.5833
L184.5324 92.4405
" />
<path d="M184.5324 92.4405
L184.5801 92.3929
" />
<path d="M185.4848 91.4405
L185.4848 92.0119
" />
<path d="M185.4848 91.7262
L184.4848 91.7262
" />
<path d="M184.4848 91.7262
L184.6277 91.8214
" />
<path d="M184.6277 91.8214
L184.7229 91.9167
" />
<path d="M184.7229 91.9167
L184.7705 92.0119
" />
<path d="M184.5801 91.0595
L184.5324 91.0119
" />
<path d="M184.5324 91.0119
L184.4848 90.9167
" />
<path d="M184.4848 90.9167
L184.4848 90.6786
" />
<path d="M184.4848 90.6786
L184.5324 90.5833
" />
<path d="M184.5324 90.5833
L184.5801 90.5357
" />
<path d="M184.5801 90.5357
L184.6753 90.4881
" />
<path d="M184.6753 90.4881
L184.7705 90.4881
" />
<path d="M184.7705 90.4881
L184.9134 90.5357
" />
<path d="M184.9134 90.5357
L185.4848 91.1071
" />
<path d="M185.4848 91.1071
L185.4848 90.4881
" />
</g><g transform="rotate(-90.000000 167.5000 107.2500)">
<text x="167.5000" y="107.7500"
textLength="2.2024" font-size="1.3333" lengthAdjust="spacingAndGlyphs"
text-anchor="middle" opacity="0" stroke-opacity="0">C7</text>
</g>
<g class="stroked-text"><desc>C7</desc>
<path d="M167.8596 107.4167
L167.9072 107.4643
" />
<path d="M167.9072 107.4643
L167.9548 107.6071
" />
<path d="M167.9548 107.6071
L167.9548 107.7024
" />
<path d="M167.9548 107.7024
L167.9072 107.8452
" />
<path d="M167.9072 107.8452
L167.8120 107.9405
" />
<path d="M167.8120 107.9405
L167.7167 107.9881
" />
<path d="M167.7167 107.9881
L167.5262 108.0357
" />
<path d="M167.5262 108.0357
L167.3834 108.0357
" />
<path d="M167.3834 108.0357
L167.1929 107.9881
" />
<path d="M167.1929 107.9881
L167.0977 107.9405
" />
<path d="M167.0977 107.9405
L167.0024 107.8452
" />
<path d="M167.0024 107.8452
L166.9548 107.7024
" />
<path d="M166.9548 107.7024
L166.9548 107.6071
" />
<path d="M166.9548 107.6071
L167.0024 107.4643
" />
<path d="M167.0024 107.4643
L167.0501 107.4167
" />
<path d="M166.9548 107.0833
L166.9548 106.4167
" />
<path d="M166.9548 106.4167
L167.9548 106.8452
" />
</g><g transform="rotate(-90.000000 164.0000 107.2500)">
<text x="164.0000" y="107.7500"
textLength="2.2024" font-size="1.3333" lengthAdjust="spacingAndGlyphs"
text-anchor="middle" opacity="0" stroke-opacity="0">C6</text>
</g>
<g class="stroked-text"><desc>C6</desc>
<path d="M164.3596 107.4167
L164.4072 107.4643
" />
<path d="M164.4072 107.4643
L164.4548 107.6071
" />
<path d="M164.4548 107.6071
L164.4548 107.7024
" />
<path d="M164.4548 107.7024
L164.4072 107.8452
" />
<path d="M164.4072 107.8452
L164.3120 107.9405
" />
<path d="M164.3120 107.9405
L164.2167 107.9881
" />
<path d="M164.2167 107.9881
L164.0262 108.0357
" />
<path d="M164.0262 108.0357
L163.8834 108.0357
" />
<path d="M163.8834 108.0357
L163.6929 107.9881
" />
<path d="M163.6929 107.9881
L163.5977 107.9405
" />
<path d="M163.5977 107.9405
L163.5024 107.8452
" />
<path d="M163.5024 107.8452
L163.4548 107.7024
" />
<path d="M163.4548 107.7024
L163.4548 107.6071
" />
<path d="M163.4548 107.6071
L163.5024 107.4643
" />
<path d="M163.5024 107.4643
L163.5501 107.4167
" />
<path d="M163.4548 106.5595
L163.4548 106.7500
" />
<path d="M163.4548 106.7500
L163.5024 106.8452
" />
<path d="M163.5024 106.8452
L163.5501 106.8929
" />
<path d="M163.5501 106.8929
L163.6929 106.9881
" />
<path d="M163.6929 106.9881
L163.8834 107.0357
" />
<path d="M163.8834 107.0357
L164.2643 107.0357
" />
<path d="M164.2643 107.0357
L164.3596 106.9881
" />
<path d="M164.3596 106.9881
L164.4072 106.9405
" />
<path d="M164.4072 106.9405
L164.4548 106.8452
" />
<path d="M164.4548 106.8452
L164.4548 106.6548
" />
<path d="M164.4548 106.6548
L164.4072 106.5595
" />
<path d="M164.4072 106.5595
L164.3596 106.5119
" />
<path d="M164.3596 106.5119
L164.2643 106.4643
" />
<path d="M164.2643 106.4643
L164.0262 106.4643
" />
<path d="M164.0262 106.4643
L163.9310 106.5119
" />
<path d="M163.9310 106.5119
L163.8834 106.5595
" />
<path d="M163.8834 106.5595
L163.8358 106.6548
" />
<path d="M163.8358 106.6548
L163.8358 106.8452
" />
<path d="M163.8358 106.8452
L163.8834 106.9405
" />
<path d="M163.8834 106.9405
L163.9310 106.9881
" />
<path d="M163.9310 106.9881
L164.0262 107.0357
" />
</g><g transform="rotate(-90.000000 160.9900 107.2500)">
<text x="160.9900" y="107.7500"
textLength="2.2024" font-size="1.3333" lengthAdjust="spacingAndGlyphs"
text-anchor="middle" opacity="0" stroke-opacity="0">C5</text>
</g>
<g class="stroked-text"><desc>C5</desc>
<path d="M161.3496 107.4167
L161.3972 107.4643
" />
<path d="M161.3972 107.4643
L161.4448 107.6071
" />
<path d="M161.4448 107.6071
L161.4448 107.7024
" />
<path d="M161.4448 107.7024
L161.3972 107.8452
" />
<path d="M161.3972 107.8452
L161.3020 107.9405
" />
<path d="M161.3020 107.9405
L161.2067 107.9881
" />
<path d="M161.2067 107.9881
L161.0162 108.0357
" />
<path d="M161.0162 108.0357
L160.8734 108.0357
" />
<path d="M160.8734 108.0357
L160.6829 107.9881
" />
<path d="M160.6829 107.9881
L160.5877 107.9405
" />
<path d="M160.5877 107.9405
L160.4924 107.8452
" />
<path d="M160.4924 107.8452
L160.4448 107.7024
" />
<path d="M160.4448 107.7024
L160.4448 107.6071
" />
<path d="M160.4448 107.6071
L160.4924 107.4643
" />
<path d="M160.4924 107.4643
L160.5401 107.4167
" />
<path d="M160.4448 106.5119
L160.4448 106.9881
" />
<path d="M160.4448 106.9881
L160.9210 107.0357
" />
<path d="M160.9210 107.0357
L160.8734 106.9881
" />
<path d="M160.8734 106.9881
L160.8258 106.8929
" />
<path d="M160.8258 106.8929
L160.8258 106.6548
" />
<path d="M160.8258 106.6548
L160.8734 106.5595
" />
<path d="M160.8734 106.5595
L160.9210 106.5119
" />
<path d="M160.9210 106.5119
L161.0162 106.4643
" />
<path d="M161.0162 106.4643
L161.2543 106.4643
" />
<path d="M161.2543 106.4643
L161.3496 106.5119
" />
<path d="M161.3496 106.5119
L161.3972 106.5595
" />
<path d="M161.3972 106.5595
L161.4448 106.6548
" />
<path d="M161.4448 106.6548
L161.4448 106.8929
" />
<path d="M161.4448 106.8929
L161.3972 106.9881
" />
<path d="M161.3972 106.9881
L161.3496 107.0357
" />
</g><g transform="rotate(-90.000000 157.8200 107.2500)">
<text x="157.8200" y="107.7500"
textLength="2.2024" font-size="1.3333" lengthAdjust="spacingAndGlyphs"
text-anchor="middle" opacity="0" stroke-opacity="0">C4</text>
</g>
<g class="stroked-text"><desc>C4</desc>
<path d="M158.1796 107.4167
L158.2272 107.4643
" />
<path d="M158.2272 107.4643
L158.2748 107.6071
" />
<path d="M158.2748 107.6071
L158.2748 107.7024
" />
<path d="M158.2748 107.7024
L158.2272 107.8452
" />
<path d="M158.2272 107.8452
L158.1320 107.9405
" />
<path d="M158.1320 107.9405
L158.0367 107.9881
" />
<path d="M158.0367 107.9881
L157.8462 108.0357
" />
<path d="M157.8462 108.0357
L157.7034 108.0357
" />
<path d="M157.7034 108.0357
L157.5129 107.9881
" />
<path d="M157.5129 107.9881
L157.4177 107.9405
" />
<path d="M157.4177 107.9405
L157.3224 107.8452
" />
<path d="M157.3224 107.8452
L157.2748 107.7024
" />
<path d="M157.2748 107.7024
L157.2748 107.6071
" />
<path d="M157.2748 107.6071
L157.3224 107.4643
" />
<path d="M157.3224 107.4643
L157.3701 107.4167
" />
<path d="M157.6082 106.5595
L158.2748 106.5595
" />
<path d="M157.2272 106.7976
L157.9415 107.0357
" />
<path d="M157.9415 107.0357
L157.9415 106.4167
" />
</g><text x="161.0000" y="110.9300"
textLength="2.2024" font-size="1.3333" lengthAdjust="spacingAndGlyphs"
text-anchor="middle" opacity="0" stroke-opacity="0">D2</text>
<g class="stroked-text"><desc>D2</desc>
<path d="M160.2619 110.8848
L160.2619 109.8848
" />
<path d="M160.2619 109.8848
L160.5000 109.8848
" />
<path d="M160.5000 109.8848
L160.6429 109.9324
" />
<path d="M160.6429 109.9324
L160.7381 110.0277
" />
<path d="M160.7381 110.0277
L160.7857 110.1229
" />
<path d="M160.7857 110.1229
L160.8333 110.3134
" />
<path d="M160.8333 110.3134
L160.8333 110.4562
" />
<path d="M160.8333 110.4562
L160.7857 110.6467
" />
<path d="M160.7857 110.6467
L160.7381 110.7420
" />
<path d="M160.7381 110.7420
L160.6429 110.8372
" />
<path d="M160.6429 110.8372
L160.5000 110.8848
" />
<path d="M160.5000 110.8848
L160.2619 110.8848
" />
<path d="M161.2143 109.9801
L161.2619 109.9324
" />
<path d="M161.2619 109.9324
L161.3571 109.8848
" />
<path d="M161.3571 109.8848
L161.5952 109.8848
" />
<path d="M161.5952 109.8848
L161.6905 109.9324
" />
<path d="M161.6905 109.9324
L161.7381 109.9801
" />
<path d="M161.7381 109.9801
L161.7857 110.0753
" />
<path d="M161.7857 110.0753
L161.7857 110.1705
" />
<path d="M161.7857 110.1705
L161.7381 110.3134
" />
<path d="M161.7381 110.3134
L161.1667 110.8848
" />
<path d="M161.1667 110.8848
L161.7857 110.8848
" />
</g><text x="160.6000" y="116.4500"
textLength="2.2500" font-size="1.3333" lengthAdjust="spacingAndGlyphs"
text-anchor="middle" opacity="0" stroke-opacity="0">U4</text>
<g class="stroked-text"><desc>U4</desc>
<path d="M159.8381 115.4048
L159.8381 116.2143
" />
<path d="M159.8381 116.2143
L159.8857 116.3096
" />
<path d="M159.8857 116.3096
L159.9333 116.3572
" />
<path d="M159.9333 116.3572
L160.0286 116.4048
" />
<path d="M160.0286 116.4048
L160.2190 116.4048
" />
<path d="M160.2190 116.4048
L160.3143 116.3572
" />
<path d="M160.3143 116.3572
L160.3619 116.3096
" />
<path d="M160.3619 116.3096
L160.4095 116.2143
" />
<path d="M160.4095 116.2143
L160.4095 115.4048
" />
<path d="M161.3143 115.7382
L161.3143 116.4048
" />
<path d="M161.0762 115.3572
L160.8381 116.0715
" />
<path d="M160.8381 116.0715
L161.4571 116.0715
" />
</g></g>
<g style="fill:none; 
stroke:#000000; stroke-width:0.1200; stroke-opacity:1; 
stroke-linecap:round; stroke-linejoin:round;">
<path d="M194.5250 108.0400
L194.5250 114.4400
" />
<path d="M189.4750 108.0400
L189.4750 114.4400
" />
<path d="M194.5250 108.0400 A2.5250 2.5250 0.0 0 0 189.4750 108.0400" />
<path d="M189.4750 114.4400 A2.5250 2.5250 0.0 0 0 194.5250 114.4400" />
<path d="M175.9150 87.3900
L175.9150 86.9050
" />
<path d="M175.9150 90.8850
L175.9150 90.1600
" />
<path d="M176.6400 86.6650
L176.2150 86.6650
" />
<path d="M176.6400 90.8850
L175.9150 90.8850
" />
<path d="M179.4100 86.6650
L180.1350 86.6650
" />
<path d="M179.4100 90.8850
L180.1350 90.8850
" />
<path d="M180.1350 86.6650
L180.1350 87.3900
" />
<path d="M180.1350 90.8850
L180.1350 90.1600
" />
<path style="fill:#000000; fill-opacity:1.0000; 
stroke:#000000; stroke-width:0.1200; stroke-opacity:1; 
stroke-linecap:round; stroke-linejoin:round;fill-rule:evenodd;"
d="M 175.9150,86.6650
175.6750,86.3350
176.1550,86.3350
Z" /> 
</g>
<g style="fill:none; 
stroke:#000000; stroke-width:0.1200; stroke-opacity:1; 
stroke-linecap:round; stroke-linejoin:round;">
<path d="M158.8947 98.2500
L159.1068 98.4621
" />
<path d="M164.0000 103.3553
L163.7879 103.1432
" />
<path d="M159.1068 98.0379
L158.8947 98.2500
" />
<path d="M164.2121 103.1432
L164.0000 103.3553
" />
<path d="M163.7879 93.3568
L164.0000 93.1447
" />
<path d="M168.8932 98.4621
L169.1053 98.2500
" />
<path d="M164.0000 93.1447
L164.2121 93.3568
" />
<path d="M169.1053 98.2500
L168.8932 98.0379
" />
<path style="fill:#000000; fill-opacity:1.0000; 
stroke:#000000; stroke-width:0.1200; stroke-opacity:1; 
stroke-linecap:round; stroke-linejoin:round;fill-rule:evenodd;"
d="M 158.6808,98.8882
158.1080,98.7962
158.5889,98.3154
Z" /> 
</g>
<g style="fill:none; 
stroke:#000000; stroke-width:0.1200; stroke-opacity:1; 
stroke-linecap:round; stroke-linejoin:round;">
<path d="M179.0100 94.8000 A1.0000 1.0000 0.0 0 0 181.0100 94.8000" />
<path d="M182.6600 105.0800
L182.6600 94.8000
" />
<path d="M182.6600 94.8000
L181.0100 94.8000
" />
<path d="M179.0100 94.8000
L177.3600 94.8000
" />
<path d="M177.3600 105.0800
L182.6600 105.0800
" />
<path d="M177.3600 94.8000
L177.3600 105.0800
" />
<path d="M152.6500 93.4500
L146.3500 93.4500
" />
<path d="M152.6500 93.2000
L152.6500 93.4500
" />
<path d="M152.6500 88.7000
L152.6500 91.3000
" />
<path d="M152.6500 86.5500
L152.6500 86.8000
" />
<path d="M146.3500 93.4500
L146.3500 93.2000
" />
<path d="M146.3500 91.3000
L146.3500 88.7000
" />
<path d="M146.3500 86.8000
L146.3500 86.5500
" />
<path d="M146.3500 86.5500
L152.6500 86.5500
" />
<path d="M167.2229 115.6600
L168.6771 115.6600
" />
<path d="M167.2229 113.8400
L168.6771 113.8400
" />
<path d="M190.7729 100.3400
L192.2271 100.3400
" />
<path d="M190.7729 102.1600
L192.2271 102.1600
" />
<path d="M184.7271 115.6600
L183.2729 115.6600
" />
<path d="M184.7271 113.8400
L183.2729 113.8400
" />
<path d="M190.7729 96.3400
L192.2271 96.3400
" />
<path d="M190.7729 98.1600
L192.2271 98.1600
" />
<path d="M182.7729 86.8400
L184.2271 86.8400
" />
<path d="M182.7729 88.6600
L184.2271 88.6600
" />
<path d="M170.7271 94.1600
L169.2729 94.1600
" />
<path d="M170.7271 92.3400
L169.2729 92.3400
" />
<path d="M170.7271 90.6600
L169.2729 90.6600
" />
<path d="M170.7271 88.8400
L169.2729 88.8400
" />
<path d="M152.5000 121.8100
L153.1500 121.8100
" />
<path d="M152.5000 121.8100
L151.8500 121.8100
" />
<path d="M152.5000 118.6900
L153.1500 118.6900
" />
<path d="M152.5000 118.6900
L151.8500 118.6900
" />
<path style="fill:#000000; fill-opacity:1.0000; 
stroke:#000000; stroke-width:0.1200; stroke-opacity:1; 
stroke-linecap:round; stroke-linejoin:round;fill-rule:evenodd;"
d="M 153.9025,122.0900
153.4225,122.0900
153.6625,121.7600
Z" /> 
</g>
<g style="fill:none; 
stroke:#000000; stroke-width:0.1200; stroke-opacity:1; 
stroke-linecap:round; stroke-linejoin:round;">
<path d="M196.1400 84.2500
L195.9150 84.2500
" />
<path d="M193.0400 84.2500
L190.3150 84.2500
" />
<path d="M187.6400 92.1250
L187.6400 91.9000
" />
<path d="M196.1500 93.7500
L195.9400 93.7500
" />
<path d="M190.2900 93.7500
L192.9900 93.7500
" />
<path d="M187.7900 93.7500
L187.7900 84.2500
" />
<path d="M183.3854 121.6100
L184.5896 121.6100
" />
<path d="M183.3854 118.8900
L184.5896 118.8900
" />
<path d="M149.1700 102.8800
L150.5000 102.8800
" />
<path d="M149.1700 104.2100
L149.1700 102.8800
" />
<path d="M149.1700 105.4800
L149.1700 110.6200
" />
<path d="M149.1700 105.4800
L151.8300 105.4800
" />
<path d="M149.1700 110.6200
L151.8300 110.6200
" />
<path d="M151.8300 105.4800
L151.8300 110.6200
" />
<path d="M156.0900 87.5800
L156.0900 86.2500
" />
<path d="M157.4200 87.5800
L156.0900 87.5800
" />
<path d="M158.6900 87.5800
L171.4500 87.5800
" />
<path d="M158.6900 87.5800
L158.6900 84.9200
" />
<path d="M171.4500 87.5800
L171.4500 84.9200
" />
<path d="M158.6900 84.9200
L171.4500 84.9200
" />
<path d="M140.1700 85.8950
L141.5000 85.8950
" />
<path d="M140.1700 87.2250
L140.1700 85.8950
" />
<path d="M140.1700 88.4950
L140.1700 93.6350
" />
<path d="M140.1700 88.4950
L142.8300 88.4950
" />
<path d="M140.1700 93.6350
L142.8300 93.6350
" />
<path d="M142.8300 88.4950
L142.8300 93.6350
" />
<path d="M140.1700 114.3400
L141.5000 114.3400
" />
<path d="M140.1700 115.6700
L140.1700 114.3400
" />
<path d="M140.1700 116.9400
L140.1700 122.0800
" />
<path d="M140.1700 116.9400
L142.8300 116.9400
" />
<path d="M140.1700 122.0800
L142.8300 122.0800
" />
<path d="M142.8300 116.9400
L142.8300 122.0800
" />
<path d="M150.2387 114.5400
L150.7613 114.5400
" />
<path d="M150.2387 115.9600
L150.7613 115.9600
" />
<path d="M172.7500 122.1600
L172.7500 110.8500
" />
<path d="M179.2500 122.1600
L172.7500 122.1600
" />
<path d="M179.2500 122.1600
L179.2500 110.8500
" />
<path d="M167.2650 119.9887
L167.2650 120.5113
" />
<path d="M168.7350 119.9887
L168.7350 120.5113
" />
<path d="M182.7650 91.4887
L182.7650 92.0113
" />
<path d="M184.2350 91.4887
L184.2350 92.0113
" />
<path d="M169.9150 107.5113
L169.9150 106.9887
" />
<path d="M168.4450 107.5113
L168.4450 106.9887
" />
<path d="M164.9450 107.5113
L164.9450 106.9887
" />
<path d="M166.4150 107.5113
L166.4150 106.9887
" />
<path d="M161.9350 107.5113
L161.9350 106.9887
" />
<path d="M163.4050 107.5113
L163.4050 106.9887
" />
<path d="M158.7650 107.5113
L158.7650 106.9887
" />
<path d="M160.2350 107.5113
L160.2350 106.9887
" />
<path d="M158.5400 111.1150
L158.5400 113.3850
" />
<path d="M158.5400 113.3850
L162.6000 113.3850
" />
<path d="M162.6000 111.1150
L158.5400 111.1150
" />
</g>
<g style="fill:none; 
stroke:#000000; stroke-width:0.1500; stroke-opacity:1; 
stroke-linecap:round; stroke-linejoin:round;">
<path d="M158.5250 116.8750
L162.6750 116.8750
" />
<path d="M158.5250 122.0250
L162.6750 122.0250
" />
<path style="fill:#000000; fill-opacity:1.0000; 
stroke:#000000; stroke-width:0.1200; stroke-opacity:1; 
stroke-linecap:round; stroke-linejoin:round;fill-rule:evenodd;"
d="M 158.1000,116.9500
157.8600,116.6200
158.3400,116.6200
Z" /> 
</g> 
</svg>
