%TF.GenerationSoftware,KiCad,Pcbnew,8.0.6*%
%TF.CreationDate,2025-05-31T11:47:02-05:00*%
%TF.ProjectId,TPS_Calibration_Board,5450535f-4361-46c6-9962-726174696f6e,rev?*%
%TF.SameCoordinates,Original*%
%TF.FileFunction,Copper,L3,Inr*%
%TF.FilePolarity,Positive*%
%FSLAX46Y46*%
G04 Gerber Fmt 4.6, Leading zero omitted, Abs format (unit mm)*
G04 Created by KiCad (PCBNEW 8.0.6) date 2025-05-31 11:47:02*
%MOMM*%
%LPD*%
G01*
G04 APERTURE LIST*
%TA.AperFunction,ComponentPad*%
%ADD10R,1.600000X1.600000*%
%TD*%
%TA.AperFunction,ComponentPad*%
%ADD11O,1.600000X1.600000*%
%TD*%
%TA.AperFunction,ComponentPad*%
%ADD12C,1.500000*%
%TD*%
%TA.AperFunction,ComponentPad*%
%ADD13O,2.600000X1.100000*%
%TD*%
%TA.AperFunction,ComponentPad*%
%ADD14O,2.100000X1.100000*%
%TD*%
%TA.AperFunction,ComponentPad*%
%ADD15R,1.700000X1.700000*%
%TD*%
%TA.AperFunction,ComponentPad*%
%ADD16O,1.700000X1.700000*%
%TD*%
%TA.AperFunction,ComponentPad*%
%ADD17C,0.600000*%
%TD*%
%TA.AperFunction,ViaPad*%
%ADD18C,0.600000*%
%TD*%
G04 APERTURE END LIST*
D10*
%TO.N,EEPROM_CS*%
%TO.C,U1*%
X176200000Y-96130000D03*
D11*
%TO.N,EEPROM_MISO*%
X176200000Y-98670000D03*
%TO.N,Net-(U1-~{WP})*%
X176200000Y-101210000D03*
%TO.N,GND*%
X176200000Y-103750000D03*
%TO.N,EEPROM_MOSI*%
X183820000Y-103750000D03*
%TO.N,EEPROM_SCK*%
X183820000Y-101210000D03*
%TO.N,Net-(U1-~{HOLD})*%
X183820000Y-98670000D03*
%TO.N,+3.3V*%
X183820000Y-96130000D03*
%TD*%
D12*
%TO.N,Net-(U2-PF1)*%
%TO.C,Y1*%
X192000000Y-108800000D03*
%TO.N,Net-(U2-PF0)*%
X192000000Y-113680000D03*
%TD*%
D13*
%TO.N,GND*%
%TO.C,P1*%
X194470000Y-84680000D03*
D14*
X189110000Y-84680000D03*
D13*
X194470000Y-93320000D03*
D14*
X189110000Y-93320000D03*
%TD*%
D15*
%TO.N,/BOOT0*%
%TO.C,JP1*%
X150500000Y-104210000D03*
D16*
%TO.N,+3.3V*%
X150500000Y-106750000D03*
%TO.N,N/C*%
X150500000Y-109290000D03*
%TD*%
D15*
%TO.N,+5V*%
%TO.C,J2*%
X141500000Y-87225000D03*
D16*
%TO.N,SIG_IN*%
X141500000Y-89765000D03*
%TO.N,GND*%
X141500000Y-92305000D03*
%TD*%
D15*
%TO.N,+5V*%
%TO.C,J1*%
X141500000Y-115670000D03*
D16*
%TO.N,SIG_OUT*%
X141500000Y-118210000D03*
%TO.N,GND*%
X141500000Y-120750000D03*
%TD*%
D17*
%TO.N,GND*%
%TO.C,U4*%
X160000000Y-117650000D03*
X160000000Y-118850000D03*
X160000000Y-120150000D03*
X160000000Y-121250000D03*
X161200000Y-117650000D03*
X161200000Y-118850000D03*
X161200000Y-120150000D03*
X161200000Y-121250000D03*
%TD*%
D18*
%TO.N,GND*%
X155000000Y-89500000D03*
X167500000Y-91250000D03*
%TO.N,Net-(U3-USBDM)*%
X171000000Y-88750000D03*
%TO.N,Net-(U3-USBDP)*%
X171000000Y-92250000D03*
%TO.N,UART_RX*%
X174000000Y-88750000D03*
%TO.N,UART_TX*%
X172977473Y-91251214D03*
X172978462Y-94782438D03*
%TO.N,UART_RX*%
X168500000Y-94750000D03*
%TO.N,GND*%
X174000000Y-91250000D03*
%TO.N,Net-(U3-USBDM)*%
X176709038Y-93760713D03*
X174500000Y-92250000D03*
%TO.N,Net-(P1-D+)*%
X168500000Y-91750000D03*
%TO.N,Net-(P1-D-)*%
X168500000Y-88250000D03*
%TO.N,GND*%
X148500000Y-101250000D03*
%TO.N,NRST*%
X152500000Y-100250000D03*
%TO.N,Net-(P1-D-)*%
X187500000Y-88250000D03*
%TO.N,Net-(P1-D+)*%
X186000000Y-89250000D03*
%TO.N,Net-(P1-VCONN)*%
X186500000Y-88250000D03*
X185500000Y-91250000D03*
%TO.N,Net-(P1-CC)*%
X189000000Y-94750000D03*
X186635709Y-89900000D03*
%TO.N,GND*%
X187000000Y-92250000D03*
X186500000Y-86250000D03*
%TO.N,USB_SENSE*%
X181000000Y-86750000D03*
%TO.N,GND*%
X181500000Y-92250000D03*
%TO.N,Net-(U3-VCC)*%
X175000000Y-87750000D03*
X181000000Y-89250000D03*
%TO.N,GND*%
X180500000Y-85750000D03*
%TO.N,EEPROM_CS*%
X173000000Y-96250000D03*
X162000000Y-91750000D03*
%TO.N,EEPROM_MOSI*%
X168000000Y-102250000D03*
X170500000Y-104250000D03*
%TO.N,GND*%
X174000000Y-105250000D03*
%TO.N,+5V*%
X147000000Y-99750000D03*
%TO.N,/SWDIO*%
X165000000Y-88750000D03*
X166000000Y-90750000D03*
%TO.N,/SWCLK*%
X162603179Y-90947313D03*
X160500000Y-88750000D03*
%TO.N,+3.3V*%
X157500000Y-109250000D03*
X156500000Y-88750000D03*
%TO.N,GND*%
X162500000Y-88750000D03*
%TO.N,SIG_OUT*%
X166000000Y-104250000D03*
%TO.N,SIG_IN*%
X155500000Y-102250000D03*
%TO.N,NRST*%
X159500000Y-102250000D03*
X155000000Y-100250000D03*
%TO.N,GND*%
X157500000Y-95750000D03*
%TO.N,Net-(U2-PF0)*%
X157500000Y-102750000D03*
%TO.N,Net-(U2-PF1)*%
X158500000Y-102750000D03*
%TO.N,GND*%
X184000000Y-111750000D03*
X160500000Y-103750000D03*
X171000000Y-100750000D03*
X168500000Y-101250000D03*
%TO.N,Net-(U2-VDDA)*%
X170500000Y-96250000D03*
X158000000Y-100250000D03*
X169500000Y-100750000D03*
X169000000Y-104750000D03*
%TO.N,+3.3V*%
X188000000Y-119250000D03*
%TO.N,GND*%
X188000000Y-121250000D03*
X156000000Y-121250000D03*
X157500000Y-112750000D03*
X172000000Y-111750000D03*
X165000000Y-120250000D03*
%TO.N,Net-(R11-Pad1)*%
X164693487Y-114764784D03*
%TO.N,Net-(Q1-S)*%
X156000000Y-119250000D03*
X164935000Y-118815000D03*
%TO.N,GND*%
X148000000Y-121250000D03*
%TO.N,+5V*%
X149000000Y-117250000D03*
%TD*%
%TA.AperFunction,Conductor*%
%TO.N,GND*%
G36*
X143167680Y-82645783D02*
G01*
X143191347Y-82670368D01*
X143199257Y-82681255D01*
X143296172Y-82814646D01*
X143435354Y-82953828D01*
X143594595Y-83069524D01*
X143677455Y-83111743D01*
X143769970Y-83158882D01*
X143769972Y-83158882D01*
X143769975Y-83158884D01*
X143870317Y-83191487D01*
X143957173Y-83219709D01*
X144151578Y-83250500D01*
X144151583Y-83250500D01*
X191848422Y-83250500D01*
X192042826Y-83219709D01*
X192230025Y-83158884D01*
X192405405Y-83069524D01*
X192564646Y-82953828D01*
X192703828Y-82814646D01*
X192808653Y-82670366D01*
X192863982Y-82627703D01*
X192933596Y-82621724D01*
X192995390Y-82654330D01*
X193016356Y-82681253D01*
X193049614Y-82738857D01*
X193181736Y-82904533D01*
X193213198Y-82943985D01*
X193394753Y-83112441D01*
X193405521Y-83122433D01*
X193622296Y-83270228D01*
X193622301Y-83270230D01*
X193622302Y-83270231D01*
X193622303Y-83270232D01*
X193823335Y-83367043D01*
X193858677Y-83384063D01*
X193869853Y-83387510D01*
X193928109Y-83426080D01*
X193956267Y-83490025D01*
X193945383Y-83559042D01*
X193898913Y-83611218D01*
X193833300Y-83630000D01*
X193616579Y-83630000D01*
X193413733Y-83670348D01*
X193413725Y-83670350D01*
X193222641Y-83749500D01*
X193222631Y-83749505D01*
X193050664Y-83864410D01*
X193050660Y-83864413D01*
X192904413Y-84010660D01*
X192904410Y-84010664D01*
X192789505Y-84182631D01*
X192789500Y-84182641D01*
X192710351Y-84373723D01*
X192710350Y-84373725D01*
X192699157Y-84430000D01*
X193553012Y-84430000D01*
X193535795Y-84439940D01*
X193479940Y-84495795D01*
X193440444Y-84564204D01*
X193420000Y-84640504D01*
X193420000Y-84719496D01*
X193440444Y-84795796D01*
X193479940Y-84864205D01*
X193535795Y-84920060D01*
X193553012Y-84930000D01*
X192699157Y-84930000D01*
X192710350Y-84986274D01*
X192710351Y-84986276D01*
X192789500Y-85177358D01*
X192789505Y-85177368D01*
X192904410Y-85349335D01*
X192904413Y-85349339D01*
X193050660Y-85495586D01*
X193050664Y-85495589D01*
X193222631Y-85610494D01*
X193222641Y-85610499D01*
X193413725Y-85689649D01*
X193413733Y-85689651D01*
X193616579Y-85729999D01*
X193616583Y-85730000D01*
X194220000Y-85730000D01*
X194220000Y-84980000D01*
X194720000Y-84980000D01*
X194720000Y-85730000D01*
X195323417Y-85730000D01*
X195323420Y-85729999D01*
X195526266Y-85689651D01*
X195526274Y-85689649D01*
X195717358Y-85610499D01*
X195717367Y-85610494D01*
X195806609Y-85550865D01*
X195873286Y-85529987D01*
X195940666Y-85548471D01*
X195987357Y-85600450D01*
X195999500Y-85653967D01*
X195999500Y-92346032D01*
X195979815Y-92413071D01*
X195927011Y-92458826D01*
X195857853Y-92468770D01*
X195806609Y-92449134D01*
X195717368Y-92389505D01*
X195717358Y-92389500D01*
X195526274Y-92310350D01*
X195526266Y-92310348D01*
X195323420Y-92270000D01*
X194720000Y-92270000D01*
X194720000Y-93020000D01*
X194220000Y-93020000D01*
X194220000Y-92270000D01*
X193616579Y-92270000D01*
X193413733Y-92310348D01*
X193413725Y-92310350D01*
X193222641Y-92389500D01*
X193222631Y-92389505D01*
X193050664Y-92504410D01*
X193050660Y-92504413D01*
X192904413Y-92650660D01*
X192904410Y-92650664D01*
X192789505Y-92822631D01*
X192789500Y-92822641D01*
X192710351Y-93013723D01*
X192710350Y-93013725D01*
X192699157Y-93070000D01*
X193553012Y-93070000D01*
X193535795Y-93079940D01*
X193479940Y-93135795D01*
X193440444Y-93204204D01*
X193420000Y-93280504D01*
X193420000Y-93359496D01*
X193440444Y-93435796D01*
X193479940Y-93504205D01*
X193535795Y-93560060D01*
X193553012Y-93570000D01*
X192699157Y-93570000D01*
X192710350Y-93626274D01*
X192710351Y-93626276D01*
X192789500Y-93817358D01*
X192789505Y-93817368D01*
X192904410Y-93989335D01*
X192904413Y-93989339D01*
X193050660Y-94135586D01*
X193050664Y-94135589D01*
X193222631Y-94250494D01*
X193222641Y-94250499D01*
X193413725Y-94329649D01*
X193413733Y-94329651D01*
X193616579Y-94369999D01*
X193616583Y-94370000D01*
X194220000Y-94370000D01*
X194220000Y-93620000D01*
X194720000Y-93620000D01*
X194720000Y-94370000D01*
X195323417Y-94370000D01*
X195323420Y-94369999D01*
X195526266Y-94329651D01*
X195526274Y-94329649D01*
X195717358Y-94250499D01*
X195717367Y-94250494D01*
X195806609Y-94190865D01*
X195873286Y-94169987D01*
X195940666Y-94188471D01*
X195987357Y-94240450D01*
X195999500Y-94293967D01*
X195999500Y-124219302D01*
X195979815Y-124286341D01*
X195927011Y-124332096D01*
X195857853Y-124342040D01*
X195794297Y-124313015D01*
X195790262Y-124309115D01*
X195790207Y-124309175D01*
X195594479Y-124127567D01*
X195541015Y-124091116D01*
X195377704Y-123979772D01*
X195377700Y-123979770D01*
X195377697Y-123979768D01*
X195377696Y-123979767D01*
X195141325Y-123865938D01*
X195141327Y-123865938D01*
X194890623Y-123788606D01*
X194890619Y-123788605D01*
X194890615Y-123788604D01*
X194765823Y-123769794D01*
X194631187Y-123749500D01*
X194631182Y-123749500D01*
X194368818Y-123749500D01*
X194368812Y-123749500D01*
X194207247Y-123773853D01*
X194109385Y-123788604D01*
X194109382Y-123788605D01*
X194109376Y-123788606D01*
X193858673Y-123865938D01*
X193622303Y-123979767D01*
X193622302Y-123979768D01*
X193405520Y-124127567D01*
X193213198Y-124306014D01*
X193049616Y-124511140D01*
X193049614Y-124511143D01*
X193016357Y-124568746D01*
X192965789Y-124616961D01*
X192897182Y-124630183D01*
X192832317Y-124604215D01*
X192808652Y-124579631D01*
X192703832Y-124435360D01*
X192703828Y-124435354D01*
X192564646Y-124296172D01*
X192405405Y-124180476D01*
X192230029Y-124091117D01*
X192042826Y-124030290D01*
X191848422Y-123999500D01*
X191848417Y-123999500D01*
X191815892Y-123999500D01*
X144315892Y-123999500D01*
X144250000Y-123999500D01*
X144151583Y-123999500D01*
X144151578Y-123999500D01*
X143957173Y-124030290D01*
X143769970Y-124091117D01*
X143594594Y-124180476D01*
X143522624Y-124232766D01*
X143435354Y-124296172D01*
X143435352Y-124296174D01*
X143435351Y-124296174D01*
X143296174Y-124435351D01*
X143296167Y-124435360D01*
X143191346Y-124579631D01*
X143136016Y-124622297D01*
X143066403Y-124628275D01*
X143004608Y-124595668D01*
X142983643Y-124568746D01*
X142950386Y-124511143D01*
X142786805Y-124306019D01*
X142786804Y-124306018D01*
X142786801Y-124306014D01*
X142594479Y-124127567D01*
X142541015Y-124091116D01*
X142377704Y-123979772D01*
X142377700Y-123979770D01*
X142377697Y-123979768D01*
X142377696Y-123979767D01*
X142141325Y-123865938D01*
X142141327Y-123865938D01*
X141890623Y-123788606D01*
X141890619Y-123788605D01*
X141890615Y-123788604D01*
X141765823Y-123769794D01*
X141631187Y-123749500D01*
X141631182Y-123749500D01*
X141368818Y-123749500D01*
X141368812Y-123749500D01*
X141207247Y-123773853D01*
X141109385Y-123788604D01*
X141109382Y-123788605D01*
X141109376Y-123788606D01*
X140858673Y-123865938D01*
X140622303Y-123979767D01*
X140622302Y-123979768D01*
X140405520Y-124127567D01*
X140209793Y-124309175D01*
X140208482Y-124307762D01*
X140155370Y-124339398D01*
X140085540Y-124337023D01*
X140028080Y-124297272D01*
X140001233Y-124232766D01*
X140000500Y-124219302D01*
X140000500Y-121288011D01*
X140020185Y-121220972D01*
X140072989Y-121175217D01*
X140142147Y-121165273D01*
X140205703Y-121194298D01*
X140236882Y-121235606D01*
X140326399Y-121427578D01*
X140461894Y-121621082D01*
X140628917Y-121788105D01*
X140822421Y-121923600D01*
X141036507Y-122023429D01*
X141036516Y-122023433D01*
X141250000Y-122080634D01*
X141250000Y-121183012D01*
X141307007Y-121215925D01*
X141434174Y-121250000D01*
X141565826Y-121250000D01*
X141692993Y-121215925D01*
X141750000Y-121183012D01*
X141750000Y-122080633D01*
X141963483Y-122023433D01*
X141963492Y-122023429D01*
X142085235Y-121966660D01*
X159636892Y-121966660D01*
X159636892Y-121966661D01*
X159650692Y-121975333D01*
X159650691Y-121975333D01*
X159820861Y-122034878D01*
X159999997Y-122055062D01*
X160000003Y-122055062D01*
X160179138Y-122034878D01*
X160179141Y-122034877D01*
X160349305Y-121975334D01*
X160349306Y-121975334D01*
X160363106Y-121966661D01*
X160363106Y-121966660D01*
X160836892Y-121966660D01*
X160836892Y-121966661D01*
X160850692Y-121975333D01*
X160850691Y-121975333D01*
X161020861Y-122034878D01*
X161199997Y-122055062D01*
X161200003Y-122055062D01*
X161379138Y-122034878D01*
X161379141Y-122034877D01*
X161549305Y-121975334D01*
X161549306Y-121975334D01*
X161563106Y-121966661D01*
X161563106Y-121966660D01*
X161200001Y-121603553D01*
X161200000Y-121603553D01*
X160836892Y-121966660D01*
X160363106Y-121966660D01*
X160000001Y-121603553D01*
X160000000Y-121603553D01*
X159636892Y-121966660D01*
X142085235Y-121966660D01*
X142177578Y-121923600D01*
X142371082Y-121788105D01*
X142538105Y-121621082D01*
X142673600Y-121427578D01*
X142756407Y-121249997D01*
X159194938Y-121249997D01*
X159194938Y-121250002D01*
X159215121Y-121429138D01*
X159274665Y-121599304D01*
X159283338Y-121613107D01*
X159646446Y-121250000D01*
X159646446Y-121249999D01*
X159616610Y-121220163D01*
X159850000Y-121220163D01*
X159850000Y-121279837D01*
X159872836Y-121334968D01*
X159915032Y-121377164D01*
X159970163Y-121400000D01*
X160029837Y-121400000D01*
X160084968Y-121377164D01*
X160127164Y-121334968D01*
X160150000Y-121279837D01*
X160150000Y-121249999D01*
X160353553Y-121249999D01*
X160600000Y-121496446D01*
X160846446Y-121250001D01*
X160846446Y-121250000D01*
X160816609Y-121220163D01*
X161050000Y-121220163D01*
X161050000Y-121279837D01*
X161072836Y-121334968D01*
X161115032Y-121377164D01*
X161170163Y-121400000D01*
X161229837Y-121400000D01*
X161284968Y-121377164D01*
X161327164Y-121334968D01*
X161350000Y-121279837D01*
X161350000Y-121250000D01*
X161553553Y-121250000D01*
X161916660Y-121613106D01*
X161916661Y-121613106D01*
X161925334Y-121599306D01*
X161925334Y-121599305D01*
X161984877Y-121429141D01*
X161984878Y-121429138D01*
X162005062Y-121250002D01*
X162005062Y-121249997D01*
X161984878Y-121070861D01*
X161925333Y-120900692D01*
X161916661Y-120886892D01*
X161916660Y-120886892D01*
X161553553Y-121250000D01*
X161350000Y-121250000D01*
X161350000Y-121220163D01*
X161327164Y-121165032D01*
X161284968Y-121122836D01*
X161229837Y-121100000D01*
X161170163Y-121100000D01*
X161115032Y-121122836D01*
X161072836Y-121165032D01*
X161050000Y-121220163D01*
X160816609Y-121220163D01*
X160600000Y-121003553D01*
X160353553Y-121249999D01*
X160150000Y-121249999D01*
X160150000Y-121220163D01*
X160127164Y-121165032D01*
X160084968Y-121122836D01*
X160029837Y-121100000D01*
X159970163Y-121100000D01*
X159915032Y-121122836D01*
X159872836Y-121165032D01*
X159850000Y-121220163D01*
X159616610Y-121220163D01*
X159283338Y-120886891D01*
X159283337Y-120886891D01*
X159274667Y-120900691D01*
X159274662Y-120900701D01*
X159215122Y-121070858D01*
X159215121Y-121070861D01*
X159194938Y-121249997D01*
X142756407Y-121249997D01*
X142773429Y-121213492D01*
X142773432Y-121213486D01*
X142830636Y-121000000D01*
X141933012Y-121000000D01*
X141965925Y-120942993D01*
X142000000Y-120815826D01*
X142000000Y-120699999D01*
X159803553Y-120699999D01*
X160000000Y-120896446D01*
X160196446Y-120700001D01*
X160196446Y-120700000D01*
X160196445Y-120699999D01*
X161003553Y-120699999D01*
X161200000Y-120896446D01*
X161396446Y-120700001D01*
X161396446Y-120700000D01*
X161200000Y-120503553D01*
X161003553Y-120699999D01*
X160196445Y-120699999D01*
X160000000Y-120503553D01*
X159803553Y-120699999D01*
X142000000Y-120699999D01*
X142000000Y-120684174D01*
X141965925Y-120557007D01*
X141933012Y-120500000D01*
X142830636Y-120500000D01*
X142830635Y-120499999D01*
X142773432Y-120286513D01*
X142773429Y-120286507D01*
X142709774Y-120149997D01*
X159194938Y-120149997D01*
X159194938Y-120150002D01*
X159215121Y-120329138D01*
X159274665Y-120499304D01*
X159283338Y-120513107D01*
X159646446Y-120150000D01*
X159646446Y-120149999D01*
X159616610Y-120120163D01*
X159850000Y-120120163D01*
X159850000Y-120179837D01*
X159872836Y-120234968D01*
X159915032Y-120277164D01*
X159970163Y-120300000D01*
X160029837Y-120300000D01*
X160084968Y-120277164D01*
X160127164Y-120234968D01*
X160150000Y-120179837D01*
X160150000Y-120120163D01*
X160127164Y-120065032D01*
X160084968Y-120022836D01*
X160029837Y-120000000D01*
X159970163Y-120000000D01*
X159915032Y-120022836D01*
X159872836Y-120065032D01*
X159850000Y-120120163D01*
X159616610Y-120120163D01*
X159283338Y-119786891D01*
X159283337Y-119786891D01*
X159274667Y-119800691D01*
X159274662Y-119800701D01*
X159215122Y-119970858D01*
X159215121Y-119970861D01*
X159194938Y-120149997D01*
X142709774Y-120149997D01*
X142673600Y-120072422D01*
X142673599Y-120072420D01*
X142538113Y-119878926D01*
X142538108Y-119878920D01*
X142371078Y-119711890D01*
X142185405Y-119581879D01*
X142141780Y-119527302D01*
X142134588Y-119457804D01*
X142166110Y-119395449D01*
X142185406Y-119378730D01*
X142369257Y-119249996D01*
X155194435Y-119249996D01*
X155194435Y-119250003D01*
X155214630Y-119429249D01*
X155214631Y-119429254D01*
X155274211Y-119599523D01*
X155344817Y-119711891D01*
X155370184Y-119752262D01*
X155497738Y-119879816D01*
X155650478Y-119975789D01*
X155784931Y-120022836D01*
X155820745Y-120035368D01*
X155820750Y-120035369D01*
X155999996Y-120055565D01*
X156000000Y-120055565D01*
X156000004Y-120055565D01*
X156179249Y-120035369D01*
X156179252Y-120035368D01*
X156179255Y-120035368D01*
X156349522Y-119975789D01*
X156502262Y-119879816D01*
X156629816Y-119752262D01*
X156725789Y-119599522D01*
X156760613Y-119500000D01*
X159703553Y-119500000D01*
X160000000Y-119796447D01*
X160600000Y-120396446D01*
X160876283Y-120120163D01*
X161050000Y-120120163D01*
X161050000Y-120179837D01*
X161072836Y-120234968D01*
X161115032Y-120277164D01*
X161170163Y-120300000D01*
X161229837Y-120300000D01*
X161284968Y-120277164D01*
X161327164Y-120234968D01*
X161350000Y-120179837D01*
X161350000Y-120150000D01*
X161553553Y-120150000D01*
X161916660Y-120513106D01*
X161916661Y-120513106D01*
X161925334Y-120499306D01*
X161925334Y-120499305D01*
X161984877Y-120329141D01*
X161984878Y-120329138D01*
X162005062Y-120150002D01*
X162005062Y-120149997D01*
X161984878Y-119970861D01*
X161925333Y-119800692D01*
X161916661Y-119786892D01*
X161916660Y-119786892D01*
X161553553Y-120150000D01*
X161350000Y-120150000D01*
X161350000Y-120120163D01*
X161327164Y-120065032D01*
X161284968Y-120022836D01*
X161229837Y-120000000D01*
X161170163Y-120000000D01*
X161115032Y-120022836D01*
X161072836Y-120065032D01*
X161050000Y-120120163D01*
X160876283Y-120120163D01*
X161200000Y-119796447D01*
X161496446Y-119500000D01*
X160934127Y-118937681D01*
X160900642Y-118876358D01*
X160904661Y-118820163D01*
X161050000Y-118820163D01*
X161050000Y-118879837D01*
X161072836Y-118934968D01*
X161115032Y-118977164D01*
X161170163Y-119000000D01*
X161229837Y-119000000D01*
X161284968Y-118977164D01*
X161327164Y-118934968D01*
X161350000Y-118879837D01*
X161350000Y-118850000D01*
X161553553Y-118850000D01*
X161916660Y-119213106D01*
X161916661Y-119213106D01*
X161925334Y-119199306D01*
X161925334Y-119199305D01*
X161984877Y-119029141D01*
X161984878Y-119029138D01*
X162005062Y-118850002D01*
X162005062Y-118849997D01*
X162001118Y-118814996D01*
X164129435Y-118814996D01*
X164129435Y-118815003D01*
X164149630Y-118994249D01*
X164149631Y-118994254D01*
X164209211Y-119164523D01*
X164262918Y-119249996D01*
X164305184Y-119317262D01*
X164432738Y-119444816D01*
X164494945Y-119483903D01*
X164564013Y-119527302D01*
X164585478Y-119540789D01*
X164753327Y-119599522D01*
X164755745Y-119600368D01*
X164755750Y-119600369D01*
X164934996Y-119620565D01*
X164935000Y-119620565D01*
X164935004Y-119620565D01*
X165114249Y-119600369D01*
X165114252Y-119600368D01*
X165114255Y-119600368D01*
X165284522Y-119540789D01*
X165437262Y-119444816D01*
X165564816Y-119317262D01*
X165607082Y-119249996D01*
X187194435Y-119249996D01*
X187194435Y-119250003D01*
X187214630Y-119429249D01*
X187214631Y-119429254D01*
X187274211Y-119599523D01*
X187344817Y-119711891D01*
X187370184Y-119752262D01*
X187497738Y-119879816D01*
X187650478Y-119975789D01*
X187784931Y-120022836D01*
X187820745Y-120035368D01*
X187820750Y-120035369D01*
X187999996Y-120055565D01*
X188000000Y-120055565D01*
X188000004Y-120055565D01*
X188179249Y-120035369D01*
X188179252Y-120035368D01*
X188179255Y-120035368D01*
X188349522Y-119975789D01*
X188502262Y-119879816D01*
X188629816Y-119752262D01*
X188725789Y-119599522D01*
X188785368Y-119429255D01*
X188791061Y-119378730D01*
X188805565Y-119250003D01*
X188805565Y-119249996D01*
X188785369Y-119070750D01*
X188785368Y-119070745D01*
X188758601Y-118994249D01*
X188725789Y-118900478D01*
X188712819Y-118879837D01*
X188672081Y-118815003D01*
X188629816Y-118747738D01*
X188502262Y-118620184D01*
X188349523Y-118524211D01*
X188179254Y-118464631D01*
X188179249Y-118464630D01*
X188000004Y-118444435D01*
X187999996Y-118444435D01*
X187820750Y-118464630D01*
X187820745Y-118464631D01*
X187650476Y-118524211D01*
X187497737Y-118620184D01*
X187370184Y-118747737D01*
X187274211Y-118900476D01*
X187214631Y-119070745D01*
X187214630Y-119070750D01*
X187194435Y-119249996D01*
X165607082Y-119249996D01*
X165660789Y-119164522D01*
X165720368Y-118994255D01*
X165722294Y-118977164D01*
X165740565Y-118815003D01*
X165740565Y-118814996D01*
X165720369Y-118635750D01*
X165720368Y-118635745D01*
X165714923Y-118620184D01*
X165660789Y-118465478D01*
X165660257Y-118464632D01*
X165564815Y-118312737D01*
X165437262Y-118185184D01*
X165284523Y-118089211D01*
X165114254Y-118029631D01*
X165114249Y-118029630D01*
X164935004Y-118009435D01*
X164934996Y-118009435D01*
X164755750Y-118029630D01*
X164755745Y-118029631D01*
X164585476Y-118089211D01*
X164432737Y-118185184D01*
X164305184Y-118312737D01*
X164209211Y-118465476D01*
X164149631Y-118635745D01*
X164149630Y-118635750D01*
X164129435Y-118814996D01*
X162001118Y-118814996D01*
X161984878Y-118670861D01*
X161925333Y-118500692D01*
X161916661Y-118486892D01*
X161916660Y-118486892D01*
X161553553Y-118850000D01*
X161350000Y-118850000D01*
X161350000Y-118820163D01*
X161327164Y-118765032D01*
X161284968Y-118722836D01*
X161229837Y-118700000D01*
X161170163Y-118700000D01*
X161115032Y-118722836D01*
X161072836Y-118765032D01*
X161050000Y-118820163D01*
X160904661Y-118820163D01*
X160905626Y-118806666D01*
X160934127Y-118762319D01*
X161200000Y-118496447D01*
X161446446Y-118250000D01*
X161446446Y-118249999D01*
X160816610Y-117620163D01*
X161050000Y-117620163D01*
X161050000Y-117679837D01*
X161072836Y-117734968D01*
X161115032Y-117777164D01*
X161170163Y-117800000D01*
X161229837Y-117800000D01*
X161284968Y-117777164D01*
X161327164Y-117734968D01*
X161350000Y-117679837D01*
X161350000Y-117650000D01*
X161553553Y-117650000D01*
X161916660Y-118013106D01*
X161916661Y-118013106D01*
X161925334Y-117999306D01*
X161925334Y-117999305D01*
X161984877Y-117829141D01*
X161984878Y-117829138D01*
X162005062Y-117650002D01*
X162005062Y-117649997D01*
X161984878Y-117470861D01*
X161925333Y-117300692D01*
X161916661Y-117286892D01*
X161916660Y-117286892D01*
X161553553Y-117650000D01*
X161350000Y-117650000D01*
X161350000Y-117620163D01*
X161327164Y-117565032D01*
X161284968Y-117522836D01*
X161229837Y-117500000D01*
X161170163Y-117500000D01*
X161115032Y-117522836D01*
X161072836Y-117565032D01*
X161050000Y-117620163D01*
X160816610Y-117620163D01*
X160600000Y-117403553D01*
X159753553Y-118250000D01*
X160265872Y-118762319D01*
X160299357Y-118823642D01*
X160294373Y-118893334D01*
X160265872Y-118937681D01*
X159703553Y-119500000D01*
X156760613Y-119500000D01*
X156785368Y-119429255D01*
X156791061Y-119378730D01*
X156805565Y-119250003D01*
X156805565Y-119249996D01*
X156785369Y-119070750D01*
X156785368Y-119070745D01*
X156758601Y-118994249D01*
X156725789Y-118900478D01*
X156712819Y-118879837D01*
X156694069Y-118849997D01*
X159194938Y-118849997D01*
X159194938Y-118850002D01*
X159215121Y-119029138D01*
X159274665Y-119199304D01*
X159283338Y-119213107D01*
X159646446Y-118850000D01*
X159646446Y-118849999D01*
X159616610Y-118820163D01*
X159850000Y-118820163D01*
X159850000Y-118879837D01*
X159872836Y-118934968D01*
X159915032Y-118977164D01*
X159970163Y-119000000D01*
X160029837Y-119000000D01*
X160084968Y-118977164D01*
X160127164Y-118934968D01*
X160150000Y-118879837D01*
X160150000Y-118820163D01*
X160127164Y-118765032D01*
X160084968Y-118722836D01*
X160029837Y-118700000D01*
X159970163Y-118700000D01*
X159915032Y-118722836D01*
X159872836Y-118765032D01*
X159850000Y-118820163D01*
X159616610Y-118820163D01*
X159283338Y-118486891D01*
X159283337Y-118486891D01*
X159274667Y-118500691D01*
X159274662Y-118500701D01*
X159215122Y-118670858D01*
X159215121Y-118670861D01*
X159194938Y-118849997D01*
X156694069Y-118849997D01*
X156672081Y-118815003D01*
X156629816Y-118747738D01*
X156502262Y-118620184D01*
X156349523Y-118524211D01*
X156179254Y-118464631D01*
X156179249Y-118464630D01*
X156000004Y-118444435D01*
X155999996Y-118444435D01*
X155820750Y-118464630D01*
X155820745Y-118464631D01*
X155650476Y-118524211D01*
X155497737Y-118620184D01*
X155370184Y-118747737D01*
X155274211Y-118900476D01*
X155214631Y-119070745D01*
X155214630Y-119070750D01*
X155194435Y-119249996D01*
X142369257Y-119249996D01*
X142371401Y-119248495D01*
X142538495Y-119081401D01*
X142674035Y-118887830D01*
X142773903Y-118673663D01*
X142835063Y-118445408D01*
X142855659Y-118210000D01*
X142835063Y-117974592D01*
X142782163Y-117777164D01*
X142773905Y-117746344D01*
X142773904Y-117746343D01*
X142773903Y-117746337D01*
X142674035Y-117532171D01*
X142631105Y-117470861D01*
X142538496Y-117338600D01*
X142486787Y-117286891D01*
X142449892Y-117249996D01*
X148194435Y-117249996D01*
X148194435Y-117250003D01*
X148214630Y-117429249D01*
X148214631Y-117429254D01*
X148274211Y-117599523D01*
X148319000Y-117670803D01*
X148370184Y-117752262D01*
X148497738Y-117879816D01*
X148650478Y-117975789D01*
X148820745Y-118035368D01*
X148820750Y-118035369D01*
X148999996Y-118055565D01*
X149000000Y-118055565D01*
X149000004Y-118055565D01*
X149179249Y-118035369D01*
X149179252Y-118035368D01*
X149179255Y-118035368D01*
X149349522Y-117975789D01*
X149502262Y-117879816D01*
X149629816Y-117752262D01*
X149694073Y-117649997D01*
X159194938Y-117649997D01*
X159194938Y-117650002D01*
X159215121Y-117829138D01*
X159274665Y-117999304D01*
X159283338Y-118013107D01*
X159646446Y-117650000D01*
X159646446Y-117649999D01*
X159616610Y-117620163D01*
X159850000Y-117620163D01*
X159850000Y-117679837D01*
X159872836Y-117734968D01*
X159915032Y-117777164D01*
X159970163Y-117800000D01*
X160029837Y-117800000D01*
X160084968Y-117777164D01*
X160127164Y-117734968D01*
X160150000Y-117679837D01*
X160150000Y-117620163D01*
X160127164Y-117565032D01*
X160084968Y-117522836D01*
X160029837Y-117500000D01*
X159970163Y-117500000D01*
X159915032Y-117522836D01*
X159872836Y-117565032D01*
X159850000Y-117620163D01*
X159616610Y-117620163D01*
X159283338Y-117286891D01*
X159283337Y-117286891D01*
X159274667Y-117300691D01*
X159274662Y-117300701D01*
X159215122Y-117470858D01*
X159215121Y-117470861D01*
X159194938Y-117649997D01*
X149694073Y-117649997D01*
X149725789Y-117599522D01*
X149785368Y-117429255D01*
X149788264Y-117403553D01*
X149805565Y-117250003D01*
X149805565Y-117249996D01*
X149785369Y-117070750D01*
X149785368Y-117070745D01*
X149771014Y-117029725D01*
X149737287Y-116933337D01*
X159636891Y-116933337D01*
X159636891Y-116933338D01*
X160000000Y-117296446D01*
X160000001Y-117296446D01*
X160363107Y-116933338D01*
X160363105Y-116933337D01*
X160836891Y-116933337D01*
X160836891Y-116933338D01*
X161200000Y-117296446D01*
X161200001Y-117296446D01*
X161563107Y-116933338D01*
X161549304Y-116924665D01*
X161379138Y-116865121D01*
X161200003Y-116844938D01*
X161199997Y-116844938D01*
X161020861Y-116865121D01*
X161020858Y-116865122D01*
X160850701Y-116924662D01*
X160850691Y-116924667D01*
X160836891Y-116933337D01*
X160363105Y-116933337D01*
X160349304Y-116924665D01*
X160179138Y-116865121D01*
X160000003Y-116844938D01*
X159999997Y-116844938D01*
X159820861Y-116865121D01*
X159820858Y-116865122D01*
X159650701Y-116924662D01*
X159650691Y-116924667D01*
X159636891Y-116933337D01*
X149737287Y-116933337D01*
X149725789Y-116900478D01*
X149711380Y-116877547D01*
X149686582Y-116838080D01*
X149629816Y-116747738D01*
X149502262Y-116620184D01*
X149419010Y-116567873D01*
X149349523Y-116524211D01*
X149179254Y-116464631D01*
X149179249Y-116464630D01*
X149000004Y-116444435D01*
X148999996Y-116444435D01*
X148820750Y-116464630D01*
X148820745Y-116464631D01*
X148650476Y-116524211D01*
X148497737Y-116620184D01*
X148370184Y-116747737D01*
X148274211Y-116900476D01*
X148214631Y-117070745D01*
X148214630Y-117070750D01*
X148194435Y-117249996D01*
X142449892Y-117249996D01*
X142416567Y-117216671D01*
X142383084Y-117155351D01*
X142388068Y-117085659D01*
X142429939Y-117029725D01*
X142460915Y-117012810D01*
X142592331Y-116963796D01*
X142707546Y-116877546D01*
X142793796Y-116762331D01*
X142844091Y-116627483D01*
X142850500Y-116567873D01*
X142850499Y-114772128D01*
X142849709Y-114764780D01*
X163887922Y-114764780D01*
X163887922Y-114764787D01*
X163908117Y-114944033D01*
X163908118Y-114944038D01*
X163967698Y-115114307D01*
X164063671Y-115267046D01*
X164191225Y-115394600D01*
X164343965Y-115490573D01*
X164514232Y-115550152D01*
X164514237Y-115550153D01*
X164693483Y-115570349D01*
X164693487Y-115570349D01*
X164693491Y-115570349D01*
X164872736Y-115550153D01*
X164872739Y-115550152D01*
X164872742Y-115550152D01*
X165043009Y-115490573D01*
X165195749Y-115394600D01*
X165323303Y-115267046D01*
X165419276Y-115114306D01*
X165478855Y-114944039D01*
X165478856Y-114944033D01*
X165499052Y-114764787D01*
X165499052Y-114764780D01*
X165478856Y-114585534D01*
X165478855Y-114585529D01*
X165451115Y-114506254D01*
X165419276Y-114415262D01*
X165394735Y-114376206D01*
X165323302Y-114262521D01*
X165195749Y-114134968D01*
X165043010Y-114038995D01*
X164872741Y-113979415D01*
X164872736Y-113979414D01*
X164693491Y-113959219D01*
X164693483Y-113959219D01*
X164514237Y-113979414D01*
X164514232Y-113979415D01*
X164343963Y-114038995D01*
X164191224Y-114134968D01*
X164063671Y-114262521D01*
X163967698Y-114415260D01*
X163908118Y-114585529D01*
X163908117Y-114585534D01*
X163887922Y-114764780D01*
X142849709Y-114764780D01*
X142844091Y-114712517D01*
X142802521Y-114601063D01*
X142793797Y-114577671D01*
X142793793Y-114577664D01*
X142707547Y-114462455D01*
X142707544Y-114462452D01*
X142592335Y-114376206D01*
X142592328Y-114376202D01*
X142457482Y-114325908D01*
X142457483Y-114325908D01*
X142397883Y-114319501D01*
X142397881Y-114319500D01*
X142397873Y-114319500D01*
X142397864Y-114319500D01*
X140602129Y-114319500D01*
X140602123Y-114319501D01*
X140542516Y-114325908D01*
X140407671Y-114376202D01*
X140407664Y-114376206D01*
X140292455Y-114462452D01*
X140292452Y-114462455D01*
X140223766Y-114554208D01*
X140167832Y-114596079D01*
X140098141Y-114601063D01*
X140036818Y-114567577D01*
X140003334Y-114506254D01*
X140000500Y-114479897D01*
X140000500Y-113679997D01*
X190744723Y-113679997D01*
X190744723Y-113680002D01*
X190763793Y-113897975D01*
X190763793Y-113897979D01*
X190820422Y-114109322D01*
X190820424Y-114109326D01*
X190820425Y-114109330D01*
X190866661Y-114208484D01*
X190912897Y-114307638D01*
X190912898Y-114307639D01*
X191038402Y-114486877D01*
X191193123Y-114641598D01*
X191372361Y-114767102D01*
X191570670Y-114859575D01*
X191782023Y-114916207D01*
X191964926Y-114932208D01*
X191999998Y-114935277D01*
X192000000Y-114935277D01*
X192000002Y-114935277D01*
X192028254Y-114932805D01*
X192217977Y-114916207D01*
X192429330Y-114859575D01*
X192627639Y-114767102D01*
X192806877Y-114641598D01*
X192961598Y-114486877D01*
X193087102Y-114307639D01*
X193179575Y-114109330D01*
X193236207Y-113897977D01*
X193255277Y-113680000D01*
X193236207Y-113462023D01*
X193179575Y-113250670D01*
X193087102Y-113052362D01*
X193087100Y-113052359D01*
X193087099Y-113052357D01*
X192961599Y-112873124D01*
X192961596Y-112873121D01*
X192806877Y-112718402D01*
X192627639Y-112592898D01*
X192627640Y-112592898D01*
X192627638Y-112592897D01*
X192528484Y-112546661D01*
X192429330Y-112500425D01*
X192429326Y-112500424D01*
X192429322Y-112500422D01*
X192217977Y-112443793D01*
X192000002Y-112424723D01*
X191999998Y-112424723D01*
X191854682Y-112437436D01*
X191782023Y-112443793D01*
X191782020Y-112443793D01*
X191570677Y-112500422D01*
X191570668Y-112500426D01*
X191372361Y-112592898D01*
X191372357Y-112592900D01*
X191193121Y-112718402D01*
X191038402Y-112873121D01*
X190912900Y-113052357D01*
X190912898Y-113052361D01*
X190820426Y-113250668D01*
X190820422Y-113250677D01*
X190763793Y-113462020D01*
X190763793Y-113462024D01*
X190744723Y-113679997D01*
X140000500Y-113679997D01*
X140000500Y-106749999D01*
X149144341Y-106749999D01*
X149144341Y-106750000D01*
X149164936Y-106985403D01*
X149164938Y-106985413D01*
X149226094Y-107213655D01*
X149226096Y-107213659D01*
X149226097Y-107213663D01*
X149325965Y-107427830D01*
X149325967Y-107427834D01*
X149407814Y-107544723D01*
X149460819Y-107620422D01*
X149461501Y-107621395D01*
X149461506Y-107621402D01*
X149628597Y-107788493D01*
X149628603Y-107788498D01*
X149814158Y-107918425D01*
X149857783Y-107973002D01*
X149864977Y-108042500D01*
X149833454Y-108104855D01*
X149814158Y-108121575D01*
X149628597Y-108251505D01*
X149461505Y-108418597D01*
X149325965Y-108612169D01*
X149325964Y-108612171D01*
X149226098Y-108826335D01*
X149226094Y-108826344D01*
X149164938Y-109054586D01*
X149164936Y-109054596D01*
X149144341Y-109289999D01*
X149144341Y-109290000D01*
X149164936Y-109525403D01*
X149164938Y-109525413D01*
X149226094Y-109753655D01*
X149226096Y-109753659D01*
X149226097Y-109753663D01*
X149284923Y-109879815D01*
X149325965Y-109967830D01*
X149325967Y-109967834D01*
X149434281Y-110122521D01*
X149461505Y-110161401D01*
X149628599Y-110328495D01*
X149725384Y-110396265D01*
X149822165Y-110464032D01*
X149822167Y-110464033D01*
X149822170Y-110464035D01*
X150036337Y-110563903D01*
X150264592Y-110625063D01*
X150452918Y-110641539D01*
X150499999Y-110645659D01*
X150500000Y-110645659D01*
X150500001Y-110645659D01*
X150539234Y-110642226D01*
X150735408Y-110625063D01*
X150963663Y-110563903D01*
X151177830Y-110464035D01*
X151371401Y-110328495D01*
X151538495Y-110161401D01*
X151674035Y-109967830D01*
X151773903Y-109753663D01*
X151835063Y-109525408D01*
X151855659Y-109290000D01*
X151852159Y-109249996D01*
X156694435Y-109249996D01*
X156694435Y-109250003D01*
X156714630Y-109429249D01*
X156714631Y-109429254D01*
X156774211Y-109599523D01*
X156870184Y-109752262D01*
X156997738Y-109879816D01*
X157009334Y-109887102D01*
X157137817Y-109967834D01*
X157150478Y-109975789D01*
X157320745Y-110035368D01*
X157320750Y-110035369D01*
X157499996Y-110055565D01*
X157500000Y-110055565D01*
X157500004Y-110055565D01*
X157679249Y-110035369D01*
X157679252Y-110035368D01*
X157679255Y-110035368D01*
X157849522Y-109975789D01*
X158002262Y-109879816D01*
X158129816Y-109752262D01*
X158225789Y-109599522D01*
X158285368Y-109429255D01*
X158285550Y-109427639D01*
X158305565Y-109250003D01*
X158305565Y-109249996D01*
X158285369Y-109070750D01*
X158285368Y-109070745D01*
X158225788Y-108900476D01*
X158162654Y-108800000D01*
X158162652Y-108799997D01*
X190744723Y-108799997D01*
X190744723Y-108800002D01*
X190763793Y-109017975D01*
X190763793Y-109017979D01*
X190820422Y-109229322D01*
X190820424Y-109229326D01*
X190820425Y-109229330D01*
X190848716Y-109290000D01*
X190912897Y-109427638D01*
X190937998Y-109463486D01*
X191038402Y-109606877D01*
X191193123Y-109761598D01*
X191372361Y-109887102D01*
X191570670Y-109979575D01*
X191782023Y-110036207D01*
X191964926Y-110052208D01*
X191999998Y-110055277D01*
X192000000Y-110055277D01*
X192000002Y-110055277D01*
X192028254Y-110052805D01*
X192217977Y-110036207D01*
X192429330Y-109979575D01*
X192627639Y-109887102D01*
X192806877Y-109761598D01*
X192961598Y-109606877D01*
X193087102Y-109427639D01*
X193179575Y-109229330D01*
X193236207Y-109017977D01*
X193255277Y-108800000D01*
X193236207Y-108582023D01*
X193179575Y-108370670D01*
X193087102Y-108172362D01*
X193087100Y-108172359D01*
X193087099Y-108172357D01*
X192961599Y-107993124D01*
X192886900Y-107918425D01*
X192806877Y-107838402D01*
X192627639Y-107712898D01*
X192627640Y-107712898D01*
X192627638Y-107712897D01*
X192528484Y-107666661D01*
X192429330Y-107620425D01*
X192429326Y-107620424D01*
X192429322Y-107620422D01*
X192217977Y-107563793D01*
X192000002Y-107544723D01*
X191999998Y-107544723D01*
X191854682Y-107557436D01*
X191782023Y-107563793D01*
X191782020Y-107563793D01*
X191570677Y-107620422D01*
X191570668Y-107620426D01*
X191372361Y-107712898D01*
X191372357Y-107712900D01*
X191193121Y-107838402D01*
X191038402Y-107993121D01*
X190912900Y-108172357D01*
X190912898Y-108172361D01*
X190820426Y-108370668D01*
X190820422Y-108370677D01*
X190763793Y-108582020D01*
X190763793Y-108582023D01*
X190760454Y-108620184D01*
X190744723Y-108799997D01*
X158162652Y-108799997D01*
X158129816Y-108747738D01*
X158002262Y-108620184D01*
X157941531Y-108582024D01*
X157849523Y-108524211D01*
X157679254Y-108464631D01*
X157679249Y-108464630D01*
X157500004Y-108444435D01*
X157499996Y-108444435D01*
X157320750Y-108464630D01*
X157320745Y-108464631D01*
X157150476Y-108524211D01*
X156997737Y-108620184D01*
X156870184Y-108747737D01*
X156774211Y-108900476D01*
X156714631Y-109070745D01*
X156714630Y-109070750D01*
X156694435Y-109249996D01*
X151852159Y-109249996D01*
X151835063Y-109054592D01*
X151773903Y-108826337D01*
X151674035Y-108612171D01*
X151652926Y-108582023D01*
X151538494Y-108418597D01*
X151371402Y-108251506D01*
X151371396Y-108251501D01*
X151185842Y-108121575D01*
X151142217Y-108066998D01*
X151135023Y-107997500D01*
X151166546Y-107935145D01*
X151185842Y-107918425D01*
X151300126Y-107838402D01*
X151371401Y-107788495D01*
X151538495Y-107621401D01*
X151674035Y-107427830D01*
X151773903Y-107213663D01*
X151835063Y-106985408D01*
X151855659Y-106750000D01*
X151835063Y-106514592D01*
X151773903Y-106286337D01*
X151674035Y-106072171D01*
X151538495Y-105878599D01*
X151416567Y-105756671D01*
X151383084Y-105695351D01*
X151388068Y-105625659D01*
X151429939Y-105569725D01*
X151460915Y-105552810D01*
X151592331Y-105503796D01*
X151707546Y-105417546D01*
X151793796Y-105302331D01*
X151844091Y-105167483D01*
X151850500Y-105107873D01*
X151850500Y-104249996D01*
X165194435Y-104249996D01*
X165194435Y-104250003D01*
X165214630Y-104429249D01*
X165214631Y-104429254D01*
X165274211Y-104599523D01*
X165291756Y-104627445D01*
X165370184Y-104752262D01*
X165497738Y-104879816D01*
X165650478Y-104975789D01*
X165820745Y-105035368D01*
X165820750Y-105035369D01*
X165999996Y-105055565D01*
X166000000Y-105055565D01*
X166000004Y-105055565D01*
X166179249Y-105035369D01*
X166179252Y-105035368D01*
X166179255Y-105035368D01*
X166349522Y-104975789D01*
X166502262Y-104879816D01*
X166629816Y-104752262D01*
X166631240Y-104749996D01*
X168194435Y-104749996D01*
X168194435Y-104750003D01*
X168214630Y-104929249D01*
X168214631Y-104929254D01*
X168274211Y-105099523D01*
X168370184Y-105252262D01*
X168497738Y-105379816D01*
X168650478Y-105475789D01*
X168820745Y-105535368D01*
X168820750Y-105535369D01*
X168999996Y-105555565D01*
X169000000Y-105555565D01*
X169000004Y-105555565D01*
X169179249Y-105535369D01*
X169179252Y-105535368D01*
X169179255Y-105535368D01*
X169349522Y-105475789D01*
X169502262Y-105379816D01*
X169629816Y-105252262D01*
X169725789Y-105099522D01*
X169785368Y-104929255D01*
X169785368Y-104929254D01*
X169787668Y-104922682D01*
X169790370Y-104923627D01*
X169818176Y-104873882D01*
X169879827Y-104841005D01*
X169949466Y-104846678D01*
X169992667Y-104874745D01*
X169997738Y-104879816D01*
X170150478Y-104975789D01*
X170320745Y-105035368D01*
X170320750Y-105035369D01*
X170499996Y-105055565D01*
X170500000Y-105055565D01*
X170500004Y-105055565D01*
X170679249Y-105035369D01*
X170679252Y-105035368D01*
X170679255Y-105035368D01*
X170849522Y-104975789D01*
X171002262Y-104879816D01*
X171129816Y-104752262D01*
X171225789Y-104599522D01*
X171285368Y-104429255D01*
X171288356Y-104402734D01*
X171305565Y-104250003D01*
X171305565Y-104249996D01*
X171285369Y-104070750D01*
X171285368Y-104070745D01*
X171225788Y-103900476D01*
X171129815Y-103747737D01*
X171002262Y-103620184D01*
X170849523Y-103524211D01*
X170679254Y-103464631D01*
X170679249Y-103464630D01*
X170500004Y-103444435D01*
X170499996Y-103444435D01*
X170320750Y-103464630D01*
X170320745Y-103464631D01*
X170150476Y-103524211D01*
X169997737Y-103620184D01*
X169870184Y-103747737D01*
X169774211Y-103900476D01*
X169712332Y-104077318D01*
X169709648Y-104076378D01*
X169681738Y-104126200D01*
X169620055Y-104159018D01*
X169550422Y-104153278D01*
X169507332Y-104125254D01*
X169502262Y-104120184D01*
X169349523Y-104024211D01*
X169179254Y-103964631D01*
X169179249Y-103964630D01*
X169000004Y-103944435D01*
X168999996Y-103944435D01*
X168820750Y-103964630D01*
X168820745Y-103964631D01*
X168650476Y-104024211D01*
X168497737Y-104120184D01*
X168370184Y-104247737D01*
X168274211Y-104400476D01*
X168214631Y-104570745D01*
X168214630Y-104570750D01*
X168194435Y-104749996D01*
X166631240Y-104749996D01*
X166725789Y-104599522D01*
X166785368Y-104429255D01*
X166788356Y-104402734D01*
X166805565Y-104250003D01*
X166805565Y-104249996D01*
X166785369Y-104070750D01*
X166785368Y-104070745D01*
X166725788Y-103900476D01*
X166629815Y-103747737D01*
X166502262Y-103620184D01*
X166349523Y-103524211D01*
X166179254Y-103464631D01*
X166179249Y-103464630D01*
X166000004Y-103444435D01*
X165999996Y-103444435D01*
X165820750Y-103464630D01*
X165820745Y-103464631D01*
X165650476Y-103524211D01*
X165497737Y-103620184D01*
X165370184Y-103747737D01*
X165274211Y-103900476D01*
X165214631Y-104070745D01*
X165214630Y-104070750D01*
X165194435Y-104249996D01*
X151850500Y-104249996D01*
X151850499Y-103312128D01*
X151844091Y-103252517D01*
X151793796Y-103117669D01*
X151793795Y-103117668D01*
X151793793Y-103117664D01*
X151707547Y-103002455D01*
X151707544Y-103002452D01*
X151592335Y-102916206D01*
X151592328Y-102916202D01*
X151457482Y-102865908D01*
X151457483Y-102865908D01*
X151397883Y-102859501D01*
X151397881Y-102859500D01*
X151397873Y-102859500D01*
X151397864Y-102859500D01*
X149602129Y-102859500D01*
X149602123Y-102859501D01*
X149542516Y-102865908D01*
X149407671Y-102916202D01*
X149407664Y-102916206D01*
X149292455Y-103002452D01*
X149292452Y-103002455D01*
X149206206Y-103117664D01*
X149206202Y-103117671D01*
X149155908Y-103252517D01*
X149150427Y-103303502D01*
X149149501Y-103312123D01*
X149149500Y-103312135D01*
X149149500Y-105107870D01*
X149149501Y-105107876D01*
X149155908Y-105167483D01*
X149206202Y-105302328D01*
X149206206Y-105302335D01*
X149292452Y-105417544D01*
X149292455Y-105417547D01*
X149407664Y-105503793D01*
X149407671Y-105503797D01*
X149539081Y-105552810D01*
X149595015Y-105594681D01*
X149619432Y-105660145D01*
X149604580Y-105728418D01*
X149583430Y-105756673D01*
X149461503Y-105878600D01*
X149325965Y-106072169D01*
X149325964Y-106072171D01*
X149226098Y-106286335D01*
X149226094Y-106286344D01*
X149164938Y-106514586D01*
X149164936Y-106514596D01*
X149144341Y-106749999D01*
X140000500Y-106749999D01*
X140000500Y-102249996D01*
X154694435Y-102249996D01*
X154694435Y-102250003D01*
X154714630Y-102429249D01*
X154714631Y-102429254D01*
X154774211Y-102599523D01*
X154868733Y-102749953D01*
X154870184Y-102752262D01*
X154997738Y-102879816D01*
X155150478Y-102975789D01*
X155320745Y-103035368D01*
X155320750Y-103035369D01*
X155499996Y-103055565D01*
X155500000Y-103055565D01*
X155500004Y-103055565D01*
X155679249Y-103035369D01*
X155679252Y-103035368D01*
X155679255Y-103035368D01*
X155849522Y-102975789D01*
X156002262Y-102879816D01*
X156129816Y-102752262D01*
X156131240Y-102749996D01*
X156694435Y-102749996D01*
X156694435Y-102750003D01*
X156714630Y-102929249D01*
X156714631Y-102929254D01*
X156774211Y-103099523D01*
X156870184Y-103252262D01*
X156997738Y-103379816D01*
X157065973Y-103422691D01*
X157132721Y-103464632D01*
X157150478Y-103475789D01*
X157286280Y-103523308D01*
X157320745Y-103535368D01*
X157320750Y-103535369D01*
X157499996Y-103555565D01*
X157500000Y-103555565D01*
X157500004Y-103555565D01*
X157679249Y-103535369D01*
X157679252Y-103535368D01*
X157679255Y-103535368D01*
X157849522Y-103475789D01*
X157867279Y-103464632D01*
X157934027Y-103422691D01*
X158001264Y-103403690D01*
X158065973Y-103422691D01*
X158150475Y-103475788D01*
X158320745Y-103535368D01*
X158320750Y-103535369D01*
X158499996Y-103555565D01*
X158500000Y-103555565D01*
X158500004Y-103555565D01*
X158679249Y-103535369D01*
X158679252Y-103535368D01*
X158679255Y-103535368D01*
X158849522Y-103475789D01*
X159002262Y-103379816D01*
X159129816Y-103252262D01*
X159225789Y-103099522D01*
X159225789Y-103099519D01*
X159228259Y-103095590D01*
X159280594Y-103049299D01*
X159347136Y-103038342D01*
X159499996Y-103055565D01*
X159500000Y-103055565D01*
X159500004Y-103055565D01*
X159679249Y-103035369D01*
X159679252Y-103035368D01*
X159679255Y-103035368D01*
X159849522Y-102975789D01*
X160002262Y-102879816D01*
X160129816Y-102752262D01*
X160225789Y-102599522D01*
X160285368Y-102429255D01*
X160285369Y-102429249D01*
X160305565Y-102250003D01*
X160305565Y-102249996D01*
X167194435Y-102249996D01*
X167194435Y-102250003D01*
X167214630Y-102429249D01*
X167214631Y-102429254D01*
X167274211Y-102599523D01*
X167368733Y-102749953D01*
X167370184Y-102752262D01*
X167497738Y-102879816D01*
X167650478Y-102975789D01*
X167820745Y-103035368D01*
X167820750Y-103035369D01*
X167999996Y-103055565D01*
X168000000Y-103055565D01*
X168000004Y-103055565D01*
X168179249Y-103035369D01*
X168179252Y-103035368D01*
X168179255Y-103035368D01*
X168349522Y-102975789D01*
X168502262Y-102879816D01*
X168629816Y-102752262D01*
X168725789Y-102599522D01*
X168785368Y-102429255D01*
X168785369Y-102429249D01*
X168805565Y-102250003D01*
X168805565Y-102249996D01*
X168785369Y-102070750D01*
X168785368Y-102070745D01*
X168769084Y-102024209D01*
X168725789Y-101900478D01*
X168629816Y-101747738D01*
X168502262Y-101620184D01*
X168399422Y-101555565D01*
X168349523Y-101524211D01*
X168179254Y-101464631D01*
X168179249Y-101464630D01*
X168000004Y-101444435D01*
X167999996Y-101444435D01*
X167820750Y-101464630D01*
X167820745Y-101464631D01*
X167650476Y-101524211D01*
X167497737Y-101620184D01*
X167370184Y-101747737D01*
X167274211Y-101900476D01*
X167214631Y-102070745D01*
X167214630Y-102070750D01*
X167194435Y-102249996D01*
X160305565Y-102249996D01*
X160285369Y-102070750D01*
X160285368Y-102070745D01*
X160269084Y-102024209D01*
X160225789Y-101900478D01*
X160129816Y-101747738D01*
X160002262Y-101620184D01*
X159899422Y-101555565D01*
X159849523Y-101524211D01*
X159679254Y-101464631D01*
X159679249Y-101464630D01*
X159500004Y-101444435D01*
X159499996Y-101444435D01*
X159320750Y-101464630D01*
X159320745Y-101464631D01*
X159150476Y-101524211D01*
X158997737Y-101620184D01*
X158870182Y-101747739D01*
X158771739Y-101904410D01*
X158719405Y-101950700D01*
X158652863Y-101961657D01*
X158500004Y-101944435D01*
X158499996Y-101944435D01*
X158320750Y-101964630D01*
X158320737Y-101964633D01*
X158150479Y-102024209D01*
X158065971Y-102077309D01*
X157998734Y-102096309D01*
X157934029Y-102077309D01*
X157849520Y-102024209D01*
X157679262Y-101964633D01*
X157679249Y-101964630D01*
X157500004Y-101944435D01*
X157499996Y-101944435D01*
X157320750Y-101964630D01*
X157320745Y-101964631D01*
X157150476Y-102024211D01*
X156997737Y-102120184D01*
X156870184Y-102247737D01*
X156774211Y-102400476D01*
X156714631Y-102570745D01*
X156714630Y-102570750D01*
X156694435Y-102749996D01*
X156131240Y-102749996D01*
X156225789Y-102599522D01*
X156285368Y-102429255D01*
X156285369Y-102429249D01*
X156305565Y-102250003D01*
X156305565Y-102249996D01*
X156285369Y-102070750D01*
X156285368Y-102070745D01*
X156269084Y-102024209D01*
X156225789Y-101900478D01*
X156129816Y-101747738D01*
X156002262Y-101620184D01*
X155899422Y-101555565D01*
X155849523Y-101524211D01*
X155679254Y-101464631D01*
X155679249Y-101464630D01*
X155500004Y-101444435D01*
X155499996Y-101444435D01*
X155320750Y-101464630D01*
X155320745Y-101464631D01*
X155150476Y-101524211D01*
X154997737Y-101620184D01*
X154870184Y-101747737D01*
X154774211Y-101900476D01*
X154714631Y-102070745D01*
X154714630Y-102070750D01*
X154694435Y-102249996D01*
X140000500Y-102249996D01*
X140000500Y-99749996D01*
X146194435Y-99749996D01*
X146194435Y-99750003D01*
X146214630Y-99929249D01*
X146214631Y-99929254D01*
X146274211Y-100099523D01*
X146343599Y-100209953D01*
X146370184Y-100252262D01*
X146497738Y-100379816D01*
X146650478Y-100475789D01*
X146820745Y-100535368D01*
X146820750Y-100535369D01*
X146999996Y-100555565D01*
X147000000Y-100555565D01*
X147000004Y-100555565D01*
X147179249Y-100535369D01*
X147179252Y-100535368D01*
X147179255Y-100535368D01*
X147349522Y-100475789D01*
X147502262Y-100379816D01*
X147629816Y-100252262D01*
X147631240Y-100249996D01*
X151694435Y-100249996D01*
X151694435Y-100250003D01*
X151714630Y-100429249D01*
X151714631Y-100429254D01*
X151774211Y-100599523D01*
X151868760Y-100749996D01*
X151870184Y-100752262D01*
X151997738Y-100879816D01*
X152150478Y-100975789D01*
X152320745Y-101035368D01*
X152320750Y-101035369D01*
X152499996Y-101055565D01*
X152500000Y-101055565D01*
X152500004Y-101055565D01*
X152679249Y-101035369D01*
X152679252Y-101035368D01*
X152679255Y-101035368D01*
X152849522Y-100975789D01*
X153002262Y-100879816D01*
X153129816Y-100752262D01*
X153225789Y-100599522D01*
X153285368Y-100429255D01*
X153285369Y-100429249D01*
X153305565Y-100250003D01*
X153305565Y-100249996D01*
X154194435Y-100249996D01*
X154194435Y-100250003D01*
X154214630Y-100429249D01*
X154214631Y-100429254D01*
X154274211Y-100599523D01*
X154368760Y-100749996D01*
X154370184Y-100752262D01*
X154497738Y-100879816D01*
X154650478Y-100975789D01*
X154820745Y-101035368D01*
X154820750Y-101035369D01*
X154999996Y-101055565D01*
X155000000Y-101055565D01*
X155000004Y-101055565D01*
X155179249Y-101035369D01*
X155179252Y-101035368D01*
X155179255Y-101035368D01*
X155349522Y-100975789D01*
X155502262Y-100879816D01*
X155629816Y-100752262D01*
X155725789Y-100599522D01*
X155785368Y-100429255D01*
X155785369Y-100429249D01*
X155805565Y-100250003D01*
X155805565Y-100249996D01*
X157194435Y-100249996D01*
X157194435Y-100250003D01*
X157214630Y-100429249D01*
X157214631Y-100429254D01*
X157274211Y-100599523D01*
X157368760Y-100749996D01*
X157370184Y-100752262D01*
X157497738Y-100879816D01*
X157650478Y-100975789D01*
X157820745Y-101035368D01*
X157820750Y-101035369D01*
X157999996Y-101055565D01*
X158000000Y-101055565D01*
X158000004Y-101055565D01*
X158179249Y-101035369D01*
X158179252Y-101035368D01*
X158179255Y-101035368D01*
X158349522Y-100975789D01*
X158502262Y-100879816D01*
X158629816Y-100752262D01*
X158631240Y-100749996D01*
X168694435Y-100749996D01*
X168694435Y-100750003D01*
X168714630Y-100929249D01*
X168714631Y-100929254D01*
X168774211Y-101099523D01*
X168870184Y-101252262D01*
X168997738Y-101379816D01*
X169088080Y-101436582D01*
X169132721Y-101464632D01*
X169150478Y-101475789D01*
X169288860Y-101524211D01*
X169320745Y-101535368D01*
X169320750Y-101535369D01*
X169499996Y-101555565D01*
X169500000Y-101555565D01*
X169500004Y-101555565D01*
X169679249Y-101535369D01*
X169679252Y-101535368D01*
X169679255Y-101535368D01*
X169849522Y-101475789D01*
X170002262Y-101379816D01*
X170129816Y-101252262D01*
X170225789Y-101099522D01*
X170285368Y-100929255D01*
X170285369Y-100929249D01*
X170305565Y-100750003D01*
X170305565Y-100749996D01*
X170285369Y-100570750D01*
X170285368Y-100570745D01*
X170252141Y-100475788D01*
X170225789Y-100400478D01*
X170207179Y-100370861D01*
X170186582Y-100338080D01*
X170129816Y-100247738D01*
X170002262Y-100120184D01*
X169937401Y-100079429D01*
X169849523Y-100024211D01*
X169679254Y-99964631D01*
X169679249Y-99964630D01*
X169500004Y-99944435D01*
X169499996Y-99944435D01*
X169320750Y-99964630D01*
X169320745Y-99964631D01*
X169150476Y-100024211D01*
X168997737Y-100120184D01*
X168870184Y-100247737D01*
X168774211Y-100400476D01*
X168714631Y-100570745D01*
X168714630Y-100570750D01*
X168694435Y-100749996D01*
X158631240Y-100749996D01*
X158725789Y-100599522D01*
X158785368Y-100429255D01*
X158785369Y-100429249D01*
X158805565Y-100250003D01*
X158805565Y-100249996D01*
X158785369Y-100070750D01*
X158785368Y-100070745D01*
X158725789Y-99900478D01*
X158709020Y-99873791D01*
X158680008Y-99827618D01*
X158629816Y-99747738D01*
X158502262Y-99620184D01*
X158349523Y-99524211D01*
X158179254Y-99464631D01*
X158179249Y-99464630D01*
X158000004Y-99444435D01*
X157999996Y-99444435D01*
X157820750Y-99464630D01*
X157820745Y-99464631D01*
X157650476Y-99524211D01*
X157497737Y-99620184D01*
X157370184Y-99747737D01*
X157274211Y-99900476D01*
X157214631Y-100070745D01*
X157214630Y-100070750D01*
X157194435Y-100249996D01*
X155805565Y-100249996D01*
X155785369Y-100070750D01*
X155785368Y-100070745D01*
X155725789Y-99900478D01*
X155709020Y-99873791D01*
X155680008Y-99827618D01*
X155629816Y-99747738D01*
X155502262Y-99620184D01*
X155349523Y-99524211D01*
X155179254Y-99464631D01*
X155179249Y-99464630D01*
X155000004Y-99444435D01*
X154999996Y-99444435D01*
X154820750Y-99464630D01*
X154820745Y-99464631D01*
X154650476Y-99524211D01*
X154497737Y-99620184D01*
X154370184Y-99747737D01*
X154274211Y-99900476D01*
X154214631Y-100070745D01*
X154214630Y-100070750D01*
X154194435Y-100249996D01*
X153305565Y-100249996D01*
X153285369Y-100070750D01*
X153285368Y-100070745D01*
X153225789Y-99900478D01*
X153209020Y-99873791D01*
X153180008Y-99827618D01*
X153129816Y-99747738D01*
X153002262Y-99620184D01*
X152849523Y-99524211D01*
X152679254Y-99464631D01*
X152679249Y-99464630D01*
X152500004Y-99444435D01*
X152499996Y-99444435D01*
X152320750Y-99464630D01*
X152320745Y-99464631D01*
X152150476Y-99524211D01*
X151997737Y-99620184D01*
X151870184Y-99747737D01*
X151774211Y-99900476D01*
X151714631Y-100070745D01*
X151714630Y-100070750D01*
X151694435Y-100249996D01*
X147631240Y-100249996D01*
X147725789Y-100099522D01*
X147785368Y-99929255D01*
X147785369Y-99929249D01*
X147805565Y-99750003D01*
X147805565Y-99749996D01*
X147785369Y-99570750D01*
X147785368Y-99570745D01*
X147725788Y-99400476D01*
X147629815Y-99247737D01*
X147502262Y-99120184D01*
X147349523Y-99024211D01*
X147179254Y-98964631D01*
X147179249Y-98964630D01*
X147000004Y-98944435D01*
X146999996Y-98944435D01*
X146820750Y-98964630D01*
X146820745Y-98964631D01*
X146650476Y-99024211D01*
X146497737Y-99120184D01*
X146370184Y-99247737D01*
X146274211Y-99400476D01*
X146214631Y-99570745D01*
X146214630Y-99570750D01*
X146194435Y-99749996D01*
X140000500Y-99749996D01*
X140000500Y-98669998D01*
X174894532Y-98669998D01*
X174894532Y-98670001D01*
X174914364Y-98896686D01*
X174914366Y-98896697D01*
X174973258Y-99116488D01*
X174973261Y-99116497D01*
X175069431Y-99322732D01*
X175069432Y-99322734D01*
X175199954Y-99509141D01*
X175360858Y-99670045D01*
X175360861Y-99670047D01*
X175547266Y-99800568D01*
X175605275Y-99827618D01*
X175657714Y-99873791D01*
X175676866Y-99940984D01*
X175656650Y-100007865D01*
X175605275Y-100052382D01*
X175547267Y-100079431D01*
X175547265Y-100079432D01*
X175360858Y-100209954D01*
X175199954Y-100370858D01*
X175069432Y-100557265D01*
X175069431Y-100557267D01*
X174973261Y-100763502D01*
X174973258Y-100763511D01*
X174914366Y-100983302D01*
X174914364Y-100983313D01*
X174894532Y-101209998D01*
X174894532Y-101210001D01*
X174914364Y-101436686D01*
X174914366Y-101436697D01*
X174973258Y-101656488D01*
X174973261Y-101656497D01*
X175069431Y-101862732D01*
X175069432Y-101862734D01*
X175199954Y-102049141D01*
X175360858Y-102210045D01*
X175360861Y-102210047D01*
X175547266Y-102340568D01*
X175605865Y-102367893D01*
X175658305Y-102414065D01*
X175677457Y-102481258D01*
X175657242Y-102548139D01*
X175605867Y-102592657D01*
X175547515Y-102619867D01*
X175361179Y-102750342D01*
X175200342Y-102911179D01*
X175069865Y-103097517D01*
X174973734Y-103303673D01*
X174973730Y-103303682D01*
X174921127Y-103499999D01*
X174921128Y-103500000D01*
X175884314Y-103500000D01*
X175879920Y-103504394D01*
X175827259Y-103595606D01*
X175800000Y-103697339D01*
X175800000Y-103802661D01*
X175827259Y-103904394D01*
X175879920Y-103995606D01*
X175884314Y-104000000D01*
X174921128Y-104000000D01*
X174973730Y-104196317D01*
X174973734Y-104196326D01*
X175069865Y-104402482D01*
X175200342Y-104588820D01*
X175361179Y-104749657D01*
X175547517Y-104880134D01*
X175753673Y-104976265D01*
X175753682Y-104976269D01*
X175949999Y-105028872D01*
X175950000Y-105028871D01*
X175950000Y-104065686D01*
X175954394Y-104070080D01*
X176045606Y-104122741D01*
X176147339Y-104150000D01*
X176252661Y-104150000D01*
X176354394Y-104122741D01*
X176445606Y-104070080D01*
X176450000Y-104065686D01*
X176450000Y-105028872D01*
X176646317Y-104976269D01*
X176646326Y-104976265D01*
X176852482Y-104880134D01*
X177038820Y-104749657D01*
X177199657Y-104588820D01*
X177330134Y-104402482D01*
X177426265Y-104196326D01*
X177426269Y-104196317D01*
X177478872Y-104000000D01*
X176515686Y-104000000D01*
X176520080Y-103995606D01*
X176572741Y-103904394D01*
X176600000Y-103802661D01*
X176600000Y-103697339D01*
X176572741Y-103595606D01*
X176520080Y-103504394D01*
X176515686Y-103500000D01*
X177478872Y-103500000D01*
X177478872Y-103499999D01*
X177426269Y-103303682D01*
X177426265Y-103303673D01*
X177330134Y-103097517D01*
X177199657Y-102911179D01*
X177038820Y-102750342D01*
X176852482Y-102619865D01*
X176794133Y-102592657D01*
X176741694Y-102546484D01*
X176722542Y-102479291D01*
X176742758Y-102412410D01*
X176794129Y-102367895D01*
X176852734Y-102340568D01*
X177039139Y-102210047D01*
X177200047Y-102049139D01*
X177330568Y-101862734D01*
X177426739Y-101656496D01*
X177485635Y-101436692D01*
X177505468Y-101210000D01*
X177485635Y-100983308D01*
X177426739Y-100763504D01*
X177330568Y-100557266D01*
X177200047Y-100370861D01*
X177200045Y-100370858D01*
X177039141Y-100209954D01*
X176852734Y-100079432D01*
X176852728Y-100079429D01*
X176794725Y-100052382D01*
X176742285Y-100006210D01*
X176723133Y-99939017D01*
X176743348Y-99872135D01*
X176794725Y-99827618D01*
X176852734Y-99800568D01*
X177039139Y-99670047D01*
X177200047Y-99509139D01*
X177330568Y-99322734D01*
X177426739Y-99116496D01*
X177485635Y-98896692D01*
X177505468Y-98670000D01*
X177485635Y-98443308D01*
X177426739Y-98223504D01*
X177330568Y-98017266D01*
X177200047Y-97830861D01*
X177200045Y-97830858D01*
X177039143Y-97669956D01*
X177014536Y-97652726D01*
X176970912Y-97598149D01*
X176963719Y-97528650D01*
X176995241Y-97466296D01*
X177055471Y-97430882D01*
X177072404Y-97427861D01*
X177107483Y-97424091D01*
X177242331Y-97373796D01*
X177357546Y-97287546D01*
X177443796Y-97172331D01*
X177494091Y-97037483D01*
X177500500Y-96977873D01*
X177500499Y-96129998D01*
X182514532Y-96129998D01*
X182514532Y-96130001D01*
X182534364Y-96356686D01*
X182534366Y-96356697D01*
X182593258Y-96576488D01*
X182593261Y-96576497D01*
X182689431Y-96782732D01*
X182689432Y-96782734D01*
X182819954Y-96969141D01*
X182980858Y-97130045D01*
X182980861Y-97130047D01*
X183167266Y-97260568D01*
X183225275Y-97287618D01*
X183277714Y-97333791D01*
X183296866Y-97400984D01*
X183276650Y-97467865D01*
X183225275Y-97512382D01*
X183167267Y-97539431D01*
X183167265Y-97539432D01*
X182980858Y-97669954D01*
X182819954Y-97830858D01*
X182689432Y-98017265D01*
X182689431Y-98017267D01*
X182593261Y-98223502D01*
X182593258Y-98223511D01*
X182534366Y-98443302D01*
X182534364Y-98443313D01*
X182514532Y-98669998D01*
X182514532Y-98670001D01*
X182534364Y-98896686D01*
X182534366Y-98896697D01*
X182593258Y-99116488D01*
X182593261Y-99116497D01*
X182689431Y-99322732D01*
X182689432Y-99322734D01*
X182819954Y-99509141D01*
X182980858Y-99670045D01*
X182980861Y-99670047D01*
X183167266Y-99800568D01*
X183225275Y-99827618D01*
X183277714Y-99873791D01*
X183296866Y-99940984D01*
X183276650Y-100007865D01*
X183225275Y-100052382D01*
X183167267Y-100079431D01*
X183167265Y-100079432D01*
X182980858Y-100209954D01*
X182819954Y-100370858D01*
X182689432Y-100557265D01*
X182689431Y-100557267D01*
X182593261Y-100763502D01*
X182593258Y-100763511D01*
X182534366Y-100983302D01*
X182534364Y-100983313D01*
X182514532Y-101209998D01*
X182514532Y-101210001D01*
X182534364Y-101436686D01*
X182534366Y-101436697D01*
X182593258Y-101656488D01*
X182593261Y-101656497D01*
X182689431Y-101862732D01*
X182689432Y-101862734D01*
X182819954Y-102049141D01*
X182980858Y-102210045D01*
X182980861Y-102210047D01*
X183167266Y-102340568D01*
X183225275Y-102367618D01*
X183277714Y-102413791D01*
X183296866Y-102480984D01*
X183276650Y-102547865D01*
X183225275Y-102592382D01*
X183167267Y-102619431D01*
X183167265Y-102619432D01*
X182980858Y-102749954D01*
X182819954Y-102910858D01*
X182689432Y-103097265D01*
X182689431Y-103097267D01*
X182593261Y-103303502D01*
X182593258Y-103303511D01*
X182534366Y-103523302D01*
X182534364Y-103523313D01*
X182514532Y-103749998D01*
X182514532Y-103750001D01*
X182534364Y-103976686D01*
X182534366Y-103976697D01*
X182593258Y-104196488D01*
X182593261Y-104196497D01*
X182689431Y-104402732D01*
X182689432Y-104402734D01*
X182819954Y-104589141D01*
X182980858Y-104750045D01*
X182980861Y-104750047D01*
X183167266Y-104880568D01*
X183373504Y-104976739D01*
X183593308Y-105035635D01*
X183755230Y-105049801D01*
X183819998Y-105055468D01*
X183820000Y-105055468D01*
X183820002Y-105055468D01*
X183876673Y-105050509D01*
X184046692Y-105035635D01*
X184266496Y-104976739D01*
X184472734Y-104880568D01*
X184659139Y-104750047D01*
X184820047Y-104589139D01*
X184950568Y-104402734D01*
X185046739Y-104196496D01*
X185105635Y-103976692D01*
X185125468Y-103750000D01*
X185105635Y-103523308D01*
X185049050Y-103312127D01*
X185046741Y-103303511D01*
X185046738Y-103303502D01*
X184960082Y-103117669D01*
X184950568Y-103097266D01*
X184820047Y-102910861D01*
X184820045Y-102910858D01*
X184659141Y-102749954D01*
X184472734Y-102619432D01*
X184472728Y-102619429D01*
X184414725Y-102592382D01*
X184362285Y-102546210D01*
X184343133Y-102479017D01*
X184363348Y-102412135D01*
X184414725Y-102367618D01*
X184472734Y-102340568D01*
X184659139Y-102210047D01*
X184820047Y-102049139D01*
X184950568Y-101862734D01*
X185046739Y-101656496D01*
X185105635Y-101436692D01*
X185125468Y-101210000D01*
X185105635Y-100983308D01*
X185046739Y-100763504D01*
X184950568Y-100557266D01*
X184820047Y-100370861D01*
X184820045Y-100370858D01*
X184659141Y-100209954D01*
X184472734Y-100079432D01*
X184472728Y-100079429D01*
X184414725Y-100052382D01*
X184362285Y-100006210D01*
X184343133Y-99939017D01*
X184363348Y-99872135D01*
X184414725Y-99827618D01*
X184472734Y-99800568D01*
X184659139Y-99670047D01*
X184820047Y-99509139D01*
X184950568Y-99322734D01*
X185046739Y-99116496D01*
X185105635Y-98896692D01*
X185125468Y-98670000D01*
X185105635Y-98443308D01*
X185046739Y-98223504D01*
X184950568Y-98017266D01*
X184820047Y-97830861D01*
X184820045Y-97830858D01*
X184659141Y-97669954D01*
X184472734Y-97539432D01*
X184472728Y-97539429D01*
X184414725Y-97512382D01*
X184362285Y-97466210D01*
X184343133Y-97399017D01*
X184363348Y-97332135D01*
X184414725Y-97287618D01*
X184472734Y-97260568D01*
X184659139Y-97130047D01*
X184820047Y-96969139D01*
X184950568Y-96782734D01*
X185046739Y-96576496D01*
X185105635Y-96356692D01*
X185125468Y-96130000D01*
X185105635Y-95903308D01*
X185046739Y-95683504D01*
X184950568Y-95477266D01*
X184820047Y-95290861D01*
X184820045Y-95290858D01*
X184659141Y-95129954D01*
X184472734Y-94999432D01*
X184472732Y-94999431D01*
X184266497Y-94903261D01*
X184266488Y-94903258D01*
X184046697Y-94844366D01*
X184046693Y-94844365D01*
X184046692Y-94844365D01*
X184046691Y-94844364D01*
X184046686Y-94844364D01*
X183820002Y-94824532D01*
X183819998Y-94824532D01*
X183593313Y-94844364D01*
X183593302Y-94844366D01*
X183373511Y-94903258D01*
X183373502Y-94903261D01*
X183167267Y-94999431D01*
X183167265Y-94999432D01*
X182980858Y-95129954D01*
X182819954Y-95290858D01*
X182689432Y-95477265D01*
X182689431Y-95477267D01*
X182593261Y-95683502D01*
X182593258Y-95683511D01*
X182534366Y-95903302D01*
X182534364Y-95903313D01*
X182514532Y-96129998D01*
X177500499Y-96129998D01*
X177500499Y-95282128D01*
X177494091Y-95222517D01*
X177460315Y-95131960D01*
X177443797Y-95087671D01*
X177443793Y-95087664D01*
X177357547Y-94972455D01*
X177357544Y-94972452D01*
X177242335Y-94886206D01*
X177242328Y-94886202D01*
X177107482Y-94835908D01*
X177107483Y-94835908D01*
X177047883Y-94829501D01*
X177047881Y-94829500D01*
X177047873Y-94829500D01*
X177047864Y-94829500D01*
X175352129Y-94829500D01*
X175352123Y-94829501D01*
X175292516Y-94835908D01*
X175157671Y-94886202D01*
X175157664Y-94886206D01*
X175042455Y-94972452D01*
X175042452Y-94972455D01*
X174956206Y-95087664D01*
X174956202Y-95087671D01*
X174905908Y-95222517D01*
X174899501Y-95282116D01*
X174899501Y-95282123D01*
X174899500Y-95282135D01*
X174899500Y-96977870D01*
X174899501Y-96977876D01*
X174905908Y-97037483D01*
X174956202Y-97172328D01*
X174956206Y-97172335D01*
X175042452Y-97287544D01*
X175042455Y-97287547D01*
X175157664Y-97373793D01*
X175157671Y-97373797D01*
X175202618Y-97390561D01*
X175292517Y-97424091D01*
X175327596Y-97427862D01*
X175392144Y-97454599D01*
X175431993Y-97511991D01*
X175434488Y-97581816D01*
X175398836Y-97641905D01*
X175385464Y-97652725D01*
X175360858Y-97669954D01*
X175199954Y-97830858D01*
X175069432Y-98017265D01*
X175069431Y-98017267D01*
X174973261Y-98223502D01*
X174973258Y-98223511D01*
X174914366Y-98443302D01*
X174914364Y-98443313D01*
X174894532Y-98669998D01*
X140000500Y-98669998D01*
X140000500Y-96249996D01*
X169694435Y-96249996D01*
X169694435Y-96250003D01*
X169714630Y-96429249D01*
X169714631Y-96429254D01*
X169774211Y-96599523D01*
X169870184Y-96752262D01*
X169997738Y-96879816D01*
X170088080Y-96936582D01*
X170139897Y-96969141D01*
X170150478Y-96975789D01*
X170320745Y-97035368D01*
X170320750Y-97035369D01*
X170499996Y-97055565D01*
X170500000Y-97055565D01*
X170500004Y-97055565D01*
X170679249Y-97035369D01*
X170679252Y-97035368D01*
X170679255Y-97035368D01*
X170849522Y-96975789D01*
X171002262Y-96879816D01*
X171129816Y-96752262D01*
X171225789Y-96599522D01*
X171285368Y-96429255D01*
X171285369Y-96429249D01*
X171305565Y-96250003D01*
X171305565Y-96249996D01*
X171285369Y-96070750D01*
X171285368Y-96070745D01*
X171225788Y-95900476D01*
X171129815Y-95747737D01*
X171002262Y-95620184D01*
X170849523Y-95524211D01*
X170679254Y-95464631D01*
X170679249Y-95464630D01*
X170500004Y-95444435D01*
X170499996Y-95444435D01*
X170320750Y-95464630D01*
X170320745Y-95464631D01*
X170150476Y-95524211D01*
X169997737Y-95620184D01*
X169870184Y-95747737D01*
X169774211Y-95900476D01*
X169714631Y-96070745D01*
X169714630Y-96070750D01*
X169694435Y-96249996D01*
X140000500Y-96249996D01*
X140000500Y-94749996D01*
X167694435Y-94749996D01*
X167694435Y-94750003D01*
X167714630Y-94929249D01*
X167714631Y-94929254D01*
X167774211Y-95099523D01*
X167851493Y-95222516D01*
X167870184Y-95252262D01*
X167997738Y-95379816D01*
X168059262Y-95418474D01*
X168132721Y-95464632D01*
X168150478Y-95475789D01*
X168255249Y-95512450D01*
X168320745Y-95535368D01*
X168320750Y-95535369D01*
X168499996Y-95555565D01*
X168500000Y-95555565D01*
X168500004Y-95555565D01*
X168679249Y-95535369D01*
X168679252Y-95535368D01*
X168679255Y-95535368D01*
X168849522Y-95475789D01*
X169002262Y-95379816D01*
X169129816Y-95252262D01*
X169225789Y-95099522D01*
X169285368Y-94929255D01*
X169288297Y-94903258D01*
X169301911Y-94782434D01*
X172172897Y-94782434D01*
X172172897Y-94782441D01*
X172193092Y-94961687D01*
X172193093Y-94961692D01*
X172252673Y-95131961D01*
X172309573Y-95222516D01*
X172348646Y-95284700D01*
X172476200Y-95412254D01*
X172486101Y-95418475D01*
X172532393Y-95470807D01*
X172543044Y-95539860D01*
X172514671Y-95603709D01*
X172499364Y-95618557D01*
X172370184Y-95747737D01*
X172274211Y-95900476D01*
X172214631Y-96070745D01*
X172214630Y-96070750D01*
X172194435Y-96249996D01*
X172194435Y-96250003D01*
X172214630Y-96429249D01*
X172214631Y-96429254D01*
X172274211Y-96599523D01*
X172370184Y-96752262D01*
X172497738Y-96879816D01*
X172588080Y-96936582D01*
X172639897Y-96969141D01*
X172650478Y-96975789D01*
X172820745Y-97035368D01*
X172820750Y-97035369D01*
X172999996Y-97055565D01*
X173000000Y-97055565D01*
X173000004Y-97055565D01*
X173179249Y-97035369D01*
X173179252Y-97035368D01*
X173179255Y-97035368D01*
X173349522Y-96975789D01*
X173502262Y-96879816D01*
X173629816Y-96752262D01*
X173725789Y-96599522D01*
X173785368Y-96429255D01*
X173785369Y-96429249D01*
X173805565Y-96250003D01*
X173805565Y-96249996D01*
X173785369Y-96070750D01*
X173785368Y-96070745D01*
X173725788Y-95900476D01*
X173629815Y-95747737D01*
X173502262Y-95620184D01*
X173492358Y-95613960D01*
X173446067Y-95561628D01*
X173435417Y-95492575D01*
X173463791Y-95428726D01*
X173479038Y-95413939D01*
X173480721Y-95412255D01*
X173480724Y-95412254D01*
X173608278Y-95284700D01*
X173704251Y-95131960D01*
X173763830Y-94961693D01*
X173770414Y-94903258D01*
X173784027Y-94782441D01*
X173784027Y-94782434D01*
X173763831Y-94603188D01*
X173763830Y-94603183D01*
X173729268Y-94504410D01*
X173704251Y-94432916D01*
X173677617Y-94390529D01*
X173664718Y-94369999D01*
X173608278Y-94280176D01*
X173480724Y-94152622D01*
X173453616Y-94135589D01*
X173327985Y-94056649D01*
X173157716Y-93997069D01*
X173157711Y-93997068D01*
X172978466Y-93976873D01*
X172978458Y-93976873D01*
X172799212Y-93997068D01*
X172799207Y-93997069D01*
X172628938Y-94056649D01*
X172476199Y-94152622D01*
X172348646Y-94280175D01*
X172252673Y-94432914D01*
X172193093Y-94603183D01*
X172193092Y-94603188D01*
X172172897Y-94782434D01*
X169301911Y-94782434D01*
X169305565Y-94750003D01*
X169305565Y-94749996D01*
X169285369Y-94570750D01*
X169285368Y-94570745D01*
X169239125Y-94438590D01*
X169225789Y-94400478D01*
X169206638Y-94370000D01*
X169179567Y-94326916D01*
X169129816Y-94247738D01*
X169002262Y-94120184D01*
X168901147Y-94056649D01*
X168849523Y-94024211D01*
X168679254Y-93964631D01*
X168679249Y-93964630D01*
X168500004Y-93944435D01*
X168499996Y-93944435D01*
X168320750Y-93964630D01*
X168320745Y-93964631D01*
X168150476Y-94024211D01*
X167997737Y-94120184D01*
X167870184Y-94247737D01*
X167774211Y-94400476D01*
X167714631Y-94570745D01*
X167714630Y-94570750D01*
X167694435Y-94749996D01*
X140000500Y-94749996D01*
X140000500Y-93760709D01*
X175903473Y-93760709D01*
X175903473Y-93760716D01*
X175923668Y-93939962D01*
X175923669Y-93939967D01*
X175983249Y-94110236D01*
X176069647Y-94247737D01*
X176079222Y-94262975D01*
X176206776Y-94390529D01*
X176359516Y-94486502D01*
X176529783Y-94546081D01*
X176529788Y-94546082D01*
X176709034Y-94566278D01*
X176709038Y-94566278D01*
X176709042Y-94566278D01*
X176888287Y-94546082D01*
X176888290Y-94546081D01*
X176888293Y-94546081D01*
X177058560Y-94486502D01*
X177211300Y-94390529D01*
X177338854Y-94262975D01*
X177434827Y-94110235D01*
X177494406Y-93939968D01*
X177514603Y-93760713D01*
X177500510Y-93635634D01*
X177494407Y-93581463D01*
X177494406Y-93581458D01*
X177490397Y-93570000D01*
X177434827Y-93411191D01*
X177338854Y-93258451D01*
X177211300Y-93130897D01*
X177114384Y-93070000D01*
X187589157Y-93070000D01*
X188443012Y-93070000D01*
X188425795Y-93079940D01*
X188369940Y-93135795D01*
X188330444Y-93204204D01*
X188310000Y-93280504D01*
X188310000Y-93359496D01*
X188330444Y-93435796D01*
X188369940Y-93504205D01*
X188425795Y-93560060D01*
X188443012Y-93570000D01*
X187589157Y-93570000D01*
X187600350Y-93626274D01*
X187600351Y-93626276D01*
X187679500Y-93817358D01*
X187679505Y-93817368D01*
X187794410Y-93989335D01*
X187794413Y-93989339D01*
X187940660Y-94135586D01*
X187940664Y-94135589D01*
X188112631Y-94250494D01*
X188112641Y-94250499D01*
X188191285Y-94283075D01*
X188245688Y-94326916D01*
X188267753Y-94393210D01*
X188260874Y-94438590D01*
X188214632Y-94570742D01*
X188214630Y-94570750D01*
X188194435Y-94749996D01*
X188194435Y-94750003D01*
X188214630Y-94929249D01*
X188214631Y-94929254D01*
X188274211Y-95099523D01*
X188351493Y-95222516D01*
X188370184Y-95252262D01*
X188497738Y-95379816D01*
X188559262Y-95418474D01*
X188632721Y-95464632D01*
X188650478Y-95475789D01*
X188755249Y-95512450D01*
X188820745Y-95535368D01*
X188820750Y-95535369D01*
X188999996Y-95555565D01*
X189000000Y-95555565D01*
X189000004Y-95555565D01*
X189179249Y-95535369D01*
X189179252Y-95535368D01*
X189179255Y-95535368D01*
X189349522Y-95475789D01*
X189502262Y-95379816D01*
X189629816Y-95252262D01*
X189725789Y-95099522D01*
X189785368Y-94929255D01*
X189788297Y-94903258D01*
X189805565Y-94750003D01*
X189805565Y-94749996D01*
X189785369Y-94570750D01*
X189785367Y-94570740D01*
X189762156Y-94504410D01*
X189758593Y-94434631D01*
X189793321Y-94374004D01*
X189855007Y-94341836D01*
X189916274Y-94329649D01*
X190107358Y-94250499D01*
X190107368Y-94250494D01*
X190279335Y-94135589D01*
X190279339Y-94135586D01*
X190425586Y-93989339D01*
X190425589Y-93989335D01*
X190540494Y-93817368D01*
X190540499Y-93817358D01*
X190619648Y-93626276D01*
X190619649Y-93626274D01*
X190630843Y-93570000D01*
X189776988Y-93570000D01*
X189794205Y-93560060D01*
X189850060Y-93504205D01*
X189889556Y-93435796D01*
X189910000Y-93359496D01*
X189910000Y-93280504D01*
X189889556Y-93204204D01*
X189850060Y-93135795D01*
X189794205Y-93079940D01*
X189776988Y-93070000D01*
X190630843Y-93070000D01*
X190619649Y-93013725D01*
X190619648Y-93013723D01*
X190540499Y-92822641D01*
X190540494Y-92822631D01*
X190425589Y-92650664D01*
X190425586Y-92650660D01*
X190279339Y-92504413D01*
X190279335Y-92504410D01*
X190107368Y-92389505D01*
X190107358Y-92389500D01*
X189916274Y-92310350D01*
X189916266Y-92310348D01*
X189713420Y-92270000D01*
X189360000Y-92270000D01*
X189360000Y-93020000D01*
X188860000Y-93020000D01*
X188860000Y-92270000D01*
X188506579Y-92270000D01*
X188303733Y-92310348D01*
X188303725Y-92310350D01*
X188112641Y-92389500D01*
X188112631Y-92389505D01*
X187940664Y-92504410D01*
X187940660Y-92504413D01*
X187794413Y-92650660D01*
X187794410Y-92650664D01*
X187679505Y-92822631D01*
X187679500Y-92822641D01*
X187600351Y-93013723D01*
X187600350Y-93013725D01*
X187589157Y-93070000D01*
X177114384Y-93070000D01*
X177058561Y-93034924D01*
X176888292Y-92975344D01*
X176888287Y-92975343D01*
X176709042Y-92955148D01*
X176709034Y-92955148D01*
X176529788Y-92975343D01*
X176529783Y-92975344D01*
X176359514Y-93034924D01*
X176206775Y-93130897D01*
X176079222Y-93258450D01*
X175983249Y-93411189D01*
X175923669Y-93581458D01*
X175923668Y-93581463D01*
X175903473Y-93760709D01*
X140000500Y-93760709D01*
X140000500Y-92843011D01*
X140020185Y-92775972D01*
X140072989Y-92730217D01*
X140142147Y-92720273D01*
X140205703Y-92749298D01*
X140236882Y-92790606D01*
X140326399Y-92982578D01*
X140461894Y-93176082D01*
X140628917Y-93343105D01*
X140822421Y-93478600D01*
X141036507Y-93578429D01*
X141036516Y-93578433D01*
X141250000Y-93635634D01*
X141250000Y-92738012D01*
X141307007Y-92770925D01*
X141434174Y-92805000D01*
X141565826Y-92805000D01*
X141692993Y-92770925D01*
X141750000Y-92738012D01*
X141750000Y-93635633D01*
X141963483Y-93578433D01*
X141963492Y-93578429D01*
X142177578Y-93478600D01*
X142371082Y-93343105D01*
X142538105Y-93176082D01*
X142673600Y-92982578D01*
X142773429Y-92768492D01*
X142773432Y-92768486D01*
X142830636Y-92555000D01*
X141933012Y-92555000D01*
X141965925Y-92497993D01*
X142000000Y-92370826D01*
X142000000Y-92239174D01*
X141965925Y-92112007D01*
X141933012Y-92055000D01*
X142830636Y-92055000D01*
X142830635Y-92054999D01*
X142773432Y-91841513D01*
X142773429Y-91841507D01*
X142730757Y-91749996D01*
X161194435Y-91749996D01*
X161194435Y-91750003D01*
X161214630Y-91929249D01*
X161214631Y-91929254D01*
X161274211Y-92099523D01*
X161324150Y-92179000D01*
X161370184Y-92252262D01*
X161497738Y-92379816D01*
X161513150Y-92389500D01*
X161623481Y-92458826D01*
X161650478Y-92475789D01*
X161732281Y-92504413D01*
X161820745Y-92535368D01*
X161820750Y-92535369D01*
X161999996Y-92555565D01*
X162000000Y-92555565D01*
X162000004Y-92555565D01*
X162179249Y-92535369D01*
X162179252Y-92535368D01*
X162179255Y-92535368D01*
X162349522Y-92475789D01*
X162502262Y-92379816D01*
X162629816Y-92252262D01*
X162725789Y-92099522D01*
X162785368Y-91929255D01*
X162788611Y-91900478D01*
X162799368Y-91805000D01*
X162799822Y-91800968D01*
X162821240Y-91749996D01*
X167694435Y-91749996D01*
X167694435Y-91750003D01*
X167714630Y-91929249D01*
X167714631Y-91929254D01*
X167774211Y-92099523D01*
X167824150Y-92179000D01*
X167870184Y-92252262D01*
X167997738Y-92379816D01*
X168013150Y-92389500D01*
X168123481Y-92458826D01*
X168150478Y-92475789D01*
X168232281Y-92504413D01*
X168320745Y-92535368D01*
X168320750Y-92535369D01*
X168499996Y-92555565D01*
X168500000Y-92555565D01*
X168500004Y-92555565D01*
X168679249Y-92535369D01*
X168679252Y-92535368D01*
X168679255Y-92535368D01*
X168849522Y-92475789D01*
X169002262Y-92379816D01*
X169129816Y-92252262D01*
X169131240Y-92249996D01*
X170194435Y-92249996D01*
X170194435Y-92250003D01*
X170214630Y-92429249D01*
X170214631Y-92429254D01*
X170274211Y-92599523D01*
X170340549Y-92705099D01*
X170370184Y-92752262D01*
X170497738Y-92879816D01*
X170588080Y-92936582D01*
X170649769Y-92975344D01*
X170650478Y-92975789D01*
X170758887Y-93013723D01*
X170820745Y-93035368D01*
X170820750Y-93035369D01*
X170999996Y-93055565D01*
X171000000Y-93055565D01*
X171000004Y-93055565D01*
X171179249Y-93035369D01*
X171179252Y-93035368D01*
X171179255Y-93035368D01*
X171349522Y-92975789D01*
X171502262Y-92879816D01*
X171629816Y-92752262D01*
X171725789Y-92599522D01*
X171785368Y-92429255D01*
X171785369Y-92429249D01*
X171805565Y-92250003D01*
X171805565Y-92249996D01*
X171785369Y-92070750D01*
X171785368Y-92070745D01*
X171752141Y-91975788D01*
X171725789Y-91900478D01*
X171713568Y-91881029D01*
X171642706Y-91768253D01*
X171629816Y-91747738D01*
X171502262Y-91620184D01*
X171502260Y-91620183D01*
X171349523Y-91524211D01*
X171179254Y-91464631D01*
X171179249Y-91464630D01*
X171000004Y-91444435D01*
X170999996Y-91444435D01*
X170820750Y-91464630D01*
X170820745Y-91464631D01*
X170650476Y-91524211D01*
X170497737Y-91620184D01*
X170370184Y-91747737D01*
X170274211Y-91900476D01*
X170214631Y-92070745D01*
X170214630Y-92070750D01*
X170194435Y-92249996D01*
X169131240Y-92249996D01*
X169225789Y-92099522D01*
X169285368Y-91929255D01*
X169288112Y-91904901D01*
X169305565Y-91750003D01*
X169305565Y-91749996D01*
X169285369Y-91570750D01*
X169285368Y-91570745D01*
X169236281Y-91430463D01*
X169225789Y-91400478D01*
X169131998Y-91251210D01*
X172171908Y-91251210D01*
X172171908Y-91251217D01*
X172192103Y-91430463D01*
X172192104Y-91430468D01*
X172251684Y-91600737D01*
X172331634Y-91727976D01*
X172347657Y-91753476D01*
X172475211Y-91881030D01*
X172627951Y-91977003D01*
X172794749Y-92035368D01*
X172798218Y-92036582D01*
X172798223Y-92036583D01*
X172977469Y-92056779D01*
X172977473Y-92056779D01*
X172977477Y-92056779D01*
X173156722Y-92036583D01*
X173156725Y-92036582D01*
X173156728Y-92036582D01*
X173326995Y-91977003D01*
X173479735Y-91881030D01*
X173559029Y-91801735D01*
X173620348Y-91768253D01*
X173690040Y-91773237D01*
X173745974Y-91815108D01*
X173770391Y-91880572D01*
X173763749Y-91930373D01*
X173714632Y-92070742D01*
X173714630Y-92070750D01*
X173694435Y-92249996D01*
X173694435Y-92250003D01*
X173714630Y-92429249D01*
X173714631Y-92429254D01*
X173774211Y-92599523D01*
X173840549Y-92705099D01*
X173870184Y-92752262D01*
X173997738Y-92879816D01*
X174088080Y-92936582D01*
X174149769Y-92975344D01*
X174150478Y-92975789D01*
X174258887Y-93013723D01*
X174320745Y-93035368D01*
X174320750Y-93035369D01*
X174499996Y-93055565D01*
X174500000Y-93055565D01*
X174500004Y-93055565D01*
X174679249Y-93035369D01*
X174679252Y-93035368D01*
X174679255Y-93035368D01*
X174849522Y-92975789D01*
X175002262Y-92879816D01*
X175129816Y-92752262D01*
X175225789Y-92599522D01*
X175285368Y-92429255D01*
X175285369Y-92429249D01*
X175305565Y-92250003D01*
X175305565Y-92249996D01*
X175285369Y-92070750D01*
X175285368Y-92070745D01*
X175252141Y-91975788D01*
X175225789Y-91900478D01*
X175213568Y-91881029D01*
X175142706Y-91768253D01*
X175129816Y-91747738D01*
X175002262Y-91620184D01*
X175002260Y-91620183D01*
X174849523Y-91524211D01*
X174679254Y-91464631D01*
X174679249Y-91464630D01*
X174500004Y-91444435D01*
X174499996Y-91444435D01*
X174320750Y-91464630D01*
X174320745Y-91464631D01*
X174150476Y-91524211D01*
X173997739Y-91620183D01*
X173918446Y-91699476D01*
X173857122Y-91732960D01*
X173787431Y-91727976D01*
X173731497Y-91686104D01*
X173707081Y-91620639D01*
X173713724Y-91570839D01*
X173762839Y-91430476D01*
X173762842Y-91430463D01*
X173783038Y-91251217D01*
X173783038Y-91251210D01*
X173782901Y-91249996D01*
X184694435Y-91249996D01*
X184694435Y-91250003D01*
X184714630Y-91429249D01*
X184714631Y-91429254D01*
X184774211Y-91599523D01*
X184837016Y-91699476D01*
X184870184Y-91752262D01*
X184997738Y-91879816D01*
X185150478Y-91975789D01*
X185320745Y-92035368D01*
X185320750Y-92035369D01*
X185499996Y-92055565D01*
X185500000Y-92055565D01*
X185500004Y-92055565D01*
X185679249Y-92035369D01*
X185679252Y-92035368D01*
X185679255Y-92035368D01*
X185849522Y-91975789D01*
X186002262Y-91879816D01*
X186129816Y-91752262D01*
X186225789Y-91599522D01*
X186285368Y-91429255D01*
X186285369Y-91429249D01*
X186305565Y-91250003D01*
X186305565Y-91249996D01*
X186285369Y-91070750D01*
X186285368Y-91070745D01*
X186269085Y-91024211D01*
X186225789Y-90900478D01*
X186223191Y-90896344D01*
X186176062Y-90821338D01*
X186157062Y-90754102D01*
X186177430Y-90687266D01*
X186230697Y-90642052D01*
X186299954Y-90632814D01*
X186322011Y-90638325D01*
X186456446Y-90685366D01*
X186456452Y-90685367D01*
X186456454Y-90685368D01*
X186456455Y-90685368D01*
X186456459Y-90685369D01*
X186635705Y-90705565D01*
X186635709Y-90705565D01*
X186635713Y-90705565D01*
X186814958Y-90685369D01*
X186814961Y-90685368D01*
X186814964Y-90685368D01*
X186985231Y-90625789D01*
X187137971Y-90529816D01*
X187265525Y-90402262D01*
X187361498Y-90249522D01*
X187421077Y-90079255D01*
X187423016Y-90062045D01*
X187441274Y-89900003D01*
X187441274Y-89899996D01*
X187421078Y-89720750D01*
X187421077Y-89720745D01*
X187361498Y-89550478D01*
X187352004Y-89535369D01*
X187285328Y-89429254D01*
X187265525Y-89397738D01*
X187137971Y-89270184D01*
X186985232Y-89174211D01*
X186938271Y-89157779D01*
X186881495Y-89117057D01*
X186855748Y-89052104D01*
X186869204Y-88983543D01*
X186913255Y-88935743D01*
X186934029Y-88922690D01*
X187001265Y-88903690D01*
X187065973Y-88922691D01*
X187150475Y-88975788D01*
X187320745Y-89035368D01*
X187320750Y-89035369D01*
X187499996Y-89055565D01*
X187500000Y-89055565D01*
X187500004Y-89055565D01*
X187679249Y-89035369D01*
X187679252Y-89035368D01*
X187679255Y-89035368D01*
X187849522Y-88975789D01*
X188002262Y-88879816D01*
X188129816Y-88752262D01*
X188225789Y-88599522D01*
X188285368Y-88429255D01*
X188288342Y-88402863D01*
X188305565Y-88250003D01*
X188305565Y-88249996D01*
X188285369Y-88070750D01*
X188285368Y-88070745D01*
X188269085Y-88024211D01*
X188225789Y-87900478D01*
X188129816Y-87747738D01*
X188002262Y-87620184D01*
X187934027Y-87577309D01*
X187849523Y-87524211D01*
X187679254Y-87464631D01*
X187679249Y-87464630D01*
X187500004Y-87444435D01*
X187499996Y-87444435D01*
X187320750Y-87464630D01*
X187320737Y-87464633D01*
X187150479Y-87524209D01*
X187065971Y-87577309D01*
X186998734Y-87596309D01*
X186934029Y-87577309D01*
X186849520Y-87524209D01*
X186679262Y-87464633D01*
X186679249Y-87464630D01*
X186500004Y-87444435D01*
X186499996Y-87444435D01*
X186320750Y-87464630D01*
X186320745Y-87464631D01*
X186150476Y-87524211D01*
X185997737Y-87620184D01*
X185870184Y-87747737D01*
X185774211Y-87900476D01*
X185714631Y-88070745D01*
X185714630Y-88070750D01*
X185694435Y-88249996D01*
X185694435Y-88250004D01*
X185711657Y-88402863D01*
X185699602Y-88471685D01*
X185654410Y-88521739D01*
X185497739Y-88620182D01*
X185370184Y-88747737D01*
X185274211Y-88900476D01*
X185214631Y-89070745D01*
X185214630Y-89070750D01*
X185194435Y-89249996D01*
X185194435Y-89250003D01*
X185214630Y-89429249D01*
X185214631Y-89429254D01*
X185274211Y-89599523D01*
X185350384Y-89720750D01*
X185370184Y-89752262D01*
X185497738Y-89879816D01*
X185588080Y-89936582D01*
X185632721Y-89964632D01*
X185650478Y-89975789D01*
X185780607Y-90021323D01*
X185837383Y-90062045D01*
X185856694Y-90097411D01*
X185909919Y-90249521D01*
X185959646Y-90328661D01*
X185978646Y-90395898D01*
X185958278Y-90462733D01*
X185905010Y-90507947D01*
X185835754Y-90517184D01*
X185813698Y-90511675D01*
X185679257Y-90464632D01*
X185679249Y-90464630D01*
X185500004Y-90444435D01*
X185499996Y-90444435D01*
X185320750Y-90464630D01*
X185320745Y-90464631D01*
X185150476Y-90524211D01*
X184997737Y-90620184D01*
X184870184Y-90747737D01*
X184774211Y-90900476D01*
X184714631Y-91070745D01*
X184714630Y-91070750D01*
X184694435Y-91249996D01*
X173782901Y-91249996D01*
X173762842Y-91071964D01*
X173762841Y-91071959D01*
X173727780Y-90971761D01*
X173703262Y-90901692D01*
X173607289Y-90748952D01*
X173479735Y-90621398D01*
X173442162Y-90597789D01*
X173326996Y-90525425D01*
X173156727Y-90465845D01*
X173156722Y-90465844D01*
X172977477Y-90445649D01*
X172977469Y-90445649D01*
X172798223Y-90465844D01*
X172798218Y-90465845D01*
X172627949Y-90525425D01*
X172475210Y-90621398D01*
X172347657Y-90748951D01*
X172251684Y-90901690D01*
X172192104Y-91071959D01*
X172192103Y-91071964D01*
X172171908Y-91251210D01*
X169131998Y-91251210D01*
X169129816Y-91247738D01*
X169002262Y-91120184D01*
X168969379Y-91099522D01*
X168849523Y-91024211D01*
X168679254Y-90964631D01*
X168679249Y-90964630D01*
X168500004Y-90944435D01*
X168499996Y-90944435D01*
X168320750Y-90964630D01*
X168320745Y-90964631D01*
X168150476Y-91024211D01*
X167997737Y-91120184D01*
X167870184Y-91247737D01*
X167774211Y-91400476D01*
X167714631Y-91570745D01*
X167714630Y-91570750D01*
X167694435Y-91749996D01*
X162821240Y-91749996D01*
X162826888Y-91736555D01*
X162882086Y-91697810D01*
X162952701Y-91673102D01*
X163105441Y-91577129D01*
X163232995Y-91449575D01*
X163328968Y-91296835D01*
X163388547Y-91126568D01*
X163389213Y-91120659D01*
X163408744Y-90947316D01*
X163408744Y-90947309D01*
X163388548Y-90768063D01*
X163388547Y-90768058D01*
X163382227Y-90749996D01*
X165194435Y-90749996D01*
X165194435Y-90750003D01*
X165214630Y-90929249D01*
X165214631Y-90929254D01*
X165274211Y-91099523D01*
X165367341Y-91247737D01*
X165370184Y-91252262D01*
X165497738Y-91379816D01*
X165588080Y-91436582D01*
X165632721Y-91464632D01*
X165650478Y-91475789D01*
X165788860Y-91524211D01*
X165820745Y-91535368D01*
X165820750Y-91535369D01*
X165999996Y-91555565D01*
X166000000Y-91555565D01*
X166000004Y-91555565D01*
X166179249Y-91535369D01*
X166179252Y-91535368D01*
X166179255Y-91535368D01*
X166349522Y-91475789D01*
X166502262Y-91379816D01*
X166629816Y-91252262D01*
X166725789Y-91099522D01*
X166785368Y-90929255D01*
X166788474Y-90901690D01*
X166805565Y-90750003D01*
X166805565Y-90749996D01*
X166785369Y-90570750D01*
X166785368Y-90570745D01*
X166766626Y-90517184D01*
X166725789Y-90400478D01*
X166629816Y-90247738D01*
X166502262Y-90120184D01*
X166437124Y-90079255D01*
X166349523Y-90024211D01*
X166179254Y-89964631D01*
X166179249Y-89964630D01*
X166000004Y-89944435D01*
X165999996Y-89944435D01*
X165820750Y-89964630D01*
X165820745Y-89964631D01*
X165650476Y-90024211D01*
X165497737Y-90120184D01*
X165370184Y-90247737D01*
X165274211Y-90400476D01*
X165214631Y-90570745D01*
X165214630Y-90570750D01*
X165194435Y-90749996D01*
X163382227Y-90749996D01*
X163328968Y-90597791D01*
X163232995Y-90445051D01*
X163105441Y-90317497D01*
X163000871Y-90251791D01*
X162952702Y-90221524D01*
X162782433Y-90161944D01*
X162782428Y-90161943D01*
X162603183Y-90141748D01*
X162603175Y-90141748D01*
X162423929Y-90161943D01*
X162423924Y-90161944D01*
X162253655Y-90221524D01*
X162100916Y-90317497D01*
X161973363Y-90445050D01*
X161877390Y-90597789D01*
X161817810Y-90768058D01*
X161817809Y-90768062D01*
X161803356Y-90896344D01*
X161776289Y-90960758D01*
X161721093Y-90999501D01*
X161650474Y-91024212D01*
X161497737Y-91120184D01*
X161370184Y-91247737D01*
X161274211Y-91400476D01*
X161214631Y-91570745D01*
X161214630Y-91570750D01*
X161194435Y-91749996D01*
X142730757Y-91749996D01*
X142673600Y-91627422D01*
X142673599Y-91627420D01*
X142538113Y-91433926D01*
X142538108Y-91433920D01*
X142371078Y-91266890D01*
X142185405Y-91136879D01*
X142141780Y-91082302D01*
X142134588Y-91012804D01*
X142166110Y-90950449D01*
X142185406Y-90933730D01*
X142191797Y-90929255D01*
X142371401Y-90803495D01*
X142538495Y-90636401D01*
X142674035Y-90442830D01*
X142773903Y-90228663D01*
X142835063Y-90000408D01*
X142855659Y-89765000D01*
X142835063Y-89529592D01*
X142786888Y-89349799D01*
X142773905Y-89301344D01*
X142773904Y-89301343D01*
X142773903Y-89301337D01*
X142674035Y-89087171D01*
X142662533Y-89070745D01*
X142538496Y-88893600D01*
X142524711Y-88879815D01*
X142416567Y-88771671D01*
X142404732Y-88749996D01*
X155694435Y-88749996D01*
X155694435Y-88750003D01*
X155714630Y-88929249D01*
X155714631Y-88929254D01*
X155774211Y-89099523D01*
X155810816Y-89157779D01*
X155870184Y-89252262D01*
X155997738Y-89379816D01*
X156150478Y-89475789D01*
X156304221Y-89529586D01*
X156320745Y-89535368D01*
X156320750Y-89535369D01*
X156499996Y-89555565D01*
X156500000Y-89555565D01*
X156500004Y-89555565D01*
X156679249Y-89535369D01*
X156679252Y-89535368D01*
X156679255Y-89535368D01*
X156849522Y-89475789D01*
X157002262Y-89379816D01*
X157129816Y-89252262D01*
X157225789Y-89099522D01*
X157285368Y-88929255D01*
X157286108Y-88922690D01*
X157305565Y-88750003D01*
X157305565Y-88749996D01*
X159694435Y-88749996D01*
X159694435Y-88750003D01*
X159714630Y-88929249D01*
X159714631Y-88929254D01*
X159774211Y-89099523D01*
X159810816Y-89157779D01*
X159870184Y-89252262D01*
X159997738Y-89379816D01*
X160150478Y-89475789D01*
X160304221Y-89529586D01*
X160320745Y-89535368D01*
X160320750Y-89535369D01*
X160499996Y-89555565D01*
X160500000Y-89555565D01*
X160500004Y-89555565D01*
X160679249Y-89535369D01*
X160679252Y-89535368D01*
X160679255Y-89535368D01*
X160849522Y-89475789D01*
X161002262Y-89379816D01*
X161129816Y-89252262D01*
X161225789Y-89099522D01*
X161285368Y-88929255D01*
X161286108Y-88922690D01*
X161305565Y-88750003D01*
X161305565Y-88749996D01*
X164194435Y-88749996D01*
X164194435Y-88750003D01*
X164214630Y-88929249D01*
X164214631Y-88929254D01*
X164274211Y-89099523D01*
X164310816Y-89157779D01*
X164370184Y-89252262D01*
X164497738Y-89379816D01*
X164650478Y-89475789D01*
X164804221Y-89529586D01*
X164820745Y-89535368D01*
X164820750Y-89535369D01*
X164999996Y-89555565D01*
X165000000Y-89555565D01*
X165000004Y-89555565D01*
X165179249Y-89535369D01*
X165179252Y-89535368D01*
X165179255Y-89535368D01*
X165349522Y-89475789D01*
X165502262Y-89379816D01*
X165629816Y-89252262D01*
X165725789Y-89099522D01*
X165785368Y-88929255D01*
X165786108Y-88922690D01*
X165805565Y-88750003D01*
X165805565Y-88749996D01*
X165785369Y-88570750D01*
X165785368Y-88570745D01*
X165737009Y-88432544D01*
X165725789Y-88400478D01*
X165631235Y-88249996D01*
X167694435Y-88249996D01*
X167694435Y-88250003D01*
X167714630Y-88429249D01*
X167714631Y-88429254D01*
X167774211Y-88599523D01*
X167854000Y-88726505D01*
X167870184Y-88752262D01*
X167997738Y-88879816D01*
X168150478Y-88975789D01*
X168320745Y-89035368D01*
X168320750Y-89035369D01*
X168499996Y-89055565D01*
X168500000Y-89055565D01*
X168500004Y-89055565D01*
X168679249Y-89035369D01*
X168679252Y-89035368D01*
X168679255Y-89035368D01*
X168849522Y-88975789D01*
X169002262Y-88879816D01*
X169129816Y-88752262D01*
X169131240Y-88749996D01*
X170194435Y-88749996D01*
X170194435Y-88750003D01*
X170214630Y-88929249D01*
X170214631Y-88929254D01*
X170274211Y-89099523D01*
X170310816Y-89157779D01*
X170370184Y-89252262D01*
X170497738Y-89379816D01*
X170650478Y-89475789D01*
X170804221Y-89529586D01*
X170820745Y-89535368D01*
X170820750Y-89535369D01*
X170999996Y-89555565D01*
X171000000Y-89555565D01*
X171000004Y-89555565D01*
X171179249Y-89535369D01*
X171179252Y-89535368D01*
X171179255Y-89535368D01*
X171349522Y-89475789D01*
X171502262Y-89379816D01*
X171629816Y-89252262D01*
X171725789Y-89099522D01*
X171785368Y-88929255D01*
X171786108Y-88922690D01*
X171805565Y-88750003D01*
X171805565Y-88749996D01*
X173194435Y-88749996D01*
X173194435Y-88750003D01*
X173214630Y-88929249D01*
X173214631Y-88929254D01*
X173274211Y-89099523D01*
X173310816Y-89157779D01*
X173370184Y-89252262D01*
X173497738Y-89379816D01*
X173650478Y-89475789D01*
X173804221Y-89529586D01*
X173820745Y-89535368D01*
X173820750Y-89535369D01*
X173999996Y-89555565D01*
X174000000Y-89555565D01*
X174000004Y-89555565D01*
X174179249Y-89535369D01*
X174179252Y-89535368D01*
X174179255Y-89535368D01*
X174349522Y-89475789D01*
X174502262Y-89379816D01*
X174629816Y-89252262D01*
X174631240Y-89249996D01*
X180194435Y-89249996D01*
X180194435Y-89250003D01*
X180214630Y-89429249D01*
X180214631Y-89429254D01*
X180274211Y-89599523D01*
X180350384Y-89720750D01*
X180370184Y-89752262D01*
X180497738Y-89879816D01*
X180588080Y-89936582D01*
X180632721Y-89964632D01*
X180650478Y-89975789D01*
X180780607Y-90021323D01*
X180820745Y-90035368D01*
X180820750Y-90035369D01*
X180999996Y-90055565D01*
X181000000Y-90055565D01*
X181000004Y-90055565D01*
X181179249Y-90035369D01*
X181179252Y-90035368D01*
X181179255Y-90035368D01*
X181349522Y-89975789D01*
X181502262Y-89879816D01*
X181629816Y-89752262D01*
X181725789Y-89599522D01*
X181785368Y-89429255D01*
X181788919Y-89397738D01*
X181805565Y-89250003D01*
X181805565Y-89249996D01*
X181785369Y-89070750D01*
X181785368Y-89070745D01*
X181738129Y-88935743D01*
X181725789Y-88900478D01*
X181629816Y-88747738D01*
X181502262Y-88620184D01*
X181469379Y-88599522D01*
X181349523Y-88524211D01*
X181179254Y-88464631D01*
X181179249Y-88464630D01*
X181000004Y-88444435D01*
X180999996Y-88444435D01*
X180820750Y-88464630D01*
X180820745Y-88464631D01*
X180650476Y-88524211D01*
X180497737Y-88620184D01*
X180370184Y-88747737D01*
X180274211Y-88900476D01*
X180214631Y-89070745D01*
X180214630Y-89070750D01*
X180194435Y-89249996D01*
X174631240Y-89249996D01*
X174725789Y-89099522D01*
X174785368Y-88929255D01*
X174786108Y-88922690D01*
X174805565Y-88750003D01*
X174805565Y-88749997D01*
X174798285Y-88685389D01*
X174810339Y-88616567D01*
X174857688Y-88565188D01*
X174925298Y-88547563D01*
X174935385Y-88548284D01*
X174961857Y-88551267D01*
X174999998Y-88555565D01*
X175000000Y-88555565D01*
X175000004Y-88555565D01*
X175179249Y-88535369D01*
X175179252Y-88535368D01*
X175179255Y-88535368D01*
X175349522Y-88475789D01*
X175502262Y-88379816D01*
X175629816Y-88252262D01*
X175725789Y-88099522D01*
X175785368Y-87929255D01*
X175785369Y-87929249D01*
X175805565Y-87750003D01*
X175805565Y-87749996D01*
X175785369Y-87570750D01*
X175785368Y-87570745D01*
X175725788Y-87400476D01*
X175686582Y-87338080D01*
X175629816Y-87247738D01*
X175502262Y-87120184D01*
X175469379Y-87099522D01*
X175349523Y-87024211D01*
X175179254Y-86964631D01*
X175179249Y-86964630D01*
X175000004Y-86944435D01*
X174999996Y-86944435D01*
X174820750Y-86964630D01*
X174820745Y-86964631D01*
X174650476Y-87024211D01*
X174497737Y-87120184D01*
X174370184Y-87247737D01*
X174274211Y-87400476D01*
X174214631Y-87570745D01*
X174214630Y-87570750D01*
X174194435Y-87749996D01*
X174194435Y-87750004D01*
X174201714Y-87814611D01*
X174189659Y-87883433D01*
X174142310Y-87934812D01*
X174074699Y-87952436D01*
X174064611Y-87951714D01*
X174000004Y-87944435D01*
X173999996Y-87944435D01*
X173820750Y-87964630D01*
X173820745Y-87964631D01*
X173650476Y-88024211D01*
X173497737Y-88120184D01*
X173370184Y-88247737D01*
X173274211Y-88400476D01*
X173214631Y-88570745D01*
X173214630Y-88570750D01*
X173194435Y-88749996D01*
X171805565Y-88749996D01*
X171785369Y-88570750D01*
X171785368Y-88570745D01*
X171737009Y-88432544D01*
X171725789Y-88400478D01*
X171629816Y-88247738D01*
X171502262Y-88120184D01*
X171469379Y-88099522D01*
X171349523Y-88024211D01*
X171179254Y-87964631D01*
X171179249Y-87964630D01*
X171000004Y-87944435D01*
X170999996Y-87944435D01*
X170820750Y-87964630D01*
X170820745Y-87964631D01*
X170650476Y-88024211D01*
X170497737Y-88120184D01*
X170370184Y-88247737D01*
X170274211Y-88400476D01*
X170214631Y-88570745D01*
X170214630Y-88570750D01*
X170194435Y-88749996D01*
X169131240Y-88749996D01*
X169225789Y-88599522D01*
X169285368Y-88429255D01*
X169288342Y-88402863D01*
X169305565Y-88250003D01*
X169305565Y-88249996D01*
X169285369Y-88070750D01*
X169285368Y-88070745D01*
X169269085Y-88024211D01*
X169225789Y-87900478D01*
X169129816Y-87747738D01*
X169002262Y-87620184D01*
X168934027Y-87577309D01*
X168849523Y-87524211D01*
X168679254Y-87464631D01*
X168679249Y-87464630D01*
X168500004Y-87444435D01*
X168499996Y-87444435D01*
X168320750Y-87464630D01*
X168320745Y-87464631D01*
X168150476Y-87524211D01*
X167997737Y-87620184D01*
X167870184Y-87747737D01*
X167774211Y-87900476D01*
X167714631Y-88070745D01*
X167714630Y-88070750D01*
X167694435Y-88249996D01*
X165631235Y-88249996D01*
X165629816Y-88247738D01*
X165502262Y-88120184D01*
X165469379Y-88099522D01*
X165349523Y-88024211D01*
X165179254Y-87964631D01*
X165179249Y-87964630D01*
X165000004Y-87944435D01*
X164999996Y-87944435D01*
X164820750Y-87964630D01*
X164820745Y-87964631D01*
X164650476Y-88024211D01*
X164497737Y-88120184D01*
X164370184Y-88247737D01*
X164274211Y-88400476D01*
X164214631Y-88570745D01*
X164214630Y-88570750D01*
X164194435Y-88749996D01*
X161305565Y-88749996D01*
X161285369Y-88570750D01*
X161285368Y-88570745D01*
X161237009Y-88432544D01*
X161225789Y-88400478D01*
X161129816Y-88247738D01*
X161002262Y-88120184D01*
X160969379Y-88099522D01*
X160849523Y-88024211D01*
X160679254Y-87964631D01*
X160679249Y-87964630D01*
X160500004Y-87944435D01*
X160499996Y-87944435D01*
X160320750Y-87964630D01*
X160320745Y-87964631D01*
X160150476Y-88024211D01*
X159997737Y-88120184D01*
X159870184Y-88247737D01*
X159774211Y-88400476D01*
X159714631Y-88570745D01*
X159714630Y-88570750D01*
X159694435Y-88749996D01*
X157305565Y-88749996D01*
X157285369Y-88570750D01*
X157285368Y-88570745D01*
X157237009Y-88432544D01*
X157225789Y-88400478D01*
X157129816Y-88247738D01*
X157002262Y-88120184D01*
X156969379Y-88099522D01*
X156849523Y-88024211D01*
X156679254Y-87964631D01*
X156679249Y-87964630D01*
X156500004Y-87944435D01*
X156499996Y-87944435D01*
X156320750Y-87964630D01*
X156320745Y-87964631D01*
X156150476Y-88024211D01*
X155997737Y-88120184D01*
X155870184Y-88247737D01*
X155774211Y-88400476D01*
X155714631Y-88570745D01*
X155714630Y-88570750D01*
X155694435Y-88749996D01*
X142404732Y-88749996D01*
X142383084Y-88710351D01*
X142388068Y-88640659D01*
X142429939Y-88584725D01*
X142460915Y-88567810D01*
X142592331Y-88518796D01*
X142707546Y-88432546D01*
X142793796Y-88317331D01*
X142844091Y-88182483D01*
X142850500Y-88122873D01*
X142850499Y-86749996D01*
X180194435Y-86749996D01*
X180194435Y-86750003D01*
X180214630Y-86929249D01*
X180214631Y-86929254D01*
X180274211Y-87099523D01*
X180367341Y-87247737D01*
X180370184Y-87252262D01*
X180497738Y-87379816D01*
X180588080Y-87436582D01*
X180632721Y-87464632D01*
X180650478Y-87475789D01*
X180788860Y-87524211D01*
X180820745Y-87535368D01*
X180820750Y-87535369D01*
X180999996Y-87555565D01*
X181000000Y-87555565D01*
X181000004Y-87555565D01*
X181179249Y-87535369D01*
X181179252Y-87535368D01*
X181179255Y-87535368D01*
X181349522Y-87475789D01*
X181502262Y-87379816D01*
X181629816Y-87252262D01*
X181725789Y-87099522D01*
X181785368Y-86929255D01*
X181805565Y-86750000D01*
X181785368Y-86570745D01*
X181725789Y-86400478D01*
X181629816Y-86247738D01*
X181502262Y-86120184D01*
X181408476Y-86061254D01*
X181349523Y-86024211D01*
X181179254Y-85964631D01*
X181179249Y-85964630D01*
X181000004Y-85944435D01*
X180999996Y-85944435D01*
X180820750Y-85964630D01*
X180820745Y-85964631D01*
X180650476Y-86024211D01*
X180497737Y-86120184D01*
X180370184Y-86247737D01*
X180274211Y-86400476D01*
X180214631Y-86570745D01*
X180214630Y-86570750D01*
X180194435Y-86749996D01*
X142850499Y-86749996D01*
X142850499Y-86327128D01*
X142844091Y-86267517D01*
X142802521Y-86156063D01*
X142793797Y-86132671D01*
X142793793Y-86132664D01*
X142707547Y-86017455D01*
X142707544Y-86017452D01*
X142592335Y-85931206D01*
X142592328Y-85931202D01*
X142457482Y-85880908D01*
X142457483Y-85880908D01*
X142397883Y-85874501D01*
X142397881Y-85874500D01*
X142397873Y-85874500D01*
X142397864Y-85874500D01*
X140602129Y-85874500D01*
X140602123Y-85874501D01*
X140542516Y-85880908D01*
X140407671Y-85931202D01*
X140407664Y-85931206D01*
X140292455Y-86017452D01*
X140292452Y-86017455D01*
X140223766Y-86109208D01*
X140167832Y-86151079D01*
X140098141Y-86156063D01*
X140036818Y-86122577D01*
X140003334Y-86061254D01*
X140000500Y-86034897D01*
X140000500Y-84430000D01*
X187589157Y-84430000D01*
X188443012Y-84430000D01*
X188425795Y-84439940D01*
X188369940Y-84495795D01*
X188330444Y-84564204D01*
X188310000Y-84640504D01*
X188310000Y-84719496D01*
X188330444Y-84795796D01*
X188369940Y-84864205D01*
X188425795Y-84920060D01*
X188443012Y-84930000D01*
X187589157Y-84930000D01*
X187600350Y-84986274D01*
X187600351Y-84986276D01*
X187679500Y-85177358D01*
X187679505Y-85177368D01*
X187794410Y-85349335D01*
X187794413Y-85349339D01*
X187940660Y-85495586D01*
X187940664Y-85495589D01*
X188112631Y-85610494D01*
X188112641Y-85610499D01*
X188303725Y-85689649D01*
X188303733Y-85689651D01*
X188506579Y-85729999D01*
X188506583Y-85730000D01*
X188860000Y-85730000D01*
X188860000Y-84980000D01*
X189360000Y-84980000D01*
X189360000Y-85730000D01*
X189713417Y-85730000D01*
X189713420Y-85729999D01*
X189916266Y-85689651D01*
X189916274Y-85689649D01*
X190107358Y-85610499D01*
X190107368Y-85610494D01*
X190279335Y-85495589D01*
X190279339Y-85495586D01*
X190425586Y-85349339D01*
X190425589Y-85349335D01*
X190540494Y-85177368D01*
X190540499Y-85177358D01*
X190619648Y-84986276D01*
X190619649Y-84986274D01*
X190630843Y-84930000D01*
X189776988Y-84930000D01*
X189794205Y-84920060D01*
X189850060Y-84864205D01*
X189889556Y-84795796D01*
X189910000Y-84719496D01*
X189910000Y-84640504D01*
X189889556Y-84564204D01*
X189850060Y-84495795D01*
X189794205Y-84439940D01*
X189776988Y-84430000D01*
X190630843Y-84430000D01*
X190619649Y-84373725D01*
X190619648Y-84373723D01*
X190540499Y-84182641D01*
X190540494Y-84182631D01*
X190425589Y-84010664D01*
X190425586Y-84010660D01*
X190279339Y-83864413D01*
X190279335Y-83864410D01*
X190107368Y-83749505D01*
X190107358Y-83749500D01*
X189916274Y-83670350D01*
X189916266Y-83670348D01*
X189713420Y-83630000D01*
X189360000Y-83630000D01*
X189360000Y-84380000D01*
X188860000Y-84380000D01*
X188860000Y-83630000D01*
X188506579Y-83630000D01*
X188303733Y-83670348D01*
X188303725Y-83670350D01*
X188112641Y-83749500D01*
X188112631Y-83749505D01*
X187940664Y-83864410D01*
X187940660Y-83864413D01*
X187794413Y-84010660D01*
X187794410Y-84010664D01*
X187679505Y-84182631D01*
X187679500Y-84182641D01*
X187600351Y-84373723D01*
X187600350Y-84373725D01*
X187589157Y-84430000D01*
X140000500Y-84430000D01*
X140000500Y-83030697D01*
X140020185Y-82963658D01*
X140072989Y-82917903D01*
X140142147Y-82907959D01*
X140205703Y-82936984D01*
X140209737Y-82940885D01*
X140209793Y-82940825D01*
X140384091Y-83102548D01*
X140405521Y-83122433D01*
X140622296Y-83270228D01*
X140622301Y-83270230D01*
X140622302Y-83270231D01*
X140622303Y-83270232D01*
X140747843Y-83330688D01*
X140858673Y-83384061D01*
X140858674Y-83384061D01*
X140858677Y-83384063D01*
X141109385Y-83461396D01*
X141368818Y-83500500D01*
X141631182Y-83500500D01*
X141890615Y-83461396D01*
X142141323Y-83384063D01*
X142377704Y-83270228D01*
X142594479Y-83122433D01*
X142765598Y-82963658D01*
X142786801Y-82943985D01*
X142786801Y-82943983D01*
X142786805Y-82943981D01*
X142950386Y-82738857D01*
X142983644Y-82681251D01*
X143034208Y-82633039D01*
X143102815Y-82619815D01*
X143167680Y-82645783D01*
G37*
%TD.AperFunction*%
%TD*%
M02*
