%TF.GenerationSoftware,KiCad,Pcbnew,8.0.6*%
%TF.CreationDate,2025-05-31T11:47:03-05:00*%
%TF.ProjectId,TPS_Calibration_Board,5450535f-4361-46c6-9962-726174696f6e,rev?*%
%TF.SameCoordinates,Original*%
%TF.FileFunction,Paste,Top*%
%TF.FilePolarity,Positive*%
%FSLAX46Y46*%
G04 Gerber Fmt 4.6, Leading zero omitted, Abs format (unit mm)*
G04 Created by KiCad (PCBNEW 8.0.6) date 2025-05-31 11:47:03*
%MOMM*%
%LPD*%
G01*
G04 APERTURE LIST*
G04 Aperture macros list*
%AMRoundRect*
0 Rectangle with rounded corners*
0 $1 Rounding radius*
0 $2 $3 $4 $5 $6 $7 $8 $9 X,Y pos of 4 corners*
0 Add a 4 corners polygon primitive as box body*
4,1,4,$2,$3,$4,$5,$6,$7,$8,$9,$2,$3,0*
0 Add four circle primitives for the rounded corners*
1,1,$1+$1,$2,$3*
1,1,$1+$1,$4,$5*
1,1,$1+$1,$6,$7*
1,1,$1+$1,$8,$9*
0 Add four rect primitives between the rounded corners*
20,1,$1+$1,$2,$3,$4,$5,0*
20,1,$1+$1,$4,$5,$6,$7,0*
20,1,$1+$1,$6,$7,$8,$9,0*
20,1,$1+$1,$8,$9,$2,$3,0*%
G04 Aperture macros list end*
%ADD10RoundRect,0.212500X-0.212500X-0.212500X0.212500X-0.212500X0.212500X0.212500X-0.212500X0.212500X0*%
%ADD11RoundRect,0.075000X-0.350000X-0.075000X0.350000X-0.075000X0.350000X0.075000X-0.350000X0.075000X0*%
%ADD12RoundRect,0.075000X-0.075000X-0.350000X0.075000X-0.350000X0.075000X0.350000X-0.075000X0.350000X0*%
%ADD13RoundRect,0.125000X-0.353553X-0.530330X0.530330X0.353553X0.353553X0.530330X-0.530330X-0.353553X0*%
%ADD14RoundRect,0.125000X0.353553X-0.530330X0.530330X-0.353553X-0.353553X0.530330X-0.530330X0.353553X0*%
%ADD15R,1.550000X1.300000*%
%ADD16RoundRect,0.250000X-0.400000X-0.625000X0.400000X-0.625000X0.400000X0.625000X-0.400000X0.625000X0*%
%ADD17RoundRect,0.250000X0.400000X0.625000X-0.400000X0.625000X-0.400000X-0.625000X0.400000X-0.625000X0*%
%ADD18RoundRect,0.150000X0.587500X0.150000X-0.587500X0.150000X-0.587500X-0.150000X0.587500X-0.150000X0*%
%ADD19R,0.700000X1.000000*%
%ADD20R,0.700000X0.300000*%
%ADD21RoundRect,0.250001X-0.462499X-1.074999X0.462499X-1.074999X0.462499X1.074999X-0.462499X1.074999X0*%
%ADD22R,1.700000X1.700000*%
%ADD23O,1.700000X1.700000*%
%ADD24RoundRect,0.250000X-0.325000X-0.450000X0.325000X-0.450000X0.325000X0.450000X-0.325000X0.450000X0*%
%ADD25RoundRect,0.250000X1.400000X2.000000X-1.400000X2.000000X-1.400000X-2.000000X1.400000X-2.000000X0*%
%ADD26RoundRect,0.250000X-0.475000X0.337500X-0.475000X-0.337500X0.475000X-0.337500X0.475000X0.337500X0*%
%ADD27RoundRect,0.250000X0.475000X-0.337500X0.475000X0.337500X-0.475000X0.337500X-0.475000X-0.337500X0*%
%ADD28RoundRect,0.250001X-0.462499X-0.624999X0.462499X-0.624999X0.462499X0.624999X-0.462499X0.624999X0*%
%ADD29R,1.550000X0.600000*%
%ADD30R,2.600000X3.100000*%
G04 APERTURE END LIST*
D10*
%TO.C,U3*%
X177500000Y-88250000D03*
X177500000Y-89300000D03*
X178550000Y-88250000D03*
X178550000Y-89300000D03*
D11*
X176075000Y-87800000D03*
X176075000Y-88450000D03*
X176075000Y-89100000D03*
X176075000Y-89750000D03*
D12*
X177050000Y-90725000D03*
X177700000Y-90725000D03*
X178350000Y-90725000D03*
X179000000Y-90725000D03*
D11*
X179975000Y-89750000D03*
X179975000Y-89100000D03*
X179975000Y-88450000D03*
X179975000Y-87800000D03*
D12*
X179000000Y-86825000D03*
X178350000Y-86825000D03*
X177700000Y-86825000D03*
X177050000Y-86825000D03*
%TD*%
D13*
%TO.C,U2*%
X159067930Y-99222272D03*
X159633616Y-99787957D03*
X160199301Y-100353643D03*
X160764986Y-100919328D03*
X161330672Y-101485014D03*
X161896357Y-102050699D03*
X162462043Y-102616384D03*
X163027728Y-103182070D03*
D14*
X164972272Y-103182070D03*
X165537957Y-102616384D03*
X166103643Y-102050699D03*
X166669328Y-101485014D03*
X167235014Y-100919328D03*
X167800699Y-100353643D03*
X168366384Y-99787957D03*
X168932070Y-99222272D03*
D13*
X168932070Y-97277728D03*
X168366384Y-96712043D03*
X167800699Y-96146357D03*
X167235014Y-95580672D03*
X166669328Y-95014986D03*
X166103643Y-94449301D03*
X165537957Y-93883616D03*
X164972272Y-93317930D03*
D14*
X163027728Y-93317930D03*
X162462043Y-93883616D03*
X161896357Y-94449301D03*
X161330672Y-95014986D03*
X160764986Y-95580672D03*
X160199301Y-96146357D03*
X159633616Y-96712043D03*
X159067930Y-97277728D03*
%TD*%
D15*
%TO.C,SW1*%
X153475000Y-92250000D03*
X145525000Y-92250000D03*
X153475000Y-87750000D03*
X145525000Y-87750000D03*
%TD*%
D16*
%TO.C,R11*%
X169500000Y-114750000D03*
X166400000Y-114750000D03*
%TD*%
%TO.C,R10*%
X189950000Y-101250000D03*
X193050000Y-101250000D03*
%TD*%
D17*
%TO.C,R9*%
X185550000Y-114750000D03*
X182450000Y-114750000D03*
%TD*%
D16*
%TO.C,R8*%
X189950000Y-97250000D03*
X193050000Y-97250000D03*
%TD*%
%TO.C,R7*%
X181950000Y-87750000D03*
X185050000Y-87750000D03*
%TD*%
D17*
%TO.C,R5*%
X171550000Y-93250000D03*
X168450000Y-93250000D03*
%TD*%
%TO.C,R4*%
X171550000Y-89750000D03*
X168450000Y-89750000D03*
%TD*%
D18*
%TO.C,Q1*%
X153437500Y-121200000D03*
X153437500Y-119300000D03*
X151562500Y-120250000D03*
%TD*%
D19*
%TO.C,P1*%
X190000000Y-92100000D03*
D20*
X190000000Y-91250000D03*
X190000000Y-90750000D03*
X190000000Y-90250000D03*
X190000000Y-89750000D03*
X190000000Y-89250000D03*
X190000000Y-88750000D03*
X190000000Y-88250000D03*
X190000000Y-87750000D03*
X190000000Y-87250000D03*
X190000000Y-86750000D03*
D19*
X190000000Y-85900000D03*
D20*
X188700000Y-86000000D03*
X188700000Y-86500000D03*
X188700000Y-87000000D03*
X188700000Y-87500000D03*
X188700000Y-88000000D03*
X188700000Y-88500000D03*
X188700000Y-89500000D03*
X188700000Y-90000000D03*
X188700000Y-90500000D03*
X188700000Y-91000000D03*
X188700000Y-91500000D03*
X188700000Y-92000000D03*
%TD*%
D21*
%TO.C,L1*%
X185475000Y-120250000D03*
X182500000Y-120250000D03*
%TD*%
D22*
%TO.C,J3*%
X157400000Y-84750000D03*
D23*
X159940000Y-84750000D03*
X162480000Y-84750000D03*
X165020000Y-84750000D03*
X167560000Y-84750000D03*
X170100000Y-84750000D03*
%TD*%
D24*
%TO.C,F1*%
X149475000Y-115250000D03*
X151525000Y-115250000D03*
%TD*%
D25*
%TO.C,D1*%
X176000000Y-119650000D03*
X176000000Y-110850000D03*
%TD*%
D26*
%TO.C,C13*%
X168000000Y-121287500D03*
X168000000Y-119212500D03*
%TD*%
%TO.C,C12*%
X183500000Y-92787500D03*
X183500000Y-90712500D03*
%TD*%
D27*
%TO.C,C7*%
X169180000Y-106212500D03*
X169180000Y-108287500D03*
%TD*%
%TO.C,C6*%
X165680000Y-108287500D03*
X165680000Y-106212500D03*
%TD*%
%TO.C,C5*%
X162670000Y-108287500D03*
X162670000Y-106212500D03*
%TD*%
%TO.C,C4*%
X159500000Y-108287500D03*
X159500000Y-106212500D03*
%TD*%
D28*
%TO.C,D2*%
X159512500Y-112250000D03*
X162487500Y-112250000D03*
%TD*%
D29*
%TO.C,U4*%
X157900000Y-117545000D03*
X157900000Y-118815000D03*
X157900000Y-120085000D03*
X157900000Y-121355000D03*
X163300000Y-121355000D03*
X163300000Y-120085000D03*
X163300000Y-118815000D03*
X163300000Y-117545000D03*
D30*
X160600000Y-119450000D03*
%TD*%
M02*
