%TF.GenerationSoftware,KiCad,Pcbnew,8.0.6*%
%TF.CreationDate,2025-05-31T11:47:03-05:00*%
%TF.ProjectId,TPS_Calibration_Board,5450535f-4361-46c6-9962-726174696f6e,rev?*%
%TF.SameCoordinates,Original*%
%TF.FileFunction,Profile,NP*%
%FSLAX46Y46*%
G04 Gerber Fmt 4.6, Leading zero omitted, Abs format (unit mm)*
G04 Created by KiCad (PCBNEW 8.0.6) date 2025-05-31 11:47:03*
%MOMM*%
%LPD*%
G01*
G04 APERTURE LIST*
%TA.AperFunction,Profile*%
%ADD10C,0.050000*%
%TD*%
G04 APERTURE END LIST*
D10*
X192500000Y-81750000D02*
X192500000Y-82000000D01*
X192500000Y-82000000D02*
G75*
G02*
X191750000Y-82750000I-750000J0D01*
G01*
X192500000Y-81750000D02*
G75*
G02*
X194500000Y-79750000I2000000J0D01*
G01*
X143500000Y-81750000D02*
X143500000Y-82000000D01*
X144250000Y-82750000D02*
G75*
G02*
X143500000Y-82000000I0J750000D01*
G01*
X141500000Y-79750000D02*
G75*
G02*
X143500000Y-81750000I0J-2000000D01*
G01*
X143500000Y-125250000D02*
X143500000Y-125500000D01*
X143500000Y-125250000D02*
G75*
G02*
X144250000Y-124500000I750000J0D01*
G01*
X143500000Y-125500000D02*
G75*
G02*
X141500000Y-127500000I-2000000J0D01*
G01*
X192500002Y-125500000D02*
X192500000Y-125250000D01*
X191750000Y-124500000D02*
G75*
G02*
X192500000Y-125250000I0J-750000D01*
G01*
X194500000Y-127500000D02*
G75*
G02*
X192500002Y-125500000I1J1999999D01*
G01*
X196500000Y-125500000D02*
G75*
G02*
X194500000Y-127500000I-1999999J-1D01*
G01*
X195750000Y-125500000D02*
G75*
G02*
X193250000Y-125500000I-1250000J0D01*
G01*
X193250000Y-125500000D02*
G75*
G02*
X195750000Y-125500000I1250000J0D01*
G01*
X141500000Y-127500000D02*
G75*
G02*
X139500000Y-125500000I-1J1999999D01*
G01*
X139500000Y-81750000D02*
G75*
G02*
X141500000Y-79750000I1999999J1D01*
G01*
X142750000Y-125500000D02*
G75*
G02*
X140250000Y-125500000I-1250000J0D01*
G01*
X140250000Y-125500000D02*
G75*
G02*
X142750000Y-125500000I1250000J0D01*
G01*
X142750000Y-81750000D02*
G75*
G02*
X140250000Y-81750000I-1250000J0D01*
G01*
X140250000Y-81750000D02*
G75*
G02*
X142750000Y-81750000I1250000J0D01*
G01*
X195750000Y-81750000D02*
G75*
G02*
X193250000Y-81750000I-1250000J0D01*
G01*
X193250000Y-81750000D02*
G75*
G02*
X195750000Y-81750000I1250000J0D01*
G01*
X194500000Y-79750000D02*
G75*
G02*
X196500000Y-81750000I0J-2000000D01*
G01*
X139500000Y-81750000D02*
X139500000Y-125500000D01*
X191750000Y-82750000D02*
X144250000Y-82750000D01*
X196500000Y-81750000D02*
X196500000Y-125500000D01*
X144250000Y-124500000D02*
X191750000Y-124500000D01*
M02*
