%TF.GenerationSoftware,KiCad,Pcbnew,8.0.6*%
%TF.CreationDate,2025-05-31T11:47:03-05:00*%
%TF.ProjectId,TPS_Calibration_Board,5450535f-4361-46c6-9962-726174696f6e,rev?*%
%TF.SameCoordinates,Original*%
%TF.FileFunction,Legend,Bot*%
%TF.FilePolarity,Positive*%
%FSLAX46Y46*%
G04 Gerber Fmt 4.6, Leading zero omitted, Abs format (unit mm)*
G04 Created by KiCad (PCBNEW 8.0.6) date 2025-05-31 11:47:03*
%MOMM*%
%LPD*%
G01*
G04 APERTURE LIST*
%ADD10C,0.100000*%
%ADD11C,0.150000*%
%ADD12C,0.120000*%
G04 APERTURE END LIST*
D10*
X140909800Y-95161027D02*
X140933609Y-95232455D01*
X140933609Y-95232455D02*
X140933609Y-95351503D01*
X140933609Y-95351503D02*
X140909800Y-95399122D01*
X140909800Y-95399122D02*
X140885990Y-95422931D01*
X140885990Y-95422931D02*
X140838371Y-95446741D01*
X140838371Y-95446741D02*
X140790752Y-95446741D01*
X140790752Y-95446741D02*
X140743133Y-95422931D01*
X140743133Y-95422931D02*
X140719323Y-95399122D01*
X140719323Y-95399122D02*
X140695514Y-95351503D01*
X140695514Y-95351503D02*
X140671704Y-95256265D01*
X140671704Y-95256265D02*
X140647895Y-95208646D01*
X140647895Y-95208646D02*
X140624085Y-95184836D01*
X140624085Y-95184836D02*
X140576466Y-95161027D01*
X140576466Y-95161027D02*
X140528847Y-95161027D01*
X140528847Y-95161027D02*
X140481228Y-95184836D01*
X140481228Y-95184836D02*
X140457419Y-95208646D01*
X140457419Y-95208646D02*
X140433609Y-95256265D01*
X140433609Y-95256265D02*
X140433609Y-95375312D01*
X140433609Y-95375312D02*
X140457419Y-95446741D01*
X140909800Y-95851502D02*
X140933609Y-95803883D01*
X140933609Y-95803883D02*
X140933609Y-95708645D01*
X140933609Y-95708645D02*
X140909800Y-95661026D01*
X140909800Y-95661026D02*
X140862180Y-95637217D01*
X140862180Y-95637217D02*
X140671704Y-95637217D01*
X140671704Y-95637217D02*
X140624085Y-95661026D01*
X140624085Y-95661026D02*
X140600276Y-95708645D01*
X140600276Y-95708645D02*
X140600276Y-95803883D01*
X140600276Y-95803883D02*
X140624085Y-95851502D01*
X140624085Y-95851502D02*
X140671704Y-95875312D01*
X140671704Y-95875312D02*
X140719323Y-95875312D01*
X140719323Y-95875312D02*
X140766942Y-95637217D01*
X140933609Y-96089597D02*
X140600276Y-96089597D01*
X140695514Y-96089597D02*
X140647895Y-96113407D01*
X140647895Y-96113407D02*
X140624085Y-96137216D01*
X140624085Y-96137216D02*
X140600276Y-96184835D01*
X140600276Y-96184835D02*
X140600276Y-96232454D01*
X140933609Y-96399121D02*
X140600276Y-96399121D01*
X140433609Y-96399121D02*
X140457419Y-96375312D01*
X140457419Y-96375312D02*
X140481228Y-96399121D01*
X140481228Y-96399121D02*
X140457419Y-96422931D01*
X140457419Y-96422931D02*
X140433609Y-96399121D01*
X140433609Y-96399121D02*
X140481228Y-96399121D01*
X140933609Y-96851502D02*
X140671704Y-96851502D01*
X140671704Y-96851502D02*
X140624085Y-96827692D01*
X140624085Y-96827692D02*
X140600276Y-96780073D01*
X140600276Y-96780073D02*
X140600276Y-96684835D01*
X140600276Y-96684835D02*
X140624085Y-96637216D01*
X140909800Y-96851502D02*
X140933609Y-96803883D01*
X140933609Y-96803883D02*
X140933609Y-96684835D01*
X140933609Y-96684835D02*
X140909800Y-96637216D01*
X140909800Y-96637216D02*
X140862180Y-96613407D01*
X140862180Y-96613407D02*
X140814561Y-96613407D01*
X140814561Y-96613407D02*
X140766942Y-96637216D01*
X140766942Y-96637216D02*
X140743133Y-96684835D01*
X140743133Y-96684835D02*
X140743133Y-96803883D01*
X140743133Y-96803883D02*
X140719323Y-96851502D01*
X140933609Y-97161026D02*
X140909800Y-97113407D01*
X140909800Y-97113407D02*
X140862180Y-97089597D01*
X140862180Y-97089597D02*
X140433609Y-97089597D01*
X140600276Y-97708645D02*
X140600276Y-98065787D01*
X140385990Y-97851502D02*
X141028847Y-97708645D01*
X140814561Y-98018168D02*
X140814561Y-97661026D01*
X141028847Y-97875311D02*
X140385990Y-98018168D01*
X140885990Y-98232454D02*
X140909800Y-98256264D01*
X140909800Y-98256264D02*
X140933609Y-98232454D01*
X140933609Y-98232454D02*
X140909800Y-98208645D01*
X140909800Y-98208645D02*
X140885990Y-98232454D01*
X140885990Y-98232454D02*
X140933609Y-98232454D01*
X140624085Y-98232454D02*
X140647895Y-98256264D01*
X140647895Y-98256264D02*
X140671704Y-98232454D01*
X140671704Y-98232454D02*
X140647895Y-98208645D01*
X140647895Y-98208645D02*
X140624085Y-98232454D01*
X140624085Y-98232454D02*
X140671704Y-98232454D01*
X140500000Y-99000000D02*
X142500000Y-99000000D01*
X142500000Y-109000000D01*
X140500000Y-109000000D01*
X140500000Y-99000000D01*
G36*
X140500000Y-99000000D02*
G01*
X142500000Y-99000000D01*
X142500000Y-109000000D01*
X140500000Y-109000000D01*
X140500000Y-99000000D01*
G37*
D11*
X153134819Y-119107142D02*
X152658628Y-118773809D01*
X153134819Y-118535714D02*
X152134819Y-118535714D01*
X152134819Y-118535714D02*
X152134819Y-118916666D01*
X152134819Y-118916666D02*
X152182438Y-119011904D01*
X152182438Y-119011904D02*
X152230057Y-119059523D01*
X152230057Y-119059523D02*
X152325295Y-119107142D01*
X152325295Y-119107142D02*
X152468152Y-119107142D01*
X152468152Y-119107142D02*
X152563390Y-119059523D01*
X152563390Y-119059523D02*
X152611009Y-119011904D01*
X152611009Y-119011904D02*
X152658628Y-118916666D01*
X152658628Y-118916666D02*
X152658628Y-118535714D01*
X153134819Y-120059523D02*
X153134819Y-119488095D01*
X153134819Y-119773809D02*
X152134819Y-119773809D01*
X152134819Y-119773809D02*
X152277676Y-119678571D01*
X152277676Y-119678571D02*
X152372914Y-119583333D01*
X152372914Y-119583333D02*
X152420533Y-119488095D01*
X152230057Y-120440476D02*
X152182438Y-120488095D01*
X152182438Y-120488095D02*
X152134819Y-120583333D01*
X152134819Y-120583333D02*
X152134819Y-120821428D01*
X152134819Y-120821428D02*
X152182438Y-120916666D01*
X152182438Y-120916666D02*
X152230057Y-120964285D01*
X152230057Y-120964285D02*
X152325295Y-121011904D01*
X152325295Y-121011904D02*
X152420533Y-121011904D01*
X152420533Y-121011904D02*
X152563390Y-120964285D01*
X152563390Y-120964285D02*
X153134819Y-120392857D01*
X153134819Y-120392857D02*
X153134819Y-121011904D01*
X183666666Y-84884819D02*
X183999999Y-84408628D01*
X184238094Y-84884819D02*
X184238094Y-83884819D01*
X184238094Y-83884819D02*
X183857142Y-83884819D01*
X183857142Y-83884819D02*
X183761904Y-83932438D01*
X183761904Y-83932438D02*
X183714285Y-83980057D01*
X183714285Y-83980057D02*
X183666666Y-84075295D01*
X183666666Y-84075295D02*
X183666666Y-84218152D01*
X183666666Y-84218152D02*
X183714285Y-84313390D01*
X183714285Y-84313390D02*
X183761904Y-84361009D01*
X183761904Y-84361009D02*
X183857142Y-84408628D01*
X183857142Y-84408628D02*
X184238094Y-84408628D01*
X182809523Y-83884819D02*
X182999999Y-83884819D01*
X182999999Y-83884819D02*
X183095237Y-83932438D01*
X183095237Y-83932438D02*
X183142856Y-83980057D01*
X183142856Y-83980057D02*
X183238094Y-84122914D01*
X183238094Y-84122914D02*
X183285713Y-84313390D01*
X183285713Y-84313390D02*
X183285713Y-84694342D01*
X183285713Y-84694342D02*
X183238094Y-84789580D01*
X183238094Y-84789580D02*
X183190475Y-84837200D01*
X183190475Y-84837200D02*
X183095237Y-84884819D01*
X183095237Y-84884819D02*
X182904761Y-84884819D01*
X182904761Y-84884819D02*
X182809523Y-84837200D01*
X182809523Y-84837200D02*
X182761904Y-84789580D01*
X182761904Y-84789580D02*
X182714285Y-84694342D01*
X182714285Y-84694342D02*
X182714285Y-84456247D01*
X182714285Y-84456247D02*
X182761904Y-84361009D01*
X182761904Y-84361009D02*
X182809523Y-84313390D01*
X182809523Y-84313390D02*
X182904761Y-84265771D01*
X182904761Y-84265771D02*
X183095237Y-84265771D01*
X183095237Y-84265771D02*
X183190475Y-84313390D01*
X183190475Y-84313390D02*
X183238094Y-84361009D01*
X183238094Y-84361009D02*
X183285713Y-84456247D01*
X152634819Y-105583333D02*
X152158628Y-105250000D01*
X152634819Y-105011905D02*
X151634819Y-105011905D01*
X151634819Y-105011905D02*
X151634819Y-105392857D01*
X151634819Y-105392857D02*
X151682438Y-105488095D01*
X151682438Y-105488095D02*
X151730057Y-105535714D01*
X151730057Y-105535714D02*
X151825295Y-105583333D01*
X151825295Y-105583333D02*
X151968152Y-105583333D01*
X151968152Y-105583333D02*
X152063390Y-105535714D01*
X152063390Y-105535714D02*
X152111009Y-105488095D01*
X152111009Y-105488095D02*
X152158628Y-105392857D01*
X152158628Y-105392857D02*
X152158628Y-105011905D01*
X151634819Y-105916667D02*
X151634819Y-106535714D01*
X151634819Y-106535714D02*
X152015771Y-106202381D01*
X152015771Y-106202381D02*
X152015771Y-106345238D01*
X152015771Y-106345238D02*
X152063390Y-106440476D01*
X152063390Y-106440476D02*
X152111009Y-106488095D01*
X152111009Y-106488095D02*
X152206247Y-106535714D01*
X152206247Y-106535714D02*
X152444342Y-106535714D01*
X152444342Y-106535714D02*
X152539580Y-106488095D01*
X152539580Y-106488095D02*
X152587200Y-106440476D01*
X152587200Y-106440476D02*
X152634819Y-106345238D01*
X152634819Y-106345238D02*
X152634819Y-106059524D01*
X152634819Y-106059524D02*
X152587200Y-105964286D01*
X152587200Y-105964286D02*
X152539580Y-105916667D01*
X171134819Y-103083333D02*
X170658628Y-102750000D01*
X171134819Y-102511905D02*
X170134819Y-102511905D01*
X170134819Y-102511905D02*
X170134819Y-102892857D01*
X170134819Y-102892857D02*
X170182438Y-102988095D01*
X170182438Y-102988095D02*
X170230057Y-103035714D01*
X170230057Y-103035714D02*
X170325295Y-103083333D01*
X170325295Y-103083333D02*
X170468152Y-103083333D01*
X170468152Y-103083333D02*
X170563390Y-103035714D01*
X170563390Y-103035714D02*
X170611009Y-102988095D01*
X170611009Y-102988095D02*
X170658628Y-102892857D01*
X170658628Y-102892857D02*
X170658628Y-102511905D01*
X170230057Y-103464286D02*
X170182438Y-103511905D01*
X170182438Y-103511905D02*
X170134819Y-103607143D01*
X170134819Y-103607143D02*
X170134819Y-103845238D01*
X170134819Y-103845238D02*
X170182438Y-103940476D01*
X170182438Y-103940476D02*
X170230057Y-103988095D01*
X170230057Y-103988095D02*
X170325295Y-104035714D01*
X170325295Y-104035714D02*
X170420533Y-104035714D01*
X170420533Y-104035714D02*
X170563390Y-103988095D01*
X170563390Y-103988095D02*
X171134819Y-103416667D01*
X171134819Y-103416667D02*
X171134819Y-104035714D01*
X186134819Y-97083333D02*
X185658628Y-96750000D01*
X186134819Y-96511905D02*
X185134819Y-96511905D01*
X185134819Y-96511905D02*
X185134819Y-96892857D01*
X185134819Y-96892857D02*
X185182438Y-96988095D01*
X185182438Y-96988095D02*
X185230057Y-97035714D01*
X185230057Y-97035714D02*
X185325295Y-97083333D01*
X185325295Y-97083333D02*
X185468152Y-97083333D01*
X185468152Y-97083333D02*
X185563390Y-97035714D01*
X185563390Y-97035714D02*
X185611009Y-96988095D01*
X185611009Y-96988095D02*
X185658628Y-96892857D01*
X185658628Y-96892857D02*
X185658628Y-96511905D01*
X186134819Y-98035714D02*
X186134819Y-97464286D01*
X186134819Y-97750000D02*
X185134819Y-97750000D01*
X185134819Y-97750000D02*
X185277676Y-97654762D01*
X185277676Y-97654762D02*
X185372914Y-97559524D01*
X185372914Y-97559524D02*
X185420533Y-97464286D01*
X188679580Y-119569642D02*
X188727200Y-119522023D01*
X188727200Y-119522023D02*
X188774819Y-119379166D01*
X188774819Y-119379166D02*
X188774819Y-119283928D01*
X188774819Y-119283928D02*
X188727200Y-119141071D01*
X188727200Y-119141071D02*
X188631961Y-119045833D01*
X188631961Y-119045833D02*
X188536723Y-118998214D01*
X188536723Y-118998214D02*
X188346247Y-118950595D01*
X188346247Y-118950595D02*
X188203390Y-118950595D01*
X188203390Y-118950595D02*
X188012914Y-118998214D01*
X188012914Y-118998214D02*
X187917676Y-119045833D01*
X187917676Y-119045833D02*
X187822438Y-119141071D01*
X187822438Y-119141071D02*
X187774819Y-119283928D01*
X187774819Y-119283928D02*
X187774819Y-119379166D01*
X187774819Y-119379166D02*
X187822438Y-119522023D01*
X187822438Y-119522023D02*
X187870057Y-119569642D01*
X188774819Y-120522023D02*
X188774819Y-119950595D01*
X188774819Y-120236309D02*
X187774819Y-120236309D01*
X187774819Y-120236309D02*
X187917676Y-120141071D01*
X187917676Y-120141071D02*
X188012914Y-120045833D01*
X188012914Y-120045833D02*
X188060533Y-119950595D01*
X187774819Y-121379166D02*
X187774819Y-121188690D01*
X187774819Y-121188690D02*
X187822438Y-121093452D01*
X187822438Y-121093452D02*
X187870057Y-121045833D01*
X187870057Y-121045833D02*
X188012914Y-120950595D01*
X188012914Y-120950595D02*
X188203390Y-120902976D01*
X188203390Y-120902976D02*
X188584342Y-120902976D01*
X188584342Y-120902976D02*
X188679580Y-120950595D01*
X188679580Y-120950595D02*
X188727200Y-120998214D01*
X188727200Y-120998214D02*
X188774819Y-121093452D01*
X188774819Y-121093452D02*
X188774819Y-121283928D01*
X188774819Y-121283928D02*
X188727200Y-121379166D01*
X188727200Y-121379166D02*
X188679580Y-121426785D01*
X188679580Y-121426785D02*
X188584342Y-121474404D01*
X188584342Y-121474404D02*
X188346247Y-121474404D01*
X188346247Y-121474404D02*
X188251009Y-121426785D01*
X188251009Y-121426785D02*
X188203390Y-121379166D01*
X188203390Y-121379166D02*
X188155771Y-121283928D01*
X188155771Y-121283928D02*
X188155771Y-121093452D01*
X188155771Y-121093452D02*
X188203390Y-120998214D01*
X188203390Y-120998214D02*
X188251009Y-120950595D01*
X188251009Y-120950595D02*
X188346247Y-120902976D01*
X169142857Y-88429580D02*
X169190476Y-88477200D01*
X169190476Y-88477200D02*
X169333333Y-88524819D01*
X169333333Y-88524819D02*
X169428571Y-88524819D01*
X169428571Y-88524819D02*
X169571428Y-88477200D01*
X169571428Y-88477200D02*
X169666666Y-88381961D01*
X169666666Y-88381961D02*
X169714285Y-88286723D01*
X169714285Y-88286723D02*
X169761904Y-88096247D01*
X169761904Y-88096247D02*
X169761904Y-87953390D01*
X169761904Y-87953390D02*
X169714285Y-87762914D01*
X169714285Y-87762914D02*
X169666666Y-87667676D01*
X169666666Y-87667676D02*
X169571428Y-87572438D01*
X169571428Y-87572438D02*
X169428571Y-87524819D01*
X169428571Y-87524819D02*
X169333333Y-87524819D01*
X169333333Y-87524819D02*
X169190476Y-87572438D01*
X169190476Y-87572438D02*
X169142857Y-87620057D01*
X168190476Y-88524819D02*
X168761904Y-88524819D01*
X168476190Y-88524819D02*
X168476190Y-87524819D01*
X168476190Y-87524819D02*
X168571428Y-87667676D01*
X168571428Y-87667676D02*
X168666666Y-87762914D01*
X168666666Y-87762914D02*
X168761904Y-87810533D01*
X167285714Y-87524819D02*
X167761904Y-87524819D01*
X167761904Y-87524819D02*
X167809523Y-88001009D01*
X167809523Y-88001009D02*
X167761904Y-87953390D01*
X167761904Y-87953390D02*
X167666666Y-87905771D01*
X167666666Y-87905771D02*
X167428571Y-87905771D01*
X167428571Y-87905771D02*
X167333333Y-87953390D01*
X167333333Y-87953390D02*
X167285714Y-88001009D01*
X167285714Y-88001009D02*
X167238095Y-88096247D01*
X167238095Y-88096247D02*
X167238095Y-88334342D01*
X167238095Y-88334342D02*
X167285714Y-88429580D01*
X167285714Y-88429580D02*
X167333333Y-88477200D01*
X167333333Y-88477200D02*
X167428571Y-88524819D01*
X167428571Y-88524819D02*
X167666666Y-88524819D01*
X167666666Y-88524819D02*
X167761904Y-88477200D01*
X167761904Y-88477200D02*
X167809523Y-88429580D01*
X169142857Y-91609580D02*
X169190476Y-91657200D01*
X169190476Y-91657200D02*
X169333333Y-91704819D01*
X169333333Y-91704819D02*
X169428571Y-91704819D01*
X169428571Y-91704819D02*
X169571428Y-91657200D01*
X169571428Y-91657200D02*
X169666666Y-91561961D01*
X169666666Y-91561961D02*
X169714285Y-91466723D01*
X169714285Y-91466723D02*
X169761904Y-91276247D01*
X169761904Y-91276247D02*
X169761904Y-91133390D01*
X169761904Y-91133390D02*
X169714285Y-90942914D01*
X169714285Y-90942914D02*
X169666666Y-90847676D01*
X169666666Y-90847676D02*
X169571428Y-90752438D01*
X169571428Y-90752438D02*
X169428571Y-90704819D01*
X169428571Y-90704819D02*
X169333333Y-90704819D01*
X169333333Y-90704819D02*
X169190476Y-90752438D01*
X169190476Y-90752438D02*
X169142857Y-90800057D01*
X168190476Y-91704819D02*
X168761904Y-91704819D01*
X168476190Y-91704819D02*
X168476190Y-90704819D01*
X168476190Y-90704819D02*
X168571428Y-90847676D01*
X168571428Y-90847676D02*
X168666666Y-90942914D01*
X168666666Y-90942914D02*
X168761904Y-90990533D01*
X167333333Y-91038152D02*
X167333333Y-91704819D01*
X167571428Y-90657200D02*
X167809523Y-91371485D01*
X167809523Y-91371485D02*
X167190476Y-91371485D01*
X178605357Y-90929580D02*
X178652976Y-90977200D01*
X178652976Y-90977200D02*
X178795833Y-91024819D01*
X178795833Y-91024819D02*
X178891071Y-91024819D01*
X178891071Y-91024819D02*
X179033928Y-90977200D01*
X179033928Y-90977200D02*
X179129166Y-90881961D01*
X179129166Y-90881961D02*
X179176785Y-90786723D01*
X179176785Y-90786723D02*
X179224404Y-90596247D01*
X179224404Y-90596247D02*
X179224404Y-90453390D01*
X179224404Y-90453390D02*
X179176785Y-90262914D01*
X179176785Y-90262914D02*
X179129166Y-90167676D01*
X179129166Y-90167676D02*
X179033928Y-90072438D01*
X179033928Y-90072438D02*
X178891071Y-90024819D01*
X178891071Y-90024819D02*
X178795833Y-90024819D01*
X178795833Y-90024819D02*
X178652976Y-90072438D01*
X178652976Y-90072438D02*
X178605357Y-90120057D01*
X177652976Y-91024819D02*
X178224404Y-91024819D01*
X177938690Y-91024819D02*
X177938690Y-90024819D01*
X177938690Y-90024819D02*
X178033928Y-90167676D01*
X178033928Y-90167676D02*
X178129166Y-90262914D01*
X178129166Y-90262914D02*
X178224404Y-90310533D01*
X176700595Y-91024819D02*
X177272023Y-91024819D01*
X176986309Y-91024819D02*
X176986309Y-90024819D01*
X176986309Y-90024819D02*
X177081547Y-90167676D01*
X177081547Y-90167676D02*
X177176785Y-90262914D01*
X177176785Y-90262914D02*
X177272023Y-90310533D01*
X178605357Y-87919580D02*
X178652976Y-87967200D01*
X178652976Y-87967200D02*
X178795833Y-88014819D01*
X178795833Y-88014819D02*
X178891071Y-88014819D01*
X178891071Y-88014819D02*
X179033928Y-87967200D01*
X179033928Y-87967200D02*
X179129166Y-87871961D01*
X179129166Y-87871961D02*
X179176785Y-87776723D01*
X179176785Y-87776723D02*
X179224404Y-87586247D01*
X179224404Y-87586247D02*
X179224404Y-87443390D01*
X179224404Y-87443390D02*
X179176785Y-87252914D01*
X179176785Y-87252914D02*
X179129166Y-87157676D01*
X179129166Y-87157676D02*
X179033928Y-87062438D01*
X179033928Y-87062438D02*
X178891071Y-87014819D01*
X178891071Y-87014819D02*
X178795833Y-87014819D01*
X178795833Y-87014819D02*
X178652976Y-87062438D01*
X178652976Y-87062438D02*
X178605357Y-87110057D01*
X177652976Y-88014819D02*
X178224404Y-88014819D01*
X177938690Y-88014819D02*
X177938690Y-87014819D01*
X177938690Y-87014819D02*
X178033928Y-87157676D01*
X178033928Y-87157676D02*
X178129166Y-87252914D01*
X178129166Y-87252914D02*
X178224404Y-87300533D01*
X177033928Y-87014819D02*
X176938690Y-87014819D01*
X176938690Y-87014819D02*
X176843452Y-87062438D01*
X176843452Y-87062438D02*
X176795833Y-87110057D01*
X176795833Y-87110057D02*
X176748214Y-87205295D01*
X176748214Y-87205295D02*
X176700595Y-87395771D01*
X176700595Y-87395771D02*
X176700595Y-87633866D01*
X176700595Y-87633866D02*
X176748214Y-87824342D01*
X176748214Y-87824342D02*
X176795833Y-87919580D01*
X176795833Y-87919580D02*
X176843452Y-87967200D01*
X176843452Y-87967200D02*
X176938690Y-88014819D01*
X176938690Y-88014819D02*
X177033928Y-88014819D01*
X177033928Y-88014819D02*
X177129166Y-87967200D01*
X177129166Y-87967200D02*
X177176785Y-87919580D01*
X177176785Y-87919580D02*
X177224404Y-87824342D01*
X177224404Y-87824342D02*
X177272023Y-87633866D01*
X177272023Y-87633866D02*
X177272023Y-87395771D01*
X177272023Y-87395771D02*
X177224404Y-87205295D01*
X177224404Y-87205295D02*
X177176785Y-87110057D01*
X177176785Y-87110057D02*
X177129166Y-87062438D01*
X177129166Y-87062438D02*
X177033928Y-87014819D01*
X178129166Y-84909580D02*
X178176785Y-84957200D01*
X178176785Y-84957200D02*
X178319642Y-85004819D01*
X178319642Y-85004819D02*
X178414880Y-85004819D01*
X178414880Y-85004819D02*
X178557737Y-84957200D01*
X178557737Y-84957200D02*
X178652975Y-84861961D01*
X178652975Y-84861961D02*
X178700594Y-84766723D01*
X178700594Y-84766723D02*
X178748213Y-84576247D01*
X178748213Y-84576247D02*
X178748213Y-84433390D01*
X178748213Y-84433390D02*
X178700594Y-84242914D01*
X178700594Y-84242914D02*
X178652975Y-84147676D01*
X178652975Y-84147676D02*
X178557737Y-84052438D01*
X178557737Y-84052438D02*
X178414880Y-84004819D01*
X178414880Y-84004819D02*
X178319642Y-84004819D01*
X178319642Y-84004819D02*
X178176785Y-84052438D01*
X178176785Y-84052438D02*
X178129166Y-84100057D01*
X177652975Y-85004819D02*
X177462499Y-85004819D01*
X177462499Y-85004819D02*
X177367261Y-84957200D01*
X177367261Y-84957200D02*
X177319642Y-84909580D01*
X177319642Y-84909580D02*
X177224404Y-84766723D01*
X177224404Y-84766723D02*
X177176785Y-84576247D01*
X177176785Y-84576247D02*
X177176785Y-84195295D01*
X177176785Y-84195295D02*
X177224404Y-84100057D01*
X177224404Y-84100057D02*
X177272023Y-84052438D01*
X177272023Y-84052438D02*
X177367261Y-84004819D01*
X177367261Y-84004819D02*
X177557737Y-84004819D01*
X177557737Y-84004819D02*
X177652975Y-84052438D01*
X177652975Y-84052438D02*
X177700594Y-84100057D01*
X177700594Y-84100057D02*
X177748213Y-84195295D01*
X177748213Y-84195295D02*
X177748213Y-84433390D01*
X177748213Y-84433390D02*
X177700594Y-84528628D01*
X177700594Y-84528628D02*
X177652975Y-84576247D01*
X177652975Y-84576247D02*
X177557737Y-84623866D01*
X177557737Y-84623866D02*
X177367261Y-84623866D01*
X177367261Y-84623866D02*
X177272023Y-84576247D01*
X177272023Y-84576247D02*
X177224404Y-84528628D01*
X177224404Y-84528628D02*
X177176785Y-84433390D01*
X184179580Y-109045833D02*
X184227200Y-108998214D01*
X184227200Y-108998214D02*
X184274819Y-108855357D01*
X184274819Y-108855357D02*
X184274819Y-108760119D01*
X184274819Y-108760119D02*
X184227200Y-108617262D01*
X184227200Y-108617262D02*
X184131961Y-108522024D01*
X184131961Y-108522024D02*
X184036723Y-108474405D01*
X184036723Y-108474405D02*
X183846247Y-108426786D01*
X183846247Y-108426786D02*
X183703390Y-108426786D01*
X183703390Y-108426786D02*
X183512914Y-108474405D01*
X183512914Y-108474405D02*
X183417676Y-108522024D01*
X183417676Y-108522024D02*
X183322438Y-108617262D01*
X183322438Y-108617262D02*
X183274819Y-108760119D01*
X183274819Y-108760119D02*
X183274819Y-108855357D01*
X183274819Y-108855357D02*
X183322438Y-108998214D01*
X183322438Y-108998214D02*
X183370057Y-109045833D01*
X183274819Y-109379167D02*
X183274819Y-109998214D01*
X183274819Y-109998214D02*
X183655771Y-109664881D01*
X183655771Y-109664881D02*
X183655771Y-109807738D01*
X183655771Y-109807738D02*
X183703390Y-109902976D01*
X183703390Y-109902976D02*
X183751009Y-109950595D01*
X183751009Y-109950595D02*
X183846247Y-109998214D01*
X183846247Y-109998214D02*
X184084342Y-109998214D01*
X184084342Y-109998214D02*
X184179580Y-109950595D01*
X184179580Y-109950595D02*
X184227200Y-109902976D01*
X184227200Y-109902976D02*
X184274819Y-109807738D01*
X184274819Y-109807738D02*
X184274819Y-109522024D01*
X184274819Y-109522024D02*
X184227200Y-109426786D01*
X184227200Y-109426786D02*
X184179580Y-109379167D01*
X150204166Y-102289580D02*
X150251785Y-102337200D01*
X150251785Y-102337200D02*
X150394642Y-102384819D01*
X150394642Y-102384819D02*
X150489880Y-102384819D01*
X150489880Y-102384819D02*
X150632737Y-102337200D01*
X150632737Y-102337200D02*
X150727975Y-102241961D01*
X150727975Y-102241961D02*
X150775594Y-102146723D01*
X150775594Y-102146723D02*
X150823213Y-101956247D01*
X150823213Y-101956247D02*
X150823213Y-101813390D01*
X150823213Y-101813390D02*
X150775594Y-101622914D01*
X150775594Y-101622914D02*
X150727975Y-101527676D01*
X150727975Y-101527676D02*
X150632737Y-101432438D01*
X150632737Y-101432438D02*
X150489880Y-101384819D01*
X150489880Y-101384819D02*
X150394642Y-101384819D01*
X150394642Y-101384819D02*
X150251785Y-101432438D01*
X150251785Y-101432438D02*
X150204166Y-101480057D01*
X149823213Y-101480057D02*
X149775594Y-101432438D01*
X149775594Y-101432438D02*
X149680356Y-101384819D01*
X149680356Y-101384819D02*
X149442261Y-101384819D01*
X149442261Y-101384819D02*
X149347023Y-101432438D01*
X149347023Y-101432438D02*
X149299404Y-101480057D01*
X149299404Y-101480057D02*
X149251785Y-101575295D01*
X149251785Y-101575295D02*
X149251785Y-101670533D01*
X149251785Y-101670533D02*
X149299404Y-101813390D01*
X149299404Y-101813390D02*
X149870832Y-102384819D01*
X149870832Y-102384819D02*
X149251785Y-102384819D01*
X187539580Y-113583333D02*
X187587200Y-113535714D01*
X187587200Y-113535714D02*
X187634819Y-113392857D01*
X187634819Y-113392857D02*
X187634819Y-113297619D01*
X187634819Y-113297619D02*
X187587200Y-113154762D01*
X187587200Y-113154762D02*
X187491961Y-113059524D01*
X187491961Y-113059524D02*
X187396723Y-113011905D01*
X187396723Y-113011905D02*
X187206247Y-112964286D01*
X187206247Y-112964286D02*
X187063390Y-112964286D01*
X187063390Y-112964286D02*
X186872914Y-113011905D01*
X186872914Y-113011905D02*
X186777676Y-113059524D01*
X186777676Y-113059524D02*
X186682438Y-113154762D01*
X186682438Y-113154762D02*
X186634819Y-113297619D01*
X186634819Y-113297619D02*
X186634819Y-113392857D01*
X186634819Y-113392857D02*
X186682438Y-113535714D01*
X186682438Y-113535714D02*
X186730057Y-113583333D01*
X187634819Y-114535714D02*
X187634819Y-113964286D01*
X187634819Y-114250000D02*
X186634819Y-114250000D01*
X186634819Y-114250000D02*
X186777676Y-114154762D01*
X186777676Y-114154762D02*
X186872914Y-114059524D01*
X186872914Y-114059524D02*
X186920533Y-113964286D01*
X148179580Y-120083333D02*
X148227200Y-120035714D01*
X148227200Y-120035714D02*
X148274819Y-119892857D01*
X148274819Y-119892857D02*
X148274819Y-119797619D01*
X148274819Y-119797619D02*
X148227200Y-119654762D01*
X148227200Y-119654762D02*
X148131961Y-119559524D01*
X148131961Y-119559524D02*
X148036723Y-119511905D01*
X148036723Y-119511905D02*
X147846247Y-119464286D01*
X147846247Y-119464286D02*
X147703390Y-119464286D01*
X147703390Y-119464286D02*
X147512914Y-119511905D01*
X147512914Y-119511905D02*
X147417676Y-119559524D01*
X147417676Y-119559524D02*
X147322438Y-119654762D01*
X147322438Y-119654762D02*
X147274819Y-119797619D01*
X147274819Y-119797619D02*
X147274819Y-119892857D01*
X147274819Y-119892857D02*
X147322438Y-120035714D01*
X147322438Y-120035714D02*
X147370057Y-120083333D01*
X147703390Y-120654762D02*
X147655771Y-120559524D01*
X147655771Y-120559524D02*
X147608152Y-120511905D01*
X147608152Y-120511905D02*
X147512914Y-120464286D01*
X147512914Y-120464286D02*
X147465295Y-120464286D01*
X147465295Y-120464286D02*
X147370057Y-120511905D01*
X147370057Y-120511905D02*
X147322438Y-120559524D01*
X147322438Y-120559524D02*
X147274819Y-120654762D01*
X147274819Y-120654762D02*
X147274819Y-120845238D01*
X147274819Y-120845238D02*
X147322438Y-120940476D01*
X147322438Y-120940476D02*
X147370057Y-120988095D01*
X147370057Y-120988095D02*
X147465295Y-121035714D01*
X147465295Y-121035714D02*
X147512914Y-121035714D01*
X147512914Y-121035714D02*
X147608152Y-120988095D01*
X147608152Y-120988095D02*
X147655771Y-120940476D01*
X147655771Y-120940476D02*
X147703390Y-120845238D01*
X147703390Y-120845238D02*
X147703390Y-120654762D01*
X147703390Y-120654762D02*
X147751009Y-120559524D01*
X147751009Y-120559524D02*
X147798628Y-120511905D01*
X147798628Y-120511905D02*
X147893866Y-120464286D01*
X147893866Y-120464286D02*
X148084342Y-120464286D01*
X148084342Y-120464286D02*
X148179580Y-120511905D01*
X148179580Y-120511905D02*
X148227200Y-120559524D01*
X148227200Y-120559524D02*
X148274819Y-120654762D01*
X148274819Y-120654762D02*
X148274819Y-120845238D01*
X148274819Y-120845238D02*
X148227200Y-120940476D01*
X148227200Y-120940476D02*
X148179580Y-120988095D01*
X148179580Y-120988095D02*
X148084342Y-121035714D01*
X148084342Y-121035714D02*
X147893866Y-121035714D01*
X147893866Y-121035714D02*
X147798628Y-120988095D01*
X147798628Y-120988095D02*
X147751009Y-120940476D01*
X147751009Y-120940476D02*
X147703390Y-120845238D01*
D12*
%TO.C,R12*%
X155410000Y-120477064D02*
X155410000Y-119022936D01*
X153590000Y-120477064D02*
X153590000Y-119022936D01*
%TO.C,R6*%
X182772936Y-85340000D02*
X184227064Y-85340000D01*
X182772936Y-87160000D02*
X184227064Y-87160000D01*
%TO.C,R3*%
X153090000Y-106477064D02*
X153090000Y-105022936D01*
X154910000Y-106477064D02*
X154910000Y-105022936D01*
%TO.C,R2*%
X171590000Y-103977064D02*
X171590000Y-102522936D01*
X173410000Y-103977064D02*
X173410000Y-102522936D01*
%TO.C,R1*%
X186590000Y-97977064D02*
X186590000Y-96522936D01*
X188410000Y-97977064D02*
X188410000Y-96522936D01*
%TO.C,C16*%
X190735000Y-120473752D02*
X190735000Y-119951248D01*
X189265000Y-120473752D02*
X189265000Y-119951248D01*
%TO.C,C15*%
X168238748Y-89015000D02*
X168761252Y-89015000D01*
X168238748Y-90485000D02*
X168761252Y-90485000D01*
%TO.C,C14*%
X168238748Y-92515000D02*
X168761252Y-92515000D01*
X168238748Y-93985000D02*
X168761252Y-93985000D01*
%TO.C,C11*%
X177701248Y-92985000D02*
X178223752Y-92985000D01*
X177701248Y-91515000D02*
X178223752Y-91515000D01*
%TO.C,C10*%
X177701248Y-88505000D02*
X178223752Y-88505000D01*
X177701248Y-89975000D02*
X178223752Y-89975000D01*
%TO.C,C9*%
X177701248Y-85495000D02*
X178223752Y-85495000D01*
X177701248Y-86965000D02*
X178223752Y-86965000D01*
%TO.C,C3*%
X184765000Y-109473752D02*
X184765000Y-108951248D01*
X186235000Y-109473752D02*
X186235000Y-108951248D01*
%TO.C,C2*%
X150298752Y-99515000D02*
X149776248Y-99515000D01*
X150298752Y-100985000D02*
X149776248Y-100985000D01*
%TO.C,C1*%
X186235000Y-113488748D02*
X186235000Y-114011252D01*
X184765000Y-113488748D02*
X184765000Y-114011252D01*
%TO.C,C8*%
X150235000Y-120511252D02*
X150235000Y-119988748D01*
X148765000Y-120511252D02*
X148765000Y-119988748D01*
%TD*%
M02*
