%TF.GenerationSoftware,KiCad,Pcbnew,8.0.6*%
%TF.CreationDate,2025-05-31T11:47:02-05:00*%
%TF.ProjectId,TPS_Calibration_Board,5450535f-4361-46c6-9962-726174696f6e,rev?*%
%TF.SameCoordinates,Original*%
%TF.FileFunction,Copper,L2,Inr*%
%TF.FilePolarity,Positive*%
%FSLAX46Y46*%
G04 Gerber Fmt 4.6, Leading zero omitted, Abs format (unit mm)*
G04 Created by KiCad (PCBNEW 8.0.6) date 2025-05-31 11:47:02*
%MOMM*%
%LPD*%
G01*
G04 APERTURE LIST*
%TA.AperFunction,ComponentPad*%
%ADD10R,1.600000X1.600000*%
%TD*%
%TA.AperFunction,ComponentPad*%
%ADD11O,1.600000X1.600000*%
%TD*%
%TA.AperFunction,ComponentPad*%
%ADD12C,1.500000*%
%TD*%
%TA.AperFunction,ComponentPad*%
%ADD13O,2.600000X1.100000*%
%TD*%
%TA.AperFunction,ComponentPad*%
%ADD14O,2.100000X1.100000*%
%TD*%
%TA.AperFunction,ComponentPad*%
%ADD15R,1.700000X1.700000*%
%TD*%
%TA.AperFunction,ComponentPad*%
%ADD16O,1.700000X1.700000*%
%TD*%
%TA.AperFunction,ComponentPad*%
%ADD17C,0.600000*%
%TD*%
%TA.AperFunction,ViaPad*%
%ADD18C,0.600000*%
%TD*%
%TA.AperFunction,Conductor*%
%ADD19C,0.200000*%
%TD*%
G04 APERTURE END LIST*
D10*
%TO.N,EEPROM_CS*%
%TO.C,U1*%
X176200000Y-96130000D03*
D11*
%TO.N,EEPROM_MISO*%
X176200000Y-98670000D03*
%TO.N,Net-(U1-~{WP})*%
X176200000Y-101210000D03*
%TO.N,GND*%
X176200000Y-103750000D03*
%TO.N,EEPROM_MOSI*%
X183820000Y-103750000D03*
%TO.N,EEPROM_SCK*%
X183820000Y-101210000D03*
%TO.N,Net-(U1-~{HOLD})*%
X183820000Y-98670000D03*
%TO.N,+3.3V*%
X183820000Y-96130000D03*
%TD*%
D12*
%TO.N,Net-(U2-PF1)*%
%TO.C,Y1*%
X192000000Y-108800000D03*
%TO.N,Net-(U2-PF0)*%
X192000000Y-113680000D03*
%TD*%
D13*
%TO.N,GND*%
%TO.C,P1*%
X194470000Y-84680000D03*
D14*
X189110000Y-84680000D03*
D13*
X194470000Y-93320000D03*
D14*
X189110000Y-93320000D03*
%TD*%
D15*
%TO.N,/BOOT0*%
%TO.C,JP1*%
X150500000Y-104210000D03*
D16*
%TO.N,+3.3V*%
X150500000Y-106750000D03*
%TO.N,N/C*%
X150500000Y-109290000D03*
%TD*%
D15*
%TO.N,+5V*%
%TO.C,J2*%
X141500000Y-87225000D03*
D16*
%TO.N,SIG_IN*%
X141500000Y-89765000D03*
%TO.N,GND*%
X141500000Y-92305000D03*
%TD*%
D15*
%TO.N,+5V*%
%TO.C,J1*%
X141500000Y-115670000D03*
D16*
%TO.N,SIG_OUT*%
X141500000Y-118210000D03*
%TO.N,GND*%
X141500000Y-120750000D03*
%TD*%
D17*
%TO.N,GND*%
%TO.C,U4*%
X160000000Y-117650000D03*
X160000000Y-118850000D03*
X160000000Y-120150000D03*
X160000000Y-121250000D03*
X161200000Y-117650000D03*
X161200000Y-118850000D03*
X161200000Y-120150000D03*
X161200000Y-121250000D03*
%TD*%
D18*
%TO.N,GND*%
X155000000Y-89500000D03*
X167500000Y-91250000D03*
%TO.N,Net-(U3-USBDM)*%
X171000000Y-88750000D03*
%TO.N,Net-(U3-USBDP)*%
X171000000Y-92250000D03*
%TO.N,UART_RX*%
X174000000Y-88750000D03*
%TO.N,UART_TX*%
X172977473Y-91251214D03*
X172978462Y-94782438D03*
%TO.N,UART_RX*%
X168500000Y-94750000D03*
%TO.N,GND*%
X174000000Y-91250000D03*
%TO.N,Net-(U3-USBDM)*%
X176709038Y-93760713D03*
X174500000Y-92250000D03*
%TO.N,Net-(P1-D+)*%
X168500000Y-91750000D03*
%TO.N,Net-(P1-D-)*%
X168500000Y-88250000D03*
%TO.N,GND*%
X148500000Y-101250000D03*
%TO.N,NRST*%
X152500000Y-100250000D03*
%TO.N,Net-(P1-D-)*%
X187500000Y-88250000D03*
%TO.N,Net-(P1-D+)*%
X186000000Y-89250000D03*
%TO.N,Net-(P1-VCONN)*%
X186500000Y-88250000D03*
X185500000Y-91250000D03*
%TO.N,Net-(P1-CC)*%
X189000000Y-94750000D03*
X186635709Y-89900000D03*
%TO.N,GND*%
X187000000Y-92250000D03*
X186500000Y-86250000D03*
%TO.N,USB_SENSE*%
X181000000Y-86750000D03*
%TO.N,GND*%
X181500000Y-92250000D03*
%TO.N,Net-(U3-VCC)*%
X175000000Y-87750000D03*
X181000000Y-89250000D03*
%TO.N,GND*%
X180500000Y-85750000D03*
%TO.N,EEPROM_CS*%
X173000000Y-96250000D03*
X162000000Y-91750000D03*
%TO.N,EEPROM_MOSI*%
X168000000Y-102250000D03*
X170500000Y-104250000D03*
%TO.N,GND*%
X174000000Y-105250000D03*
%TO.N,+5V*%
X147000000Y-99750000D03*
%TO.N,/SWDIO*%
X165000000Y-88750000D03*
X166000000Y-90750000D03*
%TO.N,/SWCLK*%
X162603179Y-90947313D03*
X160500000Y-88750000D03*
%TO.N,+3.3V*%
X157500000Y-109250000D03*
X156500000Y-88750000D03*
%TO.N,GND*%
X162500000Y-88750000D03*
%TO.N,SIG_OUT*%
X166000000Y-104250000D03*
%TO.N,SIG_IN*%
X155500000Y-102250000D03*
%TO.N,NRST*%
X159500000Y-102250000D03*
X155000000Y-100250000D03*
%TO.N,GND*%
X157500000Y-95750000D03*
%TO.N,Net-(U2-PF0)*%
X157500000Y-102750000D03*
%TO.N,Net-(U2-PF1)*%
X158500000Y-102750000D03*
%TO.N,GND*%
X184000000Y-111750000D03*
X160500000Y-103750000D03*
X171000000Y-100750000D03*
X168500000Y-101250000D03*
%TO.N,Net-(U2-VDDA)*%
X170500000Y-96250000D03*
X158000000Y-100250000D03*
X169500000Y-100750000D03*
X169000000Y-104750000D03*
%TO.N,+3.3V*%
X188000000Y-119250000D03*
%TO.N,GND*%
X188000000Y-121250000D03*
X156000000Y-121250000D03*
X157500000Y-112750000D03*
X172000000Y-111750000D03*
X165000000Y-120250000D03*
%TO.N,Net-(R11-Pad1)*%
X164693487Y-114764784D03*
%TO.N,Net-(Q1-S)*%
X156000000Y-119250000D03*
X164935000Y-118815000D03*
%TO.N,GND*%
X148000000Y-121250000D03*
%TO.N,+5V*%
X149000000Y-117250000D03*
%TD*%
D19*
%TO.N,Net-(U3-USBDM)*%
X176000000Y-93750000D02*
X176500000Y-93750000D01*
X174500000Y-92250000D02*
X176000000Y-93750000D01*
%TO.N,Net-(P1-D+)*%
X170000000Y-90250000D02*
X168500000Y-91750000D01*
X175000000Y-90250000D02*
X170000000Y-90250000D01*
%TO.N,Net-(P1-D-)*%
X170000000Y-89750000D02*
X168500000Y-88250000D01*
X175500000Y-89750000D02*
X170000000Y-89750000D01*
%TO.N,NRST*%
X155000000Y-100250000D02*
X152500000Y-100250000D01*
%TO.N,Net-(P1-D+)*%
X175500000Y-90750000D02*
X175000000Y-90250000D01*
X183000000Y-89250000D02*
X182000000Y-90250000D01*
X179000000Y-90750000D02*
X175500000Y-90750000D01*
X186000000Y-89250000D02*
X183000000Y-89250000D01*
X182000000Y-90250000D02*
X181500000Y-90750000D01*
X181500000Y-90750000D02*
X179000000Y-90750000D01*
%TO.N,Net-(P1-D-)*%
X187500000Y-88250000D02*
X186900000Y-87650000D01*
X186900000Y-87650000D02*
X183600000Y-87650000D01*
X183600000Y-87650000D02*
X181000000Y-90250000D01*
X181000000Y-90250000D02*
X176000000Y-90250000D01*
X176000000Y-90250000D02*
X175500000Y-89750000D01*
%TO.N,Net-(U3-VCC)*%
X175000000Y-87750000D02*
X176500000Y-89250000D01*
X176500000Y-89250000D02*
X181000000Y-89250000D01*
%TO.N,Net-(U2-PF0)*%
X157500000Y-102750000D02*
X161000000Y-106250000D01*
X172500000Y-109750000D02*
X186000000Y-109750000D01*
X161000000Y-106250000D02*
X169000000Y-106250000D01*
X169000000Y-106250000D02*
X172500000Y-109750000D01*
X186000000Y-109750000D02*
X189930000Y-113680000D01*
X189930000Y-113680000D02*
X192000000Y-113680000D01*
%TO.N,Net-(U2-PF1)*%
X158500000Y-102750000D02*
X161500000Y-105750000D01*
X172550000Y-108800000D02*
X192000000Y-108800000D01*
X161500000Y-105750000D02*
X169500000Y-105750000D01*
X169500000Y-105750000D02*
X172550000Y-108800000D01*
%TO.N,+5V*%
X147000000Y-99750000D02*
X147000000Y-90250000D01*
X143975000Y-87225000D02*
X141500000Y-87225000D01*
X147000000Y-90250000D02*
X143975000Y-87225000D01*
%TO.N,+3.3V*%
X156500000Y-108250000D02*
X157500000Y-109250000D01*
X156500000Y-88750000D02*
X156500000Y-108250000D01*
%TO.N,Net-(U2-VDDA)*%
X169000000Y-104750000D02*
X168500000Y-105250000D01*
X168500000Y-105250000D02*
X164000000Y-105250000D01*
X164000000Y-105250000D02*
X159000000Y-100250000D01*
X159000000Y-100250000D02*
X158000000Y-100250000D01*
X170500000Y-99750000D02*
X170500000Y-96250000D01*
X169500000Y-100750000D02*
X170500000Y-99750000D01*
X169500000Y-104250000D02*
X169500000Y-100750000D01*
X169000000Y-104750000D02*
X169500000Y-104250000D01*
%TO.N,Net-(Q1-S)*%
X164935000Y-118815000D02*
X164935000Y-118685000D01*
X163000000Y-116750000D02*
X158500000Y-116750000D01*
X164935000Y-118685000D02*
X163000000Y-116750000D01*
X158500000Y-116750000D02*
X156000000Y-119250000D01*
%TD*%
M02*
