%TF.GenerationSoftware,KiCad,Pcbnew,8.0.6*%
%TF.CreationDate,2025-05-31T11:47:03-05:00*%
%TF.ProjectId,TPS_Calibration_Board,5450535f-4361-46c6-9962-726174696f6e,rev?*%
%TF.SameCoordinates,Original*%
%TF.FileFunction,Soldermask,Bot*%
%TF.FilePolarity,Negative*%
%FSLAX46Y46*%
G04 Gerber Fmt 4.6, Leading zero omitted, Abs format (unit mm)*
G04 Created by KiCad (PCBNEW 8.0.6) date 2025-05-31 11:47:03*
%MOMM*%
%LPD*%
G01*
G04 APERTURE LIST*
G04 Aperture macros list*
%AMRoundRect*
0 Rectangle with rounded corners*
0 $1 Rounding radius*
0 $2 $3 $4 $5 $6 $7 $8 $9 X,Y pos of 4 corners*
0 Add a 4 corners polygon primitive as box body*
4,1,4,$2,$3,$4,$5,$6,$7,$8,$9,$2,$3,0*
0 Add four circle primitives for the rounded corners*
1,1,$1+$1,$2,$3*
1,1,$1+$1,$4,$5*
1,1,$1+$1,$6,$7*
1,1,$1+$1,$8,$9*
0 Add four rect primitives between the rounded corners*
20,1,$1+$1,$2,$3,$4,$5,0*
20,1,$1+$1,$4,$5,$6,$7,0*
20,1,$1+$1,$6,$7,$8,$9,0*
20,1,$1+$1,$8,$9,$2,$3,0*%
G04 Aperture macros list end*
%ADD10R,1.600000X1.600000*%
%ADD11O,1.600000X1.600000*%
%ADD12C,1.500000*%
%ADD13RoundRect,0.250000X-0.625000X0.400000X-0.625000X-0.400000X0.625000X-0.400000X0.625000X0.400000X0*%
%ADD14RoundRect,0.250000X0.400000X0.625000X-0.400000X0.625000X-0.400000X-0.625000X0.400000X-0.625000X0*%
%ADD15O,2.600000X1.100000*%
%ADD16O,2.100000X1.100000*%
%ADD17R,1.700000X1.700000*%
%ADD18O,1.700000X1.700000*%
%ADD19RoundRect,0.250000X-0.475000X0.337500X-0.475000X-0.337500X0.475000X-0.337500X0.475000X0.337500X0*%
%ADD20RoundRect,0.250000X0.337500X0.475000X-0.337500X0.475000X-0.337500X-0.475000X0.337500X-0.475000X0*%
%ADD21RoundRect,0.250000X-0.337500X-0.475000X0.337500X-0.475000X0.337500X0.475000X-0.337500X0.475000X0*%
%ADD22RoundRect,0.250000X0.475000X-0.337500X0.475000X0.337500X-0.475000X0.337500X-0.475000X-0.337500X0*%
G04 APERTURE END LIST*
D10*
%TO.C,U1*%
X176200000Y-96130000D03*
D11*
X176200000Y-98670000D03*
X176200000Y-101210000D03*
X176200000Y-103750000D03*
X183820000Y-103750000D03*
X183820000Y-101210000D03*
X183820000Y-98670000D03*
X183820000Y-96130000D03*
%TD*%
D12*
%TO.C,Y1*%
X192000000Y-108800000D03*
X192000000Y-113680000D03*
%TD*%
D13*
%TO.C,R12*%
X154500000Y-121300000D03*
X154500000Y-118200000D03*
%TD*%
D14*
%TO.C,R6*%
X185050000Y-86250000D03*
X181950000Y-86250000D03*
%TD*%
D13*
%TO.C,R3*%
X154000000Y-104200000D03*
X154000000Y-107300000D03*
%TD*%
%TO.C,R2*%
X172500000Y-101700000D03*
X172500000Y-104800000D03*
%TD*%
%TO.C,R1*%
X187500000Y-95700000D03*
X187500000Y-98800000D03*
%TD*%
D15*
%TO.C,P1*%
X194470000Y-84680000D03*
D16*
X189110000Y-84680000D03*
D15*
X194470000Y-93320000D03*
D16*
X189110000Y-93320000D03*
%TD*%
D17*
%TO.C,JP1*%
X150500000Y-104210000D03*
D18*
X150500000Y-106750000D03*
X150500000Y-109290000D03*
%TD*%
D17*
%TO.C,J2*%
X141500000Y-87225000D03*
D18*
X141500000Y-89765000D03*
X141500000Y-92305000D03*
%TD*%
D17*
%TO.C,J1*%
X141500000Y-115670000D03*
D18*
X141500000Y-118210000D03*
X141500000Y-120750000D03*
%TD*%
D19*
%TO.C,C16*%
X190000000Y-121250000D03*
X190000000Y-119175000D03*
%TD*%
D20*
%TO.C,C15*%
X169537500Y-89750000D03*
X167462500Y-89750000D03*
%TD*%
%TO.C,C14*%
X169537500Y-93250000D03*
X167462500Y-93250000D03*
%TD*%
%TO.C,C11*%
X176925000Y-92250000D03*
X179000000Y-92250000D03*
%TD*%
%TO.C,C10*%
X179000000Y-89240000D03*
X176925000Y-89240000D03*
%TD*%
%TO.C,C9*%
X179000000Y-86230000D03*
X176925000Y-86230000D03*
%TD*%
D19*
%TO.C,C3*%
X185500000Y-108175000D03*
X185500000Y-110250000D03*
%TD*%
D21*
%TO.C,C2*%
X151075000Y-100250000D03*
X149000000Y-100250000D03*
%TD*%
D22*
%TO.C,C1*%
X185500000Y-114787500D03*
X185500000Y-112712500D03*
%TD*%
D19*
%TO.C,C8*%
X149500000Y-121287500D03*
X149500000Y-119212500D03*
%TD*%
M02*
