M48
; DRILL file {KiCad 8.0.6} date 2025-06-01T13:35:16-0500
; FORMAT={-:-/ absolute / inch / decimal}
; #@! TF.CreationDate,2025-06-01T13:35:16-05:00
; #@! TF.GenerationSoftware,Kicad,Pcbnew,8.0.6
; #@! TF.FileFunction,Plated,1,4,PTH
FMAT,2
INCH
; #@! TA.AperFunction,Plated,PTH,ViaDrill
T1C0.0118
; #@! TA.AperFunction,Plated,PTH,ComponentDrill
T2C0.0118
; #@! TA.AperFunction,Plated,PTH,ComponentDrill
T3C0.0236
; #@! TA.AperFunction,Plated,PTH,ComponentDrill
T4C0.0315
; #@! TA.AperFunction,Plated,PTH,ComponentDrill
T5C0.0394
%
G90
G05
T1
X0.9449Y-1.3894
X0.9843Y-2.2358
X1.0039Y-1.4484
X1.0236Y-2.0783
X1.122Y-1.2614
X1.1614Y-1.4091
X1.2598Y-1.4091
X1.2795Y-1.4878
X1.2992Y-2.1571
X1.2992Y-2.2358
X1.3189Y-0.9563
X1.3583Y-1.2319
X1.3583Y-1.5075
X1.3583Y-1.7634
X1.3583Y-1.9012
X1.378Y-1.4091
X1.3976Y-1.5075
X1.437Y-1.4878
X1.4764Y-0.9563
X1.4764Y-1.5469
X1.5354Y-1.0744
X1.5551Y-0.9563
X1.5592Y-1.0428
X1.6415Y-1.9805
X1.651Y-2.14
X1.6535Y-0.9563
X1.6535Y-2.1965
X1.6929Y-1.035
X1.6929Y-1.5665
X1.752Y-1.0547
X1.7717Y-1.4878
X1.7913Y-0.9366
X1.7913Y-1.0744
X1.7913Y-1.1925
X1.7913Y-1.4484
X1.811Y-1.5862
X1.8307Y-1.4287
X1.8701Y-1.2516
X1.8701Y-1.5665
X1.8898Y-0.9563
X1.8898Y-1.0941
X1.8898Y-1.4287
X1.9291Y-1.8618
X1.9676Y-1.0548
X1.9677Y-1.1938
X1.9685Y-1.2516
X2.0079Y-0.9563
X2.0079Y-1.0547
X2.0079Y-1.6059
X2.0276Y-1.0941
X2.0472Y-0.9169
X2.1145Y-1.1536
X2.2638Y-0.8382
X2.2835Y-0.8776
X2.2835Y-0.976
X2.3031Y-1.0941
X2.4016Y-1.8618
X2.4606Y-1.0547
X2.4803Y-0.976
X2.5Y-0.8579
X2.5Y-0.9366
X2.5053Y-1.0016
X2.5197Y-1.0941
X2.5394Y-0.9366
X2.5591Y-2.1571
X2.5591Y-2.2358
X2.5984Y-1.1925
T2
X1.4567Y-2.0941
X1.4567Y-2.1413
X1.4567Y-2.1925
X1.4567Y-2.2358
X1.5039Y-2.0941
X1.5039Y-2.1413
X1.5039Y-2.1925
X1.5039Y-2.2358
T4
X2.0945Y-1.2469
X2.0945Y-1.3469
X2.0945Y-1.4469
X2.0945Y-1.5469
X2.3945Y-1.2469
X2.3945Y-1.3469
X2.3945Y-1.4469
X2.3945Y-1.5469
X2.7165Y-1.7457
X2.7165Y-1.9378
T5
X0.7283Y-0.8963
X0.7283Y-0.9963
X0.7283Y-1.0963
X0.7283Y-2.0161
X0.7283Y-2.1161
X0.7283Y-2.2161
X1.0827Y-1.565
X1.0827Y-1.665
X1.0827Y-1.765
T3
G00X2.5831Y-0.7961
M15
G01X2.6224Y-0.7961
M16
G05
G00X2.5831Y-1.1362
M15
G01X2.6224Y-1.1362
M16
G05
G00X2.7843Y-0.7961
M15
G01X2.8433Y-0.7961
M16
G05
G00X2.7843Y-1.1362
M15
G01X2.8433Y-1.1362
M16
G05
M30
