%TF.GenerationSoftware,KiCad,Pcbnew,8.0.6*%
%TF.CreationDate,2025-06-01T13:35:19-05:00*%
%TF.ProjectId,TPS_Calibration_Board,5450535f-4361-46c6-9962-726174696f6e,rev?*%
%TF.SameCoordinates,Original*%
%TF.FileFunction,Soldermask,Bot*%
%TF.FilePolarity,Negative*%
%FSLAX46Y46*%
G04 Gerber Fmt 4.6, Leading zero omitted, Abs format (unit mm)*
G04 Created by KiCad (PCBNEW 8.0.6) date 2025-06-01 13:35:19*
%MOMM*%
%LPD*%
G01*
G04 APERTURE LIST*
G04 Aperture macros list*
%AMRoundRect*
0 Rectangle with rounded corners*
0 $1 Rounding radius*
0 $2 $3 $4 $5 $6 $7 $8 $9 X,Y pos of 4 corners*
0 Add a 4 corners polygon primitive as box body*
4,1,4,$2,$3,$4,$5,$6,$7,$8,$9,$2,$3,0*
0 Add four circle primitives for the rounded corners*
1,1,$1+$1,$2,$3*
1,1,$1+$1,$4,$5*
1,1,$1+$1,$6,$7*
1,1,$1+$1,$8,$9*
0 Add four rect primitives between the rounded corners*
20,1,$1+$1,$2,$3,$4,$5,0*
20,1,$1+$1,$4,$5,$6,$7,0*
20,1,$1+$1,$6,$7,$8,$9,0*
20,1,$1+$1,$8,$9,$2,$3,0*%
G04 Aperture macros list end*
%ADD10O,2.100000X1.100000*%
%ADD11O,2.600000X1.100000*%
%ADD12R,1.700000X1.700000*%
%ADD13O,1.700000X1.700000*%
%ADD14R,1.600000X1.600000*%
%ADD15O,1.600000X1.600000*%
%ADD16C,1.500000*%
%ADD17RoundRect,0.250000X0.337500X0.475000X-0.337500X0.475000X-0.337500X-0.475000X0.337500X-0.475000X0*%
%ADD18RoundRect,0.250000X-0.475000X0.337500X-0.475000X-0.337500X0.475000X-0.337500X0.475000X0.337500X0*%
%ADD19RoundRect,0.250000X-0.625000X0.400000X-0.625000X-0.400000X0.625000X-0.400000X0.625000X0.400000X0*%
%ADD20RoundRect,0.250000X-0.337500X-0.475000X0.337500X-0.475000X0.337500X0.475000X-0.337500X0.475000X0*%
%ADD21RoundRect,0.250000X0.475000X-0.337500X0.475000X0.337500X-0.475000X0.337500X-0.475000X-0.337500X0*%
%ADD22RoundRect,0.250000X0.400000X0.625000X-0.400000X0.625000X-0.400000X-0.625000X0.400000X-0.625000X0*%
G04 APERTURE END LIST*
D10*
%TO.C,P1*%
X66110000Y-28860000D03*
D11*
X71470000Y-28860000D03*
D10*
X66110000Y-20220000D03*
D11*
X71470000Y-20220000D03*
%TD*%
D12*
%TO.C,J2*%
X18500000Y-22765000D03*
D13*
X18500000Y-25305000D03*
X18500000Y-27845000D03*
%TD*%
D14*
%TO.C,U1*%
X53200000Y-31670000D03*
D15*
X53200000Y-34210000D03*
X53200000Y-36750000D03*
X53200000Y-39290000D03*
X60820000Y-39290000D03*
X60820000Y-36750000D03*
X60820000Y-34210000D03*
X60820000Y-31670000D03*
%TD*%
D16*
%TO.C,Y1*%
X69000000Y-44340000D03*
X69000000Y-49220000D03*
%TD*%
D12*
%TO.C,J1*%
X18500000Y-51210000D03*
D13*
X18500000Y-53750000D03*
X18500000Y-56290000D03*
%TD*%
D12*
%TO.C,JP1*%
X27500000Y-39750000D03*
D13*
X27500000Y-42290000D03*
X27500000Y-44830000D03*
%TD*%
D17*
%TO.C,C9*%
X56000000Y-21770000D03*
X53925000Y-21770000D03*
%TD*%
%TO.C,C14*%
X46537500Y-28790000D03*
X44462500Y-28790000D03*
%TD*%
D18*
%TO.C,C3*%
X62500000Y-43715000D03*
X62500000Y-45790000D03*
%TD*%
%TO.C,C16*%
X67000000Y-54715000D03*
X67000000Y-56790000D03*
%TD*%
%TO.C,C8*%
X26500000Y-54752500D03*
X26500000Y-56827500D03*
%TD*%
D19*
%TO.C,R1*%
X64500000Y-31240000D03*
X64500000Y-34340000D03*
%TD*%
D17*
%TO.C,C15*%
X46537500Y-25290000D03*
X44462500Y-25290000D03*
%TD*%
D20*
%TO.C,C2*%
X26000000Y-35790000D03*
X28075000Y-35790000D03*
%TD*%
D19*
%TO.C,R12*%
X31500000Y-53740000D03*
X31500000Y-56840000D03*
%TD*%
D21*
%TO.C,C1*%
X62500000Y-50327500D03*
X62500000Y-48252500D03*
%TD*%
D17*
%TO.C,C11*%
X56000000Y-27790000D03*
X53925000Y-27790000D03*
%TD*%
D19*
%TO.C,R2*%
X49500000Y-37240000D03*
X49500000Y-40340000D03*
%TD*%
D17*
%TO.C,C10*%
X56000000Y-24780000D03*
X53925000Y-24780000D03*
%TD*%
D19*
%TO.C,R3*%
X31000000Y-39740000D03*
X31000000Y-42840000D03*
%TD*%
D22*
%TO.C,R6*%
X62050000Y-21790000D03*
X58950000Y-21790000D03*
%TD*%
M02*
