%TF.GenerationSoftware,KiCad,Pcbnew,8.0.6*%
%TF.CreationDate,2025-06-01T13:35:19-05:00*%
%TF.ProjectId,TPS_Calibration_Board,5450535f-4361-46c6-9962-726174696f6e,rev?*%
%TF.SameCoordinates,Original*%
%TF.FileFunction,Legend,Top*%
%TF.FilePolarity,Positive*%
%FSLAX46Y46*%
G04 Gerber Fmt 4.6, Leading zero omitted, Abs format (unit mm)*
G04 Created by KiCad (PCBNEW 8.0.6) date 2025-06-01 13:35:19*
%MOMM*%
%LPD*%
G01*
G04 APERTURE LIST*
%ADD10C,0.100000*%
%ADD11C,0.125000*%
%ADD12C,0.150000*%
%ADD13C,0.120000*%
G04 APERTURE END LIST*
D10*
X30066390Y-43510550D02*
X30304485Y-43343884D01*
X30066390Y-43224836D02*
X30566390Y-43224836D01*
X30566390Y-43224836D02*
X30566390Y-43415312D01*
X30566390Y-43415312D02*
X30542580Y-43462931D01*
X30542580Y-43462931D02*
X30518771Y-43486741D01*
X30518771Y-43486741D02*
X30471152Y-43510550D01*
X30471152Y-43510550D02*
X30399723Y-43510550D01*
X30399723Y-43510550D02*
X30352104Y-43486741D01*
X30352104Y-43486741D02*
X30328295Y-43462931D01*
X30328295Y-43462931D02*
X30304485Y-43415312D01*
X30304485Y-43415312D02*
X30304485Y-43224836D01*
X30566390Y-43724836D02*
X30161628Y-43724836D01*
X30161628Y-43724836D02*
X30114009Y-43748646D01*
X30114009Y-43748646D02*
X30090200Y-43772455D01*
X30090200Y-43772455D02*
X30066390Y-43820074D01*
X30066390Y-43820074D02*
X30066390Y-43915312D01*
X30066390Y-43915312D02*
X30090200Y-43962931D01*
X30090200Y-43962931D02*
X30114009Y-43986741D01*
X30114009Y-43986741D02*
X30161628Y-44010550D01*
X30161628Y-44010550D02*
X30566390Y-44010550D01*
X30066390Y-44248646D02*
X30566390Y-44248646D01*
X30566390Y-44248646D02*
X30066390Y-44534360D01*
X30066390Y-44534360D02*
X30566390Y-44534360D01*
X30000000Y-45040000D02*
X30000000Y-43040000D01*
X29000000Y-45040000D02*
X30000000Y-45040000D01*
X30328295Y-40391503D02*
X30304485Y-40462931D01*
X30304485Y-40462931D02*
X30280676Y-40486741D01*
X30280676Y-40486741D02*
X30233057Y-40510550D01*
X30233057Y-40510550D02*
X30161628Y-40510550D01*
X30161628Y-40510550D02*
X30114009Y-40486741D01*
X30114009Y-40486741D02*
X30090200Y-40462931D01*
X30090200Y-40462931D02*
X30066390Y-40415312D01*
X30066390Y-40415312D02*
X30066390Y-40224836D01*
X30066390Y-40224836D02*
X30566390Y-40224836D01*
X30566390Y-40224836D02*
X30566390Y-40391503D01*
X30566390Y-40391503D02*
X30542580Y-40439122D01*
X30542580Y-40439122D02*
X30518771Y-40462931D01*
X30518771Y-40462931D02*
X30471152Y-40486741D01*
X30471152Y-40486741D02*
X30423533Y-40486741D01*
X30423533Y-40486741D02*
X30375914Y-40462931D01*
X30375914Y-40462931D02*
X30352104Y-40439122D01*
X30352104Y-40439122D02*
X30328295Y-40391503D01*
X30328295Y-40391503D02*
X30328295Y-40224836D01*
X30566390Y-40820074D02*
X30566390Y-40915312D01*
X30566390Y-40915312D02*
X30542580Y-40962931D01*
X30542580Y-40962931D02*
X30494961Y-41010550D01*
X30494961Y-41010550D02*
X30399723Y-41034360D01*
X30399723Y-41034360D02*
X30233057Y-41034360D01*
X30233057Y-41034360D02*
X30137819Y-41010550D01*
X30137819Y-41010550D02*
X30090200Y-40962931D01*
X30090200Y-40962931D02*
X30066390Y-40915312D01*
X30066390Y-40915312D02*
X30066390Y-40820074D01*
X30066390Y-40820074D02*
X30090200Y-40772455D01*
X30090200Y-40772455D02*
X30137819Y-40724836D01*
X30137819Y-40724836D02*
X30233057Y-40701027D01*
X30233057Y-40701027D02*
X30399723Y-40701027D01*
X30399723Y-40701027D02*
X30494961Y-40724836D01*
X30494961Y-40724836D02*
X30542580Y-40772455D01*
X30542580Y-40772455D02*
X30566390Y-40820074D01*
X30566390Y-41343884D02*
X30566390Y-41439122D01*
X30566390Y-41439122D02*
X30542580Y-41486741D01*
X30542580Y-41486741D02*
X30494961Y-41534360D01*
X30494961Y-41534360D02*
X30399723Y-41558170D01*
X30399723Y-41558170D02*
X30233057Y-41558170D01*
X30233057Y-41558170D02*
X30137819Y-41534360D01*
X30137819Y-41534360D02*
X30090200Y-41486741D01*
X30090200Y-41486741D02*
X30066390Y-41439122D01*
X30066390Y-41439122D02*
X30066390Y-41343884D01*
X30066390Y-41343884D02*
X30090200Y-41296265D01*
X30090200Y-41296265D02*
X30137819Y-41248646D01*
X30137819Y-41248646D02*
X30233057Y-41224837D01*
X30233057Y-41224837D02*
X30399723Y-41224837D01*
X30399723Y-41224837D02*
X30494961Y-41248646D01*
X30494961Y-41248646D02*
X30542580Y-41296265D01*
X30542580Y-41296265D02*
X30566390Y-41343884D01*
X30566390Y-41701028D02*
X30566390Y-41986742D01*
X30066390Y-41843885D02*
X30566390Y-41843885D01*
X30000000Y-42040000D02*
X29000000Y-42040000D01*
X30000000Y-40040000D02*
X30000000Y-42040000D01*
X29000000Y-40040000D02*
X30000000Y-40040000D01*
D11*
X20775190Y-51051906D02*
X20775190Y-50813811D01*
X20775190Y-50813811D02*
X20537095Y-50790002D01*
X20537095Y-50790002D02*
X20560904Y-50813811D01*
X20560904Y-50813811D02*
X20584714Y-50861430D01*
X20584714Y-50861430D02*
X20584714Y-50980478D01*
X20584714Y-50980478D02*
X20560904Y-51028097D01*
X20560904Y-51028097D02*
X20537095Y-51051906D01*
X20537095Y-51051906D02*
X20489476Y-51075716D01*
X20489476Y-51075716D02*
X20370428Y-51075716D01*
X20370428Y-51075716D02*
X20322809Y-51051906D01*
X20322809Y-51051906D02*
X20299000Y-51028097D01*
X20299000Y-51028097D02*
X20275190Y-50980478D01*
X20275190Y-50980478D02*
X20275190Y-50861430D01*
X20275190Y-50861430D02*
X20299000Y-50813811D01*
X20299000Y-50813811D02*
X20322809Y-50790002D01*
X20775190Y-51218573D02*
X20275190Y-51385239D01*
X20275190Y-51385239D02*
X20775190Y-51551906D01*
X20299000Y-53218571D02*
X20275190Y-53289999D01*
X20275190Y-53289999D02*
X20275190Y-53409047D01*
X20275190Y-53409047D02*
X20299000Y-53456666D01*
X20299000Y-53456666D02*
X20322809Y-53480475D01*
X20322809Y-53480475D02*
X20370428Y-53504285D01*
X20370428Y-53504285D02*
X20418047Y-53504285D01*
X20418047Y-53504285D02*
X20465666Y-53480475D01*
X20465666Y-53480475D02*
X20489476Y-53456666D01*
X20489476Y-53456666D02*
X20513285Y-53409047D01*
X20513285Y-53409047D02*
X20537095Y-53313809D01*
X20537095Y-53313809D02*
X20560904Y-53266190D01*
X20560904Y-53266190D02*
X20584714Y-53242380D01*
X20584714Y-53242380D02*
X20632333Y-53218571D01*
X20632333Y-53218571D02*
X20679952Y-53218571D01*
X20679952Y-53218571D02*
X20727571Y-53242380D01*
X20727571Y-53242380D02*
X20751380Y-53266190D01*
X20751380Y-53266190D02*
X20775190Y-53313809D01*
X20775190Y-53313809D02*
X20775190Y-53432856D01*
X20775190Y-53432856D02*
X20751380Y-53504285D01*
X20275190Y-53718570D02*
X20775190Y-53718570D01*
X20751380Y-54218570D02*
X20775190Y-54170951D01*
X20775190Y-54170951D02*
X20775190Y-54099522D01*
X20775190Y-54099522D02*
X20751380Y-54028094D01*
X20751380Y-54028094D02*
X20703761Y-53980475D01*
X20703761Y-53980475D02*
X20656142Y-53956665D01*
X20656142Y-53956665D02*
X20560904Y-53932856D01*
X20560904Y-53932856D02*
X20489476Y-53932856D01*
X20489476Y-53932856D02*
X20394238Y-53956665D01*
X20394238Y-53956665D02*
X20346619Y-53980475D01*
X20346619Y-53980475D02*
X20299000Y-54028094D01*
X20299000Y-54028094D02*
X20275190Y-54099522D01*
X20275190Y-54099522D02*
X20275190Y-54147141D01*
X20275190Y-54147141D02*
X20299000Y-54218570D01*
X20299000Y-54218570D02*
X20322809Y-54242379D01*
X20322809Y-54242379D02*
X20489476Y-54242379D01*
X20489476Y-54242379D02*
X20489476Y-54147141D01*
X20751380Y-56242378D02*
X20775190Y-56194759D01*
X20775190Y-56194759D02*
X20775190Y-56123330D01*
X20775190Y-56123330D02*
X20751380Y-56051902D01*
X20751380Y-56051902D02*
X20703761Y-56004283D01*
X20703761Y-56004283D02*
X20656142Y-55980473D01*
X20656142Y-55980473D02*
X20560904Y-55956664D01*
X20560904Y-55956664D02*
X20489476Y-55956664D01*
X20489476Y-55956664D02*
X20394238Y-55980473D01*
X20394238Y-55980473D02*
X20346619Y-56004283D01*
X20346619Y-56004283D02*
X20299000Y-56051902D01*
X20299000Y-56051902D02*
X20275190Y-56123330D01*
X20275190Y-56123330D02*
X20275190Y-56170949D01*
X20275190Y-56170949D02*
X20299000Y-56242378D01*
X20299000Y-56242378D02*
X20322809Y-56266187D01*
X20322809Y-56266187D02*
X20489476Y-56266187D01*
X20489476Y-56266187D02*
X20489476Y-56170949D01*
X20275190Y-56480473D02*
X20775190Y-56480473D01*
X20775190Y-56480473D02*
X20275190Y-56766187D01*
X20275190Y-56766187D02*
X20775190Y-56766187D01*
X20275190Y-57004283D02*
X20775190Y-57004283D01*
X20775190Y-57004283D02*
X20775190Y-57123331D01*
X20775190Y-57123331D02*
X20751380Y-57194759D01*
X20751380Y-57194759D02*
X20703761Y-57242378D01*
X20703761Y-57242378D02*
X20656142Y-57266188D01*
X20656142Y-57266188D02*
X20560904Y-57289997D01*
X20560904Y-57289997D02*
X20489476Y-57289997D01*
X20489476Y-57289997D02*
X20394238Y-57266188D01*
X20394238Y-57266188D02*
X20346619Y-57242378D01*
X20346619Y-57242378D02*
X20299000Y-57194759D01*
X20299000Y-57194759D02*
X20275190Y-57123331D01*
X20275190Y-57123331D02*
X20275190Y-57004283D01*
D10*
X18566390Y-30474836D02*
X19066390Y-30474836D01*
X19066390Y-30474836D02*
X19066390Y-30665312D01*
X19066390Y-30665312D02*
X19042580Y-30712931D01*
X19042580Y-30712931D02*
X19018771Y-30736741D01*
X19018771Y-30736741D02*
X18971152Y-30760550D01*
X18971152Y-30760550D02*
X18899723Y-30760550D01*
X18899723Y-30760550D02*
X18852104Y-30736741D01*
X18852104Y-30736741D02*
X18828295Y-30712931D01*
X18828295Y-30712931D02*
X18804485Y-30665312D01*
X18804485Y-30665312D02*
X18804485Y-30474836D01*
X19090200Y-31331979D02*
X18447342Y-30903408D01*
X18566390Y-31498646D02*
X19066390Y-31498646D01*
X19066390Y-31498646D02*
X18566390Y-31784360D01*
X18566390Y-31784360D02*
X19066390Y-31784360D01*
X18614009Y-32022456D02*
X18590200Y-32046266D01*
X18590200Y-32046266D02*
X18566390Y-32022456D01*
X18566390Y-32022456D02*
X18590200Y-31998647D01*
X18590200Y-31998647D02*
X18614009Y-32022456D01*
X18614009Y-32022456D02*
X18566390Y-32022456D01*
X18875914Y-32022456D02*
X18852104Y-32046266D01*
X18852104Y-32046266D02*
X18828295Y-32022456D01*
X18828295Y-32022456D02*
X18852104Y-31998647D01*
X18852104Y-31998647D02*
X18875914Y-32022456D01*
X18875914Y-32022456D02*
X18828295Y-32022456D01*
X19066390Y-32736741D02*
X19066390Y-32784360D01*
X19066390Y-32784360D02*
X19042580Y-32831979D01*
X19042580Y-32831979D02*
X19018771Y-32855789D01*
X19018771Y-32855789D02*
X18971152Y-32879598D01*
X18971152Y-32879598D02*
X18875914Y-32903408D01*
X18875914Y-32903408D02*
X18756866Y-32903408D01*
X18756866Y-32903408D02*
X18661628Y-32879598D01*
X18661628Y-32879598D02*
X18614009Y-32855789D01*
X18614009Y-32855789D02*
X18590200Y-32831979D01*
X18590200Y-32831979D02*
X18566390Y-32784360D01*
X18566390Y-32784360D02*
X18566390Y-32736741D01*
X18566390Y-32736741D02*
X18590200Y-32689122D01*
X18590200Y-32689122D02*
X18614009Y-32665313D01*
X18614009Y-32665313D02*
X18661628Y-32641503D01*
X18661628Y-32641503D02*
X18756866Y-32617694D01*
X18756866Y-32617694D02*
X18875914Y-32617694D01*
X18875914Y-32617694D02*
X18971152Y-32641503D01*
X18971152Y-32641503D02*
X19018771Y-32665313D01*
X19018771Y-32665313D02*
X19042580Y-32689122D01*
X19042580Y-32689122D02*
X19066390Y-32736741D01*
X19066390Y-33212931D02*
X19066390Y-33260550D01*
X19066390Y-33260550D02*
X19042580Y-33308169D01*
X19042580Y-33308169D02*
X19018771Y-33331979D01*
X19018771Y-33331979D02*
X18971152Y-33355788D01*
X18971152Y-33355788D02*
X18875914Y-33379598D01*
X18875914Y-33379598D02*
X18756866Y-33379598D01*
X18756866Y-33379598D02*
X18661628Y-33355788D01*
X18661628Y-33355788D02*
X18614009Y-33331979D01*
X18614009Y-33331979D02*
X18590200Y-33308169D01*
X18590200Y-33308169D02*
X18566390Y-33260550D01*
X18566390Y-33260550D02*
X18566390Y-33212931D01*
X18566390Y-33212931D02*
X18590200Y-33165312D01*
X18590200Y-33165312D02*
X18614009Y-33141503D01*
X18614009Y-33141503D02*
X18661628Y-33117693D01*
X18661628Y-33117693D02*
X18756866Y-33093884D01*
X18756866Y-33093884D02*
X18875914Y-33093884D01*
X18875914Y-33093884D02*
X18971152Y-33117693D01*
X18971152Y-33117693D02*
X19018771Y-33141503D01*
X19018771Y-33141503D02*
X19042580Y-33165312D01*
X19042580Y-33165312D02*
X19066390Y-33212931D01*
X19066390Y-33689121D02*
X19066390Y-33736740D01*
X19066390Y-33736740D02*
X19042580Y-33784359D01*
X19042580Y-33784359D02*
X19018771Y-33808169D01*
X19018771Y-33808169D02*
X18971152Y-33831978D01*
X18971152Y-33831978D02*
X18875914Y-33855788D01*
X18875914Y-33855788D02*
X18756866Y-33855788D01*
X18756866Y-33855788D02*
X18661628Y-33831978D01*
X18661628Y-33831978D02*
X18614009Y-33808169D01*
X18614009Y-33808169D02*
X18590200Y-33784359D01*
X18590200Y-33784359D02*
X18566390Y-33736740D01*
X18566390Y-33736740D02*
X18566390Y-33689121D01*
X18566390Y-33689121D02*
X18590200Y-33641502D01*
X18590200Y-33641502D02*
X18614009Y-33617693D01*
X18614009Y-33617693D02*
X18661628Y-33593883D01*
X18661628Y-33593883D02*
X18756866Y-33570074D01*
X18756866Y-33570074D02*
X18875914Y-33570074D01*
X18875914Y-33570074D02*
X18971152Y-33593883D01*
X18971152Y-33593883D02*
X19018771Y-33617693D01*
X19018771Y-33617693D02*
X19042580Y-33641502D01*
X19042580Y-33641502D02*
X19066390Y-33689121D01*
X18566390Y-34331978D02*
X18566390Y-34046264D01*
X18566390Y-34189121D02*
X19066390Y-34189121D01*
X19066390Y-34189121D02*
X18994961Y-34141502D01*
X18994961Y-34141502D02*
X18947342Y-34093883D01*
X18947342Y-34093883D02*
X18923533Y-34046264D01*
X18756866Y-34546263D02*
X18756866Y-34927216D01*
X18566390Y-35451025D02*
X18804485Y-35284359D01*
X18566390Y-35165311D02*
X19066390Y-35165311D01*
X19066390Y-35165311D02*
X19066390Y-35355787D01*
X19066390Y-35355787D02*
X19042580Y-35403406D01*
X19042580Y-35403406D02*
X19018771Y-35427216D01*
X19018771Y-35427216D02*
X18971152Y-35451025D01*
X18971152Y-35451025D02*
X18899723Y-35451025D01*
X18899723Y-35451025D02*
X18852104Y-35427216D01*
X18852104Y-35427216D02*
X18828295Y-35403406D01*
X18828295Y-35403406D02*
X18804485Y-35355787D01*
X18804485Y-35355787D02*
X18804485Y-35165311D01*
X19066390Y-35760549D02*
X19066390Y-35808168D01*
X19066390Y-35808168D02*
X19042580Y-35855787D01*
X19042580Y-35855787D02*
X19018771Y-35879597D01*
X19018771Y-35879597D02*
X18971152Y-35903406D01*
X18971152Y-35903406D02*
X18875914Y-35927216D01*
X18875914Y-35927216D02*
X18756866Y-35927216D01*
X18756866Y-35927216D02*
X18661628Y-35903406D01*
X18661628Y-35903406D02*
X18614009Y-35879597D01*
X18614009Y-35879597D02*
X18590200Y-35855787D01*
X18590200Y-35855787D02*
X18566390Y-35808168D01*
X18566390Y-35808168D02*
X18566390Y-35760549D01*
X18566390Y-35760549D02*
X18590200Y-35712930D01*
X18590200Y-35712930D02*
X18614009Y-35689121D01*
X18614009Y-35689121D02*
X18661628Y-35665311D01*
X18661628Y-35665311D02*
X18756866Y-35641502D01*
X18756866Y-35641502D02*
X18875914Y-35641502D01*
X18875914Y-35641502D02*
X18971152Y-35665311D01*
X18971152Y-35665311D02*
X19018771Y-35689121D01*
X19018771Y-35689121D02*
X19042580Y-35712930D01*
X19042580Y-35712930D02*
X19066390Y-35760549D01*
X19066390Y-36236739D02*
X19066390Y-36284358D01*
X19066390Y-36284358D02*
X19042580Y-36331977D01*
X19042580Y-36331977D02*
X19018771Y-36355787D01*
X19018771Y-36355787D02*
X18971152Y-36379596D01*
X18971152Y-36379596D02*
X18875914Y-36403406D01*
X18875914Y-36403406D02*
X18756866Y-36403406D01*
X18756866Y-36403406D02*
X18661628Y-36379596D01*
X18661628Y-36379596D02*
X18614009Y-36355787D01*
X18614009Y-36355787D02*
X18590200Y-36331977D01*
X18590200Y-36331977D02*
X18566390Y-36284358D01*
X18566390Y-36284358D02*
X18566390Y-36236739D01*
X18566390Y-36236739D02*
X18590200Y-36189120D01*
X18590200Y-36189120D02*
X18614009Y-36165311D01*
X18614009Y-36165311D02*
X18661628Y-36141501D01*
X18661628Y-36141501D02*
X18756866Y-36117692D01*
X18756866Y-36117692D02*
X18875914Y-36117692D01*
X18875914Y-36117692D02*
X18971152Y-36141501D01*
X18971152Y-36141501D02*
X19018771Y-36165311D01*
X19018771Y-36165311D02*
X19042580Y-36189120D01*
X19042580Y-36189120D02*
X19066390Y-36236739D01*
X18614009Y-36617691D02*
X18590200Y-36641501D01*
X18590200Y-36641501D02*
X18566390Y-36617691D01*
X18566390Y-36617691D02*
X18590200Y-36593882D01*
X18590200Y-36593882D02*
X18614009Y-36617691D01*
X18614009Y-36617691D02*
X18566390Y-36617691D01*
X17947342Y-30629598D02*
X17971152Y-30581979D01*
X17971152Y-30581979D02*
X17971152Y-30486741D01*
X17971152Y-30486741D02*
X17947342Y-30439122D01*
X17947342Y-30439122D02*
X17899723Y-30391503D01*
X17899723Y-30391503D02*
X17852104Y-30367693D01*
X17852104Y-30367693D02*
X17756866Y-30367693D01*
X17756866Y-30367693D02*
X17709247Y-30391503D01*
X17709247Y-30391503D02*
X17661628Y-30439122D01*
X17661628Y-30439122D02*
X17637819Y-30486741D01*
X17637819Y-30486741D02*
X17637819Y-30581979D01*
X17637819Y-30581979D02*
X17661628Y-30629598D01*
X18137819Y-30534360D02*
X18114009Y-30415312D01*
X18114009Y-30415312D02*
X18042580Y-30296265D01*
X18042580Y-30296265D02*
X17923533Y-30224836D01*
X17923533Y-30224836D02*
X17804485Y-30201027D01*
X17804485Y-30201027D02*
X17685438Y-30224836D01*
X17685438Y-30224836D02*
X17566390Y-30296265D01*
X17566390Y-30296265D02*
X17494961Y-30415312D01*
X17494961Y-30415312D02*
X17471152Y-30534360D01*
X17471152Y-30534360D02*
X17494961Y-30653408D01*
X17494961Y-30653408D02*
X17566390Y-30772455D01*
X17566390Y-30772455D02*
X17685438Y-30843884D01*
X17685438Y-30843884D02*
X17804485Y-30867693D01*
X17804485Y-30867693D02*
X17923533Y-30843884D01*
X17923533Y-30843884D02*
X18042580Y-30772455D01*
X18042580Y-30772455D02*
X18114009Y-30653408D01*
X18114009Y-30653408D02*
X18137819Y-30534360D01*
X17566390Y-31748645D02*
X17804485Y-31581979D01*
X17566390Y-31462931D02*
X18066390Y-31462931D01*
X18066390Y-31462931D02*
X18066390Y-31653407D01*
X18066390Y-31653407D02*
X18042580Y-31701026D01*
X18042580Y-31701026D02*
X18018771Y-31724836D01*
X18018771Y-31724836D02*
X17971152Y-31748645D01*
X17971152Y-31748645D02*
X17899723Y-31748645D01*
X17899723Y-31748645D02*
X17852104Y-31724836D01*
X17852104Y-31724836D02*
X17828295Y-31701026D01*
X17828295Y-31701026D02*
X17804485Y-31653407D01*
X17804485Y-31653407D02*
X17804485Y-31462931D01*
X17614009Y-31962931D02*
X17590200Y-31986741D01*
X17590200Y-31986741D02*
X17566390Y-31962931D01*
X17566390Y-31962931D02*
X17590200Y-31939122D01*
X17590200Y-31939122D02*
X17614009Y-31962931D01*
X17614009Y-31962931D02*
X17566390Y-31962931D01*
X18066390Y-32201026D02*
X17661628Y-32201026D01*
X17661628Y-32201026D02*
X17614009Y-32224836D01*
X17614009Y-32224836D02*
X17590200Y-32248645D01*
X17590200Y-32248645D02*
X17566390Y-32296264D01*
X17566390Y-32296264D02*
X17566390Y-32391502D01*
X17566390Y-32391502D02*
X17590200Y-32439121D01*
X17590200Y-32439121D02*
X17614009Y-32462931D01*
X17614009Y-32462931D02*
X17661628Y-32486740D01*
X17661628Y-32486740D02*
X18066390Y-32486740D01*
X17614009Y-32724836D02*
X17590200Y-32748646D01*
X17590200Y-32748646D02*
X17566390Y-32724836D01*
X17566390Y-32724836D02*
X17590200Y-32701027D01*
X17590200Y-32701027D02*
X17614009Y-32724836D01*
X17614009Y-32724836D02*
X17566390Y-32724836D01*
X17566390Y-32962931D02*
X18066390Y-32962931D01*
X18066390Y-33510550D02*
X18066390Y-33796264D01*
X17566390Y-33653407D02*
X18066390Y-33653407D01*
X17590200Y-34153406D02*
X17566390Y-34105787D01*
X17566390Y-34105787D02*
X17566390Y-34010549D01*
X17566390Y-34010549D02*
X17590200Y-33962930D01*
X17590200Y-33962930D02*
X17637819Y-33939121D01*
X17637819Y-33939121D02*
X17828295Y-33939121D01*
X17828295Y-33939121D02*
X17875914Y-33962930D01*
X17875914Y-33962930D02*
X17899723Y-34010549D01*
X17899723Y-34010549D02*
X17899723Y-34105787D01*
X17899723Y-34105787D02*
X17875914Y-34153406D01*
X17875914Y-34153406D02*
X17828295Y-34177216D01*
X17828295Y-34177216D02*
X17780676Y-34177216D01*
X17780676Y-34177216D02*
X17733057Y-33939121D01*
X17590200Y-34605787D02*
X17566390Y-34558168D01*
X17566390Y-34558168D02*
X17566390Y-34462930D01*
X17566390Y-34462930D02*
X17590200Y-34415311D01*
X17590200Y-34415311D02*
X17614009Y-34391501D01*
X17614009Y-34391501D02*
X17661628Y-34367692D01*
X17661628Y-34367692D02*
X17804485Y-34367692D01*
X17804485Y-34367692D02*
X17852104Y-34391501D01*
X17852104Y-34391501D02*
X17875914Y-34415311D01*
X17875914Y-34415311D02*
X17899723Y-34462930D01*
X17899723Y-34462930D02*
X17899723Y-34558168D01*
X17899723Y-34558168D02*
X17875914Y-34605787D01*
X17566390Y-34820072D02*
X18066390Y-34820072D01*
X17566390Y-35034358D02*
X17828295Y-35034358D01*
X17828295Y-35034358D02*
X17875914Y-35010548D01*
X17875914Y-35010548D02*
X17899723Y-34962929D01*
X17899723Y-34962929D02*
X17899723Y-34891501D01*
X17899723Y-34891501D02*
X17875914Y-34843882D01*
X17875914Y-34843882D02*
X17852104Y-34820072D01*
X17899723Y-35272453D02*
X17566390Y-35272453D01*
X17852104Y-35272453D02*
X17875914Y-35296263D01*
X17875914Y-35296263D02*
X17899723Y-35343882D01*
X17899723Y-35343882D02*
X17899723Y-35415310D01*
X17899723Y-35415310D02*
X17875914Y-35462929D01*
X17875914Y-35462929D02*
X17828295Y-35486739D01*
X17828295Y-35486739D02*
X17566390Y-35486739D01*
X17566390Y-35796263D02*
X17590200Y-35748644D01*
X17590200Y-35748644D02*
X17614009Y-35724834D01*
X17614009Y-35724834D02*
X17661628Y-35701025D01*
X17661628Y-35701025D02*
X17804485Y-35701025D01*
X17804485Y-35701025D02*
X17852104Y-35724834D01*
X17852104Y-35724834D02*
X17875914Y-35748644D01*
X17875914Y-35748644D02*
X17899723Y-35796263D01*
X17899723Y-35796263D02*
X17899723Y-35867691D01*
X17899723Y-35867691D02*
X17875914Y-35915310D01*
X17875914Y-35915310D02*
X17852104Y-35939120D01*
X17852104Y-35939120D02*
X17804485Y-35962929D01*
X17804485Y-35962929D02*
X17661628Y-35962929D01*
X17661628Y-35962929D02*
X17614009Y-35939120D01*
X17614009Y-35939120D02*
X17590200Y-35915310D01*
X17590200Y-35915310D02*
X17566390Y-35867691D01*
X17566390Y-35867691D02*
X17566390Y-35796263D01*
X17566390Y-36248644D02*
X17590200Y-36201025D01*
X17590200Y-36201025D02*
X17637819Y-36177215D01*
X17637819Y-36177215D02*
X18066390Y-36177215D01*
X17566390Y-36510549D02*
X17590200Y-36462930D01*
X17590200Y-36462930D02*
X17614009Y-36439120D01*
X17614009Y-36439120D02*
X17661628Y-36415311D01*
X17661628Y-36415311D02*
X17804485Y-36415311D01*
X17804485Y-36415311D02*
X17852104Y-36439120D01*
X17852104Y-36439120D02*
X17875914Y-36462930D01*
X17875914Y-36462930D02*
X17899723Y-36510549D01*
X17899723Y-36510549D02*
X17899723Y-36581977D01*
X17899723Y-36581977D02*
X17875914Y-36629596D01*
X17875914Y-36629596D02*
X17852104Y-36653406D01*
X17852104Y-36653406D02*
X17804485Y-36677215D01*
X17804485Y-36677215D02*
X17661628Y-36677215D01*
X17661628Y-36677215D02*
X17614009Y-36653406D01*
X17614009Y-36653406D02*
X17590200Y-36629596D01*
X17590200Y-36629596D02*
X17566390Y-36581977D01*
X17566390Y-36581977D02*
X17566390Y-36510549D01*
X17899723Y-37105787D02*
X17494961Y-37105787D01*
X17494961Y-37105787D02*
X17447342Y-37081977D01*
X17447342Y-37081977D02*
X17423533Y-37058168D01*
X17423533Y-37058168D02*
X17399723Y-37010549D01*
X17399723Y-37010549D02*
X17399723Y-36939120D01*
X17399723Y-36939120D02*
X17423533Y-36891501D01*
X17590200Y-37105787D02*
X17566390Y-37058168D01*
X17566390Y-37058168D02*
X17566390Y-36962930D01*
X17566390Y-36962930D02*
X17590200Y-36915311D01*
X17590200Y-36915311D02*
X17614009Y-36891501D01*
X17614009Y-36891501D02*
X17661628Y-36867692D01*
X17661628Y-36867692D02*
X17804485Y-36867692D01*
X17804485Y-36867692D02*
X17852104Y-36891501D01*
X17852104Y-36891501D02*
X17875914Y-36915311D01*
X17875914Y-36915311D02*
X17899723Y-36962930D01*
X17899723Y-36962930D02*
X17899723Y-37058168D01*
X17899723Y-37058168D02*
X17875914Y-37105787D01*
X17566390Y-37343882D02*
X17899723Y-37343882D01*
X18066390Y-37343882D02*
X18042580Y-37320073D01*
X18042580Y-37320073D02*
X18018771Y-37343882D01*
X18018771Y-37343882D02*
X18042580Y-37367692D01*
X18042580Y-37367692D02*
X18066390Y-37343882D01*
X18066390Y-37343882D02*
X18018771Y-37343882D01*
X17590200Y-37772453D02*
X17566390Y-37724834D01*
X17566390Y-37724834D02*
X17566390Y-37629596D01*
X17566390Y-37629596D02*
X17590200Y-37581977D01*
X17590200Y-37581977D02*
X17637819Y-37558168D01*
X17637819Y-37558168D02*
X17828295Y-37558168D01*
X17828295Y-37558168D02*
X17875914Y-37581977D01*
X17875914Y-37581977D02*
X17899723Y-37629596D01*
X17899723Y-37629596D02*
X17899723Y-37724834D01*
X17899723Y-37724834D02*
X17875914Y-37772453D01*
X17875914Y-37772453D02*
X17828295Y-37796263D01*
X17828295Y-37796263D02*
X17780676Y-37796263D01*
X17780676Y-37796263D02*
X17733057Y-37558168D01*
X17590200Y-37986739D02*
X17566390Y-38034358D01*
X17566390Y-38034358D02*
X17566390Y-38129596D01*
X17566390Y-38129596D02*
X17590200Y-38177215D01*
X17590200Y-38177215D02*
X17637819Y-38201024D01*
X17637819Y-38201024D02*
X17661628Y-38201024D01*
X17661628Y-38201024D02*
X17709247Y-38177215D01*
X17709247Y-38177215D02*
X17733057Y-38129596D01*
X17733057Y-38129596D02*
X17733057Y-38058167D01*
X17733057Y-38058167D02*
X17756866Y-38010548D01*
X17756866Y-38010548D02*
X17804485Y-37986739D01*
X17804485Y-37986739D02*
X17828295Y-37986739D01*
X17828295Y-37986739D02*
X17875914Y-38010548D01*
X17875914Y-38010548D02*
X17899723Y-38058167D01*
X17899723Y-38058167D02*
X17899723Y-38129596D01*
X17899723Y-38129596D02*
X17875914Y-38177215D01*
X17590200Y-38439120D02*
X17566390Y-38439120D01*
X17566390Y-38439120D02*
X17518771Y-38415310D01*
X17518771Y-38415310D02*
X17494961Y-38391501D01*
X18018771Y-39010548D02*
X18042580Y-39034357D01*
X18042580Y-39034357D02*
X18066390Y-39081976D01*
X18066390Y-39081976D02*
X18066390Y-39201024D01*
X18066390Y-39201024D02*
X18042580Y-39248643D01*
X18042580Y-39248643D02*
X18018771Y-39272452D01*
X18018771Y-39272452D02*
X17971152Y-39296262D01*
X17971152Y-39296262D02*
X17923533Y-39296262D01*
X17923533Y-39296262D02*
X17852104Y-39272452D01*
X17852104Y-39272452D02*
X17566390Y-38986738D01*
X17566390Y-38986738D02*
X17566390Y-39296262D01*
X18066390Y-39605785D02*
X18066390Y-39653404D01*
X18066390Y-39653404D02*
X18042580Y-39701023D01*
X18042580Y-39701023D02*
X18018771Y-39724833D01*
X18018771Y-39724833D02*
X17971152Y-39748642D01*
X17971152Y-39748642D02*
X17875914Y-39772452D01*
X17875914Y-39772452D02*
X17756866Y-39772452D01*
X17756866Y-39772452D02*
X17661628Y-39748642D01*
X17661628Y-39748642D02*
X17614009Y-39724833D01*
X17614009Y-39724833D02*
X17590200Y-39701023D01*
X17590200Y-39701023D02*
X17566390Y-39653404D01*
X17566390Y-39653404D02*
X17566390Y-39605785D01*
X17566390Y-39605785D02*
X17590200Y-39558166D01*
X17590200Y-39558166D02*
X17614009Y-39534357D01*
X17614009Y-39534357D02*
X17661628Y-39510547D01*
X17661628Y-39510547D02*
X17756866Y-39486738D01*
X17756866Y-39486738D02*
X17875914Y-39486738D01*
X17875914Y-39486738D02*
X17971152Y-39510547D01*
X17971152Y-39510547D02*
X18018771Y-39534357D01*
X18018771Y-39534357D02*
X18042580Y-39558166D01*
X18042580Y-39558166D02*
X18066390Y-39605785D01*
X18018771Y-39962928D02*
X18042580Y-39986737D01*
X18042580Y-39986737D02*
X18066390Y-40034356D01*
X18066390Y-40034356D02*
X18066390Y-40153404D01*
X18066390Y-40153404D02*
X18042580Y-40201023D01*
X18042580Y-40201023D02*
X18018771Y-40224832D01*
X18018771Y-40224832D02*
X17971152Y-40248642D01*
X17971152Y-40248642D02*
X17923533Y-40248642D01*
X17923533Y-40248642D02*
X17852104Y-40224832D01*
X17852104Y-40224832D02*
X17566390Y-39939118D01*
X17566390Y-39939118D02*
X17566390Y-40248642D01*
X18066390Y-40701022D02*
X18066390Y-40462927D01*
X18066390Y-40462927D02*
X17828295Y-40439118D01*
X17828295Y-40439118D02*
X17852104Y-40462927D01*
X17852104Y-40462927D02*
X17875914Y-40510546D01*
X17875914Y-40510546D02*
X17875914Y-40629594D01*
X17875914Y-40629594D02*
X17852104Y-40677213D01*
X17852104Y-40677213D02*
X17828295Y-40701022D01*
X17828295Y-40701022D02*
X17780676Y-40724832D01*
X17780676Y-40724832D02*
X17661628Y-40724832D01*
X17661628Y-40724832D02*
X17614009Y-40701022D01*
X17614009Y-40701022D02*
X17590200Y-40677213D01*
X17590200Y-40677213D02*
X17566390Y-40629594D01*
X17566390Y-40629594D02*
X17566390Y-40510546D01*
X17566390Y-40510546D02*
X17590200Y-40462927D01*
X17590200Y-40462927D02*
X17614009Y-40439118D01*
X17614009Y-40939117D02*
X17590200Y-40962927D01*
X17590200Y-40962927D02*
X17566390Y-40939117D01*
X17566390Y-40939117D02*
X17590200Y-40915308D01*
X17590200Y-40915308D02*
X17614009Y-40939117D01*
X17614009Y-40939117D02*
X17566390Y-40939117D01*
D11*
X20775190Y-22551906D02*
X20775190Y-22313811D01*
X20775190Y-22313811D02*
X20537095Y-22290002D01*
X20537095Y-22290002D02*
X20560904Y-22313811D01*
X20560904Y-22313811D02*
X20584714Y-22361430D01*
X20584714Y-22361430D02*
X20584714Y-22480478D01*
X20584714Y-22480478D02*
X20560904Y-22528097D01*
X20560904Y-22528097D02*
X20537095Y-22551906D01*
X20537095Y-22551906D02*
X20489476Y-22575716D01*
X20489476Y-22575716D02*
X20370428Y-22575716D01*
X20370428Y-22575716D02*
X20322809Y-22551906D01*
X20322809Y-22551906D02*
X20299000Y-22528097D01*
X20299000Y-22528097D02*
X20275190Y-22480478D01*
X20275190Y-22480478D02*
X20275190Y-22361430D01*
X20275190Y-22361430D02*
X20299000Y-22313811D01*
X20299000Y-22313811D02*
X20322809Y-22290002D01*
X20775190Y-22718573D02*
X20275190Y-22885239D01*
X20275190Y-22885239D02*
X20775190Y-23051906D01*
X20299000Y-24718571D02*
X20275190Y-24789999D01*
X20275190Y-24789999D02*
X20275190Y-24909047D01*
X20275190Y-24909047D02*
X20299000Y-24956666D01*
X20299000Y-24956666D02*
X20322809Y-24980475D01*
X20322809Y-24980475D02*
X20370428Y-25004285D01*
X20370428Y-25004285D02*
X20418047Y-25004285D01*
X20418047Y-25004285D02*
X20465666Y-24980475D01*
X20465666Y-24980475D02*
X20489476Y-24956666D01*
X20489476Y-24956666D02*
X20513285Y-24909047D01*
X20513285Y-24909047D02*
X20537095Y-24813809D01*
X20537095Y-24813809D02*
X20560904Y-24766190D01*
X20560904Y-24766190D02*
X20584714Y-24742380D01*
X20584714Y-24742380D02*
X20632333Y-24718571D01*
X20632333Y-24718571D02*
X20679952Y-24718571D01*
X20679952Y-24718571D02*
X20727571Y-24742380D01*
X20727571Y-24742380D02*
X20751380Y-24766190D01*
X20751380Y-24766190D02*
X20775190Y-24813809D01*
X20775190Y-24813809D02*
X20775190Y-24932856D01*
X20775190Y-24932856D02*
X20751380Y-25004285D01*
X20275190Y-25218570D02*
X20775190Y-25218570D01*
X20751380Y-25718570D02*
X20775190Y-25670951D01*
X20775190Y-25670951D02*
X20775190Y-25599522D01*
X20775190Y-25599522D02*
X20751380Y-25528094D01*
X20751380Y-25528094D02*
X20703761Y-25480475D01*
X20703761Y-25480475D02*
X20656142Y-25456665D01*
X20656142Y-25456665D02*
X20560904Y-25432856D01*
X20560904Y-25432856D02*
X20489476Y-25432856D01*
X20489476Y-25432856D02*
X20394238Y-25456665D01*
X20394238Y-25456665D02*
X20346619Y-25480475D01*
X20346619Y-25480475D02*
X20299000Y-25528094D01*
X20299000Y-25528094D02*
X20275190Y-25599522D01*
X20275190Y-25599522D02*
X20275190Y-25647141D01*
X20275190Y-25647141D02*
X20299000Y-25718570D01*
X20299000Y-25718570D02*
X20322809Y-25742379D01*
X20322809Y-25742379D02*
X20489476Y-25742379D01*
X20489476Y-25742379D02*
X20489476Y-25647141D01*
X20751380Y-27742378D02*
X20775190Y-27694759D01*
X20775190Y-27694759D02*
X20775190Y-27623330D01*
X20775190Y-27623330D02*
X20751380Y-27551902D01*
X20751380Y-27551902D02*
X20703761Y-27504283D01*
X20703761Y-27504283D02*
X20656142Y-27480473D01*
X20656142Y-27480473D02*
X20560904Y-27456664D01*
X20560904Y-27456664D02*
X20489476Y-27456664D01*
X20489476Y-27456664D02*
X20394238Y-27480473D01*
X20394238Y-27480473D02*
X20346619Y-27504283D01*
X20346619Y-27504283D02*
X20299000Y-27551902D01*
X20299000Y-27551902D02*
X20275190Y-27623330D01*
X20275190Y-27623330D02*
X20275190Y-27670949D01*
X20275190Y-27670949D02*
X20299000Y-27742378D01*
X20299000Y-27742378D02*
X20322809Y-27766187D01*
X20322809Y-27766187D02*
X20489476Y-27766187D01*
X20489476Y-27766187D02*
X20489476Y-27670949D01*
X20275190Y-27980473D02*
X20775190Y-27980473D01*
X20775190Y-27980473D02*
X20275190Y-28266187D01*
X20275190Y-28266187D02*
X20775190Y-28266187D01*
X20275190Y-28504283D02*
X20775190Y-28504283D01*
X20775190Y-28504283D02*
X20775190Y-28623331D01*
X20775190Y-28623331D02*
X20751380Y-28694759D01*
X20751380Y-28694759D02*
X20703761Y-28742378D01*
X20703761Y-28742378D02*
X20656142Y-28766188D01*
X20656142Y-28766188D02*
X20560904Y-28789997D01*
X20560904Y-28789997D02*
X20489476Y-28789997D01*
X20489476Y-28789997D02*
X20394238Y-28766188D01*
X20394238Y-28766188D02*
X20346619Y-28742378D01*
X20346619Y-28742378D02*
X20299000Y-28694759D01*
X20299000Y-28694759D02*
X20275190Y-28623331D01*
X20275190Y-28623331D02*
X20275190Y-28504283D01*
X45298716Y-22107690D02*
X45298716Y-22607690D01*
X45298716Y-22607690D02*
X45013002Y-22107690D01*
X45013002Y-22107690D02*
X45013002Y-22607690D01*
X44489192Y-22107690D02*
X44655858Y-22345785D01*
X44774906Y-22107690D02*
X44774906Y-22607690D01*
X44774906Y-22607690D02*
X44584430Y-22607690D01*
X44584430Y-22607690D02*
X44536811Y-22583880D01*
X44536811Y-22583880D02*
X44513001Y-22560071D01*
X44513001Y-22560071D02*
X44489192Y-22512452D01*
X44489192Y-22512452D02*
X44489192Y-22441023D01*
X44489192Y-22441023D02*
X44513001Y-22393404D01*
X44513001Y-22393404D02*
X44536811Y-22369595D01*
X44536811Y-22369595D02*
X44584430Y-22345785D01*
X44584430Y-22345785D02*
X44774906Y-22345785D01*
X44298715Y-22131500D02*
X44227287Y-22107690D01*
X44227287Y-22107690D02*
X44108239Y-22107690D01*
X44108239Y-22107690D02*
X44060620Y-22131500D01*
X44060620Y-22131500D02*
X44036811Y-22155309D01*
X44036811Y-22155309D02*
X44013001Y-22202928D01*
X44013001Y-22202928D02*
X44013001Y-22250547D01*
X44013001Y-22250547D02*
X44036811Y-22298166D01*
X44036811Y-22298166D02*
X44060620Y-22321976D01*
X44060620Y-22321976D02*
X44108239Y-22345785D01*
X44108239Y-22345785D02*
X44203477Y-22369595D01*
X44203477Y-22369595D02*
X44251096Y-22393404D01*
X44251096Y-22393404D02*
X44274906Y-22417214D01*
X44274906Y-22417214D02*
X44298715Y-22464833D01*
X44298715Y-22464833D02*
X44298715Y-22512452D01*
X44298715Y-22512452D02*
X44274906Y-22560071D01*
X44274906Y-22560071D02*
X44251096Y-22583880D01*
X44251096Y-22583880D02*
X44203477Y-22607690D01*
X44203477Y-22607690D02*
X44084430Y-22607690D01*
X44084430Y-22607690D02*
X44013001Y-22583880D01*
X43870144Y-22607690D02*
X43584430Y-22607690D01*
X43727287Y-22107690D02*
X43727287Y-22607690D01*
X43060621Y-22131500D02*
X42989193Y-22107690D01*
X42989193Y-22107690D02*
X42870145Y-22107690D01*
X42870145Y-22107690D02*
X42822526Y-22131500D01*
X42822526Y-22131500D02*
X42798717Y-22155309D01*
X42798717Y-22155309D02*
X42774907Y-22202928D01*
X42774907Y-22202928D02*
X42774907Y-22250547D01*
X42774907Y-22250547D02*
X42798717Y-22298166D01*
X42798717Y-22298166D02*
X42822526Y-22321976D01*
X42822526Y-22321976D02*
X42870145Y-22345785D01*
X42870145Y-22345785D02*
X42965383Y-22369595D01*
X42965383Y-22369595D02*
X43013002Y-22393404D01*
X43013002Y-22393404D02*
X43036812Y-22417214D01*
X43036812Y-22417214D02*
X43060621Y-22464833D01*
X43060621Y-22464833D02*
X43060621Y-22512452D01*
X43060621Y-22512452D02*
X43036812Y-22560071D01*
X43036812Y-22560071D02*
X43013002Y-22583880D01*
X43013002Y-22583880D02*
X42965383Y-22607690D01*
X42965383Y-22607690D02*
X42846336Y-22607690D01*
X42846336Y-22607690D02*
X42774907Y-22583880D01*
X42608241Y-22607690D02*
X42489193Y-22107690D01*
X42489193Y-22107690D02*
X42393955Y-22464833D01*
X42393955Y-22464833D02*
X42298717Y-22107690D01*
X42298717Y-22107690D02*
X42179670Y-22607690D01*
X41989193Y-22107690D02*
X41989193Y-22607690D01*
X41989193Y-22607690D02*
X41870145Y-22607690D01*
X41870145Y-22607690D02*
X41798717Y-22583880D01*
X41798717Y-22583880D02*
X41751098Y-22536261D01*
X41751098Y-22536261D02*
X41727288Y-22488642D01*
X41727288Y-22488642D02*
X41703479Y-22393404D01*
X41703479Y-22393404D02*
X41703479Y-22321976D01*
X41703479Y-22321976D02*
X41727288Y-22226738D01*
X41727288Y-22226738D02*
X41751098Y-22179119D01*
X41751098Y-22179119D02*
X41798717Y-22131500D01*
X41798717Y-22131500D02*
X41870145Y-22107690D01*
X41870145Y-22107690D02*
X41989193Y-22107690D01*
X41489193Y-22107690D02*
X41489193Y-22607690D01*
X41155860Y-22607690D02*
X41060622Y-22607690D01*
X41060622Y-22607690D02*
X41013003Y-22583880D01*
X41013003Y-22583880D02*
X40965384Y-22536261D01*
X40965384Y-22536261D02*
X40941574Y-22441023D01*
X40941574Y-22441023D02*
X40941574Y-22274357D01*
X40941574Y-22274357D02*
X40965384Y-22179119D01*
X40965384Y-22179119D02*
X41013003Y-22131500D01*
X41013003Y-22131500D02*
X41060622Y-22107690D01*
X41060622Y-22107690D02*
X41155860Y-22107690D01*
X41155860Y-22107690D02*
X41203479Y-22131500D01*
X41203479Y-22131500D02*
X41251098Y-22179119D01*
X41251098Y-22179119D02*
X41274907Y-22274357D01*
X41274907Y-22274357D02*
X41274907Y-22441023D01*
X41274907Y-22441023D02*
X41251098Y-22536261D01*
X41251098Y-22536261D02*
X41203479Y-22583880D01*
X41203479Y-22583880D02*
X41155860Y-22607690D01*
X40084431Y-22583880D02*
X40132050Y-22607690D01*
X40132050Y-22607690D02*
X40203479Y-22607690D01*
X40203479Y-22607690D02*
X40274907Y-22583880D01*
X40274907Y-22583880D02*
X40322526Y-22536261D01*
X40322526Y-22536261D02*
X40346336Y-22488642D01*
X40346336Y-22488642D02*
X40370145Y-22393404D01*
X40370145Y-22393404D02*
X40370145Y-22321976D01*
X40370145Y-22321976D02*
X40346336Y-22226738D01*
X40346336Y-22226738D02*
X40322526Y-22179119D01*
X40322526Y-22179119D02*
X40274907Y-22131500D01*
X40274907Y-22131500D02*
X40203479Y-22107690D01*
X40203479Y-22107690D02*
X40155860Y-22107690D01*
X40155860Y-22107690D02*
X40084431Y-22131500D01*
X40084431Y-22131500D02*
X40060622Y-22155309D01*
X40060622Y-22155309D02*
X40060622Y-22321976D01*
X40060622Y-22321976D02*
X40155860Y-22321976D01*
X39846336Y-22107690D02*
X39846336Y-22607690D01*
X39846336Y-22607690D02*
X39560622Y-22107690D01*
X39560622Y-22107690D02*
X39560622Y-22607690D01*
X39322526Y-22107690D02*
X39322526Y-22607690D01*
X39322526Y-22607690D02*
X39203478Y-22607690D01*
X39203478Y-22607690D02*
X39132050Y-22583880D01*
X39132050Y-22583880D02*
X39084431Y-22536261D01*
X39084431Y-22536261D02*
X39060621Y-22488642D01*
X39060621Y-22488642D02*
X39036812Y-22393404D01*
X39036812Y-22393404D02*
X39036812Y-22321976D01*
X39036812Y-22321976D02*
X39060621Y-22226738D01*
X39060621Y-22226738D02*
X39084431Y-22179119D01*
X39084431Y-22179119D02*
X39132050Y-22131500D01*
X39132050Y-22131500D02*
X39203478Y-22107690D01*
X39203478Y-22107690D02*
X39322526Y-22107690D01*
X38465383Y-22131500D02*
X38393955Y-22107690D01*
X38393955Y-22107690D02*
X38274907Y-22107690D01*
X38274907Y-22107690D02*
X38227288Y-22131500D01*
X38227288Y-22131500D02*
X38203479Y-22155309D01*
X38203479Y-22155309D02*
X38179669Y-22202928D01*
X38179669Y-22202928D02*
X38179669Y-22250547D01*
X38179669Y-22250547D02*
X38203479Y-22298166D01*
X38203479Y-22298166D02*
X38227288Y-22321976D01*
X38227288Y-22321976D02*
X38274907Y-22345785D01*
X38274907Y-22345785D02*
X38370145Y-22369595D01*
X38370145Y-22369595D02*
X38417764Y-22393404D01*
X38417764Y-22393404D02*
X38441574Y-22417214D01*
X38441574Y-22417214D02*
X38465383Y-22464833D01*
X38465383Y-22464833D02*
X38465383Y-22512452D01*
X38465383Y-22512452D02*
X38441574Y-22560071D01*
X38441574Y-22560071D02*
X38417764Y-22583880D01*
X38417764Y-22583880D02*
X38370145Y-22607690D01*
X38370145Y-22607690D02*
X38251098Y-22607690D01*
X38251098Y-22607690D02*
X38179669Y-22583880D01*
X38013003Y-22607690D02*
X37893955Y-22107690D01*
X37893955Y-22107690D02*
X37798717Y-22464833D01*
X37798717Y-22464833D02*
X37703479Y-22107690D01*
X37703479Y-22107690D02*
X37584432Y-22607690D01*
X37108241Y-22155309D02*
X37132050Y-22131500D01*
X37132050Y-22131500D02*
X37203479Y-22107690D01*
X37203479Y-22107690D02*
X37251098Y-22107690D01*
X37251098Y-22107690D02*
X37322526Y-22131500D01*
X37322526Y-22131500D02*
X37370145Y-22179119D01*
X37370145Y-22179119D02*
X37393955Y-22226738D01*
X37393955Y-22226738D02*
X37417764Y-22321976D01*
X37417764Y-22321976D02*
X37417764Y-22393404D01*
X37417764Y-22393404D02*
X37393955Y-22488642D01*
X37393955Y-22488642D02*
X37370145Y-22536261D01*
X37370145Y-22536261D02*
X37322526Y-22583880D01*
X37322526Y-22583880D02*
X37251098Y-22607690D01*
X37251098Y-22607690D02*
X37203479Y-22607690D01*
X37203479Y-22607690D02*
X37132050Y-22583880D01*
X37132050Y-22583880D02*
X37108241Y-22560071D01*
X36655860Y-22107690D02*
X36893955Y-22107690D01*
X36893955Y-22107690D02*
X36893955Y-22607690D01*
X36489193Y-22107690D02*
X36489193Y-22607690D01*
X36203479Y-22107690D02*
X36417764Y-22393404D01*
X36203479Y-22607690D02*
X36489193Y-22321976D01*
X35274908Y-22607690D02*
X34965384Y-22607690D01*
X34965384Y-22607690D02*
X35132051Y-22417214D01*
X35132051Y-22417214D02*
X35060622Y-22417214D01*
X35060622Y-22417214D02*
X35013003Y-22393404D01*
X35013003Y-22393404D02*
X34989194Y-22369595D01*
X34989194Y-22369595D02*
X34965384Y-22321976D01*
X34965384Y-22321976D02*
X34965384Y-22202928D01*
X34965384Y-22202928D02*
X34989194Y-22155309D01*
X34989194Y-22155309D02*
X35013003Y-22131500D01*
X35013003Y-22131500D02*
X35060622Y-22107690D01*
X35060622Y-22107690D02*
X35203479Y-22107690D01*
X35203479Y-22107690D02*
X35251098Y-22131500D01*
X35251098Y-22131500D02*
X35274908Y-22155309D01*
X34751099Y-22155309D02*
X34727289Y-22131500D01*
X34727289Y-22131500D02*
X34751099Y-22107690D01*
X34751099Y-22107690D02*
X34774908Y-22131500D01*
X34774908Y-22131500D02*
X34751099Y-22155309D01*
X34751099Y-22155309D02*
X34751099Y-22107690D01*
X34560623Y-22607690D02*
X34251099Y-22607690D01*
X34251099Y-22607690D02*
X34417766Y-22417214D01*
X34417766Y-22417214D02*
X34346337Y-22417214D01*
X34346337Y-22417214D02*
X34298718Y-22393404D01*
X34298718Y-22393404D02*
X34274909Y-22369595D01*
X34274909Y-22369595D02*
X34251099Y-22321976D01*
X34251099Y-22321976D02*
X34251099Y-22202928D01*
X34251099Y-22202928D02*
X34274909Y-22155309D01*
X34274909Y-22155309D02*
X34298718Y-22131500D01*
X34298718Y-22131500D02*
X34346337Y-22107690D01*
X34346337Y-22107690D02*
X34489194Y-22107690D01*
X34489194Y-22107690D02*
X34536813Y-22131500D01*
X34536813Y-22131500D02*
X34560623Y-22155309D01*
X34108242Y-22607690D02*
X33941576Y-22107690D01*
X33941576Y-22107690D02*
X33774909Y-22607690D01*
D12*
X35179580Y-42956666D02*
X35227200Y-43004285D01*
X35227200Y-43004285D02*
X35274819Y-43147142D01*
X35274819Y-43147142D02*
X35274819Y-43242380D01*
X35274819Y-43242380D02*
X35227200Y-43385237D01*
X35227200Y-43385237D02*
X35131961Y-43480475D01*
X35131961Y-43480475D02*
X35036723Y-43528094D01*
X35036723Y-43528094D02*
X34846247Y-43575713D01*
X34846247Y-43575713D02*
X34703390Y-43575713D01*
X34703390Y-43575713D02*
X34512914Y-43528094D01*
X34512914Y-43528094D02*
X34417676Y-43480475D01*
X34417676Y-43480475D02*
X34322438Y-43385237D01*
X34322438Y-43385237D02*
X34274819Y-43242380D01*
X34274819Y-43242380D02*
X34274819Y-43147142D01*
X34274819Y-43147142D02*
X34322438Y-43004285D01*
X34322438Y-43004285D02*
X34370057Y-42956666D01*
X34608152Y-42099523D02*
X35274819Y-42099523D01*
X34227200Y-42337618D02*
X34941485Y-42575713D01*
X34941485Y-42575713D02*
X34941485Y-41956666D01*
X38349580Y-42956666D02*
X38397200Y-43004285D01*
X38397200Y-43004285D02*
X38444819Y-43147142D01*
X38444819Y-43147142D02*
X38444819Y-43242380D01*
X38444819Y-43242380D02*
X38397200Y-43385237D01*
X38397200Y-43385237D02*
X38301961Y-43480475D01*
X38301961Y-43480475D02*
X38206723Y-43528094D01*
X38206723Y-43528094D02*
X38016247Y-43575713D01*
X38016247Y-43575713D02*
X37873390Y-43575713D01*
X37873390Y-43575713D02*
X37682914Y-43528094D01*
X37682914Y-43528094D02*
X37587676Y-43480475D01*
X37587676Y-43480475D02*
X37492438Y-43385237D01*
X37492438Y-43385237D02*
X37444819Y-43242380D01*
X37444819Y-43242380D02*
X37444819Y-43147142D01*
X37444819Y-43147142D02*
X37492438Y-43004285D01*
X37492438Y-43004285D02*
X37540057Y-42956666D01*
X37444819Y-42051904D02*
X37444819Y-42528094D01*
X37444819Y-42528094D02*
X37921009Y-42575713D01*
X37921009Y-42575713D02*
X37873390Y-42528094D01*
X37873390Y-42528094D02*
X37825771Y-42432856D01*
X37825771Y-42432856D02*
X37825771Y-42194761D01*
X37825771Y-42194761D02*
X37873390Y-42099523D01*
X37873390Y-42099523D02*
X37921009Y-42051904D01*
X37921009Y-42051904D02*
X38016247Y-42004285D01*
X38016247Y-42004285D02*
X38254342Y-42004285D01*
X38254342Y-42004285D02*
X38349580Y-42051904D01*
X38349580Y-42051904D02*
X38397200Y-42099523D01*
X38397200Y-42099523D02*
X38444819Y-42194761D01*
X38444819Y-42194761D02*
X38444819Y-42432856D01*
X38444819Y-42432856D02*
X38397200Y-42528094D01*
X38397200Y-42528094D02*
X38349580Y-42575713D01*
X27166666Y-49071009D02*
X26833333Y-49071009D01*
X26833333Y-49594819D02*
X26833333Y-48594819D01*
X26833333Y-48594819D02*
X27309523Y-48594819D01*
X28214285Y-49594819D02*
X27642857Y-49594819D01*
X27928571Y-49594819D02*
X27928571Y-48594819D01*
X27928571Y-48594819D02*
X27833333Y-48737676D01*
X27833333Y-48737676D02*
X27738095Y-48832914D01*
X27738095Y-48832914D02*
X27642857Y-48880533D01*
X31524819Y-20623333D02*
X32239104Y-20623333D01*
X32239104Y-20623333D02*
X32381961Y-20670952D01*
X32381961Y-20670952D02*
X32477200Y-20766190D01*
X32477200Y-20766190D02*
X32524819Y-20909047D01*
X32524819Y-20909047D02*
X32524819Y-21004285D01*
X31524819Y-20242380D02*
X31524819Y-19623333D01*
X31524819Y-19623333D02*
X31905771Y-19956666D01*
X31905771Y-19956666D02*
X31905771Y-19813809D01*
X31905771Y-19813809D02*
X31953390Y-19718571D01*
X31953390Y-19718571D02*
X32001009Y-19670952D01*
X32001009Y-19670952D02*
X32096247Y-19623333D01*
X32096247Y-19623333D02*
X32334342Y-19623333D01*
X32334342Y-19623333D02*
X32429580Y-19670952D01*
X32429580Y-19670952D02*
X32477200Y-19718571D01*
X32477200Y-19718571D02*
X32524819Y-19813809D01*
X32524819Y-19813809D02*
X32524819Y-20099523D01*
X32524819Y-20099523D02*
X32477200Y-20194761D01*
X32477200Y-20194761D02*
X32429580Y-20242380D01*
X68333333Y-31424819D02*
X68000000Y-30948628D01*
X67761905Y-31424819D02*
X67761905Y-30424819D01*
X67761905Y-30424819D02*
X68142857Y-30424819D01*
X68142857Y-30424819D02*
X68238095Y-30472438D01*
X68238095Y-30472438D02*
X68285714Y-30520057D01*
X68285714Y-30520057D02*
X68333333Y-30615295D01*
X68333333Y-30615295D02*
X68333333Y-30758152D01*
X68333333Y-30758152D02*
X68285714Y-30853390D01*
X68285714Y-30853390D02*
X68238095Y-30901009D01*
X68238095Y-30901009D02*
X68142857Y-30948628D01*
X68142857Y-30948628D02*
X67761905Y-30948628D01*
X68904762Y-30853390D02*
X68809524Y-30805771D01*
X68809524Y-30805771D02*
X68761905Y-30758152D01*
X68761905Y-30758152D02*
X68714286Y-30662914D01*
X68714286Y-30662914D02*
X68714286Y-30615295D01*
X68714286Y-30615295D02*
X68761905Y-30520057D01*
X68761905Y-30520057D02*
X68809524Y-30472438D01*
X68809524Y-30472438D02*
X68904762Y-30424819D01*
X68904762Y-30424819D02*
X69095238Y-30424819D01*
X69095238Y-30424819D02*
X69190476Y-30472438D01*
X69190476Y-30472438D02*
X69238095Y-30520057D01*
X69238095Y-30520057D02*
X69285714Y-30615295D01*
X69285714Y-30615295D02*
X69285714Y-30662914D01*
X69285714Y-30662914D02*
X69238095Y-30758152D01*
X69238095Y-30758152D02*
X69190476Y-30805771D01*
X69190476Y-30805771D02*
X69095238Y-30853390D01*
X69095238Y-30853390D02*
X68904762Y-30853390D01*
X68904762Y-30853390D02*
X68809524Y-30901009D01*
X68809524Y-30901009D02*
X68761905Y-30948628D01*
X68761905Y-30948628D02*
X68714286Y-31043866D01*
X68714286Y-31043866D02*
X68714286Y-31234342D01*
X68714286Y-31234342D02*
X68761905Y-31329580D01*
X68761905Y-31329580D02*
X68809524Y-31377200D01*
X68809524Y-31377200D02*
X68904762Y-31424819D01*
X68904762Y-31424819D02*
X69095238Y-31424819D01*
X69095238Y-31424819D02*
X69190476Y-31377200D01*
X69190476Y-31377200D02*
X69238095Y-31329580D01*
X69238095Y-31329580D02*
X69285714Y-31234342D01*
X69285714Y-31234342D02*
X69285714Y-31043866D01*
X69285714Y-31043866D02*
X69238095Y-30948628D01*
X69238095Y-30948628D02*
X69190476Y-30901009D01*
X69190476Y-30901009D02*
X69095238Y-30853390D01*
X54263095Y-20439819D02*
X54263095Y-21249342D01*
X54263095Y-21249342D02*
X54310714Y-21344580D01*
X54310714Y-21344580D02*
X54358333Y-21392200D01*
X54358333Y-21392200D02*
X54453571Y-21439819D01*
X54453571Y-21439819D02*
X54644047Y-21439819D01*
X54644047Y-21439819D02*
X54739285Y-21392200D01*
X54739285Y-21392200D02*
X54786904Y-21344580D01*
X54786904Y-21344580D02*
X54834523Y-21249342D01*
X54834523Y-21249342D02*
X54834523Y-20439819D01*
X55215476Y-20439819D02*
X55834523Y-20439819D01*
X55834523Y-20439819D02*
X55501190Y-20820771D01*
X55501190Y-20820771D02*
X55644047Y-20820771D01*
X55644047Y-20820771D02*
X55739285Y-20868390D01*
X55739285Y-20868390D02*
X55786904Y-20916009D01*
X55786904Y-20916009D02*
X55834523Y-21011247D01*
X55834523Y-21011247D02*
X55834523Y-21249342D01*
X55834523Y-21249342D02*
X55786904Y-21344580D01*
X55786904Y-21344580D02*
X55739285Y-21392200D01*
X55739285Y-21392200D02*
X55644047Y-21439819D01*
X55644047Y-21439819D02*
X55358333Y-21439819D01*
X55358333Y-21439819D02*
X55263095Y-21392200D01*
X55263095Y-21392200D02*
X55215476Y-21344580D01*
X44307142Y-48924819D02*
X43973809Y-48448628D01*
X43735714Y-48924819D02*
X43735714Y-47924819D01*
X43735714Y-47924819D02*
X44116666Y-47924819D01*
X44116666Y-47924819D02*
X44211904Y-47972438D01*
X44211904Y-47972438D02*
X44259523Y-48020057D01*
X44259523Y-48020057D02*
X44307142Y-48115295D01*
X44307142Y-48115295D02*
X44307142Y-48258152D01*
X44307142Y-48258152D02*
X44259523Y-48353390D01*
X44259523Y-48353390D02*
X44211904Y-48401009D01*
X44211904Y-48401009D02*
X44116666Y-48448628D01*
X44116666Y-48448628D02*
X43735714Y-48448628D01*
X45259523Y-48924819D02*
X44688095Y-48924819D01*
X44973809Y-48924819D02*
X44973809Y-47924819D01*
X44973809Y-47924819D02*
X44878571Y-48067676D01*
X44878571Y-48067676D02*
X44783333Y-48162914D01*
X44783333Y-48162914D02*
X44688095Y-48210533D01*
X46211904Y-48924819D02*
X45640476Y-48924819D01*
X45926190Y-48924819D02*
X45926190Y-47924819D01*
X45926190Y-47924819D02*
X45830952Y-48067676D01*
X45830952Y-48067676D02*
X45735714Y-48162914D01*
X45735714Y-48162914D02*
X45640476Y-48210533D01*
X49354819Y-51528094D02*
X48354819Y-51528094D01*
X48354819Y-51528094D02*
X48354819Y-51289999D01*
X48354819Y-51289999D02*
X48402438Y-51147142D01*
X48402438Y-51147142D02*
X48497676Y-51051904D01*
X48497676Y-51051904D02*
X48592914Y-51004285D01*
X48592914Y-51004285D02*
X48783390Y-50956666D01*
X48783390Y-50956666D02*
X48926247Y-50956666D01*
X48926247Y-50956666D02*
X49116723Y-51004285D01*
X49116723Y-51004285D02*
X49211961Y-51051904D01*
X49211961Y-51051904D02*
X49307200Y-51147142D01*
X49307200Y-51147142D02*
X49354819Y-51289999D01*
X49354819Y-51289999D02*
X49354819Y-51528094D01*
X49354819Y-50004285D02*
X49354819Y-50575713D01*
X49354819Y-50289999D02*
X48354819Y-50289999D01*
X48354819Y-50289999D02*
X48497676Y-50385237D01*
X48497676Y-50385237D02*
X48592914Y-50480475D01*
X48592914Y-50480475D02*
X48640533Y-50575713D01*
X36838095Y-50944819D02*
X36838095Y-51754342D01*
X36838095Y-51754342D02*
X36885714Y-51849580D01*
X36885714Y-51849580D02*
X36933333Y-51897200D01*
X36933333Y-51897200D02*
X37028571Y-51944819D01*
X37028571Y-51944819D02*
X37219047Y-51944819D01*
X37219047Y-51944819D02*
X37314285Y-51897200D01*
X37314285Y-51897200D02*
X37361904Y-51849580D01*
X37361904Y-51849580D02*
X37409523Y-51754342D01*
X37409523Y-51754342D02*
X37409523Y-50944819D01*
X38314285Y-51278152D02*
X38314285Y-51944819D01*
X38076190Y-50897200D02*
X37838095Y-51611485D01*
X37838095Y-51611485D02*
X38457142Y-51611485D01*
X60820833Y-53964819D02*
X60344643Y-53964819D01*
X60344643Y-53964819D02*
X60344643Y-52964819D01*
X61677976Y-53964819D02*
X61106548Y-53964819D01*
X61392262Y-53964819D02*
X61392262Y-52964819D01*
X61392262Y-52964819D02*
X61297024Y-53107676D01*
X61297024Y-53107676D02*
X61201786Y-53202914D01*
X61201786Y-53202914D02*
X61106548Y-53250533D01*
X64054819Y-25278094D02*
X63054819Y-25278094D01*
X63054819Y-25278094D02*
X63054819Y-24897142D01*
X63054819Y-24897142D02*
X63102438Y-24801904D01*
X63102438Y-24801904D02*
X63150057Y-24754285D01*
X63150057Y-24754285D02*
X63245295Y-24706666D01*
X63245295Y-24706666D02*
X63388152Y-24706666D01*
X63388152Y-24706666D02*
X63483390Y-24754285D01*
X63483390Y-24754285D02*
X63531009Y-24801904D01*
X63531009Y-24801904D02*
X63578628Y-24897142D01*
X63578628Y-24897142D02*
X63578628Y-25278094D01*
X64054819Y-23754285D02*
X64054819Y-24325713D01*
X64054819Y-24039999D02*
X63054819Y-24039999D01*
X63054819Y-24039999D02*
X63197676Y-24135237D01*
X63197676Y-24135237D02*
X63292914Y-24230475D01*
X63292914Y-24230475D02*
X63340533Y-24325713D01*
X46870833Y-27524819D02*
X46537500Y-27048628D01*
X46299405Y-27524819D02*
X46299405Y-26524819D01*
X46299405Y-26524819D02*
X46680357Y-26524819D01*
X46680357Y-26524819D02*
X46775595Y-26572438D01*
X46775595Y-26572438D02*
X46823214Y-26620057D01*
X46823214Y-26620057D02*
X46870833Y-26715295D01*
X46870833Y-26715295D02*
X46870833Y-26858152D01*
X46870833Y-26858152D02*
X46823214Y-26953390D01*
X46823214Y-26953390D02*
X46775595Y-27001009D01*
X46775595Y-27001009D02*
X46680357Y-27048628D01*
X46680357Y-27048628D02*
X46299405Y-27048628D01*
X47727976Y-26858152D02*
X47727976Y-27524819D01*
X47489881Y-26477200D02*
X47251786Y-27191485D01*
X47251786Y-27191485D02*
X47870833Y-27191485D01*
X46833333Y-31064819D02*
X46500000Y-30588628D01*
X46261905Y-31064819D02*
X46261905Y-30064819D01*
X46261905Y-30064819D02*
X46642857Y-30064819D01*
X46642857Y-30064819D02*
X46738095Y-30112438D01*
X46738095Y-30112438D02*
X46785714Y-30160057D01*
X46785714Y-30160057D02*
X46833333Y-30255295D01*
X46833333Y-30255295D02*
X46833333Y-30398152D01*
X46833333Y-30398152D02*
X46785714Y-30493390D01*
X46785714Y-30493390D02*
X46738095Y-30541009D01*
X46738095Y-30541009D02*
X46642857Y-30588628D01*
X46642857Y-30588628D02*
X46261905Y-30588628D01*
X47738095Y-30064819D02*
X47261905Y-30064819D01*
X47261905Y-30064819D02*
X47214286Y-30541009D01*
X47214286Y-30541009D02*
X47261905Y-30493390D01*
X47261905Y-30493390D02*
X47357143Y-30445771D01*
X47357143Y-30445771D02*
X47595238Y-30445771D01*
X47595238Y-30445771D02*
X47690476Y-30493390D01*
X47690476Y-30493390D02*
X47738095Y-30541009D01*
X47738095Y-30541009D02*
X47785714Y-30636247D01*
X47785714Y-30636247D02*
X47785714Y-30874342D01*
X47785714Y-30874342D02*
X47738095Y-30969580D01*
X47738095Y-30969580D02*
X47690476Y-31017200D01*
X47690476Y-31017200D02*
X47595238Y-31064819D01*
X47595238Y-31064819D02*
X47357143Y-31064819D01*
X47357143Y-31064819D02*
X47261905Y-31017200D01*
X47261905Y-31017200D02*
X47214286Y-30969580D01*
X67907142Y-35244819D02*
X67573809Y-34768628D01*
X67335714Y-35244819D02*
X67335714Y-34244819D01*
X67335714Y-34244819D02*
X67716666Y-34244819D01*
X67716666Y-34244819D02*
X67811904Y-34292438D01*
X67811904Y-34292438D02*
X67859523Y-34340057D01*
X67859523Y-34340057D02*
X67907142Y-34435295D01*
X67907142Y-34435295D02*
X67907142Y-34578152D01*
X67907142Y-34578152D02*
X67859523Y-34673390D01*
X67859523Y-34673390D02*
X67811904Y-34721009D01*
X67811904Y-34721009D02*
X67716666Y-34768628D01*
X67716666Y-34768628D02*
X67335714Y-34768628D01*
X68859523Y-35244819D02*
X68288095Y-35244819D01*
X68573809Y-35244819D02*
X68573809Y-34244819D01*
X68573809Y-34244819D02*
X68478571Y-34387676D01*
X68478571Y-34387676D02*
X68383333Y-34482914D01*
X68383333Y-34482914D02*
X68288095Y-34530533D01*
X69478571Y-34244819D02*
X69573809Y-34244819D01*
X69573809Y-34244819D02*
X69669047Y-34292438D01*
X69669047Y-34292438D02*
X69716666Y-34340057D01*
X69716666Y-34340057D02*
X69764285Y-34435295D01*
X69764285Y-34435295D02*
X69811904Y-34625771D01*
X69811904Y-34625771D02*
X69811904Y-34863866D01*
X69811904Y-34863866D02*
X69764285Y-35054342D01*
X69764285Y-35054342D02*
X69716666Y-35149580D01*
X69716666Y-35149580D02*
X69669047Y-35197200D01*
X69669047Y-35197200D02*
X69573809Y-35244819D01*
X69573809Y-35244819D02*
X69478571Y-35244819D01*
X69478571Y-35244819D02*
X69383333Y-35197200D01*
X69383333Y-35197200D02*
X69335714Y-35149580D01*
X69335714Y-35149580D02*
X69288095Y-35054342D01*
X69288095Y-35054342D02*
X69240476Y-34863866D01*
X69240476Y-34863866D02*
X69240476Y-34625771D01*
X69240476Y-34625771D02*
X69288095Y-34435295D01*
X69288095Y-34435295D02*
X69335714Y-34340057D01*
X69335714Y-34340057D02*
X69383333Y-34292438D01*
X69383333Y-34292438D02*
X69478571Y-34244819D01*
X37261905Y-46424819D02*
X37261905Y-45424819D01*
X37261905Y-45424819D02*
X37500000Y-45424819D01*
X37500000Y-45424819D02*
X37642857Y-45472438D01*
X37642857Y-45472438D02*
X37738095Y-45567676D01*
X37738095Y-45567676D02*
X37785714Y-45662914D01*
X37785714Y-45662914D02*
X37833333Y-45853390D01*
X37833333Y-45853390D02*
X37833333Y-45996247D01*
X37833333Y-45996247D02*
X37785714Y-46186723D01*
X37785714Y-46186723D02*
X37738095Y-46281961D01*
X37738095Y-46281961D02*
X37642857Y-46377200D01*
X37642857Y-46377200D02*
X37500000Y-46424819D01*
X37500000Y-46424819D02*
X37261905Y-46424819D01*
X38214286Y-45520057D02*
X38261905Y-45472438D01*
X38261905Y-45472438D02*
X38357143Y-45424819D01*
X38357143Y-45424819D02*
X38595238Y-45424819D01*
X38595238Y-45424819D02*
X38690476Y-45472438D01*
X38690476Y-45472438D02*
X38738095Y-45520057D01*
X38738095Y-45520057D02*
X38785714Y-45615295D01*
X38785714Y-45615295D02*
X38785714Y-45710533D01*
X38785714Y-45710533D02*
X38738095Y-45853390D01*
X38738095Y-45853390D02*
X38166667Y-46424819D01*
X38166667Y-46424819D02*
X38785714Y-46424819D01*
X62389580Y-27932857D02*
X62437200Y-27980476D01*
X62437200Y-27980476D02*
X62484819Y-28123333D01*
X62484819Y-28123333D02*
X62484819Y-28218571D01*
X62484819Y-28218571D02*
X62437200Y-28361428D01*
X62437200Y-28361428D02*
X62341961Y-28456666D01*
X62341961Y-28456666D02*
X62246723Y-28504285D01*
X62246723Y-28504285D02*
X62056247Y-28551904D01*
X62056247Y-28551904D02*
X61913390Y-28551904D01*
X61913390Y-28551904D02*
X61722914Y-28504285D01*
X61722914Y-28504285D02*
X61627676Y-28456666D01*
X61627676Y-28456666D02*
X61532438Y-28361428D01*
X61532438Y-28361428D02*
X61484819Y-28218571D01*
X61484819Y-28218571D02*
X61484819Y-28123333D01*
X61484819Y-28123333D02*
X61532438Y-27980476D01*
X61532438Y-27980476D02*
X61580057Y-27932857D01*
X62484819Y-26980476D02*
X62484819Y-27551904D01*
X62484819Y-27266190D02*
X61484819Y-27266190D01*
X61484819Y-27266190D02*
X61627676Y-27361428D01*
X61627676Y-27361428D02*
X61722914Y-27456666D01*
X61722914Y-27456666D02*
X61770533Y-27551904D01*
X61580057Y-26599523D02*
X61532438Y-26551904D01*
X61532438Y-26551904D02*
X61484819Y-26456666D01*
X61484819Y-26456666D02*
X61484819Y-26218571D01*
X61484819Y-26218571D02*
X61532438Y-26123333D01*
X61532438Y-26123333D02*
X61580057Y-26075714D01*
X61580057Y-26075714D02*
X61675295Y-26028095D01*
X61675295Y-26028095D02*
X61770533Y-26028095D01*
X61770533Y-26028095D02*
X61913390Y-26075714D01*
X61913390Y-26075714D02*
X62484819Y-26647142D01*
X62484819Y-26647142D02*
X62484819Y-26028095D01*
X18166666Y-19889819D02*
X18166666Y-20604104D01*
X18166666Y-20604104D02*
X18119047Y-20746961D01*
X18119047Y-20746961D02*
X18023809Y-20842200D01*
X18023809Y-20842200D02*
X17880952Y-20889819D01*
X17880952Y-20889819D02*
X17785714Y-20889819D01*
X18595238Y-19985057D02*
X18642857Y-19937438D01*
X18642857Y-19937438D02*
X18738095Y-19889819D01*
X18738095Y-19889819D02*
X18976190Y-19889819D01*
X18976190Y-19889819D02*
X19071428Y-19937438D01*
X19071428Y-19937438D02*
X19119047Y-19985057D01*
X19119047Y-19985057D02*
X19166666Y-20080295D01*
X19166666Y-20080295D02*
X19166666Y-20175533D01*
X19166666Y-20175533D02*
X19119047Y-20318390D01*
X19119047Y-20318390D02*
X18547619Y-20889819D01*
X18547619Y-20889819D02*
X19166666Y-20889819D01*
D11*
X21775190Y-23385239D02*
X21775190Y-23670953D01*
X21275190Y-23528096D02*
X21775190Y-23528096D01*
X21275190Y-23837619D02*
X21775190Y-23837619D01*
X21775190Y-23837619D02*
X21775190Y-24028095D01*
X21775190Y-24028095D02*
X21751380Y-24075714D01*
X21751380Y-24075714D02*
X21727571Y-24099524D01*
X21727571Y-24099524D02*
X21679952Y-24123333D01*
X21679952Y-24123333D02*
X21608523Y-24123333D01*
X21608523Y-24123333D02*
X21560904Y-24099524D01*
X21560904Y-24099524D02*
X21537095Y-24075714D01*
X21537095Y-24075714D02*
X21513285Y-24028095D01*
X21513285Y-24028095D02*
X21513285Y-23837619D01*
X21299000Y-24313810D02*
X21275190Y-24385238D01*
X21275190Y-24385238D02*
X21275190Y-24504286D01*
X21275190Y-24504286D02*
X21299000Y-24551905D01*
X21299000Y-24551905D02*
X21322809Y-24575714D01*
X21322809Y-24575714D02*
X21370428Y-24599524D01*
X21370428Y-24599524D02*
X21418047Y-24599524D01*
X21418047Y-24599524D02*
X21465666Y-24575714D01*
X21465666Y-24575714D02*
X21489476Y-24551905D01*
X21489476Y-24551905D02*
X21513285Y-24504286D01*
X21513285Y-24504286D02*
X21537095Y-24409048D01*
X21537095Y-24409048D02*
X21560904Y-24361429D01*
X21560904Y-24361429D02*
X21584714Y-24337619D01*
X21584714Y-24337619D02*
X21632333Y-24313810D01*
X21632333Y-24313810D02*
X21679952Y-24313810D01*
X21679952Y-24313810D02*
X21727571Y-24337619D01*
X21727571Y-24337619D02*
X21751380Y-24361429D01*
X21751380Y-24361429D02*
X21775190Y-24409048D01*
X21775190Y-24409048D02*
X21775190Y-24528095D01*
X21775190Y-24528095D02*
X21751380Y-24599524D01*
X21299000Y-25170952D02*
X21275190Y-25242380D01*
X21275190Y-25242380D02*
X21275190Y-25361428D01*
X21275190Y-25361428D02*
X21299000Y-25409047D01*
X21299000Y-25409047D02*
X21322809Y-25432856D01*
X21322809Y-25432856D02*
X21370428Y-25456666D01*
X21370428Y-25456666D02*
X21418047Y-25456666D01*
X21418047Y-25456666D02*
X21465666Y-25432856D01*
X21465666Y-25432856D02*
X21489476Y-25409047D01*
X21489476Y-25409047D02*
X21513285Y-25361428D01*
X21513285Y-25361428D02*
X21537095Y-25266190D01*
X21537095Y-25266190D02*
X21560904Y-25218571D01*
X21560904Y-25218571D02*
X21584714Y-25194761D01*
X21584714Y-25194761D02*
X21632333Y-25170952D01*
X21632333Y-25170952D02*
X21679952Y-25170952D01*
X21679952Y-25170952D02*
X21727571Y-25194761D01*
X21727571Y-25194761D02*
X21751380Y-25218571D01*
X21751380Y-25218571D02*
X21775190Y-25266190D01*
X21775190Y-25266190D02*
X21775190Y-25385237D01*
X21775190Y-25385237D02*
X21751380Y-25456666D01*
X21275190Y-25670951D02*
X21775190Y-25670951D01*
X21275190Y-25909046D02*
X21775190Y-25909046D01*
X21775190Y-25909046D02*
X21775190Y-26028094D01*
X21775190Y-26028094D02*
X21751380Y-26099522D01*
X21751380Y-26099522D02*
X21703761Y-26147141D01*
X21703761Y-26147141D02*
X21656142Y-26170951D01*
X21656142Y-26170951D02*
X21560904Y-26194760D01*
X21560904Y-26194760D02*
X21489476Y-26194760D01*
X21489476Y-26194760D02*
X21394238Y-26170951D01*
X21394238Y-26170951D02*
X21346619Y-26147141D01*
X21346619Y-26147141D02*
X21299000Y-26099522D01*
X21299000Y-26099522D02*
X21275190Y-26028094D01*
X21275190Y-26028094D02*
X21275190Y-25909046D01*
X21537095Y-26409046D02*
X21537095Y-26575713D01*
X21275190Y-26647141D02*
X21275190Y-26409046D01*
X21275190Y-26409046D02*
X21775190Y-26409046D01*
X21775190Y-26409046D02*
X21775190Y-26647141D01*
D12*
X56248095Y-28794819D02*
X56248095Y-29604342D01*
X56248095Y-29604342D02*
X56295714Y-29699580D01*
X56295714Y-29699580D02*
X56343333Y-29747200D01*
X56343333Y-29747200D02*
X56438571Y-29794819D01*
X56438571Y-29794819D02*
X56629047Y-29794819D01*
X56629047Y-29794819D02*
X56724285Y-29747200D01*
X56724285Y-29747200D02*
X56771904Y-29699580D01*
X56771904Y-29699580D02*
X56819523Y-29604342D01*
X56819523Y-29604342D02*
X56819523Y-28794819D01*
X57819523Y-29794819D02*
X57248095Y-29794819D01*
X57533809Y-29794819D02*
X57533809Y-28794819D01*
X57533809Y-28794819D02*
X57438571Y-28937676D01*
X57438571Y-28937676D02*
X57343333Y-29032914D01*
X57343333Y-29032914D02*
X57248095Y-29080533D01*
D11*
X55962381Y-41844809D02*
X55724286Y-41844809D01*
X55724286Y-41844809D02*
X55724286Y-41344809D01*
X56414762Y-41797190D02*
X56390953Y-41821000D01*
X56390953Y-41821000D02*
X56319524Y-41844809D01*
X56319524Y-41844809D02*
X56271905Y-41844809D01*
X56271905Y-41844809D02*
X56200477Y-41821000D01*
X56200477Y-41821000D02*
X56152858Y-41773380D01*
X56152858Y-41773380D02*
X56129048Y-41725761D01*
X56129048Y-41725761D02*
X56105239Y-41630523D01*
X56105239Y-41630523D02*
X56105239Y-41559095D01*
X56105239Y-41559095D02*
X56129048Y-41463857D01*
X56129048Y-41463857D02*
X56152858Y-41416238D01*
X56152858Y-41416238D02*
X56200477Y-41368619D01*
X56200477Y-41368619D02*
X56271905Y-41344809D01*
X56271905Y-41344809D02*
X56319524Y-41344809D01*
X56319524Y-41344809D02*
X56390953Y-41368619D01*
X56390953Y-41368619D02*
X56414762Y-41392428D01*
X56890953Y-41844809D02*
X56605239Y-41844809D01*
X56748096Y-41844809D02*
X56748096Y-41344809D01*
X56748096Y-41344809D02*
X56700477Y-41416238D01*
X56700477Y-41416238D02*
X56652858Y-41463857D01*
X56652858Y-41463857D02*
X56605239Y-41487666D01*
X57200476Y-41344809D02*
X57248095Y-41344809D01*
X57248095Y-41344809D02*
X57295714Y-41368619D01*
X57295714Y-41368619D02*
X57319524Y-41392428D01*
X57319524Y-41392428D02*
X57343333Y-41440047D01*
X57343333Y-41440047D02*
X57367143Y-41535285D01*
X57367143Y-41535285D02*
X57367143Y-41654333D01*
X57367143Y-41654333D02*
X57343333Y-41749571D01*
X57343333Y-41749571D02*
X57319524Y-41797190D01*
X57319524Y-41797190D02*
X57295714Y-41821000D01*
X57295714Y-41821000D02*
X57248095Y-41844809D01*
X57248095Y-41844809D02*
X57200476Y-41844809D01*
X57200476Y-41844809D02*
X57152857Y-41821000D01*
X57152857Y-41821000D02*
X57129048Y-41797190D01*
X57129048Y-41797190D02*
X57105238Y-41749571D01*
X57105238Y-41749571D02*
X57081429Y-41654333D01*
X57081429Y-41654333D02*
X57081429Y-41535285D01*
X57081429Y-41535285D02*
X57105238Y-41440047D01*
X57105238Y-41440047D02*
X57129048Y-41392428D01*
X57129048Y-41392428D02*
X57152857Y-41368619D01*
X57152857Y-41368619D02*
X57200476Y-41344809D01*
X57557619Y-41392428D02*
X57581428Y-41368619D01*
X57581428Y-41368619D02*
X57629047Y-41344809D01*
X57629047Y-41344809D02*
X57748095Y-41344809D01*
X57748095Y-41344809D02*
X57795714Y-41368619D01*
X57795714Y-41368619D02*
X57819523Y-41392428D01*
X57819523Y-41392428D02*
X57843333Y-41440047D01*
X57843333Y-41440047D02*
X57843333Y-41487666D01*
X57843333Y-41487666D02*
X57819523Y-41559095D01*
X57819523Y-41559095D02*
X57533809Y-41844809D01*
X57533809Y-41844809D02*
X57843333Y-41844809D01*
X58271904Y-41511476D02*
X58271904Y-41844809D01*
X58152856Y-41321000D02*
X58033809Y-41678142D01*
X58033809Y-41678142D02*
X58343332Y-41678142D01*
D12*
X47039580Y-56432857D02*
X47087200Y-56480476D01*
X47087200Y-56480476D02*
X47134819Y-56623333D01*
X47134819Y-56623333D02*
X47134819Y-56718571D01*
X47134819Y-56718571D02*
X47087200Y-56861428D01*
X47087200Y-56861428D02*
X46991961Y-56956666D01*
X46991961Y-56956666D02*
X46896723Y-57004285D01*
X46896723Y-57004285D02*
X46706247Y-57051904D01*
X46706247Y-57051904D02*
X46563390Y-57051904D01*
X46563390Y-57051904D02*
X46372914Y-57004285D01*
X46372914Y-57004285D02*
X46277676Y-56956666D01*
X46277676Y-56956666D02*
X46182438Y-56861428D01*
X46182438Y-56861428D02*
X46134819Y-56718571D01*
X46134819Y-56718571D02*
X46134819Y-56623333D01*
X46134819Y-56623333D02*
X46182438Y-56480476D01*
X46182438Y-56480476D02*
X46230057Y-56432857D01*
X47134819Y-55480476D02*
X47134819Y-56051904D01*
X47134819Y-55766190D02*
X46134819Y-55766190D01*
X46134819Y-55766190D02*
X46277676Y-55861428D01*
X46277676Y-55861428D02*
X46372914Y-55956666D01*
X46372914Y-55956666D02*
X46420533Y-56051904D01*
X46134819Y-55147142D02*
X46134819Y-54528095D01*
X46134819Y-54528095D02*
X46515771Y-54861428D01*
X46515771Y-54861428D02*
X46515771Y-54718571D01*
X46515771Y-54718571D02*
X46563390Y-54623333D01*
X46563390Y-54623333D02*
X46611009Y-54575714D01*
X46611009Y-54575714D02*
X46706247Y-54528095D01*
X46706247Y-54528095D02*
X46944342Y-54528095D01*
X46944342Y-54528095D02*
X47039580Y-54575714D01*
X47039580Y-54575714D02*
X47087200Y-54623333D01*
X47087200Y-54623333D02*
X47134819Y-54718571D01*
X47134819Y-54718571D02*
X47134819Y-55004285D01*
X47134819Y-55004285D02*
X47087200Y-55099523D01*
X47087200Y-55099523D02*
X47039580Y-55147142D01*
X60333333Y-21924819D02*
X60000000Y-21448628D01*
X59761905Y-21924819D02*
X59761905Y-20924819D01*
X59761905Y-20924819D02*
X60142857Y-20924819D01*
X60142857Y-20924819D02*
X60238095Y-20972438D01*
X60238095Y-20972438D02*
X60285714Y-21020057D01*
X60285714Y-21020057D02*
X60333333Y-21115295D01*
X60333333Y-21115295D02*
X60333333Y-21258152D01*
X60333333Y-21258152D02*
X60285714Y-21353390D01*
X60285714Y-21353390D02*
X60238095Y-21401009D01*
X60238095Y-21401009D02*
X60142857Y-21448628D01*
X60142857Y-21448628D02*
X59761905Y-21448628D01*
X60666667Y-20924819D02*
X61333333Y-20924819D01*
X61333333Y-20924819D02*
X60904762Y-21924819D01*
X72503628Y-47256190D02*
X72979819Y-47256190D01*
X71979819Y-47589523D02*
X72503628Y-47256190D01*
X72503628Y-47256190D02*
X71979819Y-46922857D01*
X72979819Y-46065714D02*
X72979819Y-46637142D01*
X72979819Y-46351428D02*
X71979819Y-46351428D01*
X71979819Y-46351428D02*
X72122676Y-46446666D01*
X72122676Y-46446666D02*
X72217914Y-46541904D01*
X72217914Y-46541904D02*
X72265533Y-46637142D01*
X18166666Y-48334819D02*
X18166666Y-49049104D01*
X18166666Y-49049104D02*
X18119047Y-49191961D01*
X18119047Y-49191961D02*
X18023809Y-49287200D01*
X18023809Y-49287200D02*
X17880952Y-49334819D01*
X17880952Y-49334819D02*
X17785714Y-49334819D01*
X19166666Y-49334819D02*
X18595238Y-49334819D01*
X18880952Y-49334819D02*
X18880952Y-48334819D01*
X18880952Y-48334819D02*
X18785714Y-48477676D01*
X18785714Y-48477676D02*
X18690476Y-48572914D01*
X18690476Y-48572914D02*
X18595238Y-48620533D01*
D11*
X21775190Y-51563810D02*
X21275190Y-51730476D01*
X21275190Y-51730476D02*
X21775190Y-51897143D01*
X21537095Y-52063809D02*
X21537095Y-52230476D01*
X21275190Y-52301904D02*
X21275190Y-52063809D01*
X21275190Y-52063809D02*
X21775190Y-52063809D01*
X21775190Y-52063809D02*
X21775190Y-52301904D01*
X21275190Y-52516190D02*
X21775190Y-52516190D01*
X21537095Y-52516190D02*
X21537095Y-52801904D01*
X21275190Y-52801904D02*
X21775190Y-52801904D01*
X21275190Y-53040000D02*
X21775190Y-53040000D01*
X21322809Y-53563809D02*
X21299000Y-53540000D01*
X21299000Y-53540000D02*
X21275190Y-53468571D01*
X21275190Y-53468571D02*
X21275190Y-53420952D01*
X21275190Y-53420952D02*
X21299000Y-53349524D01*
X21299000Y-53349524D02*
X21346619Y-53301905D01*
X21346619Y-53301905D02*
X21394238Y-53278095D01*
X21394238Y-53278095D02*
X21489476Y-53254286D01*
X21489476Y-53254286D02*
X21560904Y-53254286D01*
X21560904Y-53254286D02*
X21656142Y-53278095D01*
X21656142Y-53278095D02*
X21703761Y-53301905D01*
X21703761Y-53301905D02*
X21751380Y-53349524D01*
X21751380Y-53349524D02*
X21775190Y-53420952D01*
X21775190Y-53420952D02*
X21775190Y-53468571D01*
X21775190Y-53468571D02*
X21751380Y-53540000D01*
X21751380Y-53540000D02*
X21727571Y-53563809D01*
X21275190Y-54016190D02*
X21275190Y-53778095D01*
X21275190Y-53778095D02*
X21775190Y-53778095D01*
X21537095Y-54182857D02*
X21537095Y-54349524D01*
X21275190Y-54420952D02*
X21275190Y-54182857D01*
X21275190Y-54182857D02*
X21775190Y-54182857D01*
X21775190Y-54182857D02*
X21775190Y-54420952D01*
X21299000Y-54992381D02*
X21275190Y-55063809D01*
X21275190Y-55063809D02*
X21275190Y-55182857D01*
X21275190Y-55182857D02*
X21299000Y-55230476D01*
X21299000Y-55230476D02*
X21322809Y-55254285D01*
X21322809Y-55254285D02*
X21370428Y-55278095D01*
X21370428Y-55278095D02*
X21418047Y-55278095D01*
X21418047Y-55278095D02*
X21465666Y-55254285D01*
X21465666Y-55254285D02*
X21489476Y-55230476D01*
X21489476Y-55230476D02*
X21513285Y-55182857D01*
X21513285Y-55182857D02*
X21537095Y-55087619D01*
X21537095Y-55087619D02*
X21560904Y-55040000D01*
X21560904Y-55040000D02*
X21584714Y-55016190D01*
X21584714Y-55016190D02*
X21632333Y-54992381D01*
X21632333Y-54992381D02*
X21679952Y-54992381D01*
X21679952Y-54992381D02*
X21727571Y-55016190D01*
X21727571Y-55016190D02*
X21751380Y-55040000D01*
X21751380Y-55040000D02*
X21775190Y-55087619D01*
X21775190Y-55087619D02*
X21775190Y-55206666D01*
X21775190Y-55206666D02*
X21751380Y-55278095D01*
X21275190Y-55492380D02*
X21775190Y-55492380D01*
X21275190Y-55730475D02*
X21775190Y-55730475D01*
X21775190Y-55730475D02*
X21775190Y-55849523D01*
X21775190Y-55849523D02*
X21751380Y-55920951D01*
X21751380Y-55920951D02*
X21703761Y-55968570D01*
X21703761Y-55968570D02*
X21656142Y-55992380D01*
X21656142Y-55992380D02*
X21560904Y-56016189D01*
X21560904Y-56016189D02*
X21489476Y-56016189D01*
X21489476Y-56016189D02*
X21394238Y-55992380D01*
X21394238Y-55992380D02*
X21346619Y-55968570D01*
X21346619Y-55968570D02*
X21299000Y-55920951D01*
X21299000Y-55920951D02*
X21275190Y-55849523D01*
X21275190Y-55849523D02*
X21275190Y-55730475D01*
X21537095Y-56230475D02*
X21537095Y-56397142D01*
X21275190Y-56468570D02*
X21275190Y-56230475D01*
X21275190Y-56230475D02*
X21775190Y-56230475D01*
X21775190Y-56230475D02*
X21775190Y-56468570D01*
D12*
X26666666Y-36874819D02*
X26666666Y-37589104D01*
X26666666Y-37589104D02*
X26619047Y-37731961D01*
X26619047Y-37731961D02*
X26523809Y-37827200D01*
X26523809Y-37827200D02*
X26380952Y-37874819D01*
X26380952Y-37874819D02*
X26285714Y-37874819D01*
X27142857Y-37874819D02*
X27142857Y-36874819D01*
X27142857Y-36874819D02*
X27523809Y-36874819D01*
X27523809Y-36874819D02*
X27619047Y-36922438D01*
X27619047Y-36922438D02*
X27666666Y-36970057D01*
X27666666Y-36970057D02*
X27714285Y-37065295D01*
X27714285Y-37065295D02*
X27714285Y-37208152D01*
X27714285Y-37208152D02*
X27666666Y-37303390D01*
X27666666Y-37303390D02*
X27619047Y-37351009D01*
X27619047Y-37351009D02*
X27523809Y-37398628D01*
X27523809Y-37398628D02*
X27142857Y-37398628D01*
X28666666Y-37874819D02*
X28095238Y-37874819D01*
X28380952Y-37874819D02*
X28380952Y-36874819D01*
X28380952Y-36874819D02*
X28285714Y-37017676D01*
X28285714Y-37017676D02*
X28190476Y-37112914D01*
X28190476Y-37112914D02*
X28095238Y-37160533D01*
X35917962Y-29785458D02*
X36490382Y-30357878D01*
X36490382Y-30357878D02*
X36591397Y-30391550D01*
X36591397Y-30391550D02*
X36658741Y-30391550D01*
X36658741Y-30391550D02*
X36759756Y-30357878D01*
X36759756Y-30357878D02*
X36894443Y-30223191D01*
X36894443Y-30223191D02*
X36928115Y-30122176D01*
X36928115Y-30122176D02*
X36928115Y-30054832D01*
X36928115Y-30054832D02*
X36894443Y-29953817D01*
X36894443Y-29953817D02*
X36322023Y-29381397D01*
X36692413Y-29145695D02*
X36692413Y-29078352D01*
X36692413Y-29078352D02*
X36726084Y-28977336D01*
X36726084Y-28977336D02*
X36894443Y-28808978D01*
X36894443Y-28808978D02*
X36995458Y-28775306D01*
X36995458Y-28775306D02*
X37062802Y-28775306D01*
X37062802Y-28775306D02*
X37163817Y-28808978D01*
X37163817Y-28808978D02*
X37231161Y-28876321D01*
X37231161Y-28876321D02*
X37298504Y-29011008D01*
X37298504Y-29011008D02*
X37298504Y-29819130D01*
X37298504Y-29819130D02*
X37736237Y-29381397D01*
X29404761Y-58740057D02*
X29309523Y-58692438D01*
X29309523Y-58692438D02*
X29214285Y-58597200D01*
X29214285Y-58597200D02*
X29071428Y-58454342D01*
X29071428Y-58454342D02*
X28976190Y-58406723D01*
X28976190Y-58406723D02*
X28880952Y-58406723D01*
X28928571Y-58644819D02*
X28833333Y-58597200D01*
X28833333Y-58597200D02*
X28738095Y-58501961D01*
X28738095Y-58501961D02*
X28690476Y-58311485D01*
X28690476Y-58311485D02*
X28690476Y-57978152D01*
X28690476Y-57978152D02*
X28738095Y-57787676D01*
X28738095Y-57787676D02*
X28833333Y-57692438D01*
X28833333Y-57692438D02*
X28928571Y-57644819D01*
X28928571Y-57644819D02*
X29119047Y-57644819D01*
X29119047Y-57644819D02*
X29214285Y-57692438D01*
X29214285Y-57692438D02*
X29309523Y-57787676D01*
X29309523Y-57787676D02*
X29357142Y-57978152D01*
X29357142Y-57978152D02*
X29357142Y-58311485D01*
X29357142Y-58311485D02*
X29309523Y-58501961D01*
X29309523Y-58501961D02*
X29214285Y-58597200D01*
X29214285Y-58597200D02*
X29119047Y-58644819D01*
X29119047Y-58644819D02*
X28928571Y-58644819D01*
X30309523Y-58644819D02*
X29738095Y-58644819D01*
X30023809Y-58644819D02*
X30023809Y-57644819D01*
X30023809Y-57644819D02*
X29928571Y-57787676D01*
X29928571Y-57787676D02*
X29833333Y-57882914D01*
X29833333Y-57882914D02*
X29738095Y-57930533D01*
X32657200Y-26898332D02*
X32704819Y-26755475D01*
X32704819Y-26755475D02*
X32704819Y-26517380D01*
X32704819Y-26517380D02*
X32657200Y-26422142D01*
X32657200Y-26422142D02*
X32609580Y-26374523D01*
X32609580Y-26374523D02*
X32514342Y-26326904D01*
X32514342Y-26326904D02*
X32419104Y-26326904D01*
X32419104Y-26326904D02*
X32323866Y-26374523D01*
X32323866Y-26374523D02*
X32276247Y-26422142D01*
X32276247Y-26422142D02*
X32228628Y-26517380D01*
X32228628Y-26517380D02*
X32181009Y-26707856D01*
X32181009Y-26707856D02*
X32133390Y-26803094D01*
X32133390Y-26803094D02*
X32085771Y-26850713D01*
X32085771Y-26850713D02*
X31990533Y-26898332D01*
X31990533Y-26898332D02*
X31895295Y-26898332D01*
X31895295Y-26898332D02*
X31800057Y-26850713D01*
X31800057Y-26850713D02*
X31752438Y-26803094D01*
X31752438Y-26803094D02*
X31704819Y-26707856D01*
X31704819Y-26707856D02*
X31704819Y-26469761D01*
X31704819Y-26469761D02*
X31752438Y-26326904D01*
X31704819Y-25993570D02*
X32704819Y-25755475D01*
X32704819Y-25755475D02*
X31990533Y-25564999D01*
X31990533Y-25564999D02*
X32704819Y-25374523D01*
X32704819Y-25374523D02*
X31704819Y-25136428D01*
X32704819Y-24231666D02*
X32704819Y-24803094D01*
X32704819Y-24517380D02*
X31704819Y-24517380D01*
X31704819Y-24517380D02*
X31847676Y-24612618D01*
X31847676Y-24612618D02*
X31942914Y-24707856D01*
X31942914Y-24707856D02*
X31990533Y-24803094D01*
X60833333Y-52564819D02*
X60500000Y-52088628D01*
X60261905Y-52564819D02*
X60261905Y-51564819D01*
X60261905Y-51564819D02*
X60642857Y-51564819D01*
X60642857Y-51564819D02*
X60738095Y-51612438D01*
X60738095Y-51612438D02*
X60785714Y-51660057D01*
X60785714Y-51660057D02*
X60833333Y-51755295D01*
X60833333Y-51755295D02*
X60833333Y-51898152D01*
X60833333Y-51898152D02*
X60785714Y-51993390D01*
X60785714Y-51993390D02*
X60738095Y-52041009D01*
X60738095Y-52041009D02*
X60642857Y-52088628D01*
X60642857Y-52088628D02*
X60261905Y-52088628D01*
X61309524Y-52564819D02*
X61500000Y-52564819D01*
X61500000Y-52564819D02*
X61595238Y-52517200D01*
X61595238Y-52517200D02*
X61642857Y-52469580D01*
X61642857Y-52469580D02*
X61738095Y-52326723D01*
X61738095Y-52326723D02*
X61785714Y-52136247D01*
X61785714Y-52136247D02*
X61785714Y-51755295D01*
X61785714Y-51755295D02*
X61738095Y-51660057D01*
X61738095Y-51660057D02*
X61690476Y-51612438D01*
X61690476Y-51612438D02*
X61595238Y-51564819D01*
X61595238Y-51564819D02*
X61404762Y-51564819D01*
X61404762Y-51564819D02*
X61309524Y-51612438D01*
X61309524Y-51612438D02*
X61261905Y-51660057D01*
X61261905Y-51660057D02*
X61214286Y-51755295D01*
X61214286Y-51755295D02*
X61214286Y-51993390D01*
X61214286Y-51993390D02*
X61261905Y-52088628D01*
X61261905Y-52088628D02*
X61309524Y-52136247D01*
X61309524Y-52136247D02*
X61404762Y-52183866D01*
X61404762Y-52183866D02*
X61595238Y-52183866D01*
X61595238Y-52183866D02*
X61690476Y-52136247D01*
X61690476Y-52136247D02*
X61738095Y-52088628D01*
X61738095Y-52088628D02*
X61785714Y-51993390D01*
X44859580Y-42956666D02*
X44907200Y-43004285D01*
X44907200Y-43004285D02*
X44954819Y-43147142D01*
X44954819Y-43147142D02*
X44954819Y-43242380D01*
X44954819Y-43242380D02*
X44907200Y-43385237D01*
X44907200Y-43385237D02*
X44811961Y-43480475D01*
X44811961Y-43480475D02*
X44716723Y-43528094D01*
X44716723Y-43528094D02*
X44526247Y-43575713D01*
X44526247Y-43575713D02*
X44383390Y-43575713D01*
X44383390Y-43575713D02*
X44192914Y-43528094D01*
X44192914Y-43528094D02*
X44097676Y-43480475D01*
X44097676Y-43480475D02*
X44002438Y-43385237D01*
X44002438Y-43385237D02*
X43954819Y-43242380D01*
X43954819Y-43242380D02*
X43954819Y-43147142D01*
X43954819Y-43147142D02*
X44002438Y-43004285D01*
X44002438Y-43004285D02*
X44050057Y-42956666D01*
X43954819Y-42623332D02*
X43954819Y-41956666D01*
X43954819Y-41956666D02*
X44954819Y-42385237D01*
X41359580Y-42956666D02*
X41407200Y-43004285D01*
X41407200Y-43004285D02*
X41454819Y-43147142D01*
X41454819Y-43147142D02*
X41454819Y-43242380D01*
X41454819Y-43242380D02*
X41407200Y-43385237D01*
X41407200Y-43385237D02*
X41311961Y-43480475D01*
X41311961Y-43480475D02*
X41216723Y-43528094D01*
X41216723Y-43528094D02*
X41026247Y-43575713D01*
X41026247Y-43575713D02*
X40883390Y-43575713D01*
X40883390Y-43575713D02*
X40692914Y-43528094D01*
X40692914Y-43528094D02*
X40597676Y-43480475D01*
X40597676Y-43480475D02*
X40502438Y-43385237D01*
X40502438Y-43385237D02*
X40454819Y-43242380D01*
X40454819Y-43242380D02*
X40454819Y-43147142D01*
X40454819Y-43147142D02*
X40502438Y-43004285D01*
X40502438Y-43004285D02*
X40550057Y-42956666D01*
X40454819Y-42099523D02*
X40454819Y-42289999D01*
X40454819Y-42289999D02*
X40502438Y-42385237D01*
X40502438Y-42385237D02*
X40550057Y-42432856D01*
X40550057Y-42432856D02*
X40692914Y-42528094D01*
X40692914Y-42528094D02*
X40883390Y-42575713D01*
X40883390Y-42575713D02*
X41264342Y-42575713D01*
X41264342Y-42575713D02*
X41359580Y-42528094D01*
X41359580Y-42528094D02*
X41407200Y-42480475D01*
X41407200Y-42480475D02*
X41454819Y-42385237D01*
X41454819Y-42385237D02*
X41454819Y-42194761D01*
X41454819Y-42194761D02*
X41407200Y-42099523D01*
X41407200Y-42099523D02*
X41359580Y-42051904D01*
X41359580Y-42051904D02*
X41264342Y-42004285D01*
X41264342Y-42004285D02*
X41026247Y-42004285D01*
X41026247Y-42004285D02*
X40931009Y-42051904D01*
X40931009Y-42051904D02*
X40883390Y-42099523D01*
X40883390Y-42099523D02*
X40835771Y-42194761D01*
X40835771Y-42194761D02*
X40835771Y-42385237D01*
X40835771Y-42385237D02*
X40883390Y-42480475D01*
X40883390Y-42480475D02*
X40931009Y-42528094D01*
X40931009Y-42528094D02*
X41026247Y-42575713D01*
D13*
%TO.C,C4*%
X35765000Y-43051252D02*
X35765000Y-42528748D01*
X37235000Y-43051252D02*
X37235000Y-42528748D01*
%TO.C,C5*%
X38935000Y-43051252D02*
X38935000Y-42528748D01*
X40405000Y-43051252D02*
X40405000Y-42528748D01*
%TO.C,F1*%
X27238748Y-50080000D02*
X27761252Y-50080000D01*
X27238748Y-51500000D02*
X27761252Y-51500000D01*
%TO.C,J3*%
X33070000Y-21620000D02*
X33070000Y-20290000D01*
X34400000Y-21620000D02*
X33070000Y-21620000D01*
X35670000Y-18960000D02*
X48430000Y-18960000D01*
X35670000Y-21620000D02*
X35670000Y-18960000D01*
X35670000Y-21620000D02*
X48430000Y-21620000D01*
X48430000Y-21620000D02*
X48430000Y-18960000D01*
%TO.C,R8*%
X67772936Y-31880000D02*
X69227064Y-31880000D01*
X67772936Y-33700000D02*
X69227064Y-33700000D01*
%TO.C,U3*%
X52915000Y-22930000D02*
X52915000Y-22445000D01*
X52915000Y-26425000D02*
X52915000Y-25700000D01*
X53640000Y-22205000D02*
X53215000Y-22205000D01*
X53640000Y-26425000D02*
X52915000Y-26425000D01*
X56410000Y-22205000D02*
X57135000Y-22205000D01*
X56410000Y-26425000D02*
X57135000Y-26425000D01*
X57135000Y-22205000D02*
X57135000Y-22930000D01*
X57135000Y-26425000D02*
X57135000Y-25700000D01*
X52915000Y-22205000D02*
X52675000Y-21875000D01*
X53155000Y-21875000D01*
X52915000Y-22205000D01*
G36*
X52915000Y-22205000D02*
G01*
X52675000Y-21875000D01*
X53155000Y-21875000D01*
X52915000Y-22205000D01*
G37*
%TO.C,R11*%
X44222936Y-49380000D02*
X45677064Y-49380000D01*
X44222936Y-51200000D02*
X45677064Y-51200000D01*
%TO.C,D1*%
X49750000Y-57700000D02*
X49750000Y-46390000D01*
X56250000Y-57700000D02*
X49750000Y-57700000D01*
X56250000Y-57700000D02*
X56250000Y-46390000D01*
D12*
%TO.C,U4*%
X35525000Y-52415000D02*
X39675000Y-52415000D01*
X35525000Y-57565000D02*
X39675000Y-57565000D01*
D13*
X35100000Y-52490000D02*
X34860000Y-52160000D01*
X35340000Y-52160000D01*
X35100000Y-52490000D01*
G36*
X35100000Y-52490000D02*
G01*
X34860000Y-52160000D01*
X35340000Y-52160000D01*
X35100000Y-52490000D01*
G37*
%TO.C,L1*%
X60385436Y-54430000D02*
X61589564Y-54430000D01*
X60385436Y-57150000D02*
X61589564Y-57150000D01*
%TO.C,P1*%
X64640000Y-27665000D02*
X64640000Y-27440000D01*
X64790000Y-29290000D02*
X64790000Y-19790000D01*
X67290000Y-29290000D02*
X69990000Y-29290000D01*
X70040000Y-19790000D02*
X67315000Y-19790000D01*
X73140000Y-19790000D02*
X72915000Y-19790000D01*
X73150000Y-29290000D02*
X72940000Y-29290000D01*
%TO.C,R4*%
X47727064Y-24380000D02*
X46272936Y-24380000D01*
X47727064Y-26200000D02*
X46272936Y-26200000D01*
%TO.C,R5*%
X47727064Y-27880000D02*
X46272936Y-27880000D01*
X47727064Y-29700000D02*
X46272936Y-29700000D01*
%TO.C,R10*%
X67772936Y-35880000D02*
X69227064Y-35880000D01*
X67772936Y-37700000D02*
X69227064Y-37700000D01*
%TO.C,D2*%
X35540000Y-46655000D02*
X35540000Y-48925000D01*
X35540000Y-48925000D02*
X39600000Y-48925000D01*
X39600000Y-46655000D02*
X35540000Y-46655000D01*
%TO.C,C12*%
X59765000Y-27028748D02*
X59765000Y-27551252D01*
X61235000Y-27028748D02*
X61235000Y-27551252D01*
%TO.C,J2*%
X17170000Y-21435000D02*
X18500000Y-21435000D01*
X17170000Y-22765000D02*
X17170000Y-21435000D01*
X17170000Y-24035000D02*
X17170000Y-29175000D01*
X17170000Y-24035000D02*
X19830000Y-24035000D01*
X17170000Y-29175000D02*
X19830000Y-29175000D01*
X19830000Y-24035000D02*
X19830000Y-29175000D01*
%TO.C,U1*%
X51870000Y-30280000D02*
X51870000Y-40680000D01*
X51870000Y-40680000D02*
X62150000Y-40680000D01*
X54360000Y-30340000D02*
X54360000Y-40620000D01*
X54360000Y-40620000D02*
X59660000Y-40620000D01*
X56010000Y-30340000D02*
X54360000Y-30340000D01*
X59660000Y-30340000D02*
X58010000Y-30340000D01*
X59660000Y-40620000D02*
X59660000Y-30340000D01*
X62150000Y-30280000D02*
X51870000Y-30280000D01*
X62150000Y-40680000D02*
X62150000Y-30280000D01*
X58010000Y-30340000D02*
G75*
G02*
X56010000Y-30340000I-1000000J0D01*
G01*
%TO.C,C13*%
X44265000Y-55528748D02*
X44265000Y-56051252D01*
X45735000Y-55528748D02*
X45735000Y-56051252D01*
%TO.C,R7*%
X59772936Y-22380000D02*
X61227064Y-22380000D01*
X59772936Y-24200000D02*
X61227064Y-24200000D01*
%TO.C,Y1*%
X66475000Y-43580000D02*
X66475000Y-49980000D01*
X71525000Y-43580000D02*
X71525000Y-49980000D01*
X66475000Y-43580000D02*
G75*
G02*
X71525000Y-43580000I2525000J0D01*
G01*
X71525000Y-49980000D02*
G75*
G02*
X66475000Y-49980000I-2525000J0D01*
G01*
%TO.C,J1*%
X17170000Y-49880000D02*
X18500000Y-49880000D01*
X17170000Y-51210000D02*
X17170000Y-49880000D01*
X17170000Y-52480000D02*
X17170000Y-57620000D01*
X17170000Y-52480000D02*
X19830000Y-52480000D01*
X17170000Y-57620000D02*
X19830000Y-57620000D01*
X19830000Y-52480000D02*
X19830000Y-57620000D01*
%TO.C,JP1*%
X26170000Y-38420000D02*
X27500000Y-38420000D01*
X26170000Y-39750000D02*
X26170000Y-38420000D01*
X26170000Y-41020000D02*
X26170000Y-46160000D01*
X26170000Y-41020000D02*
X28830000Y-41020000D01*
X26170000Y-46160000D02*
X28830000Y-46160000D01*
X28830000Y-41020000D02*
X28830000Y-46160000D01*
%TO.C,U2*%
X35894689Y-33790000D02*
X36106821Y-34002132D01*
X36106821Y-33577868D02*
X35894689Y-33790000D01*
X40787868Y-28896821D02*
X41000000Y-28684689D01*
X41000000Y-28684689D02*
X41212132Y-28896821D01*
X41000000Y-38895311D02*
X40787868Y-38683179D01*
X41212132Y-38683179D02*
X41000000Y-38895311D01*
X45893179Y-34002132D02*
X46105311Y-33790000D01*
X46105311Y-33790000D02*
X45893179Y-33577868D01*
X35680789Y-34428164D02*
X35108033Y-34336240D01*
X35588865Y-33855407D01*
X35680789Y-34428164D01*
G36*
X35680789Y-34428164D02*
G01*
X35108033Y-34336240D01*
X35588865Y-33855407D01*
X35680789Y-34428164D01*
G37*
%TO.C,Q1*%
X29500000Y-54230000D02*
X28850000Y-54230000D01*
X29500000Y-54230000D02*
X30150000Y-54230000D01*
X29500000Y-57350000D02*
X28850000Y-57350000D01*
X29500000Y-57350000D02*
X30150000Y-57350000D01*
X30902500Y-57630000D02*
X30422500Y-57630000D01*
X30662500Y-57300000D01*
X30902500Y-57630000D01*
G36*
X30902500Y-57630000D02*
G01*
X30422500Y-57630000D01*
X30662500Y-57300000D01*
X30902500Y-57630000D01*
G37*
%TO.C,SW1*%
X24300000Y-22415000D02*
X24550000Y-22415000D01*
X24300000Y-28715000D02*
X24300000Y-22415000D01*
X24550000Y-28715000D02*
X24300000Y-28715000D01*
X26450000Y-22415000D02*
X29050000Y-22415000D01*
X29050000Y-28715000D02*
X26450000Y-28715000D01*
X30950000Y-22415000D02*
X31200000Y-22415000D01*
X31200000Y-22415000D02*
X31200000Y-28715000D01*
X31200000Y-28715000D02*
X30950000Y-28715000D01*
%TO.C,R9*%
X61727064Y-49380000D02*
X60272936Y-49380000D01*
X61727064Y-51200000D02*
X60272936Y-51200000D01*
%TO.C,C7*%
X45445000Y-43051252D02*
X45445000Y-42528748D01*
X46915000Y-43051252D02*
X46915000Y-42528748D01*
%TO.C,C6*%
X41945000Y-43051252D02*
X41945000Y-42528748D01*
X43415000Y-43051252D02*
X43415000Y-42528748D01*
%TD*%
M02*
