%TF.GenerationSoftware,KiCad,Pcbnew,8.0.6*%
%TF.CreationDate,2025-06-01T13:35:19-05:00*%
%TF.ProjectId,TPS_Calibration_Board,5450535f-4361-46c6-9962-726174696f6e,rev?*%
%TF.SameCoordinates,Original*%
%TF.FileFunction,Legend,Bot*%
%TF.FilePolarity,Positive*%
%FSLAX46Y46*%
G04 Gerber Fmt 4.6, Leading zero omitted, Abs format (unit mm)*
G04 Created by KiCad (PCBNEW 8.0.6) date 2025-06-01 13:35:19*
%MOMM*%
%LPD*%
G01*
G04 APERTURE LIST*
%ADD10C,0.100000*%
%ADD11C,0.150000*%
%ADD12C,0.120000*%
G04 APERTURE END LIST*
D10*
X17500000Y-34540000D02*
X19500000Y-34540000D01*
X19500000Y-44540000D01*
X17500000Y-44540000D01*
X17500000Y-34540000D01*
G36*
X17500000Y-34540000D02*
G01*
X19500000Y-34540000D01*
X19500000Y-44540000D01*
X17500000Y-44540000D01*
X17500000Y-34540000D01*
G37*
X17909800Y-30701027D02*
X17933609Y-30772455D01*
X17933609Y-30772455D02*
X17933609Y-30891503D01*
X17933609Y-30891503D02*
X17909800Y-30939122D01*
X17909800Y-30939122D02*
X17885990Y-30962931D01*
X17885990Y-30962931D02*
X17838371Y-30986741D01*
X17838371Y-30986741D02*
X17790752Y-30986741D01*
X17790752Y-30986741D02*
X17743133Y-30962931D01*
X17743133Y-30962931D02*
X17719323Y-30939122D01*
X17719323Y-30939122D02*
X17695514Y-30891503D01*
X17695514Y-30891503D02*
X17671704Y-30796265D01*
X17671704Y-30796265D02*
X17647895Y-30748646D01*
X17647895Y-30748646D02*
X17624085Y-30724836D01*
X17624085Y-30724836D02*
X17576466Y-30701027D01*
X17576466Y-30701027D02*
X17528847Y-30701027D01*
X17528847Y-30701027D02*
X17481228Y-30724836D01*
X17481228Y-30724836D02*
X17457419Y-30748646D01*
X17457419Y-30748646D02*
X17433609Y-30796265D01*
X17433609Y-30796265D02*
X17433609Y-30915312D01*
X17433609Y-30915312D02*
X17457419Y-30986741D01*
X17909800Y-31391502D02*
X17933609Y-31343883D01*
X17933609Y-31343883D02*
X17933609Y-31248645D01*
X17933609Y-31248645D02*
X17909800Y-31201026D01*
X17909800Y-31201026D02*
X17862180Y-31177217D01*
X17862180Y-31177217D02*
X17671704Y-31177217D01*
X17671704Y-31177217D02*
X17624085Y-31201026D01*
X17624085Y-31201026D02*
X17600276Y-31248645D01*
X17600276Y-31248645D02*
X17600276Y-31343883D01*
X17600276Y-31343883D02*
X17624085Y-31391502D01*
X17624085Y-31391502D02*
X17671704Y-31415312D01*
X17671704Y-31415312D02*
X17719323Y-31415312D01*
X17719323Y-31415312D02*
X17766942Y-31177217D01*
X17933609Y-31629597D02*
X17600276Y-31629597D01*
X17695514Y-31629597D02*
X17647895Y-31653407D01*
X17647895Y-31653407D02*
X17624085Y-31677216D01*
X17624085Y-31677216D02*
X17600276Y-31724835D01*
X17600276Y-31724835D02*
X17600276Y-31772454D01*
X17933609Y-31939121D02*
X17600276Y-31939121D01*
X17433609Y-31939121D02*
X17457419Y-31915312D01*
X17457419Y-31915312D02*
X17481228Y-31939121D01*
X17481228Y-31939121D02*
X17457419Y-31962931D01*
X17457419Y-31962931D02*
X17433609Y-31939121D01*
X17433609Y-31939121D02*
X17481228Y-31939121D01*
X17933609Y-32391502D02*
X17671704Y-32391502D01*
X17671704Y-32391502D02*
X17624085Y-32367692D01*
X17624085Y-32367692D02*
X17600276Y-32320073D01*
X17600276Y-32320073D02*
X17600276Y-32224835D01*
X17600276Y-32224835D02*
X17624085Y-32177216D01*
X17909800Y-32391502D02*
X17933609Y-32343883D01*
X17933609Y-32343883D02*
X17933609Y-32224835D01*
X17933609Y-32224835D02*
X17909800Y-32177216D01*
X17909800Y-32177216D02*
X17862180Y-32153407D01*
X17862180Y-32153407D02*
X17814561Y-32153407D01*
X17814561Y-32153407D02*
X17766942Y-32177216D01*
X17766942Y-32177216D02*
X17743133Y-32224835D01*
X17743133Y-32224835D02*
X17743133Y-32343883D01*
X17743133Y-32343883D02*
X17719323Y-32391502D01*
X17933609Y-32701026D02*
X17909800Y-32653407D01*
X17909800Y-32653407D02*
X17862180Y-32629597D01*
X17862180Y-32629597D02*
X17433609Y-32629597D01*
X17600276Y-33248645D02*
X17600276Y-33605787D01*
X17385990Y-33391502D02*
X18028847Y-33248645D01*
X17814561Y-33558168D02*
X17814561Y-33201026D01*
X18028847Y-33415311D02*
X17385990Y-33558168D01*
X17885990Y-33772454D02*
X17909800Y-33796264D01*
X17909800Y-33796264D02*
X17933609Y-33772454D01*
X17933609Y-33772454D02*
X17909800Y-33748645D01*
X17909800Y-33748645D02*
X17885990Y-33772454D01*
X17885990Y-33772454D02*
X17933609Y-33772454D01*
X17624085Y-33772454D02*
X17647895Y-33796264D01*
X17647895Y-33796264D02*
X17671704Y-33772454D01*
X17671704Y-33772454D02*
X17647895Y-33748645D01*
X17647895Y-33748645D02*
X17624085Y-33772454D01*
X17624085Y-33772454D02*
X17671704Y-33772454D01*
D11*
X55129166Y-20449580D02*
X55176785Y-20497200D01*
X55176785Y-20497200D02*
X55319642Y-20544819D01*
X55319642Y-20544819D02*
X55414880Y-20544819D01*
X55414880Y-20544819D02*
X55557737Y-20497200D01*
X55557737Y-20497200D02*
X55652975Y-20401961D01*
X55652975Y-20401961D02*
X55700594Y-20306723D01*
X55700594Y-20306723D02*
X55748213Y-20116247D01*
X55748213Y-20116247D02*
X55748213Y-19973390D01*
X55748213Y-19973390D02*
X55700594Y-19782914D01*
X55700594Y-19782914D02*
X55652975Y-19687676D01*
X55652975Y-19687676D02*
X55557737Y-19592438D01*
X55557737Y-19592438D02*
X55414880Y-19544819D01*
X55414880Y-19544819D02*
X55319642Y-19544819D01*
X55319642Y-19544819D02*
X55176785Y-19592438D01*
X55176785Y-19592438D02*
X55129166Y-19640057D01*
X54652975Y-20544819D02*
X54462499Y-20544819D01*
X54462499Y-20544819D02*
X54367261Y-20497200D01*
X54367261Y-20497200D02*
X54319642Y-20449580D01*
X54319642Y-20449580D02*
X54224404Y-20306723D01*
X54224404Y-20306723D02*
X54176785Y-20116247D01*
X54176785Y-20116247D02*
X54176785Y-19735295D01*
X54176785Y-19735295D02*
X54224404Y-19640057D01*
X54224404Y-19640057D02*
X54272023Y-19592438D01*
X54272023Y-19592438D02*
X54367261Y-19544819D01*
X54367261Y-19544819D02*
X54557737Y-19544819D01*
X54557737Y-19544819D02*
X54652975Y-19592438D01*
X54652975Y-19592438D02*
X54700594Y-19640057D01*
X54700594Y-19640057D02*
X54748213Y-19735295D01*
X54748213Y-19735295D02*
X54748213Y-19973390D01*
X54748213Y-19973390D02*
X54700594Y-20068628D01*
X54700594Y-20068628D02*
X54652975Y-20116247D01*
X54652975Y-20116247D02*
X54557737Y-20163866D01*
X54557737Y-20163866D02*
X54367261Y-20163866D01*
X54367261Y-20163866D02*
X54272023Y-20116247D01*
X54272023Y-20116247D02*
X54224404Y-20068628D01*
X54224404Y-20068628D02*
X54176785Y-19973390D01*
X46142857Y-27149580D02*
X46190476Y-27197200D01*
X46190476Y-27197200D02*
X46333333Y-27244819D01*
X46333333Y-27244819D02*
X46428571Y-27244819D01*
X46428571Y-27244819D02*
X46571428Y-27197200D01*
X46571428Y-27197200D02*
X46666666Y-27101961D01*
X46666666Y-27101961D02*
X46714285Y-27006723D01*
X46714285Y-27006723D02*
X46761904Y-26816247D01*
X46761904Y-26816247D02*
X46761904Y-26673390D01*
X46761904Y-26673390D02*
X46714285Y-26482914D01*
X46714285Y-26482914D02*
X46666666Y-26387676D01*
X46666666Y-26387676D02*
X46571428Y-26292438D01*
X46571428Y-26292438D02*
X46428571Y-26244819D01*
X46428571Y-26244819D02*
X46333333Y-26244819D01*
X46333333Y-26244819D02*
X46190476Y-26292438D01*
X46190476Y-26292438D02*
X46142857Y-26340057D01*
X45190476Y-27244819D02*
X45761904Y-27244819D01*
X45476190Y-27244819D02*
X45476190Y-26244819D01*
X45476190Y-26244819D02*
X45571428Y-26387676D01*
X45571428Y-26387676D02*
X45666666Y-26482914D01*
X45666666Y-26482914D02*
X45761904Y-26530533D01*
X44333333Y-26578152D02*
X44333333Y-27244819D01*
X44571428Y-26197200D02*
X44809523Y-26911485D01*
X44809523Y-26911485D02*
X44190476Y-26911485D01*
X61179580Y-44585833D02*
X61227200Y-44538214D01*
X61227200Y-44538214D02*
X61274819Y-44395357D01*
X61274819Y-44395357D02*
X61274819Y-44300119D01*
X61274819Y-44300119D02*
X61227200Y-44157262D01*
X61227200Y-44157262D02*
X61131961Y-44062024D01*
X61131961Y-44062024D02*
X61036723Y-44014405D01*
X61036723Y-44014405D02*
X60846247Y-43966786D01*
X60846247Y-43966786D02*
X60703390Y-43966786D01*
X60703390Y-43966786D02*
X60512914Y-44014405D01*
X60512914Y-44014405D02*
X60417676Y-44062024D01*
X60417676Y-44062024D02*
X60322438Y-44157262D01*
X60322438Y-44157262D02*
X60274819Y-44300119D01*
X60274819Y-44300119D02*
X60274819Y-44395357D01*
X60274819Y-44395357D02*
X60322438Y-44538214D01*
X60322438Y-44538214D02*
X60370057Y-44585833D01*
X60274819Y-44919167D02*
X60274819Y-45538214D01*
X60274819Y-45538214D02*
X60655771Y-45204881D01*
X60655771Y-45204881D02*
X60655771Y-45347738D01*
X60655771Y-45347738D02*
X60703390Y-45442976D01*
X60703390Y-45442976D02*
X60751009Y-45490595D01*
X60751009Y-45490595D02*
X60846247Y-45538214D01*
X60846247Y-45538214D02*
X61084342Y-45538214D01*
X61084342Y-45538214D02*
X61179580Y-45490595D01*
X61179580Y-45490595D02*
X61227200Y-45442976D01*
X61227200Y-45442976D02*
X61274819Y-45347738D01*
X61274819Y-45347738D02*
X61274819Y-45062024D01*
X61274819Y-45062024D02*
X61227200Y-44966786D01*
X61227200Y-44966786D02*
X61179580Y-44919167D01*
X65679580Y-55109642D02*
X65727200Y-55062023D01*
X65727200Y-55062023D02*
X65774819Y-54919166D01*
X65774819Y-54919166D02*
X65774819Y-54823928D01*
X65774819Y-54823928D02*
X65727200Y-54681071D01*
X65727200Y-54681071D02*
X65631961Y-54585833D01*
X65631961Y-54585833D02*
X65536723Y-54538214D01*
X65536723Y-54538214D02*
X65346247Y-54490595D01*
X65346247Y-54490595D02*
X65203390Y-54490595D01*
X65203390Y-54490595D02*
X65012914Y-54538214D01*
X65012914Y-54538214D02*
X64917676Y-54585833D01*
X64917676Y-54585833D02*
X64822438Y-54681071D01*
X64822438Y-54681071D02*
X64774819Y-54823928D01*
X64774819Y-54823928D02*
X64774819Y-54919166D01*
X64774819Y-54919166D02*
X64822438Y-55062023D01*
X64822438Y-55062023D02*
X64870057Y-55109642D01*
X65774819Y-56062023D02*
X65774819Y-55490595D01*
X65774819Y-55776309D02*
X64774819Y-55776309D01*
X64774819Y-55776309D02*
X64917676Y-55681071D01*
X64917676Y-55681071D02*
X65012914Y-55585833D01*
X65012914Y-55585833D02*
X65060533Y-55490595D01*
X64774819Y-56919166D02*
X64774819Y-56728690D01*
X64774819Y-56728690D02*
X64822438Y-56633452D01*
X64822438Y-56633452D02*
X64870057Y-56585833D01*
X64870057Y-56585833D02*
X65012914Y-56490595D01*
X65012914Y-56490595D02*
X65203390Y-56442976D01*
X65203390Y-56442976D02*
X65584342Y-56442976D01*
X65584342Y-56442976D02*
X65679580Y-56490595D01*
X65679580Y-56490595D02*
X65727200Y-56538214D01*
X65727200Y-56538214D02*
X65774819Y-56633452D01*
X65774819Y-56633452D02*
X65774819Y-56823928D01*
X65774819Y-56823928D02*
X65727200Y-56919166D01*
X65727200Y-56919166D02*
X65679580Y-56966785D01*
X65679580Y-56966785D02*
X65584342Y-57014404D01*
X65584342Y-57014404D02*
X65346247Y-57014404D01*
X65346247Y-57014404D02*
X65251009Y-56966785D01*
X65251009Y-56966785D02*
X65203390Y-56919166D01*
X65203390Y-56919166D02*
X65155771Y-56823928D01*
X65155771Y-56823928D02*
X65155771Y-56633452D01*
X65155771Y-56633452D02*
X65203390Y-56538214D01*
X65203390Y-56538214D02*
X65251009Y-56490595D01*
X65251009Y-56490595D02*
X65346247Y-56442976D01*
X25179580Y-55623333D02*
X25227200Y-55575714D01*
X25227200Y-55575714D02*
X25274819Y-55432857D01*
X25274819Y-55432857D02*
X25274819Y-55337619D01*
X25274819Y-55337619D02*
X25227200Y-55194762D01*
X25227200Y-55194762D02*
X25131961Y-55099524D01*
X25131961Y-55099524D02*
X25036723Y-55051905D01*
X25036723Y-55051905D02*
X24846247Y-55004286D01*
X24846247Y-55004286D02*
X24703390Y-55004286D01*
X24703390Y-55004286D02*
X24512914Y-55051905D01*
X24512914Y-55051905D02*
X24417676Y-55099524D01*
X24417676Y-55099524D02*
X24322438Y-55194762D01*
X24322438Y-55194762D02*
X24274819Y-55337619D01*
X24274819Y-55337619D02*
X24274819Y-55432857D01*
X24274819Y-55432857D02*
X24322438Y-55575714D01*
X24322438Y-55575714D02*
X24370057Y-55623333D01*
X24703390Y-56194762D02*
X24655771Y-56099524D01*
X24655771Y-56099524D02*
X24608152Y-56051905D01*
X24608152Y-56051905D02*
X24512914Y-56004286D01*
X24512914Y-56004286D02*
X24465295Y-56004286D01*
X24465295Y-56004286D02*
X24370057Y-56051905D01*
X24370057Y-56051905D02*
X24322438Y-56099524D01*
X24322438Y-56099524D02*
X24274819Y-56194762D01*
X24274819Y-56194762D02*
X24274819Y-56385238D01*
X24274819Y-56385238D02*
X24322438Y-56480476D01*
X24322438Y-56480476D02*
X24370057Y-56528095D01*
X24370057Y-56528095D02*
X24465295Y-56575714D01*
X24465295Y-56575714D02*
X24512914Y-56575714D01*
X24512914Y-56575714D02*
X24608152Y-56528095D01*
X24608152Y-56528095D02*
X24655771Y-56480476D01*
X24655771Y-56480476D02*
X24703390Y-56385238D01*
X24703390Y-56385238D02*
X24703390Y-56194762D01*
X24703390Y-56194762D02*
X24751009Y-56099524D01*
X24751009Y-56099524D02*
X24798628Y-56051905D01*
X24798628Y-56051905D02*
X24893866Y-56004286D01*
X24893866Y-56004286D02*
X25084342Y-56004286D01*
X25084342Y-56004286D02*
X25179580Y-56051905D01*
X25179580Y-56051905D02*
X25227200Y-56099524D01*
X25227200Y-56099524D02*
X25274819Y-56194762D01*
X25274819Y-56194762D02*
X25274819Y-56385238D01*
X25274819Y-56385238D02*
X25227200Y-56480476D01*
X25227200Y-56480476D02*
X25179580Y-56528095D01*
X25179580Y-56528095D02*
X25084342Y-56575714D01*
X25084342Y-56575714D02*
X24893866Y-56575714D01*
X24893866Y-56575714D02*
X24798628Y-56528095D01*
X24798628Y-56528095D02*
X24751009Y-56480476D01*
X24751009Y-56480476D02*
X24703390Y-56385238D01*
X63134819Y-32623333D02*
X62658628Y-32290000D01*
X63134819Y-32051905D02*
X62134819Y-32051905D01*
X62134819Y-32051905D02*
X62134819Y-32432857D01*
X62134819Y-32432857D02*
X62182438Y-32528095D01*
X62182438Y-32528095D02*
X62230057Y-32575714D01*
X62230057Y-32575714D02*
X62325295Y-32623333D01*
X62325295Y-32623333D02*
X62468152Y-32623333D01*
X62468152Y-32623333D02*
X62563390Y-32575714D01*
X62563390Y-32575714D02*
X62611009Y-32528095D01*
X62611009Y-32528095D02*
X62658628Y-32432857D01*
X62658628Y-32432857D02*
X62658628Y-32051905D01*
X63134819Y-33575714D02*
X63134819Y-33004286D01*
X63134819Y-33290000D02*
X62134819Y-33290000D01*
X62134819Y-33290000D02*
X62277676Y-33194762D01*
X62277676Y-33194762D02*
X62372914Y-33099524D01*
X62372914Y-33099524D02*
X62420533Y-33004286D01*
X46142857Y-23969580D02*
X46190476Y-24017200D01*
X46190476Y-24017200D02*
X46333333Y-24064819D01*
X46333333Y-24064819D02*
X46428571Y-24064819D01*
X46428571Y-24064819D02*
X46571428Y-24017200D01*
X46571428Y-24017200D02*
X46666666Y-23921961D01*
X46666666Y-23921961D02*
X46714285Y-23826723D01*
X46714285Y-23826723D02*
X46761904Y-23636247D01*
X46761904Y-23636247D02*
X46761904Y-23493390D01*
X46761904Y-23493390D02*
X46714285Y-23302914D01*
X46714285Y-23302914D02*
X46666666Y-23207676D01*
X46666666Y-23207676D02*
X46571428Y-23112438D01*
X46571428Y-23112438D02*
X46428571Y-23064819D01*
X46428571Y-23064819D02*
X46333333Y-23064819D01*
X46333333Y-23064819D02*
X46190476Y-23112438D01*
X46190476Y-23112438D02*
X46142857Y-23160057D01*
X45190476Y-24064819D02*
X45761904Y-24064819D01*
X45476190Y-24064819D02*
X45476190Y-23064819D01*
X45476190Y-23064819D02*
X45571428Y-23207676D01*
X45571428Y-23207676D02*
X45666666Y-23302914D01*
X45666666Y-23302914D02*
X45761904Y-23350533D01*
X44285714Y-23064819D02*
X44761904Y-23064819D01*
X44761904Y-23064819D02*
X44809523Y-23541009D01*
X44809523Y-23541009D02*
X44761904Y-23493390D01*
X44761904Y-23493390D02*
X44666666Y-23445771D01*
X44666666Y-23445771D02*
X44428571Y-23445771D01*
X44428571Y-23445771D02*
X44333333Y-23493390D01*
X44333333Y-23493390D02*
X44285714Y-23541009D01*
X44285714Y-23541009D02*
X44238095Y-23636247D01*
X44238095Y-23636247D02*
X44238095Y-23874342D01*
X44238095Y-23874342D02*
X44285714Y-23969580D01*
X44285714Y-23969580D02*
X44333333Y-24017200D01*
X44333333Y-24017200D02*
X44428571Y-24064819D01*
X44428571Y-24064819D02*
X44666666Y-24064819D01*
X44666666Y-24064819D02*
X44761904Y-24017200D01*
X44761904Y-24017200D02*
X44809523Y-23969580D01*
X27204166Y-37829580D02*
X27251785Y-37877200D01*
X27251785Y-37877200D02*
X27394642Y-37924819D01*
X27394642Y-37924819D02*
X27489880Y-37924819D01*
X27489880Y-37924819D02*
X27632737Y-37877200D01*
X27632737Y-37877200D02*
X27727975Y-37781961D01*
X27727975Y-37781961D02*
X27775594Y-37686723D01*
X27775594Y-37686723D02*
X27823213Y-37496247D01*
X27823213Y-37496247D02*
X27823213Y-37353390D01*
X27823213Y-37353390D02*
X27775594Y-37162914D01*
X27775594Y-37162914D02*
X27727975Y-37067676D01*
X27727975Y-37067676D02*
X27632737Y-36972438D01*
X27632737Y-36972438D02*
X27489880Y-36924819D01*
X27489880Y-36924819D02*
X27394642Y-36924819D01*
X27394642Y-36924819D02*
X27251785Y-36972438D01*
X27251785Y-36972438D02*
X27204166Y-37020057D01*
X26823213Y-37020057D02*
X26775594Y-36972438D01*
X26775594Y-36972438D02*
X26680356Y-36924819D01*
X26680356Y-36924819D02*
X26442261Y-36924819D01*
X26442261Y-36924819D02*
X26347023Y-36972438D01*
X26347023Y-36972438D02*
X26299404Y-37020057D01*
X26299404Y-37020057D02*
X26251785Y-37115295D01*
X26251785Y-37115295D02*
X26251785Y-37210533D01*
X26251785Y-37210533D02*
X26299404Y-37353390D01*
X26299404Y-37353390D02*
X26870832Y-37924819D01*
X26870832Y-37924819D02*
X26251785Y-37924819D01*
X30134819Y-54647142D02*
X29658628Y-54313809D01*
X30134819Y-54075714D02*
X29134819Y-54075714D01*
X29134819Y-54075714D02*
X29134819Y-54456666D01*
X29134819Y-54456666D02*
X29182438Y-54551904D01*
X29182438Y-54551904D02*
X29230057Y-54599523D01*
X29230057Y-54599523D02*
X29325295Y-54647142D01*
X29325295Y-54647142D02*
X29468152Y-54647142D01*
X29468152Y-54647142D02*
X29563390Y-54599523D01*
X29563390Y-54599523D02*
X29611009Y-54551904D01*
X29611009Y-54551904D02*
X29658628Y-54456666D01*
X29658628Y-54456666D02*
X29658628Y-54075714D01*
X30134819Y-55599523D02*
X30134819Y-55028095D01*
X30134819Y-55313809D02*
X29134819Y-55313809D01*
X29134819Y-55313809D02*
X29277676Y-55218571D01*
X29277676Y-55218571D02*
X29372914Y-55123333D01*
X29372914Y-55123333D02*
X29420533Y-55028095D01*
X29230057Y-55980476D02*
X29182438Y-56028095D01*
X29182438Y-56028095D02*
X29134819Y-56123333D01*
X29134819Y-56123333D02*
X29134819Y-56361428D01*
X29134819Y-56361428D02*
X29182438Y-56456666D01*
X29182438Y-56456666D02*
X29230057Y-56504285D01*
X29230057Y-56504285D02*
X29325295Y-56551904D01*
X29325295Y-56551904D02*
X29420533Y-56551904D01*
X29420533Y-56551904D02*
X29563390Y-56504285D01*
X29563390Y-56504285D02*
X30134819Y-55932857D01*
X30134819Y-55932857D02*
X30134819Y-56551904D01*
X64539580Y-49123333D02*
X64587200Y-49075714D01*
X64587200Y-49075714D02*
X64634819Y-48932857D01*
X64634819Y-48932857D02*
X64634819Y-48837619D01*
X64634819Y-48837619D02*
X64587200Y-48694762D01*
X64587200Y-48694762D02*
X64491961Y-48599524D01*
X64491961Y-48599524D02*
X64396723Y-48551905D01*
X64396723Y-48551905D02*
X64206247Y-48504286D01*
X64206247Y-48504286D02*
X64063390Y-48504286D01*
X64063390Y-48504286D02*
X63872914Y-48551905D01*
X63872914Y-48551905D02*
X63777676Y-48599524D01*
X63777676Y-48599524D02*
X63682438Y-48694762D01*
X63682438Y-48694762D02*
X63634819Y-48837619D01*
X63634819Y-48837619D02*
X63634819Y-48932857D01*
X63634819Y-48932857D02*
X63682438Y-49075714D01*
X63682438Y-49075714D02*
X63730057Y-49123333D01*
X64634819Y-50075714D02*
X64634819Y-49504286D01*
X64634819Y-49790000D02*
X63634819Y-49790000D01*
X63634819Y-49790000D02*
X63777676Y-49694762D01*
X63777676Y-49694762D02*
X63872914Y-49599524D01*
X63872914Y-49599524D02*
X63920533Y-49504286D01*
X55605357Y-26469580D02*
X55652976Y-26517200D01*
X55652976Y-26517200D02*
X55795833Y-26564819D01*
X55795833Y-26564819D02*
X55891071Y-26564819D01*
X55891071Y-26564819D02*
X56033928Y-26517200D01*
X56033928Y-26517200D02*
X56129166Y-26421961D01*
X56129166Y-26421961D02*
X56176785Y-26326723D01*
X56176785Y-26326723D02*
X56224404Y-26136247D01*
X56224404Y-26136247D02*
X56224404Y-25993390D01*
X56224404Y-25993390D02*
X56176785Y-25802914D01*
X56176785Y-25802914D02*
X56129166Y-25707676D01*
X56129166Y-25707676D02*
X56033928Y-25612438D01*
X56033928Y-25612438D02*
X55891071Y-25564819D01*
X55891071Y-25564819D02*
X55795833Y-25564819D01*
X55795833Y-25564819D02*
X55652976Y-25612438D01*
X55652976Y-25612438D02*
X55605357Y-25660057D01*
X54652976Y-26564819D02*
X55224404Y-26564819D01*
X54938690Y-26564819D02*
X54938690Y-25564819D01*
X54938690Y-25564819D02*
X55033928Y-25707676D01*
X55033928Y-25707676D02*
X55129166Y-25802914D01*
X55129166Y-25802914D02*
X55224404Y-25850533D01*
X53700595Y-26564819D02*
X54272023Y-26564819D01*
X53986309Y-26564819D02*
X53986309Y-25564819D01*
X53986309Y-25564819D02*
X54081547Y-25707676D01*
X54081547Y-25707676D02*
X54176785Y-25802914D01*
X54176785Y-25802914D02*
X54272023Y-25850533D01*
X48134819Y-38623333D02*
X47658628Y-38290000D01*
X48134819Y-38051905D02*
X47134819Y-38051905D01*
X47134819Y-38051905D02*
X47134819Y-38432857D01*
X47134819Y-38432857D02*
X47182438Y-38528095D01*
X47182438Y-38528095D02*
X47230057Y-38575714D01*
X47230057Y-38575714D02*
X47325295Y-38623333D01*
X47325295Y-38623333D02*
X47468152Y-38623333D01*
X47468152Y-38623333D02*
X47563390Y-38575714D01*
X47563390Y-38575714D02*
X47611009Y-38528095D01*
X47611009Y-38528095D02*
X47658628Y-38432857D01*
X47658628Y-38432857D02*
X47658628Y-38051905D01*
X47230057Y-39004286D02*
X47182438Y-39051905D01*
X47182438Y-39051905D02*
X47134819Y-39147143D01*
X47134819Y-39147143D02*
X47134819Y-39385238D01*
X47134819Y-39385238D02*
X47182438Y-39480476D01*
X47182438Y-39480476D02*
X47230057Y-39528095D01*
X47230057Y-39528095D02*
X47325295Y-39575714D01*
X47325295Y-39575714D02*
X47420533Y-39575714D01*
X47420533Y-39575714D02*
X47563390Y-39528095D01*
X47563390Y-39528095D02*
X48134819Y-38956667D01*
X48134819Y-38956667D02*
X48134819Y-39575714D01*
X55605357Y-23459580D02*
X55652976Y-23507200D01*
X55652976Y-23507200D02*
X55795833Y-23554819D01*
X55795833Y-23554819D02*
X55891071Y-23554819D01*
X55891071Y-23554819D02*
X56033928Y-23507200D01*
X56033928Y-23507200D02*
X56129166Y-23411961D01*
X56129166Y-23411961D02*
X56176785Y-23316723D01*
X56176785Y-23316723D02*
X56224404Y-23126247D01*
X56224404Y-23126247D02*
X56224404Y-22983390D01*
X56224404Y-22983390D02*
X56176785Y-22792914D01*
X56176785Y-22792914D02*
X56129166Y-22697676D01*
X56129166Y-22697676D02*
X56033928Y-22602438D01*
X56033928Y-22602438D02*
X55891071Y-22554819D01*
X55891071Y-22554819D02*
X55795833Y-22554819D01*
X55795833Y-22554819D02*
X55652976Y-22602438D01*
X55652976Y-22602438D02*
X55605357Y-22650057D01*
X54652976Y-23554819D02*
X55224404Y-23554819D01*
X54938690Y-23554819D02*
X54938690Y-22554819D01*
X54938690Y-22554819D02*
X55033928Y-22697676D01*
X55033928Y-22697676D02*
X55129166Y-22792914D01*
X55129166Y-22792914D02*
X55224404Y-22840533D01*
X54033928Y-22554819D02*
X53938690Y-22554819D01*
X53938690Y-22554819D02*
X53843452Y-22602438D01*
X53843452Y-22602438D02*
X53795833Y-22650057D01*
X53795833Y-22650057D02*
X53748214Y-22745295D01*
X53748214Y-22745295D02*
X53700595Y-22935771D01*
X53700595Y-22935771D02*
X53700595Y-23173866D01*
X53700595Y-23173866D02*
X53748214Y-23364342D01*
X53748214Y-23364342D02*
X53795833Y-23459580D01*
X53795833Y-23459580D02*
X53843452Y-23507200D01*
X53843452Y-23507200D02*
X53938690Y-23554819D01*
X53938690Y-23554819D02*
X54033928Y-23554819D01*
X54033928Y-23554819D02*
X54129166Y-23507200D01*
X54129166Y-23507200D02*
X54176785Y-23459580D01*
X54176785Y-23459580D02*
X54224404Y-23364342D01*
X54224404Y-23364342D02*
X54272023Y-23173866D01*
X54272023Y-23173866D02*
X54272023Y-22935771D01*
X54272023Y-22935771D02*
X54224404Y-22745295D01*
X54224404Y-22745295D02*
X54176785Y-22650057D01*
X54176785Y-22650057D02*
X54129166Y-22602438D01*
X54129166Y-22602438D02*
X54033928Y-22554819D01*
X29634819Y-41123333D02*
X29158628Y-40790000D01*
X29634819Y-40551905D02*
X28634819Y-40551905D01*
X28634819Y-40551905D02*
X28634819Y-40932857D01*
X28634819Y-40932857D02*
X28682438Y-41028095D01*
X28682438Y-41028095D02*
X28730057Y-41075714D01*
X28730057Y-41075714D02*
X28825295Y-41123333D01*
X28825295Y-41123333D02*
X28968152Y-41123333D01*
X28968152Y-41123333D02*
X29063390Y-41075714D01*
X29063390Y-41075714D02*
X29111009Y-41028095D01*
X29111009Y-41028095D02*
X29158628Y-40932857D01*
X29158628Y-40932857D02*
X29158628Y-40551905D01*
X28634819Y-41456667D02*
X28634819Y-42075714D01*
X28634819Y-42075714D02*
X29015771Y-41742381D01*
X29015771Y-41742381D02*
X29015771Y-41885238D01*
X29015771Y-41885238D02*
X29063390Y-41980476D01*
X29063390Y-41980476D02*
X29111009Y-42028095D01*
X29111009Y-42028095D02*
X29206247Y-42075714D01*
X29206247Y-42075714D02*
X29444342Y-42075714D01*
X29444342Y-42075714D02*
X29539580Y-42028095D01*
X29539580Y-42028095D02*
X29587200Y-41980476D01*
X29587200Y-41980476D02*
X29634819Y-41885238D01*
X29634819Y-41885238D02*
X29634819Y-41599524D01*
X29634819Y-41599524D02*
X29587200Y-41504286D01*
X29587200Y-41504286D02*
X29539580Y-41456667D01*
X60666666Y-20424819D02*
X60999999Y-19948628D01*
X61238094Y-20424819D02*
X61238094Y-19424819D01*
X61238094Y-19424819D02*
X60857142Y-19424819D01*
X60857142Y-19424819D02*
X60761904Y-19472438D01*
X60761904Y-19472438D02*
X60714285Y-19520057D01*
X60714285Y-19520057D02*
X60666666Y-19615295D01*
X60666666Y-19615295D02*
X60666666Y-19758152D01*
X60666666Y-19758152D02*
X60714285Y-19853390D01*
X60714285Y-19853390D02*
X60761904Y-19901009D01*
X60761904Y-19901009D02*
X60857142Y-19948628D01*
X60857142Y-19948628D02*
X61238094Y-19948628D01*
X59809523Y-19424819D02*
X59999999Y-19424819D01*
X59999999Y-19424819D02*
X60095237Y-19472438D01*
X60095237Y-19472438D02*
X60142856Y-19520057D01*
X60142856Y-19520057D02*
X60238094Y-19662914D01*
X60238094Y-19662914D02*
X60285713Y-19853390D01*
X60285713Y-19853390D02*
X60285713Y-20234342D01*
X60285713Y-20234342D02*
X60238094Y-20329580D01*
X60238094Y-20329580D02*
X60190475Y-20377200D01*
X60190475Y-20377200D02*
X60095237Y-20424819D01*
X60095237Y-20424819D02*
X59904761Y-20424819D01*
X59904761Y-20424819D02*
X59809523Y-20377200D01*
X59809523Y-20377200D02*
X59761904Y-20329580D01*
X59761904Y-20329580D02*
X59714285Y-20234342D01*
X59714285Y-20234342D02*
X59714285Y-19996247D01*
X59714285Y-19996247D02*
X59761904Y-19901009D01*
X59761904Y-19901009D02*
X59809523Y-19853390D01*
X59809523Y-19853390D02*
X59904761Y-19805771D01*
X59904761Y-19805771D02*
X60095237Y-19805771D01*
X60095237Y-19805771D02*
X60190475Y-19853390D01*
X60190475Y-19853390D02*
X60238094Y-19901009D01*
X60238094Y-19901009D02*
X60285713Y-19996247D01*
D12*
%TO.C,C9*%
X54701248Y-21035000D02*
X55223752Y-21035000D01*
X54701248Y-22505000D02*
X55223752Y-22505000D01*
%TO.C,C14*%
X45238748Y-28055000D02*
X45761252Y-28055000D01*
X45238748Y-29525000D02*
X45761252Y-29525000D01*
%TO.C,C3*%
X61765000Y-45013752D02*
X61765000Y-44491248D01*
X63235000Y-45013752D02*
X63235000Y-44491248D01*
%TO.C,C16*%
X66265000Y-56013752D02*
X66265000Y-55491248D01*
X67735000Y-56013752D02*
X67735000Y-55491248D01*
%TO.C,C8*%
X25765000Y-56051252D02*
X25765000Y-55528748D01*
X27235000Y-56051252D02*
X27235000Y-55528748D01*
%TO.C,R1*%
X63590000Y-33517064D02*
X63590000Y-32062936D01*
X65410000Y-33517064D02*
X65410000Y-32062936D01*
%TO.C,C15*%
X45238748Y-24555000D02*
X45761252Y-24555000D01*
X45238748Y-26025000D02*
X45761252Y-26025000D01*
%TO.C,C2*%
X27298752Y-35055000D02*
X26776248Y-35055000D01*
X27298752Y-36525000D02*
X26776248Y-36525000D01*
%TO.C,R12*%
X30590000Y-56017064D02*
X30590000Y-54562936D01*
X32410000Y-56017064D02*
X32410000Y-54562936D01*
%TO.C,C1*%
X61765000Y-49028748D02*
X61765000Y-49551252D01*
X63235000Y-49028748D02*
X63235000Y-49551252D01*
%TO.C,C11*%
X54701248Y-27055000D02*
X55223752Y-27055000D01*
X54701248Y-28525000D02*
X55223752Y-28525000D01*
%TO.C,R2*%
X48590000Y-39517064D02*
X48590000Y-38062936D01*
X50410000Y-39517064D02*
X50410000Y-38062936D01*
%TO.C,C10*%
X54701248Y-24045000D02*
X55223752Y-24045000D01*
X54701248Y-25515000D02*
X55223752Y-25515000D01*
%TO.C,R3*%
X30090000Y-42017064D02*
X30090000Y-40562936D01*
X31910000Y-42017064D02*
X31910000Y-40562936D01*
%TO.C,R6*%
X59772936Y-20880000D02*
X61227064Y-20880000D01*
X59772936Y-22700000D02*
X61227064Y-22700000D01*
%TD*%
M02*
