%TF.GenerationSoftware,KiCad,Pcbnew,8.0.6*%
%TF.CreationDate,2025-06-01T13:35:15-05:00*%
%TF.ProjectId,TPS_Calibration_Board,5450535f-4361-46c6-9962-726174696f6e,rev?*%
%TF.SameCoordinates,Original*%
%TF.FileFunction,Drillmap*%
%TF.FilePolarity,Positive*%
%FSLAX45Y45*%
G04 Gerber Fmt 4.5, Leading zero omitted, Abs format (unit mm)*
G04 Created by KiCad (PCBNEW 8.0.6) date 2025-06-01 13:35:15*
%MOMM*%
%LPD*%
G01*
G04 APERTURE LIST*
%ADD10C,0.050000*%
%ADD11C,0.200000*%
G04 APERTURE END LIST*
D10*
X7350000Y-6104000D02*
G75*
G02*
X7150000Y-6304000I-200000J0D01*
G01*
X7275000Y-1729000D02*
G75*
G02*
X7025000Y-1729000I-125000J0D01*
G01*
X7025000Y-1729000D02*
G75*
G02*
X7275000Y-1729000I125000J0D01*
G01*
X7350000Y-1729000D02*
X7350000Y-6104000D01*
X1850000Y-1529000D02*
G75*
G02*
X2050000Y-1729000I0J-200000D01*
G01*
X2050000Y-1729000D02*
X2050000Y-1754000D01*
X1850000Y-6304000D02*
G75*
G02*
X1650000Y-6104000I0J200000D01*
G01*
X1650000Y-1729000D02*
G75*
G02*
X1850000Y-1529000I200000J0D01*
G01*
X2125000Y-6004000D02*
X6875000Y-6004000D01*
X6875000Y-1829000D02*
X2125000Y-1829000D01*
X6950000Y-1729000D02*
G75*
G02*
X7150000Y-1529000I200000J0D01*
G01*
X2125000Y-1829000D02*
G75*
G02*
X2050000Y-1754000I0J75000D01*
G01*
X6950000Y-6104000D02*
X6950000Y-6079000D01*
X2050000Y-6104000D02*
G75*
G02*
X1850000Y-6304000I-200000J0D01*
G01*
X6950000Y-1729000D02*
X6950000Y-1754000D01*
X1975000Y-1729000D02*
G75*
G02*
X1725000Y-1729000I-125000J0D01*
G01*
X1725000Y-1729000D02*
G75*
G02*
X1975000Y-1729000I125000J0D01*
G01*
X1650000Y-1729000D02*
X1650000Y-6104000D01*
X1975000Y-6104000D02*
G75*
G02*
X1725000Y-6104000I-125000J0D01*
G01*
X1725000Y-6104000D02*
G75*
G02*
X1975000Y-6104000I125000J0D01*
G01*
X7150000Y-6304000D02*
G75*
G02*
X6950000Y-6104000I0J200000D01*
G01*
X7150000Y-1529000D02*
G75*
G02*
X7350000Y-1729000I0J-200000D01*
G01*
X2050000Y-6079000D02*
G75*
G02*
X2125000Y-6004000I75000J0D01*
G01*
X6875000Y-6004000D02*
G75*
G02*
X6950000Y-6079000I0J-75000D01*
G01*
X7275000Y-6104000D02*
G75*
G02*
X7025000Y-6104000I-125000J0D01*
G01*
X7025000Y-6104000D02*
G75*
G02*
X7275000Y-6104000I125000J0D01*
G01*
X2050000Y-6079000D02*
X2050000Y-6104000D01*
X6950000Y-1754000D02*
G75*
G02*
X6875000Y-1829000I-75000J0D01*
G01*
D11*
X1908277Y-6617984D02*
X1908277Y-6417984D01*
X1908277Y-6417984D02*
X1955896Y-6417984D01*
X1955896Y-6417984D02*
X1984467Y-6427508D01*
X1984467Y-6427508D02*
X2003515Y-6446555D01*
X2003515Y-6446555D02*
X2013039Y-6465603D01*
X2013039Y-6465603D02*
X2022562Y-6503698D01*
X2022562Y-6503698D02*
X2022562Y-6532269D01*
X2022562Y-6532269D02*
X2013039Y-6570365D01*
X2013039Y-6570365D02*
X2003515Y-6589412D01*
X2003515Y-6589412D02*
X1984467Y-6608460D01*
X1984467Y-6608460D02*
X1955896Y-6617984D01*
X1955896Y-6617984D02*
X1908277Y-6617984D01*
X2108277Y-6617984D02*
X2108277Y-6484650D01*
X2108277Y-6522746D02*
X2117801Y-6503698D01*
X2117801Y-6503698D02*
X2127324Y-6494174D01*
X2127324Y-6494174D02*
X2146372Y-6484650D01*
X2146372Y-6484650D02*
X2165420Y-6484650D01*
X2232086Y-6617984D02*
X2232086Y-6484650D01*
X2232086Y-6417984D02*
X2222563Y-6427508D01*
X2222563Y-6427508D02*
X2232086Y-6437031D01*
X2232086Y-6437031D02*
X2241610Y-6427508D01*
X2241610Y-6427508D02*
X2232086Y-6417984D01*
X2232086Y-6417984D02*
X2232086Y-6437031D01*
X2355896Y-6617984D02*
X2336848Y-6608460D01*
X2336848Y-6608460D02*
X2327324Y-6589412D01*
X2327324Y-6589412D02*
X2327324Y-6417984D01*
X2460658Y-6617984D02*
X2441610Y-6608460D01*
X2441610Y-6608460D02*
X2432086Y-6589412D01*
X2432086Y-6589412D02*
X2432086Y-6417984D01*
X2689229Y-6617984D02*
X2689229Y-6417984D01*
X2689229Y-6417984D02*
X2755896Y-6560841D01*
X2755896Y-6560841D02*
X2822562Y-6417984D01*
X2822562Y-6417984D02*
X2822562Y-6617984D01*
X3003515Y-6617984D02*
X3003515Y-6513222D01*
X3003515Y-6513222D02*
X2993991Y-6494174D01*
X2993991Y-6494174D02*
X2974943Y-6484650D01*
X2974943Y-6484650D02*
X2936848Y-6484650D01*
X2936848Y-6484650D02*
X2917801Y-6494174D01*
X3003515Y-6608460D02*
X2984467Y-6617984D01*
X2984467Y-6617984D02*
X2936848Y-6617984D01*
X2936848Y-6617984D02*
X2917801Y-6608460D01*
X2917801Y-6608460D02*
X2908277Y-6589412D01*
X2908277Y-6589412D02*
X2908277Y-6570365D01*
X2908277Y-6570365D02*
X2917801Y-6551317D01*
X2917801Y-6551317D02*
X2936848Y-6541793D01*
X2936848Y-6541793D02*
X2984467Y-6541793D01*
X2984467Y-6541793D02*
X3003515Y-6532269D01*
X3098753Y-6484650D02*
X3098753Y-6684650D01*
X3098753Y-6494174D02*
X3117801Y-6484650D01*
X3117801Y-6484650D02*
X3155896Y-6484650D01*
X3155896Y-6484650D02*
X3174943Y-6494174D01*
X3174943Y-6494174D02*
X3184467Y-6503698D01*
X3184467Y-6503698D02*
X3193991Y-6522746D01*
X3193991Y-6522746D02*
X3193991Y-6579888D01*
X3193991Y-6579888D02*
X3184467Y-6598936D01*
X3184467Y-6598936D02*
X3174943Y-6608460D01*
X3174943Y-6608460D02*
X3155896Y-6617984D01*
X3155896Y-6617984D02*
X3117801Y-6617984D01*
X3117801Y-6617984D02*
X3098753Y-6608460D01*
X3279705Y-6598936D02*
X3289229Y-6608460D01*
X3289229Y-6608460D02*
X3279705Y-6617984D01*
X3279705Y-6617984D02*
X3270182Y-6608460D01*
X3270182Y-6608460D02*
X3279705Y-6598936D01*
X3279705Y-6598936D02*
X3279705Y-6617984D01*
X3279705Y-6494174D02*
X3289229Y-6503698D01*
X3289229Y-6503698D02*
X3279705Y-6513222D01*
X3279705Y-6513222D02*
X3270182Y-6503698D01*
X3270182Y-6503698D02*
X3279705Y-6494174D01*
X3279705Y-6494174D02*
X3279705Y-6513222D01*
M02*
