%TF.GenerationSoftware,KiCad,Pcbnew,8.0.6*%
%TF.CreationDate,2025-06-01T13:35:19-05:00*%
%TF.ProjectId,TPS_Calibration_Board,5450535f-4361-46c6-9962-726174696f6e,rev?*%
%TF.SameCoordinates,Original*%
%TF.FileFunction,Profile,NP*%
%FSLAX46Y46*%
G04 Gerber Fmt 4.6, Leading zero omitted, Abs format (unit mm)*
G04 Created by KiCad (PCBNEW 8.0.6) date 2025-06-01 13:35:19*
%MOMM*%
%LPD*%
G01*
G04 APERTURE LIST*
%TA.AperFunction,Profile*%
%ADD10C,0.050000*%
%TD*%
G04 APERTURE END LIST*
D10*
X73500000Y-61040000D02*
G75*
G02*
X71500000Y-63040000I-2000000J0D01*
G01*
X72750000Y-17290000D02*
G75*
G02*
X70250000Y-17290000I-1250000J0D01*
G01*
X70250000Y-17290000D02*
G75*
G02*
X72750000Y-17290000I1250000J0D01*
G01*
X73500000Y-17290000D02*
X73500000Y-61040000D01*
X18500000Y-15290000D02*
G75*
G02*
X20500000Y-17290000I0J-2000000D01*
G01*
X20500000Y-17290000D02*
X20500000Y-17540000D01*
X18500000Y-63040000D02*
G75*
G02*
X16500000Y-61040000I0J2000000D01*
G01*
X16500000Y-17290000D02*
G75*
G02*
X18500000Y-15290000I2000000J0D01*
G01*
X21250000Y-60040000D02*
X68750000Y-60040000D01*
X68750000Y-18290000D02*
X21250000Y-18290000D01*
X69500000Y-17290000D02*
G75*
G02*
X71500000Y-15290000I2000000J0D01*
G01*
X21250000Y-18290000D02*
G75*
G02*
X20500000Y-17540000I0J750000D01*
G01*
X69500002Y-61040000D02*
X69500000Y-60790000D01*
X20500000Y-61040000D02*
G75*
G02*
X18500000Y-63040000I-2000000J0D01*
G01*
X69500000Y-17290000D02*
X69500000Y-17540000D01*
X19750000Y-17290000D02*
G75*
G02*
X17250000Y-17290000I-1250000J0D01*
G01*
X17250000Y-17290000D02*
G75*
G02*
X19750000Y-17290000I1250000J0D01*
G01*
X16500000Y-17290000D02*
X16500000Y-61040000D01*
X19750000Y-61040000D02*
G75*
G02*
X17250000Y-61040000I-1250000J0D01*
G01*
X17250000Y-61040000D02*
G75*
G02*
X19750000Y-61040000I1250000J0D01*
G01*
X71500000Y-63040000D02*
G75*
G02*
X69500000Y-61040000I0J2000000D01*
G01*
X71500000Y-15290000D02*
G75*
G02*
X73500000Y-17290000I0J-2000000D01*
G01*
X20500000Y-60790000D02*
G75*
G02*
X21250000Y-60040000I750000J0D01*
G01*
X68750000Y-60040000D02*
G75*
G02*
X69500000Y-60790000I0J-750000D01*
G01*
X72750000Y-61040000D02*
G75*
G02*
X70250000Y-61040000I-1250000J0D01*
G01*
X70250000Y-61040000D02*
G75*
G02*
X72750000Y-61040000I1250000J0D01*
G01*
X20500000Y-60790000D02*
X20500000Y-61040000D01*
X69500000Y-17540000D02*
G75*
G02*
X68750000Y-18290000I-750000J0D01*
G01*
M02*
