%TF.GenerationSoftware,KiCad,Pcbnew,8.0.6*%
%TF.CreationDate,2025-06-01T13:35:18-05:00*%
%TF.ProjectId,TPS_Calibration_Board,5450535f-4361-46c6-9962-726174696f6e,rev?*%
%TF.SameCoordinates,Original*%
%TF.FileFunction,Copper,L2,Inr*%
%TF.FilePolarity,Positive*%
%FSLAX46Y46*%
G04 Gerber Fmt 4.6, Leading zero omitted, Abs format (unit mm)*
G04 Created by KiCad (PCBNEW 8.0.6) date 2025-06-01 13:35:18*
%MOMM*%
%LPD*%
G01*
G04 APERTURE LIST*
%TA.AperFunction,ComponentPad*%
%ADD10C,0.600000*%
%TD*%
%TA.AperFunction,ComponentPad*%
%ADD11O,2.100000X1.100000*%
%TD*%
%TA.AperFunction,ComponentPad*%
%ADD12O,2.600000X1.100000*%
%TD*%
%TA.AperFunction,ComponentPad*%
%ADD13R,1.700000X1.700000*%
%TD*%
%TA.AperFunction,ComponentPad*%
%ADD14O,1.700000X1.700000*%
%TD*%
%TA.AperFunction,ComponentPad*%
%ADD15R,1.600000X1.600000*%
%TD*%
%TA.AperFunction,ComponentPad*%
%ADD16O,1.600000X1.600000*%
%TD*%
%TA.AperFunction,ComponentPad*%
%ADD17C,1.500000*%
%TD*%
%TA.AperFunction,ViaPad*%
%ADD18C,0.600000*%
%TD*%
%TA.AperFunction,Conductor*%
%ADD19C,0.200000*%
%TD*%
G04 APERTURE END LIST*
D10*
%TO.N,GND*%
%TO.C,U4*%
X37000000Y-53190000D03*
X37000000Y-54390000D03*
X37000000Y-55690000D03*
X37000000Y-56790000D03*
X38200000Y-53190000D03*
X38200000Y-54390000D03*
X38200000Y-55690000D03*
X38200000Y-56790000D03*
%TD*%
D11*
%TO.N,GND*%
%TO.C,P1*%
X66110000Y-28860000D03*
D12*
X71470000Y-28860000D03*
D11*
X66110000Y-20220000D03*
D12*
X71470000Y-20220000D03*
%TD*%
D13*
%TO.N,+5V*%
%TO.C,J2*%
X18500000Y-22765000D03*
D14*
%TO.N,SIG_IN*%
X18500000Y-25305000D03*
%TO.N,GND*%
X18500000Y-27845000D03*
%TD*%
D15*
%TO.N,EEPROM_CS*%
%TO.C,U1*%
X53200000Y-31670000D03*
D16*
%TO.N,EEPROM_MISO*%
X53200000Y-34210000D03*
%TO.N,Net-(U1-~{WP})*%
X53200000Y-36750000D03*
%TO.N,GND*%
X53200000Y-39290000D03*
%TO.N,EEPROM_MOSI*%
X60820000Y-39290000D03*
%TO.N,EEPROM_SCK*%
X60820000Y-36750000D03*
%TO.N,Net-(U1-~{HOLD})*%
X60820000Y-34210000D03*
%TO.N,+3.3V*%
X60820000Y-31670000D03*
%TD*%
D17*
%TO.N,Net-(U2-PF1)*%
%TO.C,Y1*%
X69000000Y-44340000D03*
%TO.N,Net-(U2-PF0)*%
X69000000Y-49220000D03*
%TD*%
D13*
%TO.N,+5V*%
%TO.C,J1*%
X18500000Y-51210000D03*
D14*
%TO.N,SIG_OUT*%
X18500000Y-53750000D03*
%TO.N,GND*%
X18500000Y-56290000D03*
%TD*%
D13*
%TO.N,/BOOT0*%
%TO.C,JP1*%
X27500000Y-39750000D03*
D14*
%TO.N,+3.3V*%
X27500000Y-42290000D03*
%TO.N,N/C*%
X27500000Y-44830000D03*
%TD*%
D18*
%TO.N,GND*%
X34500000Y-31290000D03*
X25000000Y-56790000D03*
X49000000Y-47290000D03*
X61000000Y-47290000D03*
X57500000Y-21290000D03*
X45500000Y-36790000D03*
X51000000Y-26790000D03*
X33000000Y-56790000D03*
X65000000Y-56790000D03*
X48000000Y-36290000D03*
X34500000Y-48290000D03*
X28500000Y-32040000D03*
X37500000Y-39290000D03*
X63500000Y-21790000D03*
X44500000Y-26790000D03*
X25500000Y-36790000D03*
X42000000Y-55790000D03*
X39500000Y-24290000D03*
X51000000Y-40790000D03*
X58500000Y-27790000D03*
X64000000Y-27790000D03*
%TO.N,Net-(U2-PF0)*%
X34500000Y-38290000D03*
%TO.N,NRST*%
X36500000Y-37790000D03*
X29500000Y-35790000D03*
X32000000Y-35790000D03*
%TO.N,Net-(U2-PF1)*%
X35500000Y-38290000D03*
%TO.N,Net-(U2-VDDA)*%
X46000000Y-40290000D03*
X46500000Y-36290000D03*
X35000000Y-35790000D03*
X47500000Y-31790000D03*
%TO.N,+3.3V*%
X65000000Y-54790000D03*
X33500000Y-24290000D03*
X34500000Y-44790000D03*
%TO.N,+5V*%
X24000000Y-35290000D03*
X26000000Y-52790000D03*
%TO.N,Net-(U3-VCC)*%
X58000000Y-24790000D03*
X52000000Y-23290000D03*
%TO.N,Net-(U3-USBDM)*%
X53709038Y-29300713D03*
X48000000Y-24290000D03*
X51500000Y-27790000D03*
%TO.N,SIG_OUT*%
X43000000Y-39790000D03*
%TO.N,SIG_IN*%
X32500000Y-37790000D03*
%TO.N,/SWCLK*%
X37500000Y-24290000D03*
X39603179Y-26487313D03*
%TO.N,/SWDIO*%
X43000000Y-26290000D03*
X42000000Y-24290000D03*
%TO.N,Net-(P1-D-)*%
X64500000Y-23790000D03*
X45500000Y-23790000D03*
%TO.N,Net-(P1-D+)*%
X45500000Y-27290000D03*
X63000000Y-24790000D03*
%TO.N,Net-(P1-VCONN)*%
X63500000Y-23790000D03*
X62500000Y-26790000D03*
%TO.N,Net-(P1-CC)*%
X66000000Y-30290000D03*
X63635709Y-25440000D03*
%TO.N,Net-(Q1-S)*%
X33000000Y-54790000D03*
X41935000Y-54355000D03*
%TO.N,Net-(U3-USBDP)*%
X48000000Y-27790000D03*
%TO.N,USB_SENSE*%
X58000000Y-22290000D03*
%TO.N,Net-(R11-Pad1)*%
X41693487Y-50304784D03*
%TO.N,EEPROM_CS*%
X50000000Y-31790000D03*
X39000000Y-27290000D03*
%TO.N,EEPROM_MOSI*%
X47500000Y-39790000D03*
X45000000Y-37790000D03*
%TO.N,UART_TX*%
X49977473Y-26791214D03*
X49978462Y-30322438D03*
%TO.N,UART_RX*%
X45500000Y-30290000D03*
X51000000Y-24290000D03*
%TD*%
D19*
%TO.N,Net-(U2-PF0)*%
X38000000Y-41790000D02*
X46000000Y-41790000D01*
X66930000Y-49220000D02*
X69000000Y-49220000D01*
X46000000Y-41790000D02*
X49500000Y-45290000D01*
X49500000Y-45290000D02*
X63000000Y-45290000D01*
X63000000Y-45290000D02*
X66930000Y-49220000D01*
X34500000Y-38290000D02*
X38000000Y-41790000D01*
%TO.N,NRST*%
X32000000Y-35790000D02*
X29500000Y-35790000D01*
%TO.N,Net-(U2-PF1)*%
X49550000Y-44340000D02*
X69000000Y-44340000D01*
X38500000Y-41290000D02*
X46500000Y-41290000D01*
X35500000Y-38290000D02*
X38500000Y-41290000D01*
X46500000Y-41290000D02*
X49550000Y-44340000D01*
%TO.N,Net-(U2-VDDA)*%
X47500000Y-35290000D02*
X47500000Y-31790000D01*
X36000000Y-35790000D02*
X35000000Y-35790000D01*
X46500000Y-36290000D02*
X47500000Y-35290000D01*
X45500000Y-40790000D02*
X41000000Y-40790000D01*
X46500000Y-39790000D02*
X46500000Y-36290000D01*
X41000000Y-40790000D02*
X36000000Y-35790000D01*
X46000000Y-40290000D02*
X45500000Y-40790000D01*
X46000000Y-40290000D02*
X46500000Y-39790000D01*
%TO.N,+3.3V*%
X33500000Y-24290000D02*
X33500000Y-43790000D01*
X33500000Y-43790000D02*
X34500000Y-44790000D01*
%TO.N,+5V*%
X24000000Y-25790000D02*
X20975000Y-22765000D01*
X20975000Y-22765000D02*
X18500000Y-22765000D01*
X24000000Y-35290000D02*
X24000000Y-25790000D01*
%TO.N,Net-(U3-VCC)*%
X53500000Y-24790000D02*
X58000000Y-24790000D01*
X52000000Y-23290000D02*
X53500000Y-24790000D01*
%TO.N,Net-(U3-USBDM)*%
X51500000Y-27790000D02*
X53000000Y-29290000D01*
X53000000Y-29290000D02*
X53500000Y-29290000D01*
%TO.N,Net-(P1-D-)*%
X58000000Y-25790000D02*
X53000000Y-25790000D01*
X52500000Y-25290000D02*
X47000000Y-25290000D01*
X63900000Y-23190000D02*
X60600000Y-23190000D01*
X53000000Y-25790000D02*
X52500000Y-25290000D01*
X64500000Y-23790000D02*
X63900000Y-23190000D01*
X60600000Y-23190000D02*
X58000000Y-25790000D01*
X47000000Y-25290000D02*
X45500000Y-23790000D01*
%TO.N,Net-(P1-D+)*%
X60000000Y-24790000D02*
X59000000Y-25790000D01*
X52500000Y-26290000D02*
X52000000Y-25790000D01*
X58500000Y-26290000D02*
X56000000Y-26290000D01*
X52000000Y-25790000D02*
X47000000Y-25790000D01*
X56000000Y-26290000D02*
X52500000Y-26290000D01*
X63000000Y-24790000D02*
X60000000Y-24790000D01*
X59000000Y-25790000D02*
X58500000Y-26290000D01*
X47000000Y-25790000D02*
X45500000Y-27290000D01*
%TO.N,Net-(Q1-S)*%
X41935000Y-54225000D02*
X40000000Y-52290000D01*
X41935000Y-54355000D02*
X41935000Y-54225000D01*
X40000000Y-52290000D02*
X35500000Y-52290000D01*
X35500000Y-52290000D02*
X33000000Y-54790000D01*
%TD*%
M02*
