%TF.GenerationSoftware,KiCad,Pcbnew,8.0.6*%
%TF.CreationDate,2025-06-01T13:35:18-05:00*%
%TF.ProjectId,TPS_Calibration_Board,5450535f-4361-46c6-9962-726174696f6e,rev?*%
%TF.SameCoordinates,Original*%
%TF.FileFunction,Copper,L3,Inr*%
%TF.FilePolarity,Positive*%
%FSLAX46Y46*%
G04 Gerber Fmt 4.6, Leading zero omitted, Abs format (unit mm)*
G04 Created by KiCad (PCBNEW 8.0.6) date 2025-06-01 13:35:18*
%MOMM*%
%LPD*%
G01*
G04 APERTURE LIST*
%TA.AperFunction,ComponentPad*%
%ADD10C,0.600000*%
%TD*%
%TA.AperFunction,ComponentPad*%
%ADD11O,2.100000X1.100000*%
%TD*%
%TA.AperFunction,ComponentPad*%
%ADD12O,2.600000X1.100000*%
%TD*%
%TA.AperFunction,ComponentPad*%
%ADD13R,1.700000X1.700000*%
%TD*%
%TA.AperFunction,ComponentPad*%
%ADD14O,1.700000X1.700000*%
%TD*%
%TA.AperFunction,ComponentPad*%
%ADD15R,1.600000X1.600000*%
%TD*%
%TA.AperFunction,ComponentPad*%
%ADD16O,1.600000X1.600000*%
%TD*%
%TA.AperFunction,ComponentPad*%
%ADD17C,1.500000*%
%TD*%
%TA.AperFunction,ViaPad*%
%ADD18C,0.600000*%
%TD*%
G04 APERTURE END LIST*
D10*
%TO.N,GND*%
%TO.C,U4*%
X37000000Y-53190000D03*
X37000000Y-54390000D03*
X37000000Y-55690000D03*
X37000000Y-56790000D03*
X38200000Y-53190000D03*
X38200000Y-54390000D03*
X38200000Y-55690000D03*
X38200000Y-56790000D03*
%TD*%
D11*
%TO.N,GND*%
%TO.C,P1*%
X66110000Y-28860000D03*
D12*
X71470000Y-28860000D03*
D11*
X66110000Y-20220000D03*
D12*
X71470000Y-20220000D03*
%TD*%
D13*
%TO.N,+5V*%
%TO.C,J2*%
X18500000Y-22765000D03*
D14*
%TO.N,SIG_IN*%
X18500000Y-25305000D03*
%TO.N,GND*%
X18500000Y-27845000D03*
%TD*%
D15*
%TO.N,EEPROM_CS*%
%TO.C,U1*%
X53200000Y-31670000D03*
D16*
%TO.N,EEPROM_MISO*%
X53200000Y-34210000D03*
%TO.N,Net-(U1-~{WP})*%
X53200000Y-36750000D03*
%TO.N,GND*%
X53200000Y-39290000D03*
%TO.N,EEPROM_MOSI*%
X60820000Y-39290000D03*
%TO.N,EEPROM_SCK*%
X60820000Y-36750000D03*
%TO.N,Net-(U1-~{HOLD})*%
X60820000Y-34210000D03*
%TO.N,+3.3V*%
X60820000Y-31670000D03*
%TD*%
D17*
%TO.N,Net-(U2-PF1)*%
%TO.C,Y1*%
X69000000Y-44340000D03*
%TO.N,Net-(U2-PF0)*%
X69000000Y-49220000D03*
%TD*%
D13*
%TO.N,+5V*%
%TO.C,J1*%
X18500000Y-51210000D03*
D14*
%TO.N,SIG_OUT*%
X18500000Y-53750000D03*
%TO.N,GND*%
X18500000Y-56290000D03*
%TD*%
D13*
%TO.N,/BOOT0*%
%TO.C,JP1*%
X27500000Y-39750000D03*
D14*
%TO.N,+3.3V*%
X27500000Y-42290000D03*
%TO.N,N/C*%
X27500000Y-44830000D03*
%TD*%
D18*
%TO.N,GND*%
X34500000Y-31290000D03*
X25000000Y-56790000D03*
X49000000Y-47290000D03*
X61000000Y-47290000D03*
X57500000Y-21290000D03*
X45500000Y-36790000D03*
X51000000Y-26790000D03*
X33000000Y-56790000D03*
X65000000Y-56790000D03*
X48000000Y-36290000D03*
X34500000Y-48290000D03*
X28500000Y-32040000D03*
X37500000Y-39290000D03*
X63500000Y-21790000D03*
X44500000Y-26790000D03*
X25500000Y-36790000D03*
X42000000Y-55790000D03*
X39500000Y-24290000D03*
X51000000Y-40790000D03*
X58500000Y-27790000D03*
X64000000Y-27790000D03*
%TO.N,Net-(U2-PF0)*%
X34500000Y-38290000D03*
%TO.N,NRST*%
X36500000Y-37790000D03*
X29500000Y-35790000D03*
X32000000Y-35790000D03*
%TO.N,Net-(U2-PF1)*%
X35500000Y-38290000D03*
%TO.N,Net-(U2-VDDA)*%
X46000000Y-40290000D03*
X46500000Y-36290000D03*
X35000000Y-35790000D03*
X47500000Y-31790000D03*
%TO.N,+3.3V*%
X65000000Y-54790000D03*
X33500000Y-24290000D03*
X34500000Y-44790000D03*
%TO.N,+5V*%
X24000000Y-35290000D03*
X26000000Y-52790000D03*
%TO.N,Net-(U3-VCC)*%
X58000000Y-24790000D03*
X52000000Y-23290000D03*
%TO.N,Net-(U3-USBDM)*%
X53709038Y-29300713D03*
X48000000Y-24290000D03*
X51500000Y-27790000D03*
%TO.N,SIG_OUT*%
X43000000Y-39790000D03*
%TO.N,SIG_IN*%
X32500000Y-37790000D03*
%TO.N,/SWCLK*%
X37500000Y-24290000D03*
X39603179Y-26487313D03*
%TO.N,/SWDIO*%
X43000000Y-26290000D03*
X42000000Y-24290000D03*
%TO.N,Net-(P1-D-)*%
X64500000Y-23790000D03*
X45500000Y-23790000D03*
%TO.N,Net-(P1-D+)*%
X45500000Y-27290000D03*
X63000000Y-24790000D03*
%TO.N,Net-(P1-VCONN)*%
X63500000Y-23790000D03*
X62500000Y-26790000D03*
%TO.N,Net-(P1-CC)*%
X66000000Y-30290000D03*
X63635709Y-25440000D03*
%TO.N,Net-(Q1-S)*%
X33000000Y-54790000D03*
X41935000Y-54355000D03*
%TO.N,Net-(U3-USBDP)*%
X48000000Y-27790000D03*
%TO.N,USB_SENSE*%
X58000000Y-22290000D03*
%TO.N,Net-(R11-Pad1)*%
X41693487Y-50304784D03*
%TO.N,EEPROM_CS*%
X50000000Y-31790000D03*
X39000000Y-27290000D03*
%TO.N,EEPROM_MOSI*%
X47500000Y-39790000D03*
X45000000Y-37790000D03*
%TO.N,UART_TX*%
X49977473Y-26791214D03*
X49978462Y-30322438D03*
%TO.N,UART_RX*%
X45500000Y-30290000D03*
X51000000Y-24290000D03*
%TD*%
%TA.AperFunction,Conductor*%
%TO.N,GND*%
G36*
X20167680Y-18185783D02*
G01*
X20191347Y-18210368D01*
X20199257Y-18221255D01*
X20296172Y-18354646D01*
X20435354Y-18493828D01*
X20594595Y-18609524D01*
X20677455Y-18651743D01*
X20769970Y-18698882D01*
X20769972Y-18698882D01*
X20769975Y-18698884D01*
X20870317Y-18731487D01*
X20957173Y-18759709D01*
X21151578Y-18790500D01*
X21151583Y-18790500D01*
X68848422Y-18790500D01*
X69042826Y-18759709D01*
X69230025Y-18698884D01*
X69405405Y-18609524D01*
X69564646Y-18493828D01*
X69703828Y-18354646D01*
X69808653Y-18210366D01*
X69863982Y-18167703D01*
X69933596Y-18161724D01*
X69995390Y-18194330D01*
X70016356Y-18221253D01*
X70049614Y-18278857D01*
X70181736Y-18444533D01*
X70213198Y-18483985D01*
X70394753Y-18652441D01*
X70405521Y-18662433D01*
X70622296Y-18810228D01*
X70622301Y-18810230D01*
X70622302Y-18810231D01*
X70622303Y-18810232D01*
X70823335Y-18907043D01*
X70858677Y-18924063D01*
X70869853Y-18927510D01*
X70928109Y-18966080D01*
X70956267Y-19030025D01*
X70945383Y-19099042D01*
X70898913Y-19151218D01*
X70833300Y-19170000D01*
X70616579Y-19170000D01*
X70413733Y-19210348D01*
X70413725Y-19210350D01*
X70222641Y-19289500D01*
X70222631Y-19289505D01*
X70050664Y-19404410D01*
X70050660Y-19404413D01*
X69904413Y-19550660D01*
X69904410Y-19550664D01*
X69789505Y-19722631D01*
X69789500Y-19722641D01*
X69710351Y-19913723D01*
X69710350Y-19913725D01*
X69699157Y-19970000D01*
X70553012Y-19970000D01*
X70535795Y-19979940D01*
X70479940Y-20035795D01*
X70440444Y-20104204D01*
X70420000Y-20180504D01*
X70420000Y-20259496D01*
X70440444Y-20335796D01*
X70479940Y-20404205D01*
X70535795Y-20460060D01*
X70553012Y-20470000D01*
X69699157Y-20470000D01*
X69710350Y-20526274D01*
X69710351Y-20526276D01*
X69789500Y-20717358D01*
X69789505Y-20717368D01*
X69904410Y-20889335D01*
X69904413Y-20889339D01*
X70050660Y-21035586D01*
X70050664Y-21035589D01*
X70222631Y-21150494D01*
X70222641Y-21150499D01*
X70413725Y-21229649D01*
X70413733Y-21229651D01*
X70616579Y-21269999D01*
X70616583Y-21270000D01*
X71220000Y-21270000D01*
X71220000Y-20520000D01*
X71720000Y-20520000D01*
X71720000Y-21270000D01*
X72323417Y-21270000D01*
X72323420Y-21269999D01*
X72526266Y-21229651D01*
X72526274Y-21229649D01*
X72717358Y-21150499D01*
X72717367Y-21150494D01*
X72806609Y-21090865D01*
X72873286Y-21069987D01*
X72940666Y-21088471D01*
X72987357Y-21140450D01*
X72999500Y-21193967D01*
X72999500Y-27886032D01*
X72979815Y-27953071D01*
X72927011Y-27998826D01*
X72857853Y-28008770D01*
X72806609Y-27989134D01*
X72717368Y-27929505D01*
X72717358Y-27929500D01*
X72526274Y-27850350D01*
X72526266Y-27850348D01*
X72323420Y-27810000D01*
X71720000Y-27810000D01*
X71720000Y-28560000D01*
X71220000Y-28560000D01*
X71220000Y-27810000D01*
X70616579Y-27810000D01*
X70413733Y-27850348D01*
X70413725Y-27850350D01*
X70222641Y-27929500D01*
X70222631Y-27929505D01*
X70050664Y-28044410D01*
X70050660Y-28044413D01*
X69904413Y-28190660D01*
X69904410Y-28190664D01*
X69789505Y-28362631D01*
X69789500Y-28362641D01*
X69710351Y-28553723D01*
X69710350Y-28553725D01*
X69699157Y-28610000D01*
X70553012Y-28610000D01*
X70535795Y-28619940D01*
X70479940Y-28675795D01*
X70440444Y-28744204D01*
X70420000Y-28820504D01*
X70420000Y-28899496D01*
X70440444Y-28975796D01*
X70479940Y-29044205D01*
X70535795Y-29100060D01*
X70553012Y-29110000D01*
X69699157Y-29110000D01*
X69710350Y-29166274D01*
X69710351Y-29166276D01*
X69789500Y-29357358D01*
X69789505Y-29357368D01*
X69904410Y-29529335D01*
X69904413Y-29529339D01*
X70050660Y-29675586D01*
X70050664Y-29675589D01*
X70222631Y-29790494D01*
X70222641Y-29790499D01*
X70413725Y-29869649D01*
X70413733Y-29869651D01*
X70616579Y-29909999D01*
X70616583Y-29910000D01*
X71220000Y-29910000D01*
X71220000Y-29160000D01*
X71720000Y-29160000D01*
X71720000Y-29910000D01*
X72323417Y-29910000D01*
X72323420Y-29909999D01*
X72526266Y-29869651D01*
X72526274Y-29869649D01*
X72717358Y-29790499D01*
X72717367Y-29790494D01*
X72806609Y-29730865D01*
X72873286Y-29709987D01*
X72940666Y-29728471D01*
X72987357Y-29780450D01*
X72999500Y-29833967D01*
X72999500Y-59759302D01*
X72979815Y-59826341D01*
X72927011Y-59872096D01*
X72857853Y-59882040D01*
X72794297Y-59853015D01*
X72790262Y-59849115D01*
X72790207Y-59849175D01*
X72594479Y-59667567D01*
X72541015Y-59631116D01*
X72377704Y-59519772D01*
X72377700Y-59519770D01*
X72377697Y-59519768D01*
X72377696Y-59519767D01*
X72141325Y-59405938D01*
X72141327Y-59405938D01*
X71890623Y-59328606D01*
X71890619Y-59328605D01*
X71890615Y-59328604D01*
X71765823Y-59309794D01*
X71631187Y-59289500D01*
X71631182Y-59289500D01*
X71368818Y-59289500D01*
X71368812Y-59289500D01*
X71207247Y-59313853D01*
X71109385Y-59328604D01*
X71109382Y-59328605D01*
X71109376Y-59328606D01*
X70858673Y-59405938D01*
X70622303Y-59519767D01*
X70622302Y-59519768D01*
X70405520Y-59667567D01*
X70213198Y-59846014D01*
X70049616Y-60051140D01*
X70049614Y-60051143D01*
X70016357Y-60108746D01*
X69965789Y-60156961D01*
X69897182Y-60170183D01*
X69832317Y-60144215D01*
X69808652Y-60119631D01*
X69703832Y-59975360D01*
X69703828Y-59975354D01*
X69564646Y-59836172D01*
X69405405Y-59720476D01*
X69230029Y-59631117D01*
X69042826Y-59570290D01*
X68848422Y-59539500D01*
X68848417Y-59539500D01*
X68815892Y-59539500D01*
X21315892Y-59539500D01*
X21250000Y-59539500D01*
X21151583Y-59539500D01*
X21151578Y-59539500D01*
X20957173Y-59570290D01*
X20769970Y-59631117D01*
X20594594Y-59720476D01*
X20522624Y-59772766D01*
X20435354Y-59836172D01*
X20435352Y-59836174D01*
X20435351Y-59836174D01*
X20296174Y-59975351D01*
X20296167Y-59975360D01*
X20191346Y-60119631D01*
X20136016Y-60162297D01*
X20066403Y-60168275D01*
X20004608Y-60135668D01*
X19983643Y-60108746D01*
X19950386Y-60051143D01*
X19786805Y-59846019D01*
X19786804Y-59846018D01*
X19786801Y-59846014D01*
X19594479Y-59667567D01*
X19541015Y-59631116D01*
X19377704Y-59519772D01*
X19377700Y-59519770D01*
X19377697Y-59519768D01*
X19377696Y-59519767D01*
X19141325Y-59405938D01*
X19141327Y-59405938D01*
X18890623Y-59328606D01*
X18890619Y-59328605D01*
X18890615Y-59328604D01*
X18765823Y-59309794D01*
X18631187Y-59289500D01*
X18631182Y-59289500D01*
X18368818Y-59289500D01*
X18368812Y-59289500D01*
X18207247Y-59313853D01*
X18109385Y-59328604D01*
X18109382Y-59328605D01*
X18109376Y-59328606D01*
X17858673Y-59405938D01*
X17622303Y-59519767D01*
X17622302Y-59519768D01*
X17405520Y-59667567D01*
X17209793Y-59849175D01*
X17208482Y-59847762D01*
X17155370Y-59879398D01*
X17085540Y-59877023D01*
X17028080Y-59837272D01*
X17001233Y-59772766D01*
X17000500Y-59759302D01*
X17000500Y-56828011D01*
X17020185Y-56760972D01*
X17072989Y-56715217D01*
X17142147Y-56705273D01*
X17205703Y-56734298D01*
X17236882Y-56775606D01*
X17326399Y-56967578D01*
X17461894Y-57161082D01*
X17628917Y-57328105D01*
X17822421Y-57463600D01*
X18036507Y-57563429D01*
X18036516Y-57563433D01*
X18250000Y-57620634D01*
X18250000Y-56723012D01*
X18307007Y-56755925D01*
X18434174Y-56790000D01*
X18565826Y-56790000D01*
X18692993Y-56755925D01*
X18750000Y-56723012D01*
X18750000Y-57620633D01*
X18963483Y-57563433D01*
X18963492Y-57563429D01*
X19085235Y-57506660D01*
X36636892Y-57506660D01*
X36636892Y-57506661D01*
X36650692Y-57515333D01*
X36650691Y-57515333D01*
X36820861Y-57574878D01*
X36999997Y-57595062D01*
X37000003Y-57595062D01*
X37179138Y-57574878D01*
X37179141Y-57574877D01*
X37349305Y-57515334D01*
X37349306Y-57515334D01*
X37363106Y-57506661D01*
X37363106Y-57506660D01*
X37836892Y-57506660D01*
X37836892Y-57506661D01*
X37850692Y-57515333D01*
X37850691Y-57515333D01*
X38020861Y-57574878D01*
X38199997Y-57595062D01*
X38200003Y-57595062D01*
X38379138Y-57574878D01*
X38379141Y-57574877D01*
X38549305Y-57515334D01*
X38549306Y-57515334D01*
X38563106Y-57506661D01*
X38563106Y-57506660D01*
X38200001Y-57143553D01*
X38200000Y-57143553D01*
X37836892Y-57506660D01*
X37363106Y-57506660D01*
X37000001Y-57143553D01*
X37000000Y-57143553D01*
X36636892Y-57506660D01*
X19085235Y-57506660D01*
X19177578Y-57463600D01*
X19371082Y-57328105D01*
X19538105Y-57161082D01*
X19673600Y-56967578D01*
X19756407Y-56789997D01*
X36194938Y-56789997D01*
X36194938Y-56790002D01*
X36215121Y-56969138D01*
X36274665Y-57139304D01*
X36283338Y-57153107D01*
X36646446Y-56790000D01*
X36646446Y-56789999D01*
X36616610Y-56760163D01*
X36850000Y-56760163D01*
X36850000Y-56819837D01*
X36872836Y-56874968D01*
X36915032Y-56917164D01*
X36970163Y-56940000D01*
X37029837Y-56940000D01*
X37084968Y-56917164D01*
X37127164Y-56874968D01*
X37150000Y-56819837D01*
X37150000Y-56789999D01*
X37353553Y-56789999D01*
X37600000Y-57036446D01*
X37846446Y-56790001D01*
X37846446Y-56790000D01*
X37816609Y-56760163D01*
X38050000Y-56760163D01*
X38050000Y-56819837D01*
X38072836Y-56874968D01*
X38115032Y-56917164D01*
X38170163Y-56940000D01*
X38229837Y-56940000D01*
X38284968Y-56917164D01*
X38327164Y-56874968D01*
X38350000Y-56819837D01*
X38350000Y-56790000D01*
X38553553Y-56790000D01*
X38916660Y-57153106D01*
X38916661Y-57153106D01*
X38925334Y-57139306D01*
X38925334Y-57139305D01*
X38984877Y-56969141D01*
X38984878Y-56969138D01*
X39005062Y-56790002D01*
X39005062Y-56789997D01*
X38984878Y-56610861D01*
X38925333Y-56440692D01*
X38916661Y-56426892D01*
X38916660Y-56426892D01*
X38553553Y-56790000D01*
X38350000Y-56790000D01*
X38350000Y-56760163D01*
X38327164Y-56705032D01*
X38284968Y-56662836D01*
X38229837Y-56640000D01*
X38170163Y-56640000D01*
X38115032Y-56662836D01*
X38072836Y-56705032D01*
X38050000Y-56760163D01*
X37816609Y-56760163D01*
X37600000Y-56543553D01*
X37353553Y-56789999D01*
X37150000Y-56789999D01*
X37150000Y-56760163D01*
X37127164Y-56705032D01*
X37084968Y-56662836D01*
X37029837Y-56640000D01*
X36970163Y-56640000D01*
X36915032Y-56662836D01*
X36872836Y-56705032D01*
X36850000Y-56760163D01*
X36616610Y-56760163D01*
X36283338Y-56426891D01*
X36283337Y-56426891D01*
X36274667Y-56440691D01*
X36274662Y-56440701D01*
X36215122Y-56610858D01*
X36215121Y-56610861D01*
X36194938Y-56789997D01*
X19756407Y-56789997D01*
X19773429Y-56753492D01*
X19773432Y-56753486D01*
X19830636Y-56540000D01*
X18933012Y-56540000D01*
X18965925Y-56482993D01*
X19000000Y-56355826D01*
X19000000Y-56239999D01*
X36803553Y-56239999D01*
X37000000Y-56436446D01*
X37196446Y-56240001D01*
X37196446Y-56240000D01*
X37196445Y-56239999D01*
X38003553Y-56239999D01*
X38200000Y-56436446D01*
X38396446Y-56240001D01*
X38396446Y-56240000D01*
X38200000Y-56043553D01*
X38003553Y-56239999D01*
X37196445Y-56239999D01*
X37000000Y-56043553D01*
X36803553Y-56239999D01*
X19000000Y-56239999D01*
X19000000Y-56224174D01*
X18965925Y-56097007D01*
X18933012Y-56040000D01*
X19830636Y-56040000D01*
X19830635Y-56039999D01*
X19773432Y-55826513D01*
X19773429Y-55826507D01*
X19709774Y-55689997D01*
X36194938Y-55689997D01*
X36194938Y-55690002D01*
X36215121Y-55869138D01*
X36274665Y-56039304D01*
X36283338Y-56053107D01*
X36646446Y-55690000D01*
X36646446Y-55689999D01*
X36616610Y-55660163D01*
X36850000Y-55660163D01*
X36850000Y-55719837D01*
X36872836Y-55774968D01*
X36915032Y-55817164D01*
X36970163Y-55840000D01*
X37029837Y-55840000D01*
X37084968Y-55817164D01*
X37127164Y-55774968D01*
X37150000Y-55719837D01*
X37150000Y-55660163D01*
X37127164Y-55605032D01*
X37084968Y-55562836D01*
X37029837Y-55540000D01*
X36970163Y-55540000D01*
X36915032Y-55562836D01*
X36872836Y-55605032D01*
X36850000Y-55660163D01*
X36616610Y-55660163D01*
X36283338Y-55326891D01*
X36283337Y-55326891D01*
X36274667Y-55340691D01*
X36274662Y-55340701D01*
X36215122Y-55510858D01*
X36215121Y-55510861D01*
X36194938Y-55689997D01*
X19709774Y-55689997D01*
X19673600Y-55612422D01*
X19673599Y-55612420D01*
X19538113Y-55418926D01*
X19538108Y-55418920D01*
X19371078Y-55251890D01*
X19185405Y-55121879D01*
X19141780Y-55067302D01*
X19134588Y-54997804D01*
X19166110Y-54935449D01*
X19185406Y-54918730D01*
X19369257Y-54789996D01*
X32194435Y-54789996D01*
X32194435Y-54790003D01*
X32214630Y-54969249D01*
X32214631Y-54969254D01*
X32274211Y-55139523D01*
X32344817Y-55251891D01*
X32370184Y-55292262D01*
X32497738Y-55419816D01*
X32650478Y-55515789D01*
X32784931Y-55562836D01*
X32820745Y-55575368D01*
X32820750Y-55575369D01*
X32999996Y-55595565D01*
X33000000Y-55595565D01*
X33000004Y-55595565D01*
X33179249Y-55575369D01*
X33179252Y-55575368D01*
X33179255Y-55575368D01*
X33349522Y-55515789D01*
X33502262Y-55419816D01*
X33629816Y-55292262D01*
X33725789Y-55139522D01*
X33760613Y-55040000D01*
X36703553Y-55040000D01*
X37000000Y-55336447D01*
X37600000Y-55936446D01*
X37876283Y-55660163D01*
X38050000Y-55660163D01*
X38050000Y-55719837D01*
X38072836Y-55774968D01*
X38115032Y-55817164D01*
X38170163Y-55840000D01*
X38229837Y-55840000D01*
X38284968Y-55817164D01*
X38327164Y-55774968D01*
X38350000Y-55719837D01*
X38350000Y-55690000D01*
X38553553Y-55690000D01*
X38916660Y-56053106D01*
X38916661Y-56053106D01*
X38925334Y-56039306D01*
X38925334Y-56039305D01*
X38984877Y-55869141D01*
X38984878Y-55869138D01*
X39005062Y-55690002D01*
X39005062Y-55689997D01*
X38984878Y-55510861D01*
X38925333Y-55340692D01*
X38916661Y-55326892D01*
X38916660Y-55326892D01*
X38553553Y-55690000D01*
X38350000Y-55690000D01*
X38350000Y-55660163D01*
X38327164Y-55605032D01*
X38284968Y-55562836D01*
X38229837Y-55540000D01*
X38170163Y-55540000D01*
X38115032Y-55562836D01*
X38072836Y-55605032D01*
X38050000Y-55660163D01*
X37876283Y-55660163D01*
X38200000Y-55336447D01*
X38496446Y-55040000D01*
X37934127Y-54477681D01*
X37900642Y-54416358D01*
X37904661Y-54360163D01*
X38050000Y-54360163D01*
X38050000Y-54419837D01*
X38072836Y-54474968D01*
X38115032Y-54517164D01*
X38170163Y-54540000D01*
X38229837Y-54540000D01*
X38284968Y-54517164D01*
X38327164Y-54474968D01*
X38350000Y-54419837D01*
X38350000Y-54390000D01*
X38553553Y-54390000D01*
X38916660Y-54753106D01*
X38916661Y-54753106D01*
X38925334Y-54739306D01*
X38925334Y-54739305D01*
X38984877Y-54569141D01*
X38984878Y-54569138D01*
X39005062Y-54390002D01*
X39005062Y-54389997D01*
X39001118Y-54354996D01*
X41129435Y-54354996D01*
X41129435Y-54355003D01*
X41149630Y-54534249D01*
X41149631Y-54534254D01*
X41209211Y-54704523D01*
X41262918Y-54789996D01*
X41305184Y-54857262D01*
X41432738Y-54984816D01*
X41494945Y-55023903D01*
X41564013Y-55067302D01*
X41585478Y-55080789D01*
X41753327Y-55139522D01*
X41755745Y-55140368D01*
X41755750Y-55140369D01*
X41934996Y-55160565D01*
X41935000Y-55160565D01*
X41935004Y-55160565D01*
X42114249Y-55140369D01*
X42114252Y-55140368D01*
X42114255Y-55140368D01*
X42284522Y-55080789D01*
X42437262Y-54984816D01*
X42564816Y-54857262D01*
X42607082Y-54789996D01*
X64194435Y-54789996D01*
X64194435Y-54790003D01*
X64214630Y-54969249D01*
X64214631Y-54969254D01*
X64274211Y-55139523D01*
X64344817Y-55251891D01*
X64370184Y-55292262D01*
X64497738Y-55419816D01*
X64650478Y-55515789D01*
X64784931Y-55562836D01*
X64820745Y-55575368D01*
X64820750Y-55575369D01*
X64999996Y-55595565D01*
X65000000Y-55595565D01*
X65000004Y-55595565D01*
X65179249Y-55575369D01*
X65179252Y-55575368D01*
X65179255Y-55575368D01*
X65349522Y-55515789D01*
X65502262Y-55419816D01*
X65629816Y-55292262D01*
X65725789Y-55139522D01*
X65785368Y-54969255D01*
X65791061Y-54918730D01*
X65805565Y-54790003D01*
X65805565Y-54789996D01*
X65785369Y-54610750D01*
X65785368Y-54610745D01*
X65758601Y-54534249D01*
X65725789Y-54440478D01*
X65712819Y-54419837D01*
X65672081Y-54355003D01*
X65629816Y-54287738D01*
X65502262Y-54160184D01*
X65349523Y-54064211D01*
X65179254Y-54004631D01*
X65179249Y-54004630D01*
X65000004Y-53984435D01*
X64999996Y-53984435D01*
X64820750Y-54004630D01*
X64820745Y-54004631D01*
X64650476Y-54064211D01*
X64497737Y-54160184D01*
X64370184Y-54287737D01*
X64274211Y-54440476D01*
X64214631Y-54610745D01*
X64214630Y-54610750D01*
X64194435Y-54789996D01*
X42607082Y-54789996D01*
X42660789Y-54704522D01*
X42720368Y-54534255D01*
X42722294Y-54517164D01*
X42740565Y-54355003D01*
X42740565Y-54354996D01*
X42720369Y-54175750D01*
X42720368Y-54175745D01*
X42714923Y-54160184D01*
X42660789Y-54005478D01*
X42660257Y-54004632D01*
X42564815Y-53852737D01*
X42437262Y-53725184D01*
X42284523Y-53629211D01*
X42114254Y-53569631D01*
X42114249Y-53569630D01*
X41935004Y-53549435D01*
X41934996Y-53549435D01*
X41755750Y-53569630D01*
X41755745Y-53569631D01*
X41585476Y-53629211D01*
X41432737Y-53725184D01*
X41305184Y-53852737D01*
X41209211Y-54005476D01*
X41149631Y-54175745D01*
X41149630Y-54175750D01*
X41129435Y-54354996D01*
X39001118Y-54354996D01*
X38984878Y-54210861D01*
X38925333Y-54040692D01*
X38916661Y-54026892D01*
X38916660Y-54026892D01*
X38553553Y-54390000D01*
X38350000Y-54390000D01*
X38350000Y-54360163D01*
X38327164Y-54305032D01*
X38284968Y-54262836D01*
X38229837Y-54240000D01*
X38170163Y-54240000D01*
X38115032Y-54262836D01*
X38072836Y-54305032D01*
X38050000Y-54360163D01*
X37904661Y-54360163D01*
X37905626Y-54346666D01*
X37934127Y-54302319D01*
X38200000Y-54036447D01*
X38446446Y-53790000D01*
X38446446Y-53789999D01*
X37816610Y-53160163D01*
X38050000Y-53160163D01*
X38050000Y-53219837D01*
X38072836Y-53274968D01*
X38115032Y-53317164D01*
X38170163Y-53340000D01*
X38229837Y-53340000D01*
X38284968Y-53317164D01*
X38327164Y-53274968D01*
X38350000Y-53219837D01*
X38350000Y-53190000D01*
X38553553Y-53190000D01*
X38916660Y-53553106D01*
X38916661Y-53553106D01*
X38925334Y-53539306D01*
X38925334Y-53539305D01*
X38984877Y-53369141D01*
X38984878Y-53369138D01*
X39005062Y-53190002D01*
X39005062Y-53189997D01*
X38984878Y-53010861D01*
X38925333Y-52840692D01*
X38916661Y-52826892D01*
X38916660Y-52826892D01*
X38553553Y-53190000D01*
X38350000Y-53190000D01*
X38350000Y-53160163D01*
X38327164Y-53105032D01*
X38284968Y-53062836D01*
X38229837Y-53040000D01*
X38170163Y-53040000D01*
X38115032Y-53062836D01*
X38072836Y-53105032D01*
X38050000Y-53160163D01*
X37816610Y-53160163D01*
X37600000Y-52943553D01*
X36753553Y-53790000D01*
X37265872Y-54302319D01*
X37299357Y-54363642D01*
X37294373Y-54433334D01*
X37265872Y-54477681D01*
X36703553Y-55040000D01*
X33760613Y-55040000D01*
X33785368Y-54969255D01*
X33791061Y-54918730D01*
X33805565Y-54790003D01*
X33805565Y-54789996D01*
X33785369Y-54610750D01*
X33785368Y-54610745D01*
X33758601Y-54534249D01*
X33725789Y-54440478D01*
X33712819Y-54419837D01*
X33694069Y-54389997D01*
X36194938Y-54389997D01*
X36194938Y-54390002D01*
X36215121Y-54569138D01*
X36274665Y-54739304D01*
X36283338Y-54753107D01*
X36646446Y-54390000D01*
X36646446Y-54389999D01*
X36616610Y-54360163D01*
X36850000Y-54360163D01*
X36850000Y-54419837D01*
X36872836Y-54474968D01*
X36915032Y-54517164D01*
X36970163Y-54540000D01*
X37029837Y-54540000D01*
X37084968Y-54517164D01*
X37127164Y-54474968D01*
X37150000Y-54419837D01*
X37150000Y-54360163D01*
X37127164Y-54305032D01*
X37084968Y-54262836D01*
X37029837Y-54240000D01*
X36970163Y-54240000D01*
X36915032Y-54262836D01*
X36872836Y-54305032D01*
X36850000Y-54360163D01*
X36616610Y-54360163D01*
X36283338Y-54026891D01*
X36283337Y-54026891D01*
X36274667Y-54040691D01*
X36274662Y-54040701D01*
X36215122Y-54210858D01*
X36215121Y-54210861D01*
X36194938Y-54389997D01*
X33694069Y-54389997D01*
X33672081Y-54355003D01*
X33629816Y-54287738D01*
X33502262Y-54160184D01*
X33349523Y-54064211D01*
X33179254Y-54004631D01*
X33179249Y-54004630D01*
X33000004Y-53984435D01*
X32999996Y-53984435D01*
X32820750Y-54004630D01*
X32820745Y-54004631D01*
X32650476Y-54064211D01*
X32497737Y-54160184D01*
X32370184Y-54287737D01*
X32274211Y-54440476D01*
X32214631Y-54610745D01*
X32214630Y-54610750D01*
X32194435Y-54789996D01*
X19369257Y-54789996D01*
X19371401Y-54788495D01*
X19538495Y-54621401D01*
X19674035Y-54427830D01*
X19773903Y-54213663D01*
X19835063Y-53985408D01*
X19855659Y-53750000D01*
X19835063Y-53514592D01*
X19782163Y-53317164D01*
X19773905Y-53286344D01*
X19773904Y-53286343D01*
X19773903Y-53286337D01*
X19674035Y-53072171D01*
X19631105Y-53010861D01*
X19538496Y-52878600D01*
X19486787Y-52826891D01*
X19449892Y-52789996D01*
X25194435Y-52789996D01*
X25194435Y-52790003D01*
X25214630Y-52969249D01*
X25214631Y-52969254D01*
X25274211Y-53139523D01*
X25319000Y-53210803D01*
X25370184Y-53292262D01*
X25497738Y-53419816D01*
X25650478Y-53515789D01*
X25820745Y-53575368D01*
X25820750Y-53575369D01*
X25999996Y-53595565D01*
X26000000Y-53595565D01*
X26000004Y-53595565D01*
X26179249Y-53575369D01*
X26179252Y-53575368D01*
X26179255Y-53575368D01*
X26349522Y-53515789D01*
X26502262Y-53419816D01*
X26629816Y-53292262D01*
X26694073Y-53189997D01*
X36194938Y-53189997D01*
X36194938Y-53190002D01*
X36215121Y-53369138D01*
X36274665Y-53539304D01*
X36283338Y-53553107D01*
X36646446Y-53190000D01*
X36646446Y-53189999D01*
X36616610Y-53160163D01*
X36850000Y-53160163D01*
X36850000Y-53219837D01*
X36872836Y-53274968D01*
X36915032Y-53317164D01*
X36970163Y-53340000D01*
X37029837Y-53340000D01*
X37084968Y-53317164D01*
X37127164Y-53274968D01*
X37150000Y-53219837D01*
X37150000Y-53160163D01*
X37127164Y-53105032D01*
X37084968Y-53062836D01*
X37029837Y-53040000D01*
X36970163Y-53040000D01*
X36915032Y-53062836D01*
X36872836Y-53105032D01*
X36850000Y-53160163D01*
X36616610Y-53160163D01*
X36283338Y-52826891D01*
X36283337Y-52826891D01*
X36274667Y-52840691D01*
X36274662Y-52840701D01*
X36215122Y-53010858D01*
X36215121Y-53010861D01*
X36194938Y-53189997D01*
X26694073Y-53189997D01*
X26725789Y-53139522D01*
X26785368Y-52969255D01*
X26788264Y-52943553D01*
X26805565Y-52790003D01*
X26805565Y-52789996D01*
X26785369Y-52610750D01*
X26785368Y-52610745D01*
X26771014Y-52569725D01*
X26737287Y-52473337D01*
X36636891Y-52473337D01*
X36636891Y-52473338D01*
X37000000Y-52836446D01*
X37000001Y-52836446D01*
X37363107Y-52473338D01*
X37363105Y-52473337D01*
X37836891Y-52473337D01*
X37836891Y-52473338D01*
X38200000Y-52836446D01*
X38200001Y-52836446D01*
X38563107Y-52473338D01*
X38549304Y-52464665D01*
X38379138Y-52405121D01*
X38200003Y-52384938D01*
X38199997Y-52384938D01*
X38020861Y-52405121D01*
X38020858Y-52405122D01*
X37850701Y-52464662D01*
X37850691Y-52464667D01*
X37836891Y-52473337D01*
X37363105Y-52473337D01*
X37349304Y-52464665D01*
X37179138Y-52405121D01*
X37000003Y-52384938D01*
X36999997Y-52384938D01*
X36820861Y-52405121D01*
X36820858Y-52405122D01*
X36650701Y-52464662D01*
X36650691Y-52464667D01*
X36636891Y-52473337D01*
X26737287Y-52473337D01*
X26725789Y-52440478D01*
X26711380Y-52417547D01*
X26686582Y-52378080D01*
X26629816Y-52287738D01*
X26502262Y-52160184D01*
X26419010Y-52107873D01*
X26349523Y-52064211D01*
X26179254Y-52004631D01*
X26179249Y-52004630D01*
X26000004Y-51984435D01*
X25999996Y-51984435D01*
X25820750Y-52004630D01*
X25820745Y-52004631D01*
X25650476Y-52064211D01*
X25497737Y-52160184D01*
X25370184Y-52287737D01*
X25274211Y-52440476D01*
X25214631Y-52610745D01*
X25214630Y-52610750D01*
X25194435Y-52789996D01*
X19449892Y-52789996D01*
X19416567Y-52756671D01*
X19383084Y-52695351D01*
X19388068Y-52625659D01*
X19429939Y-52569725D01*
X19460915Y-52552810D01*
X19592331Y-52503796D01*
X19707546Y-52417546D01*
X19793796Y-52302331D01*
X19844091Y-52167483D01*
X19850500Y-52107873D01*
X19850499Y-50312128D01*
X19849709Y-50304780D01*
X40887922Y-50304780D01*
X40887922Y-50304787D01*
X40908117Y-50484033D01*
X40908118Y-50484038D01*
X40967698Y-50654307D01*
X41063671Y-50807046D01*
X41191225Y-50934600D01*
X41343965Y-51030573D01*
X41514232Y-51090152D01*
X41514237Y-51090153D01*
X41693483Y-51110349D01*
X41693487Y-51110349D01*
X41693491Y-51110349D01*
X41872736Y-51090153D01*
X41872739Y-51090152D01*
X41872742Y-51090152D01*
X42043009Y-51030573D01*
X42195749Y-50934600D01*
X42323303Y-50807046D01*
X42419276Y-50654306D01*
X42478855Y-50484039D01*
X42478856Y-50484033D01*
X42499052Y-50304787D01*
X42499052Y-50304780D01*
X42478856Y-50125534D01*
X42478855Y-50125529D01*
X42451115Y-50046254D01*
X42419276Y-49955262D01*
X42394735Y-49916206D01*
X42323302Y-49802521D01*
X42195749Y-49674968D01*
X42043010Y-49578995D01*
X41872741Y-49519415D01*
X41872736Y-49519414D01*
X41693491Y-49499219D01*
X41693483Y-49499219D01*
X41514237Y-49519414D01*
X41514232Y-49519415D01*
X41343963Y-49578995D01*
X41191224Y-49674968D01*
X41063671Y-49802521D01*
X40967698Y-49955260D01*
X40908118Y-50125529D01*
X40908117Y-50125534D01*
X40887922Y-50304780D01*
X19849709Y-50304780D01*
X19844091Y-50252517D01*
X19802521Y-50141063D01*
X19793797Y-50117671D01*
X19793793Y-50117664D01*
X19707547Y-50002455D01*
X19707544Y-50002452D01*
X19592335Y-49916206D01*
X19592328Y-49916202D01*
X19457482Y-49865908D01*
X19457483Y-49865908D01*
X19397883Y-49859501D01*
X19397881Y-49859500D01*
X19397873Y-49859500D01*
X19397864Y-49859500D01*
X17602129Y-49859500D01*
X17602123Y-49859501D01*
X17542516Y-49865908D01*
X17407671Y-49916202D01*
X17407664Y-49916206D01*
X17292455Y-50002452D01*
X17292452Y-50002455D01*
X17223766Y-50094208D01*
X17167832Y-50136079D01*
X17098141Y-50141063D01*
X17036818Y-50107577D01*
X17003334Y-50046254D01*
X17000500Y-50019897D01*
X17000500Y-49219997D01*
X67744723Y-49219997D01*
X67744723Y-49220002D01*
X67763793Y-49437975D01*
X67763793Y-49437979D01*
X67820422Y-49649322D01*
X67820424Y-49649326D01*
X67820425Y-49649330D01*
X67866661Y-49748484D01*
X67912897Y-49847638D01*
X67912898Y-49847639D01*
X68038402Y-50026877D01*
X68193123Y-50181598D01*
X68372361Y-50307102D01*
X68570670Y-50399575D01*
X68782023Y-50456207D01*
X68964926Y-50472208D01*
X68999998Y-50475277D01*
X69000000Y-50475277D01*
X69000002Y-50475277D01*
X69028254Y-50472805D01*
X69217977Y-50456207D01*
X69429330Y-50399575D01*
X69627639Y-50307102D01*
X69806877Y-50181598D01*
X69961598Y-50026877D01*
X70087102Y-49847639D01*
X70179575Y-49649330D01*
X70236207Y-49437977D01*
X70255277Y-49220000D01*
X70236207Y-49002023D01*
X70179575Y-48790670D01*
X70087102Y-48592362D01*
X70087100Y-48592359D01*
X70087099Y-48592357D01*
X69961599Y-48413124D01*
X69961596Y-48413121D01*
X69806877Y-48258402D01*
X69627639Y-48132898D01*
X69627640Y-48132898D01*
X69627638Y-48132897D01*
X69528484Y-48086661D01*
X69429330Y-48040425D01*
X69429326Y-48040424D01*
X69429322Y-48040422D01*
X69217977Y-47983793D01*
X69000002Y-47964723D01*
X68999998Y-47964723D01*
X68854682Y-47977436D01*
X68782023Y-47983793D01*
X68782020Y-47983793D01*
X68570677Y-48040422D01*
X68570668Y-48040426D01*
X68372361Y-48132898D01*
X68372357Y-48132900D01*
X68193121Y-48258402D01*
X68038402Y-48413121D01*
X67912900Y-48592357D01*
X67912898Y-48592361D01*
X67820426Y-48790668D01*
X67820422Y-48790677D01*
X67763793Y-49002020D01*
X67763793Y-49002024D01*
X67744723Y-49219997D01*
X17000500Y-49219997D01*
X17000500Y-42289999D01*
X26144341Y-42289999D01*
X26144341Y-42290000D01*
X26164936Y-42525403D01*
X26164938Y-42525413D01*
X26226094Y-42753655D01*
X26226096Y-42753659D01*
X26226097Y-42753663D01*
X26325965Y-42967830D01*
X26325967Y-42967834D01*
X26407814Y-43084723D01*
X26460819Y-43160422D01*
X26461501Y-43161395D01*
X26461506Y-43161402D01*
X26628597Y-43328493D01*
X26628603Y-43328498D01*
X26814158Y-43458425D01*
X26857783Y-43513002D01*
X26864977Y-43582500D01*
X26833454Y-43644855D01*
X26814158Y-43661575D01*
X26628597Y-43791505D01*
X26461505Y-43958597D01*
X26325965Y-44152169D01*
X26325964Y-44152171D01*
X26226098Y-44366335D01*
X26226094Y-44366344D01*
X26164938Y-44594586D01*
X26164936Y-44594596D01*
X26144341Y-44829999D01*
X26144341Y-44830000D01*
X26164936Y-45065403D01*
X26164938Y-45065413D01*
X26226094Y-45293655D01*
X26226096Y-45293659D01*
X26226097Y-45293663D01*
X26284923Y-45419815D01*
X26325965Y-45507830D01*
X26325967Y-45507834D01*
X26434281Y-45662521D01*
X26461505Y-45701401D01*
X26628599Y-45868495D01*
X26725384Y-45936265D01*
X26822165Y-46004032D01*
X26822167Y-46004033D01*
X26822170Y-46004035D01*
X27036337Y-46103903D01*
X27264592Y-46165063D01*
X27452918Y-46181539D01*
X27499999Y-46185659D01*
X27500000Y-46185659D01*
X27500001Y-46185659D01*
X27539234Y-46182226D01*
X27735408Y-46165063D01*
X27963663Y-46103903D01*
X28177830Y-46004035D01*
X28371401Y-45868495D01*
X28538495Y-45701401D01*
X28674035Y-45507830D01*
X28773903Y-45293663D01*
X28835063Y-45065408D01*
X28855659Y-44830000D01*
X28852159Y-44789996D01*
X33694435Y-44789996D01*
X33694435Y-44790003D01*
X33714630Y-44969249D01*
X33714631Y-44969254D01*
X33774211Y-45139523D01*
X33870184Y-45292262D01*
X33997738Y-45419816D01*
X34009334Y-45427102D01*
X34137817Y-45507834D01*
X34150478Y-45515789D01*
X34320745Y-45575368D01*
X34320750Y-45575369D01*
X34499996Y-45595565D01*
X34500000Y-45595565D01*
X34500004Y-45595565D01*
X34679249Y-45575369D01*
X34679252Y-45575368D01*
X34679255Y-45575368D01*
X34849522Y-45515789D01*
X35002262Y-45419816D01*
X35129816Y-45292262D01*
X35225789Y-45139522D01*
X35285368Y-44969255D01*
X35285550Y-44967639D01*
X35305565Y-44790003D01*
X35305565Y-44789996D01*
X35285369Y-44610750D01*
X35285368Y-44610745D01*
X35225788Y-44440476D01*
X35162654Y-44340000D01*
X35162652Y-44339997D01*
X67744723Y-44339997D01*
X67744723Y-44340002D01*
X67763793Y-44557975D01*
X67763793Y-44557979D01*
X67820422Y-44769322D01*
X67820424Y-44769326D01*
X67820425Y-44769330D01*
X67848716Y-44830000D01*
X67912897Y-44967638D01*
X67937998Y-45003486D01*
X68038402Y-45146877D01*
X68193123Y-45301598D01*
X68372361Y-45427102D01*
X68570670Y-45519575D01*
X68782023Y-45576207D01*
X68964926Y-45592208D01*
X68999998Y-45595277D01*
X69000000Y-45595277D01*
X69000002Y-45595277D01*
X69028254Y-45592805D01*
X69217977Y-45576207D01*
X69429330Y-45519575D01*
X69627639Y-45427102D01*
X69806877Y-45301598D01*
X69961598Y-45146877D01*
X70087102Y-44967639D01*
X70179575Y-44769330D01*
X70236207Y-44557977D01*
X70255277Y-44340000D01*
X70236207Y-44122023D01*
X70179575Y-43910670D01*
X70087102Y-43712362D01*
X70087100Y-43712359D01*
X70087099Y-43712357D01*
X69961599Y-43533124D01*
X69886900Y-43458425D01*
X69806877Y-43378402D01*
X69627639Y-43252898D01*
X69627640Y-43252898D01*
X69627638Y-43252897D01*
X69528484Y-43206661D01*
X69429330Y-43160425D01*
X69429326Y-43160424D01*
X69429322Y-43160422D01*
X69217977Y-43103793D01*
X69000002Y-43084723D01*
X68999998Y-43084723D01*
X68854682Y-43097436D01*
X68782023Y-43103793D01*
X68782020Y-43103793D01*
X68570677Y-43160422D01*
X68570668Y-43160426D01*
X68372361Y-43252898D01*
X68372357Y-43252900D01*
X68193121Y-43378402D01*
X68038402Y-43533121D01*
X67912900Y-43712357D01*
X67912898Y-43712361D01*
X67820426Y-43910668D01*
X67820422Y-43910677D01*
X67763793Y-44122020D01*
X67763793Y-44122023D01*
X67760454Y-44160184D01*
X67744723Y-44339997D01*
X35162652Y-44339997D01*
X35129816Y-44287738D01*
X35002262Y-44160184D01*
X34941531Y-44122024D01*
X34849523Y-44064211D01*
X34679254Y-44004631D01*
X34679249Y-44004630D01*
X34500004Y-43984435D01*
X34499996Y-43984435D01*
X34320750Y-44004630D01*
X34320745Y-44004631D01*
X34150476Y-44064211D01*
X33997737Y-44160184D01*
X33870184Y-44287737D01*
X33774211Y-44440476D01*
X33714631Y-44610745D01*
X33714630Y-44610750D01*
X33694435Y-44789996D01*
X28852159Y-44789996D01*
X28835063Y-44594592D01*
X28773903Y-44366337D01*
X28674035Y-44152171D01*
X28652926Y-44122023D01*
X28538494Y-43958597D01*
X28371402Y-43791506D01*
X28371396Y-43791501D01*
X28185842Y-43661575D01*
X28142217Y-43606998D01*
X28135023Y-43537500D01*
X28166546Y-43475145D01*
X28185842Y-43458425D01*
X28300126Y-43378402D01*
X28371401Y-43328495D01*
X28538495Y-43161401D01*
X28674035Y-42967830D01*
X28773903Y-42753663D01*
X28835063Y-42525408D01*
X28855659Y-42290000D01*
X28835063Y-42054592D01*
X28773903Y-41826337D01*
X28674035Y-41612171D01*
X28538495Y-41418599D01*
X28416567Y-41296671D01*
X28383084Y-41235351D01*
X28388068Y-41165659D01*
X28429939Y-41109725D01*
X28460915Y-41092810D01*
X28592331Y-41043796D01*
X28707546Y-40957546D01*
X28793796Y-40842331D01*
X28844091Y-40707483D01*
X28850500Y-40647873D01*
X28850500Y-39789996D01*
X42194435Y-39789996D01*
X42194435Y-39790003D01*
X42214630Y-39969249D01*
X42214631Y-39969254D01*
X42274211Y-40139523D01*
X42291756Y-40167445D01*
X42370184Y-40292262D01*
X42497738Y-40419816D01*
X42650478Y-40515789D01*
X42820745Y-40575368D01*
X42820750Y-40575369D01*
X42999996Y-40595565D01*
X43000000Y-40595565D01*
X43000004Y-40595565D01*
X43179249Y-40575369D01*
X43179252Y-40575368D01*
X43179255Y-40575368D01*
X43349522Y-40515789D01*
X43502262Y-40419816D01*
X43629816Y-40292262D01*
X43631240Y-40289996D01*
X45194435Y-40289996D01*
X45194435Y-40290003D01*
X45214630Y-40469249D01*
X45214631Y-40469254D01*
X45274211Y-40639523D01*
X45370184Y-40792262D01*
X45497738Y-40919816D01*
X45650478Y-41015789D01*
X45820745Y-41075368D01*
X45820750Y-41075369D01*
X45999996Y-41095565D01*
X46000000Y-41095565D01*
X46000004Y-41095565D01*
X46179249Y-41075369D01*
X46179252Y-41075368D01*
X46179255Y-41075368D01*
X46349522Y-41015789D01*
X46502262Y-40919816D01*
X46629816Y-40792262D01*
X46725789Y-40639522D01*
X46785368Y-40469255D01*
X46785368Y-40469254D01*
X46787668Y-40462682D01*
X46790370Y-40463627D01*
X46818176Y-40413882D01*
X46879827Y-40381005D01*
X46949466Y-40386678D01*
X46992667Y-40414745D01*
X46997738Y-40419816D01*
X47150478Y-40515789D01*
X47320745Y-40575368D01*
X47320750Y-40575369D01*
X47499996Y-40595565D01*
X47500000Y-40595565D01*
X47500004Y-40595565D01*
X47679249Y-40575369D01*
X47679252Y-40575368D01*
X47679255Y-40575368D01*
X47849522Y-40515789D01*
X48002262Y-40419816D01*
X48129816Y-40292262D01*
X48225789Y-40139522D01*
X48285368Y-39969255D01*
X48288356Y-39942734D01*
X48305565Y-39790003D01*
X48305565Y-39789996D01*
X48285369Y-39610750D01*
X48285368Y-39610745D01*
X48225788Y-39440476D01*
X48129815Y-39287737D01*
X48002262Y-39160184D01*
X47849523Y-39064211D01*
X47679254Y-39004631D01*
X47679249Y-39004630D01*
X47500004Y-38984435D01*
X47499996Y-38984435D01*
X47320750Y-39004630D01*
X47320745Y-39004631D01*
X47150476Y-39064211D01*
X46997737Y-39160184D01*
X46870184Y-39287737D01*
X46774211Y-39440476D01*
X46712332Y-39617318D01*
X46709648Y-39616378D01*
X46681738Y-39666200D01*
X46620055Y-39699018D01*
X46550422Y-39693278D01*
X46507332Y-39665254D01*
X46502262Y-39660184D01*
X46349523Y-39564211D01*
X46179254Y-39504631D01*
X46179249Y-39504630D01*
X46000004Y-39484435D01*
X45999996Y-39484435D01*
X45820750Y-39504630D01*
X45820745Y-39504631D01*
X45650476Y-39564211D01*
X45497737Y-39660184D01*
X45370184Y-39787737D01*
X45274211Y-39940476D01*
X45214631Y-40110745D01*
X45214630Y-40110750D01*
X45194435Y-40289996D01*
X43631240Y-40289996D01*
X43725789Y-40139522D01*
X43785368Y-39969255D01*
X43788356Y-39942734D01*
X43805565Y-39790003D01*
X43805565Y-39789996D01*
X43785369Y-39610750D01*
X43785368Y-39610745D01*
X43725788Y-39440476D01*
X43629815Y-39287737D01*
X43502262Y-39160184D01*
X43349523Y-39064211D01*
X43179254Y-39004631D01*
X43179249Y-39004630D01*
X43000004Y-38984435D01*
X42999996Y-38984435D01*
X42820750Y-39004630D01*
X42820745Y-39004631D01*
X42650476Y-39064211D01*
X42497737Y-39160184D01*
X42370184Y-39287737D01*
X42274211Y-39440476D01*
X42214631Y-39610745D01*
X42214630Y-39610750D01*
X42194435Y-39789996D01*
X28850500Y-39789996D01*
X28850499Y-38852128D01*
X28844091Y-38792517D01*
X28793796Y-38657669D01*
X28793795Y-38657668D01*
X28793793Y-38657664D01*
X28707547Y-38542455D01*
X28707544Y-38542452D01*
X28592335Y-38456206D01*
X28592328Y-38456202D01*
X28457482Y-38405908D01*
X28457483Y-38405908D01*
X28397883Y-38399501D01*
X28397881Y-38399500D01*
X28397873Y-38399500D01*
X28397864Y-38399500D01*
X26602129Y-38399500D01*
X26602123Y-38399501D01*
X26542516Y-38405908D01*
X26407671Y-38456202D01*
X26407664Y-38456206D01*
X26292455Y-38542452D01*
X26292452Y-38542455D01*
X26206206Y-38657664D01*
X26206202Y-38657671D01*
X26155908Y-38792517D01*
X26150427Y-38843502D01*
X26149501Y-38852123D01*
X26149500Y-38852135D01*
X26149500Y-40647870D01*
X26149501Y-40647876D01*
X26155908Y-40707483D01*
X26206202Y-40842328D01*
X26206206Y-40842335D01*
X26292452Y-40957544D01*
X26292455Y-40957547D01*
X26407664Y-41043793D01*
X26407671Y-41043797D01*
X26539081Y-41092810D01*
X26595015Y-41134681D01*
X26619432Y-41200145D01*
X26604580Y-41268418D01*
X26583430Y-41296673D01*
X26461503Y-41418600D01*
X26325965Y-41612169D01*
X26325964Y-41612171D01*
X26226098Y-41826335D01*
X26226094Y-41826344D01*
X26164938Y-42054586D01*
X26164936Y-42054596D01*
X26144341Y-42289999D01*
X17000500Y-42289999D01*
X17000500Y-37789996D01*
X31694435Y-37789996D01*
X31694435Y-37790003D01*
X31714630Y-37969249D01*
X31714631Y-37969254D01*
X31774211Y-38139523D01*
X31868733Y-38289953D01*
X31870184Y-38292262D01*
X31997738Y-38419816D01*
X32150478Y-38515789D01*
X32320745Y-38575368D01*
X32320750Y-38575369D01*
X32499996Y-38595565D01*
X32500000Y-38595565D01*
X32500004Y-38595565D01*
X32679249Y-38575369D01*
X32679252Y-38575368D01*
X32679255Y-38575368D01*
X32849522Y-38515789D01*
X33002262Y-38419816D01*
X33129816Y-38292262D01*
X33131240Y-38289996D01*
X33694435Y-38289996D01*
X33694435Y-38290003D01*
X33714630Y-38469249D01*
X33714631Y-38469254D01*
X33774211Y-38639523D01*
X33870184Y-38792262D01*
X33997738Y-38919816D01*
X34065973Y-38962691D01*
X34132721Y-39004632D01*
X34150478Y-39015789D01*
X34286280Y-39063308D01*
X34320745Y-39075368D01*
X34320750Y-39075369D01*
X34499996Y-39095565D01*
X34500000Y-39095565D01*
X34500004Y-39095565D01*
X34679249Y-39075369D01*
X34679252Y-39075368D01*
X34679255Y-39075368D01*
X34849522Y-39015789D01*
X34867279Y-39004632D01*
X34934027Y-38962691D01*
X35001264Y-38943690D01*
X35065973Y-38962691D01*
X35150475Y-39015788D01*
X35320745Y-39075368D01*
X35320750Y-39075369D01*
X35499996Y-39095565D01*
X35500000Y-39095565D01*
X35500004Y-39095565D01*
X35679249Y-39075369D01*
X35679252Y-39075368D01*
X35679255Y-39075368D01*
X35849522Y-39015789D01*
X36002262Y-38919816D01*
X36129816Y-38792262D01*
X36225789Y-38639522D01*
X36225789Y-38639519D01*
X36228259Y-38635590D01*
X36280594Y-38589299D01*
X36347136Y-38578342D01*
X36499996Y-38595565D01*
X36500000Y-38595565D01*
X36500004Y-38595565D01*
X36679249Y-38575369D01*
X36679252Y-38575368D01*
X36679255Y-38575368D01*
X36849522Y-38515789D01*
X37002262Y-38419816D01*
X37129816Y-38292262D01*
X37225789Y-38139522D01*
X37285368Y-37969255D01*
X37285369Y-37969249D01*
X37305565Y-37790003D01*
X37305565Y-37789996D01*
X44194435Y-37789996D01*
X44194435Y-37790003D01*
X44214630Y-37969249D01*
X44214631Y-37969254D01*
X44274211Y-38139523D01*
X44368733Y-38289953D01*
X44370184Y-38292262D01*
X44497738Y-38419816D01*
X44650478Y-38515789D01*
X44820745Y-38575368D01*
X44820750Y-38575369D01*
X44999996Y-38595565D01*
X45000000Y-38595565D01*
X45000004Y-38595565D01*
X45179249Y-38575369D01*
X45179252Y-38575368D01*
X45179255Y-38575368D01*
X45349522Y-38515789D01*
X45502262Y-38419816D01*
X45629816Y-38292262D01*
X45725789Y-38139522D01*
X45785368Y-37969255D01*
X45785369Y-37969249D01*
X45805565Y-37790003D01*
X45805565Y-37789996D01*
X45785369Y-37610750D01*
X45785368Y-37610745D01*
X45769084Y-37564209D01*
X45725789Y-37440478D01*
X45629816Y-37287738D01*
X45502262Y-37160184D01*
X45399422Y-37095565D01*
X45349523Y-37064211D01*
X45179254Y-37004631D01*
X45179249Y-37004630D01*
X45000004Y-36984435D01*
X44999996Y-36984435D01*
X44820750Y-37004630D01*
X44820745Y-37004631D01*
X44650476Y-37064211D01*
X44497737Y-37160184D01*
X44370184Y-37287737D01*
X44274211Y-37440476D01*
X44214631Y-37610745D01*
X44214630Y-37610750D01*
X44194435Y-37789996D01*
X37305565Y-37789996D01*
X37285369Y-37610750D01*
X37285368Y-37610745D01*
X37269084Y-37564209D01*
X37225789Y-37440478D01*
X37129816Y-37287738D01*
X37002262Y-37160184D01*
X36899422Y-37095565D01*
X36849523Y-37064211D01*
X36679254Y-37004631D01*
X36679249Y-37004630D01*
X36500004Y-36984435D01*
X36499996Y-36984435D01*
X36320750Y-37004630D01*
X36320745Y-37004631D01*
X36150476Y-37064211D01*
X35997737Y-37160184D01*
X35870182Y-37287739D01*
X35771739Y-37444410D01*
X35719405Y-37490700D01*
X35652863Y-37501657D01*
X35500004Y-37484435D01*
X35499996Y-37484435D01*
X35320750Y-37504630D01*
X35320737Y-37504633D01*
X35150479Y-37564209D01*
X35065971Y-37617309D01*
X34998734Y-37636309D01*
X34934029Y-37617309D01*
X34849520Y-37564209D01*
X34679262Y-37504633D01*
X34679249Y-37504630D01*
X34500004Y-37484435D01*
X34499996Y-37484435D01*
X34320750Y-37504630D01*
X34320745Y-37504631D01*
X34150476Y-37564211D01*
X33997737Y-37660184D01*
X33870184Y-37787737D01*
X33774211Y-37940476D01*
X33714631Y-38110745D01*
X33714630Y-38110750D01*
X33694435Y-38289996D01*
X33131240Y-38289996D01*
X33225789Y-38139522D01*
X33285368Y-37969255D01*
X33285369Y-37969249D01*
X33305565Y-37790003D01*
X33305565Y-37789996D01*
X33285369Y-37610750D01*
X33285368Y-37610745D01*
X33269084Y-37564209D01*
X33225789Y-37440478D01*
X33129816Y-37287738D01*
X33002262Y-37160184D01*
X32899422Y-37095565D01*
X32849523Y-37064211D01*
X32679254Y-37004631D01*
X32679249Y-37004630D01*
X32500004Y-36984435D01*
X32499996Y-36984435D01*
X32320750Y-37004630D01*
X32320745Y-37004631D01*
X32150476Y-37064211D01*
X31997737Y-37160184D01*
X31870184Y-37287737D01*
X31774211Y-37440476D01*
X31714631Y-37610745D01*
X31714630Y-37610750D01*
X31694435Y-37789996D01*
X17000500Y-37789996D01*
X17000500Y-35289996D01*
X23194435Y-35289996D01*
X23194435Y-35290003D01*
X23214630Y-35469249D01*
X23214631Y-35469254D01*
X23274211Y-35639523D01*
X23343599Y-35749953D01*
X23370184Y-35792262D01*
X23497738Y-35919816D01*
X23650478Y-36015789D01*
X23820745Y-36075368D01*
X23820750Y-36075369D01*
X23999996Y-36095565D01*
X24000000Y-36095565D01*
X24000004Y-36095565D01*
X24179249Y-36075369D01*
X24179252Y-36075368D01*
X24179255Y-36075368D01*
X24349522Y-36015789D01*
X24502262Y-35919816D01*
X24629816Y-35792262D01*
X24631240Y-35789996D01*
X28694435Y-35789996D01*
X28694435Y-35790003D01*
X28714630Y-35969249D01*
X28714631Y-35969254D01*
X28774211Y-36139523D01*
X28868760Y-36289996D01*
X28870184Y-36292262D01*
X28997738Y-36419816D01*
X29150478Y-36515789D01*
X29320745Y-36575368D01*
X29320750Y-36575369D01*
X29499996Y-36595565D01*
X29500000Y-36595565D01*
X29500004Y-36595565D01*
X29679249Y-36575369D01*
X29679252Y-36575368D01*
X29679255Y-36575368D01*
X29849522Y-36515789D01*
X30002262Y-36419816D01*
X30129816Y-36292262D01*
X30225789Y-36139522D01*
X30285368Y-35969255D01*
X30285369Y-35969249D01*
X30305565Y-35790003D01*
X30305565Y-35789996D01*
X31194435Y-35789996D01*
X31194435Y-35790003D01*
X31214630Y-35969249D01*
X31214631Y-35969254D01*
X31274211Y-36139523D01*
X31368760Y-36289996D01*
X31370184Y-36292262D01*
X31497738Y-36419816D01*
X31650478Y-36515789D01*
X31820745Y-36575368D01*
X31820750Y-36575369D01*
X31999996Y-36595565D01*
X32000000Y-36595565D01*
X32000004Y-36595565D01*
X32179249Y-36575369D01*
X32179252Y-36575368D01*
X32179255Y-36575368D01*
X32349522Y-36515789D01*
X32502262Y-36419816D01*
X32629816Y-36292262D01*
X32725789Y-36139522D01*
X32785368Y-35969255D01*
X32785369Y-35969249D01*
X32805565Y-35790003D01*
X32805565Y-35789996D01*
X34194435Y-35789996D01*
X34194435Y-35790003D01*
X34214630Y-35969249D01*
X34214631Y-35969254D01*
X34274211Y-36139523D01*
X34368760Y-36289996D01*
X34370184Y-36292262D01*
X34497738Y-36419816D01*
X34650478Y-36515789D01*
X34820745Y-36575368D01*
X34820750Y-36575369D01*
X34999996Y-36595565D01*
X35000000Y-36595565D01*
X35000004Y-36595565D01*
X35179249Y-36575369D01*
X35179252Y-36575368D01*
X35179255Y-36575368D01*
X35349522Y-36515789D01*
X35502262Y-36419816D01*
X35629816Y-36292262D01*
X35631240Y-36289996D01*
X45694435Y-36289996D01*
X45694435Y-36290003D01*
X45714630Y-36469249D01*
X45714631Y-36469254D01*
X45774211Y-36639523D01*
X45870184Y-36792262D01*
X45997738Y-36919816D01*
X46088080Y-36976582D01*
X46132721Y-37004632D01*
X46150478Y-37015789D01*
X46288860Y-37064211D01*
X46320745Y-37075368D01*
X46320750Y-37075369D01*
X46499996Y-37095565D01*
X46500000Y-37095565D01*
X46500004Y-37095565D01*
X46679249Y-37075369D01*
X46679252Y-37075368D01*
X46679255Y-37075368D01*
X46849522Y-37015789D01*
X47002262Y-36919816D01*
X47129816Y-36792262D01*
X47225789Y-36639522D01*
X47285368Y-36469255D01*
X47285369Y-36469249D01*
X47305565Y-36290003D01*
X47305565Y-36289996D01*
X47285369Y-36110750D01*
X47285368Y-36110745D01*
X47252141Y-36015788D01*
X47225789Y-35940478D01*
X47207179Y-35910861D01*
X47186582Y-35878080D01*
X47129816Y-35787738D01*
X47002262Y-35660184D01*
X46937401Y-35619429D01*
X46849523Y-35564211D01*
X46679254Y-35504631D01*
X46679249Y-35504630D01*
X46500004Y-35484435D01*
X46499996Y-35484435D01*
X46320750Y-35504630D01*
X46320745Y-35504631D01*
X46150476Y-35564211D01*
X45997737Y-35660184D01*
X45870184Y-35787737D01*
X45774211Y-35940476D01*
X45714631Y-36110745D01*
X45714630Y-36110750D01*
X45694435Y-36289996D01*
X35631240Y-36289996D01*
X35725789Y-36139522D01*
X35785368Y-35969255D01*
X35785369Y-35969249D01*
X35805565Y-35790003D01*
X35805565Y-35789996D01*
X35785369Y-35610750D01*
X35785368Y-35610745D01*
X35725789Y-35440478D01*
X35709020Y-35413791D01*
X35680008Y-35367618D01*
X35629816Y-35287738D01*
X35502262Y-35160184D01*
X35349523Y-35064211D01*
X35179254Y-35004631D01*
X35179249Y-35004630D01*
X35000004Y-34984435D01*
X34999996Y-34984435D01*
X34820750Y-35004630D01*
X34820745Y-35004631D01*
X34650476Y-35064211D01*
X34497737Y-35160184D01*
X34370184Y-35287737D01*
X34274211Y-35440476D01*
X34214631Y-35610745D01*
X34214630Y-35610750D01*
X34194435Y-35789996D01*
X32805565Y-35789996D01*
X32785369Y-35610750D01*
X32785368Y-35610745D01*
X32725789Y-35440478D01*
X32709020Y-35413791D01*
X32680008Y-35367618D01*
X32629816Y-35287738D01*
X32502262Y-35160184D01*
X32349523Y-35064211D01*
X32179254Y-35004631D01*
X32179249Y-35004630D01*
X32000004Y-34984435D01*
X31999996Y-34984435D01*
X31820750Y-35004630D01*
X31820745Y-35004631D01*
X31650476Y-35064211D01*
X31497737Y-35160184D01*
X31370184Y-35287737D01*
X31274211Y-35440476D01*
X31214631Y-35610745D01*
X31214630Y-35610750D01*
X31194435Y-35789996D01*
X30305565Y-35789996D01*
X30285369Y-35610750D01*
X30285368Y-35610745D01*
X30225789Y-35440478D01*
X30209020Y-35413791D01*
X30180008Y-35367618D01*
X30129816Y-35287738D01*
X30002262Y-35160184D01*
X29849523Y-35064211D01*
X29679254Y-35004631D01*
X29679249Y-35004630D01*
X29500004Y-34984435D01*
X29499996Y-34984435D01*
X29320750Y-35004630D01*
X29320745Y-35004631D01*
X29150476Y-35064211D01*
X28997737Y-35160184D01*
X28870184Y-35287737D01*
X28774211Y-35440476D01*
X28714631Y-35610745D01*
X28714630Y-35610750D01*
X28694435Y-35789996D01*
X24631240Y-35789996D01*
X24725789Y-35639522D01*
X24785368Y-35469255D01*
X24785369Y-35469249D01*
X24805565Y-35290003D01*
X24805565Y-35289996D01*
X24785369Y-35110750D01*
X24785368Y-35110745D01*
X24725788Y-34940476D01*
X24629815Y-34787737D01*
X24502262Y-34660184D01*
X24349523Y-34564211D01*
X24179254Y-34504631D01*
X24179249Y-34504630D01*
X24000004Y-34484435D01*
X23999996Y-34484435D01*
X23820750Y-34504630D01*
X23820745Y-34504631D01*
X23650476Y-34564211D01*
X23497737Y-34660184D01*
X23370184Y-34787737D01*
X23274211Y-34940476D01*
X23214631Y-35110745D01*
X23214630Y-35110750D01*
X23194435Y-35289996D01*
X17000500Y-35289996D01*
X17000500Y-34209998D01*
X51894532Y-34209998D01*
X51894532Y-34210001D01*
X51914364Y-34436686D01*
X51914366Y-34436697D01*
X51973258Y-34656488D01*
X51973261Y-34656497D01*
X52069431Y-34862732D01*
X52069432Y-34862734D01*
X52199954Y-35049141D01*
X52360858Y-35210045D01*
X52360861Y-35210047D01*
X52547266Y-35340568D01*
X52605275Y-35367618D01*
X52657714Y-35413791D01*
X52676866Y-35480984D01*
X52656650Y-35547865D01*
X52605275Y-35592382D01*
X52547267Y-35619431D01*
X52547265Y-35619432D01*
X52360858Y-35749954D01*
X52199954Y-35910858D01*
X52069432Y-36097265D01*
X52069431Y-36097267D01*
X51973261Y-36303502D01*
X51973258Y-36303511D01*
X51914366Y-36523302D01*
X51914364Y-36523313D01*
X51894532Y-36749998D01*
X51894532Y-36750001D01*
X51914364Y-36976686D01*
X51914366Y-36976697D01*
X51973258Y-37196488D01*
X51973261Y-37196497D01*
X52069431Y-37402732D01*
X52069432Y-37402734D01*
X52199954Y-37589141D01*
X52360858Y-37750045D01*
X52360861Y-37750047D01*
X52547266Y-37880568D01*
X52605865Y-37907893D01*
X52658305Y-37954065D01*
X52677457Y-38021258D01*
X52657242Y-38088139D01*
X52605867Y-38132657D01*
X52547515Y-38159867D01*
X52361179Y-38290342D01*
X52200342Y-38451179D01*
X52069865Y-38637517D01*
X51973734Y-38843673D01*
X51973730Y-38843682D01*
X51921127Y-39039999D01*
X51921128Y-39040000D01*
X52884314Y-39040000D01*
X52879920Y-39044394D01*
X52827259Y-39135606D01*
X52800000Y-39237339D01*
X52800000Y-39342661D01*
X52827259Y-39444394D01*
X52879920Y-39535606D01*
X52884314Y-39540000D01*
X51921128Y-39540000D01*
X51973730Y-39736317D01*
X51973734Y-39736326D01*
X52069865Y-39942482D01*
X52200342Y-40128820D01*
X52361179Y-40289657D01*
X52547517Y-40420134D01*
X52753673Y-40516265D01*
X52753682Y-40516269D01*
X52949999Y-40568872D01*
X52950000Y-40568871D01*
X52950000Y-39605686D01*
X52954394Y-39610080D01*
X53045606Y-39662741D01*
X53147339Y-39690000D01*
X53252661Y-39690000D01*
X53354394Y-39662741D01*
X53445606Y-39610080D01*
X53450000Y-39605686D01*
X53450000Y-40568872D01*
X53646317Y-40516269D01*
X53646326Y-40516265D01*
X53852482Y-40420134D01*
X54038820Y-40289657D01*
X54199657Y-40128820D01*
X54330134Y-39942482D01*
X54426265Y-39736326D01*
X54426269Y-39736317D01*
X54478872Y-39540000D01*
X53515686Y-39540000D01*
X53520080Y-39535606D01*
X53572741Y-39444394D01*
X53600000Y-39342661D01*
X53600000Y-39237339D01*
X53572741Y-39135606D01*
X53520080Y-39044394D01*
X53515686Y-39040000D01*
X54478872Y-39040000D01*
X54478872Y-39039999D01*
X54426269Y-38843682D01*
X54426265Y-38843673D01*
X54330134Y-38637517D01*
X54199657Y-38451179D01*
X54038820Y-38290342D01*
X53852482Y-38159865D01*
X53794133Y-38132657D01*
X53741694Y-38086484D01*
X53722542Y-38019291D01*
X53742758Y-37952410D01*
X53794129Y-37907895D01*
X53852734Y-37880568D01*
X54039139Y-37750047D01*
X54200047Y-37589139D01*
X54330568Y-37402734D01*
X54426739Y-37196496D01*
X54485635Y-36976692D01*
X54505468Y-36750000D01*
X54485635Y-36523308D01*
X54426739Y-36303504D01*
X54330568Y-36097266D01*
X54200047Y-35910861D01*
X54200045Y-35910858D01*
X54039141Y-35749954D01*
X53852734Y-35619432D01*
X53852728Y-35619429D01*
X53794725Y-35592382D01*
X53742285Y-35546210D01*
X53723133Y-35479017D01*
X53743348Y-35412135D01*
X53794725Y-35367618D01*
X53852734Y-35340568D01*
X54039139Y-35210047D01*
X54200047Y-35049139D01*
X54330568Y-34862734D01*
X54426739Y-34656496D01*
X54485635Y-34436692D01*
X54505468Y-34210000D01*
X54485635Y-33983308D01*
X54426739Y-33763504D01*
X54330568Y-33557266D01*
X54200047Y-33370861D01*
X54200045Y-33370858D01*
X54039143Y-33209956D01*
X54014536Y-33192726D01*
X53970912Y-33138149D01*
X53963719Y-33068650D01*
X53995241Y-33006296D01*
X54055471Y-32970882D01*
X54072404Y-32967861D01*
X54107483Y-32964091D01*
X54242331Y-32913796D01*
X54357546Y-32827546D01*
X54443796Y-32712331D01*
X54494091Y-32577483D01*
X54500500Y-32517873D01*
X54500499Y-31669998D01*
X59514532Y-31669998D01*
X59514532Y-31670001D01*
X59534364Y-31896686D01*
X59534366Y-31896697D01*
X59593258Y-32116488D01*
X59593261Y-32116497D01*
X59689431Y-32322732D01*
X59689432Y-32322734D01*
X59819954Y-32509141D01*
X59980858Y-32670045D01*
X59980861Y-32670047D01*
X60167266Y-32800568D01*
X60225275Y-32827618D01*
X60277714Y-32873791D01*
X60296866Y-32940984D01*
X60276650Y-33007865D01*
X60225275Y-33052382D01*
X60167267Y-33079431D01*
X60167265Y-33079432D01*
X59980858Y-33209954D01*
X59819954Y-33370858D01*
X59689432Y-33557265D01*
X59689431Y-33557267D01*
X59593261Y-33763502D01*
X59593258Y-33763511D01*
X59534366Y-33983302D01*
X59534364Y-33983313D01*
X59514532Y-34209998D01*
X59514532Y-34210001D01*
X59534364Y-34436686D01*
X59534366Y-34436697D01*
X59593258Y-34656488D01*
X59593261Y-34656497D01*
X59689431Y-34862732D01*
X59689432Y-34862734D01*
X59819954Y-35049141D01*
X59980858Y-35210045D01*
X59980861Y-35210047D01*
X60167266Y-35340568D01*
X60225275Y-35367618D01*
X60277714Y-35413791D01*
X60296866Y-35480984D01*
X60276650Y-35547865D01*
X60225275Y-35592382D01*
X60167267Y-35619431D01*
X60167265Y-35619432D01*
X59980858Y-35749954D01*
X59819954Y-35910858D01*
X59689432Y-36097265D01*
X59689431Y-36097267D01*
X59593261Y-36303502D01*
X59593258Y-36303511D01*
X59534366Y-36523302D01*
X59534364Y-36523313D01*
X59514532Y-36749998D01*
X59514532Y-36750001D01*
X59534364Y-36976686D01*
X59534366Y-36976697D01*
X59593258Y-37196488D01*
X59593261Y-37196497D01*
X59689431Y-37402732D01*
X59689432Y-37402734D01*
X59819954Y-37589141D01*
X59980858Y-37750045D01*
X59980861Y-37750047D01*
X60167266Y-37880568D01*
X60225275Y-37907618D01*
X60277714Y-37953791D01*
X60296866Y-38020984D01*
X60276650Y-38087865D01*
X60225275Y-38132382D01*
X60167267Y-38159431D01*
X60167265Y-38159432D01*
X59980858Y-38289954D01*
X59819954Y-38450858D01*
X59689432Y-38637265D01*
X59689431Y-38637267D01*
X59593261Y-38843502D01*
X59593258Y-38843511D01*
X59534366Y-39063302D01*
X59534364Y-39063313D01*
X59514532Y-39289998D01*
X59514532Y-39290001D01*
X59534364Y-39516686D01*
X59534366Y-39516697D01*
X59593258Y-39736488D01*
X59593261Y-39736497D01*
X59689431Y-39942732D01*
X59689432Y-39942734D01*
X59819954Y-40129141D01*
X59980858Y-40290045D01*
X59980861Y-40290047D01*
X60167266Y-40420568D01*
X60373504Y-40516739D01*
X60593308Y-40575635D01*
X60755230Y-40589801D01*
X60819998Y-40595468D01*
X60820000Y-40595468D01*
X60820002Y-40595468D01*
X60876673Y-40590509D01*
X61046692Y-40575635D01*
X61266496Y-40516739D01*
X61472734Y-40420568D01*
X61659139Y-40290047D01*
X61820047Y-40129139D01*
X61950568Y-39942734D01*
X62046739Y-39736496D01*
X62105635Y-39516692D01*
X62125468Y-39290000D01*
X62105635Y-39063308D01*
X62049050Y-38852127D01*
X62046741Y-38843511D01*
X62046738Y-38843502D01*
X61960082Y-38657669D01*
X61950568Y-38637266D01*
X61820047Y-38450861D01*
X61820045Y-38450858D01*
X61659141Y-38289954D01*
X61472734Y-38159432D01*
X61472728Y-38159429D01*
X61414725Y-38132382D01*
X61362285Y-38086210D01*
X61343133Y-38019017D01*
X61363348Y-37952135D01*
X61414725Y-37907618D01*
X61472734Y-37880568D01*
X61659139Y-37750047D01*
X61820047Y-37589139D01*
X61950568Y-37402734D01*
X62046739Y-37196496D01*
X62105635Y-36976692D01*
X62125468Y-36750000D01*
X62105635Y-36523308D01*
X62046739Y-36303504D01*
X61950568Y-36097266D01*
X61820047Y-35910861D01*
X61820045Y-35910858D01*
X61659141Y-35749954D01*
X61472734Y-35619432D01*
X61472728Y-35619429D01*
X61414725Y-35592382D01*
X61362285Y-35546210D01*
X61343133Y-35479017D01*
X61363348Y-35412135D01*
X61414725Y-35367618D01*
X61472734Y-35340568D01*
X61659139Y-35210047D01*
X61820047Y-35049139D01*
X61950568Y-34862734D01*
X62046739Y-34656496D01*
X62105635Y-34436692D01*
X62125468Y-34210000D01*
X62105635Y-33983308D01*
X62046739Y-33763504D01*
X61950568Y-33557266D01*
X61820047Y-33370861D01*
X61820045Y-33370858D01*
X61659141Y-33209954D01*
X61472734Y-33079432D01*
X61472728Y-33079429D01*
X61414725Y-33052382D01*
X61362285Y-33006210D01*
X61343133Y-32939017D01*
X61363348Y-32872135D01*
X61414725Y-32827618D01*
X61472734Y-32800568D01*
X61659139Y-32670047D01*
X61820047Y-32509139D01*
X61950568Y-32322734D01*
X62046739Y-32116496D01*
X62105635Y-31896692D01*
X62125468Y-31670000D01*
X62105635Y-31443308D01*
X62046739Y-31223504D01*
X61950568Y-31017266D01*
X61820047Y-30830861D01*
X61820045Y-30830858D01*
X61659141Y-30669954D01*
X61472734Y-30539432D01*
X61472732Y-30539431D01*
X61266497Y-30443261D01*
X61266488Y-30443258D01*
X61046697Y-30384366D01*
X61046693Y-30384365D01*
X61046692Y-30384365D01*
X61046691Y-30384364D01*
X61046686Y-30384364D01*
X60820002Y-30364532D01*
X60819998Y-30364532D01*
X60593313Y-30384364D01*
X60593302Y-30384366D01*
X60373511Y-30443258D01*
X60373502Y-30443261D01*
X60167267Y-30539431D01*
X60167265Y-30539432D01*
X59980858Y-30669954D01*
X59819954Y-30830858D01*
X59689432Y-31017265D01*
X59689431Y-31017267D01*
X59593261Y-31223502D01*
X59593258Y-31223511D01*
X59534366Y-31443302D01*
X59534364Y-31443313D01*
X59514532Y-31669998D01*
X54500499Y-31669998D01*
X54500499Y-30822128D01*
X54494091Y-30762517D01*
X54460315Y-30671960D01*
X54443797Y-30627671D01*
X54443793Y-30627664D01*
X54357547Y-30512455D01*
X54357544Y-30512452D01*
X54242335Y-30426206D01*
X54242328Y-30426202D01*
X54107482Y-30375908D01*
X54107483Y-30375908D01*
X54047883Y-30369501D01*
X54047881Y-30369500D01*
X54047873Y-30369500D01*
X54047864Y-30369500D01*
X52352129Y-30369500D01*
X52352123Y-30369501D01*
X52292516Y-30375908D01*
X52157671Y-30426202D01*
X52157664Y-30426206D01*
X52042455Y-30512452D01*
X52042452Y-30512455D01*
X51956206Y-30627664D01*
X51956202Y-30627671D01*
X51905908Y-30762517D01*
X51899501Y-30822116D01*
X51899501Y-30822123D01*
X51899500Y-30822135D01*
X51899500Y-32517870D01*
X51899501Y-32517876D01*
X51905908Y-32577483D01*
X51956202Y-32712328D01*
X51956206Y-32712335D01*
X52042452Y-32827544D01*
X52042455Y-32827547D01*
X52157664Y-32913793D01*
X52157671Y-32913797D01*
X52202618Y-32930561D01*
X52292517Y-32964091D01*
X52327596Y-32967862D01*
X52392144Y-32994599D01*
X52431993Y-33051991D01*
X52434488Y-33121816D01*
X52398836Y-33181905D01*
X52385464Y-33192725D01*
X52360858Y-33209954D01*
X52199954Y-33370858D01*
X52069432Y-33557265D01*
X52069431Y-33557267D01*
X51973261Y-33763502D01*
X51973258Y-33763511D01*
X51914366Y-33983302D01*
X51914364Y-33983313D01*
X51894532Y-34209998D01*
X17000500Y-34209998D01*
X17000500Y-31789996D01*
X46694435Y-31789996D01*
X46694435Y-31790003D01*
X46714630Y-31969249D01*
X46714631Y-31969254D01*
X46774211Y-32139523D01*
X46870184Y-32292262D01*
X46997738Y-32419816D01*
X47088080Y-32476582D01*
X47139897Y-32509141D01*
X47150478Y-32515789D01*
X47320745Y-32575368D01*
X47320750Y-32575369D01*
X47499996Y-32595565D01*
X47500000Y-32595565D01*
X47500004Y-32595565D01*
X47679249Y-32575369D01*
X47679252Y-32575368D01*
X47679255Y-32575368D01*
X47849522Y-32515789D01*
X48002262Y-32419816D01*
X48129816Y-32292262D01*
X48225789Y-32139522D01*
X48285368Y-31969255D01*
X48285369Y-31969249D01*
X48305565Y-31790003D01*
X48305565Y-31789996D01*
X48285369Y-31610750D01*
X48285368Y-31610745D01*
X48225788Y-31440476D01*
X48129815Y-31287737D01*
X48002262Y-31160184D01*
X47849523Y-31064211D01*
X47679254Y-31004631D01*
X47679249Y-31004630D01*
X47500004Y-30984435D01*
X47499996Y-30984435D01*
X47320750Y-31004630D01*
X47320745Y-31004631D01*
X47150476Y-31064211D01*
X46997737Y-31160184D01*
X46870184Y-31287737D01*
X46774211Y-31440476D01*
X46714631Y-31610745D01*
X46714630Y-31610750D01*
X46694435Y-31789996D01*
X17000500Y-31789996D01*
X17000500Y-30289996D01*
X44694435Y-30289996D01*
X44694435Y-30290003D01*
X44714630Y-30469249D01*
X44714631Y-30469254D01*
X44774211Y-30639523D01*
X44851493Y-30762516D01*
X44870184Y-30792262D01*
X44997738Y-30919816D01*
X45059262Y-30958474D01*
X45132721Y-31004632D01*
X45150478Y-31015789D01*
X45255249Y-31052450D01*
X45320745Y-31075368D01*
X45320750Y-31075369D01*
X45499996Y-31095565D01*
X45500000Y-31095565D01*
X45500004Y-31095565D01*
X45679249Y-31075369D01*
X45679252Y-31075368D01*
X45679255Y-31075368D01*
X45849522Y-31015789D01*
X46002262Y-30919816D01*
X46129816Y-30792262D01*
X46225789Y-30639522D01*
X46285368Y-30469255D01*
X46288297Y-30443258D01*
X46301911Y-30322434D01*
X49172897Y-30322434D01*
X49172897Y-30322441D01*
X49193092Y-30501687D01*
X49193093Y-30501692D01*
X49252673Y-30671961D01*
X49309573Y-30762516D01*
X49348646Y-30824700D01*
X49476200Y-30952254D01*
X49486101Y-30958475D01*
X49532393Y-31010807D01*
X49543044Y-31079860D01*
X49514671Y-31143709D01*
X49499364Y-31158557D01*
X49370184Y-31287737D01*
X49274211Y-31440476D01*
X49214631Y-31610745D01*
X49214630Y-31610750D01*
X49194435Y-31789996D01*
X49194435Y-31790003D01*
X49214630Y-31969249D01*
X49214631Y-31969254D01*
X49274211Y-32139523D01*
X49370184Y-32292262D01*
X49497738Y-32419816D01*
X49588080Y-32476582D01*
X49639897Y-32509141D01*
X49650478Y-32515789D01*
X49820745Y-32575368D01*
X49820750Y-32575369D01*
X49999996Y-32595565D01*
X50000000Y-32595565D01*
X50000004Y-32595565D01*
X50179249Y-32575369D01*
X50179252Y-32575368D01*
X50179255Y-32575368D01*
X50349522Y-32515789D01*
X50502262Y-32419816D01*
X50629816Y-32292262D01*
X50725789Y-32139522D01*
X50785368Y-31969255D01*
X50785369Y-31969249D01*
X50805565Y-31790003D01*
X50805565Y-31789996D01*
X50785369Y-31610750D01*
X50785368Y-31610745D01*
X50725788Y-31440476D01*
X50629815Y-31287737D01*
X50502262Y-31160184D01*
X50492358Y-31153960D01*
X50446067Y-31101628D01*
X50435417Y-31032575D01*
X50463791Y-30968726D01*
X50479038Y-30953939D01*
X50480721Y-30952255D01*
X50480724Y-30952254D01*
X50608278Y-30824700D01*
X50704251Y-30671960D01*
X50763830Y-30501693D01*
X50770414Y-30443258D01*
X50784027Y-30322441D01*
X50784027Y-30322434D01*
X50763831Y-30143188D01*
X50763830Y-30143183D01*
X50729268Y-30044410D01*
X50704251Y-29972916D01*
X50677617Y-29930529D01*
X50664718Y-29909999D01*
X50608278Y-29820176D01*
X50480724Y-29692622D01*
X50453616Y-29675589D01*
X50327985Y-29596649D01*
X50157716Y-29537069D01*
X50157711Y-29537068D01*
X49978466Y-29516873D01*
X49978458Y-29516873D01*
X49799212Y-29537068D01*
X49799207Y-29537069D01*
X49628938Y-29596649D01*
X49476199Y-29692622D01*
X49348646Y-29820175D01*
X49252673Y-29972914D01*
X49193093Y-30143183D01*
X49193092Y-30143188D01*
X49172897Y-30322434D01*
X46301911Y-30322434D01*
X46305565Y-30290003D01*
X46305565Y-30289996D01*
X46285369Y-30110750D01*
X46285368Y-30110745D01*
X46239125Y-29978590D01*
X46225789Y-29940478D01*
X46206638Y-29910000D01*
X46179567Y-29866916D01*
X46129816Y-29787738D01*
X46002262Y-29660184D01*
X45901147Y-29596649D01*
X45849523Y-29564211D01*
X45679254Y-29504631D01*
X45679249Y-29504630D01*
X45500004Y-29484435D01*
X45499996Y-29484435D01*
X45320750Y-29504630D01*
X45320745Y-29504631D01*
X45150476Y-29564211D01*
X44997737Y-29660184D01*
X44870184Y-29787737D01*
X44774211Y-29940476D01*
X44714631Y-30110745D01*
X44714630Y-30110750D01*
X44694435Y-30289996D01*
X17000500Y-30289996D01*
X17000500Y-29300709D01*
X52903473Y-29300709D01*
X52903473Y-29300716D01*
X52923668Y-29479962D01*
X52923669Y-29479967D01*
X52983249Y-29650236D01*
X53069647Y-29787737D01*
X53079222Y-29802975D01*
X53206776Y-29930529D01*
X53359516Y-30026502D01*
X53529783Y-30086081D01*
X53529788Y-30086082D01*
X53709034Y-30106278D01*
X53709038Y-30106278D01*
X53709042Y-30106278D01*
X53888287Y-30086082D01*
X53888290Y-30086081D01*
X53888293Y-30086081D01*
X54058560Y-30026502D01*
X54211300Y-29930529D01*
X54338854Y-29802975D01*
X54434827Y-29650235D01*
X54494406Y-29479968D01*
X54514603Y-29300713D01*
X54500510Y-29175634D01*
X54494407Y-29121463D01*
X54494406Y-29121458D01*
X54490397Y-29110000D01*
X54434827Y-28951191D01*
X54338854Y-28798451D01*
X54211300Y-28670897D01*
X54114384Y-28610000D01*
X64589157Y-28610000D01*
X65443012Y-28610000D01*
X65425795Y-28619940D01*
X65369940Y-28675795D01*
X65330444Y-28744204D01*
X65310000Y-28820504D01*
X65310000Y-28899496D01*
X65330444Y-28975796D01*
X65369940Y-29044205D01*
X65425795Y-29100060D01*
X65443012Y-29110000D01*
X64589157Y-29110000D01*
X64600350Y-29166274D01*
X64600351Y-29166276D01*
X64679500Y-29357358D01*
X64679505Y-29357368D01*
X64794410Y-29529335D01*
X64794413Y-29529339D01*
X64940660Y-29675586D01*
X64940664Y-29675589D01*
X65112631Y-29790494D01*
X65112641Y-29790499D01*
X65191285Y-29823075D01*
X65245688Y-29866916D01*
X65267753Y-29933210D01*
X65260874Y-29978590D01*
X65214632Y-30110742D01*
X65214630Y-30110750D01*
X65194435Y-30289996D01*
X65194435Y-30290003D01*
X65214630Y-30469249D01*
X65214631Y-30469254D01*
X65274211Y-30639523D01*
X65351493Y-30762516D01*
X65370184Y-30792262D01*
X65497738Y-30919816D01*
X65559262Y-30958474D01*
X65632721Y-31004632D01*
X65650478Y-31015789D01*
X65755249Y-31052450D01*
X65820745Y-31075368D01*
X65820750Y-31075369D01*
X65999996Y-31095565D01*
X66000000Y-31095565D01*
X66000004Y-31095565D01*
X66179249Y-31075369D01*
X66179252Y-31075368D01*
X66179255Y-31075368D01*
X66349522Y-31015789D01*
X66502262Y-30919816D01*
X66629816Y-30792262D01*
X66725789Y-30639522D01*
X66785368Y-30469255D01*
X66788297Y-30443258D01*
X66805565Y-30290003D01*
X66805565Y-30289996D01*
X66785369Y-30110750D01*
X66785367Y-30110740D01*
X66762156Y-30044410D01*
X66758593Y-29974631D01*
X66793321Y-29914004D01*
X66855007Y-29881836D01*
X66916274Y-29869649D01*
X67107358Y-29790499D01*
X67107368Y-29790494D01*
X67279335Y-29675589D01*
X67279339Y-29675586D01*
X67425586Y-29529339D01*
X67425589Y-29529335D01*
X67540494Y-29357368D01*
X67540499Y-29357358D01*
X67619648Y-29166276D01*
X67619649Y-29166274D01*
X67630843Y-29110000D01*
X66776988Y-29110000D01*
X66794205Y-29100060D01*
X66850060Y-29044205D01*
X66889556Y-28975796D01*
X66910000Y-28899496D01*
X66910000Y-28820504D01*
X66889556Y-28744204D01*
X66850060Y-28675795D01*
X66794205Y-28619940D01*
X66776988Y-28610000D01*
X67630843Y-28610000D01*
X67619649Y-28553725D01*
X67619648Y-28553723D01*
X67540499Y-28362641D01*
X67540494Y-28362631D01*
X67425589Y-28190664D01*
X67425586Y-28190660D01*
X67279339Y-28044413D01*
X67279335Y-28044410D01*
X67107368Y-27929505D01*
X67107358Y-27929500D01*
X66916274Y-27850350D01*
X66916266Y-27850348D01*
X66713420Y-27810000D01*
X66360000Y-27810000D01*
X66360000Y-28560000D01*
X65860000Y-28560000D01*
X65860000Y-27810000D01*
X65506579Y-27810000D01*
X65303733Y-27850348D01*
X65303725Y-27850350D01*
X65112641Y-27929500D01*
X65112631Y-27929505D01*
X64940664Y-28044410D01*
X64940660Y-28044413D01*
X64794413Y-28190660D01*
X64794410Y-28190664D01*
X64679505Y-28362631D01*
X64679500Y-28362641D01*
X64600351Y-28553723D01*
X64600350Y-28553725D01*
X64589157Y-28610000D01*
X54114384Y-28610000D01*
X54058561Y-28574924D01*
X53888292Y-28515344D01*
X53888287Y-28515343D01*
X53709042Y-28495148D01*
X53709034Y-28495148D01*
X53529788Y-28515343D01*
X53529783Y-28515344D01*
X53359514Y-28574924D01*
X53206775Y-28670897D01*
X53079222Y-28798450D01*
X52983249Y-28951189D01*
X52923669Y-29121458D01*
X52923668Y-29121463D01*
X52903473Y-29300709D01*
X17000500Y-29300709D01*
X17000500Y-28383011D01*
X17020185Y-28315972D01*
X17072989Y-28270217D01*
X17142147Y-28260273D01*
X17205703Y-28289298D01*
X17236882Y-28330606D01*
X17326399Y-28522578D01*
X17461894Y-28716082D01*
X17628917Y-28883105D01*
X17822421Y-29018600D01*
X18036507Y-29118429D01*
X18036516Y-29118433D01*
X18250000Y-29175634D01*
X18250000Y-28278012D01*
X18307007Y-28310925D01*
X18434174Y-28345000D01*
X18565826Y-28345000D01*
X18692993Y-28310925D01*
X18750000Y-28278012D01*
X18750000Y-29175633D01*
X18963483Y-29118433D01*
X18963492Y-29118429D01*
X19177578Y-29018600D01*
X19371082Y-28883105D01*
X19538105Y-28716082D01*
X19673600Y-28522578D01*
X19773429Y-28308492D01*
X19773432Y-28308486D01*
X19830636Y-28095000D01*
X18933012Y-28095000D01*
X18965925Y-28037993D01*
X19000000Y-27910826D01*
X19000000Y-27779174D01*
X18965925Y-27652007D01*
X18933012Y-27595000D01*
X19830636Y-27595000D01*
X19830635Y-27594999D01*
X19773432Y-27381513D01*
X19773429Y-27381507D01*
X19730757Y-27289996D01*
X38194435Y-27289996D01*
X38194435Y-27290003D01*
X38214630Y-27469249D01*
X38214631Y-27469254D01*
X38274211Y-27639523D01*
X38324150Y-27719000D01*
X38370184Y-27792262D01*
X38497738Y-27919816D01*
X38513150Y-27929500D01*
X38623481Y-27998826D01*
X38650478Y-28015789D01*
X38732281Y-28044413D01*
X38820745Y-28075368D01*
X38820750Y-28075369D01*
X38999996Y-28095565D01*
X39000000Y-28095565D01*
X39000004Y-28095565D01*
X39179249Y-28075369D01*
X39179252Y-28075368D01*
X39179255Y-28075368D01*
X39349522Y-28015789D01*
X39502262Y-27919816D01*
X39629816Y-27792262D01*
X39725789Y-27639522D01*
X39785368Y-27469255D01*
X39788611Y-27440478D01*
X39799368Y-27345000D01*
X39799822Y-27340968D01*
X39821240Y-27289996D01*
X44694435Y-27289996D01*
X44694435Y-27290003D01*
X44714630Y-27469249D01*
X44714631Y-27469254D01*
X44774211Y-27639523D01*
X44824150Y-27719000D01*
X44870184Y-27792262D01*
X44997738Y-27919816D01*
X45013150Y-27929500D01*
X45123481Y-27998826D01*
X45150478Y-28015789D01*
X45232281Y-28044413D01*
X45320745Y-28075368D01*
X45320750Y-28075369D01*
X45499996Y-28095565D01*
X45500000Y-28095565D01*
X45500004Y-28095565D01*
X45679249Y-28075369D01*
X45679252Y-28075368D01*
X45679255Y-28075368D01*
X45849522Y-28015789D01*
X46002262Y-27919816D01*
X46129816Y-27792262D01*
X46131240Y-27789996D01*
X47194435Y-27789996D01*
X47194435Y-27790003D01*
X47214630Y-27969249D01*
X47214631Y-27969254D01*
X47274211Y-28139523D01*
X47340549Y-28245099D01*
X47370184Y-28292262D01*
X47497738Y-28419816D01*
X47588080Y-28476582D01*
X47649769Y-28515344D01*
X47650478Y-28515789D01*
X47758887Y-28553723D01*
X47820745Y-28575368D01*
X47820750Y-28575369D01*
X47999996Y-28595565D01*
X48000000Y-28595565D01*
X48000004Y-28595565D01*
X48179249Y-28575369D01*
X48179252Y-28575368D01*
X48179255Y-28575368D01*
X48349522Y-28515789D01*
X48502262Y-28419816D01*
X48629816Y-28292262D01*
X48725789Y-28139522D01*
X48785368Y-27969255D01*
X48785369Y-27969249D01*
X48805565Y-27790003D01*
X48805565Y-27789996D01*
X48785369Y-27610750D01*
X48785368Y-27610745D01*
X48752141Y-27515788D01*
X48725789Y-27440478D01*
X48713568Y-27421029D01*
X48642706Y-27308253D01*
X48629816Y-27287738D01*
X48502262Y-27160184D01*
X48502260Y-27160183D01*
X48349523Y-27064211D01*
X48179254Y-27004631D01*
X48179249Y-27004630D01*
X48000004Y-26984435D01*
X47999996Y-26984435D01*
X47820750Y-27004630D01*
X47820745Y-27004631D01*
X47650476Y-27064211D01*
X47497737Y-27160184D01*
X47370184Y-27287737D01*
X47274211Y-27440476D01*
X47214631Y-27610745D01*
X47214630Y-27610750D01*
X47194435Y-27789996D01*
X46131240Y-27789996D01*
X46225789Y-27639522D01*
X46285368Y-27469255D01*
X46288112Y-27444901D01*
X46305565Y-27290003D01*
X46305565Y-27289996D01*
X46285369Y-27110750D01*
X46285368Y-27110745D01*
X46236281Y-26970463D01*
X46225789Y-26940478D01*
X46131998Y-26791210D01*
X49171908Y-26791210D01*
X49171908Y-26791217D01*
X49192103Y-26970463D01*
X49192104Y-26970468D01*
X49251684Y-27140737D01*
X49331634Y-27267976D01*
X49347657Y-27293476D01*
X49475211Y-27421030D01*
X49627951Y-27517003D01*
X49794749Y-27575368D01*
X49798218Y-27576582D01*
X49798223Y-27576583D01*
X49977469Y-27596779D01*
X49977473Y-27596779D01*
X49977477Y-27596779D01*
X50156722Y-27576583D01*
X50156725Y-27576582D01*
X50156728Y-27576582D01*
X50326995Y-27517003D01*
X50479735Y-27421030D01*
X50559029Y-27341735D01*
X50620348Y-27308253D01*
X50690040Y-27313237D01*
X50745974Y-27355108D01*
X50770391Y-27420572D01*
X50763749Y-27470373D01*
X50714632Y-27610742D01*
X50714630Y-27610750D01*
X50694435Y-27789996D01*
X50694435Y-27790003D01*
X50714630Y-27969249D01*
X50714631Y-27969254D01*
X50774211Y-28139523D01*
X50840549Y-28245099D01*
X50870184Y-28292262D01*
X50997738Y-28419816D01*
X51088080Y-28476582D01*
X51149769Y-28515344D01*
X51150478Y-28515789D01*
X51258887Y-28553723D01*
X51320745Y-28575368D01*
X51320750Y-28575369D01*
X51499996Y-28595565D01*
X51500000Y-28595565D01*
X51500004Y-28595565D01*
X51679249Y-28575369D01*
X51679252Y-28575368D01*
X51679255Y-28575368D01*
X51849522Y-28515789D01*
X52002262Y-28419816D01*
X52129816Y-28292262D01*
X52225789Y-28139522D01*
X52285368Y-27969255D01*
X52285369Y-27969249D01*
X52305565Y-27790003D01*
X52305565Y-27789996D01*
X52285369Y-27610750D01*
X52285368Y-27610745D01*
X52252141Y-27515788D01*
X52225789Y-27440478D01*
X52213568Y-27421029D01*
X52142706Y-27308253D01*
X52129816Y-27287738D01*
X52002262Y-27160184D01*
X52002260Y-27160183D01*
X51849523Y-27064211D01*
X51679254Y-27004631D01*
X51679249Y-27004630D01*
X51500004Y-26984435D01*
X51499996Y-26984435D01*
X51320750Y-27004630D01*
X51320745Y-27004631D01*
X51150476Y-27064211D01*
X50997739Y-27160183D01*
X50918446Y-27239476D01*
X50857122Y-27272960D01*
X50787431Y-27267976D01*
X50731497Y-27226104D01*
X50707081Y-27160639D01*
X50713724Y-27110839D01*
X50762839Y-26970476D01*
X50762842Y-26970463D01*
X50783038Y-26791217D01*
X50783038Y-26791210D01*
X50782901Y-26789996D01*
X61694435Y-26789996D01*
X61694435Y-26790003D01*
X61714630Y-26969249D01*
X61714631Y-26969254D01*
X61774211Y-27139523D01*
X61837016Y-27239476D01*
X61870184Y-27292262D01*
X61997738Y-27419816D01*
X62150478Y-27515789D01*
X62320745Y-27575368D01*
X62320750Y-27575369D01*
X62499996Y-27595565D01*
X62500000Y-27595565D01*
X62500004Y-27595565D01*
X62679249Y-27575369D01*
X62679252Y-27575368D01*
X62679255Y-27575368D01*
X62849522Y-27515789D01*
X63002262Y-27419816D01*
X63129816Y-27292262D01*
X63225789Y-27139522D01*
X63285368Y-26969255D01*
X63285369Y-26969249D01*
X63305565Y-26790003D01*
X63305565Y-26789996D01*
X63285369Y-26610750D01*
X63285368Y-26610745D01*
X63269085Y-26564211D01*
X63225789Y-26440478D01*
X63223191Y-26436344D01*
X63176062Y-26361338D01*
X63157062Y-26294102D01*
X63177430Y-26227266D01*
X63230697Y-26182052D01*
X63299954Y-26172814D01*
X63322011Y-26178325D01*
X63456446Y-26225366D01*
X63456452Y-26225367D01*
X63456454Y-26225368D01*
X63456455Y-26225368D01*
X63456459Y-26225369D01*
X63635705Y-26245565D01*
X63635709Y-26245565D01*
X63635713Y-26245565D01*
X63814958Y-26225369D01*
X63814961Y-26225368D01*
X63814964Y-26225368D01*
X63985231Y-26165789D01*
X64137971Y-26069816D01*
X64265525Y-25942262D01*
X64361498Y-25789522D01*
X64421077Y-25619255D01*
X64423016Y-25602045D01*
X64441274Y-25440003D01*
X64441274Y-25439996D01*
X64421078Y-25260750D01*
X64421077Y-25260745D01*
X64361498Y-25090478D01*
X64352004Y-25075369D01*
X64285328Y-24969254D01*
X64265525Y-24937738D01*
X64137971Y-24810184D01*
X63985232Y-24714211D01*
X63938271Y-24697779D01*
X63881495Y-24657057D01*
X63855748Y-24592104D01*
X63869204Y-24523543D01*
X63913255Y-24475743D01*
X63934029Y-24462690D01*
X64001265Y-24443690D01*
X64065973Y-24462691D01*
X64150475Y-24515788D01*
X64320745Y-24575368D01*
X64320750Y-24575369D01*
X64499996Y-24595565D01*
X64500000Y-24595565D01*
X64500004Y-24595565D01*
X64679249Y-24575369D01*
X64679252Y-24575368D01*
X64679255Y-24575368D01*
X64849522Y-24515789D01*
X65002262Y-24419816D01*
X65129816Y-24292262D01*
X65225789Y-24139522D01*
X65285368Y-23969255D01*
X65288342Y-23942863D01*
X65305565Y-23790003D01*
X65305565Y-23789996D01*
X65285369Y-23610750D01*
X65285368Y-23610745D01*
X65269085Y-23564211D01*
X65225789Y-23440478D01*
X65129816Y-23287738D01*
X65002262Y-23160184D01*
X64934027Y-23117309D01*
X64849523Y-23064211D01*
X64679254Y-23004631D01*
X64679249Y-23004630D01*
X64500004Y-22984435D01*
X64499996Y-22984435D01*
X64320750Y-23004630D01*
X64320737Y-23004633D01*
X64150479Y-23064209D01*
X64065971Y-23117309D01*
X63998734Y-23136309D01*
X63934029Y-23117309D01*
X63849520Y-23064209D01*
X63679262Y-23004633D01*
X63679249Y-23004630D01*
X63500004Y-22984435D01*
X63499996Y-22984435D01*
X63320750Y-23004630D01*
X63320745Y-23004631D01*
X63150476Y-23064211D01*
X62997737Y-23160184D01*
X62870184Y-23287737D01*
X62774211Y-23440476D01*
X62714631Y-23610745D01*
X62714630Y-23610750D01*
X62694435Y-23789996D01*
X62694435Y-23790004D01*
X62711657Y-23942863D01*
X62699602Y-24011685D01*
X62654410Y-24061739D01*
X62497739Y-24160182D01*
X62370184Y-24287737D01*
X62274211Y-24440476D01*
X62214631Y-24610745D01*
X62214630Y-24610750D01*
X62194435Y-24789996D01*
X62194435Y-24790003D01*
X62214630Y-24969249D01*
X62214631Y-24969254D01*
X62274211Y-25139523D01*
X62350384Y-25260750D01*
X62370184Y-25292262D01*
X62497738Y-25419816D01*
X62588080Y-25476582D01*
X62632721Y-25504632D01*
X62650478Y-25515789D01*
X62780607Y-25561323D01*
X62837383Y-25602045D01*
X62856694Y-25637411D01*
X62909919Y-25789521D01*
X62959646Y-25868661D01*
X62978646Y-25935898D01*
X62958278Y-26002733D01*
X62905010Y-26047947D01*
X62835754Y-26057184D01*
X62813698Y-26051675D01*
X62679257Y-26004632D01*
X62679249Y-26004630D01*
X62500004Y-25984435D01*
X62499996Y-25984435D01*
X62320750Y-26004630D01*
X62320745Y-26004631D01*
X62150476Y-26064211D01*
X61997737Y-26160184D01*
X61870184Y-26287737D01*
X61774211Y-26440476D01*
X61714631Y-26610745D01*
X61714630Y-26610750D01*
X61694435Y-26789996D01*
X50782901Y-26789996D01*
X50762842Y-26611964D01*
X50762841Y-26611959D01*
X50727780Y-26511761D01*
X50703262Y-26441692D01*
X50607289Y-26288952D01*
X50479735Y-26161398D01*
X50442162Y-26137789D01*
X50326996Y-26065425D01*
X50156727Y-26005845D01*
X50156722Y-26005844D01*
X49977477Y-25985649D01*
X49977469Y-25985649D01*
X49798223Y-26005844D01*
X49798218Y-26005845D01*
X49627949Y-26065425D01*
X49475210Y-26161398D01*
X49347657Y-26288951D01*
X49251684Y-26441690D01*
X49192104Y-26611959D01*
X49192103Y-26611964D01*
X49171908Y-26791210D01*
X46131998Y-26791210D01*
X46129816Y-26787738D01*
X46002262Y-26660184D01*
X45969379Y-26639522D01*
X45849523Y-26564211D01*
X45679254Y-26504631D01*
X45679249Y-26504630D01*
X45500004Y-26484435D01*
X45499996Y-26484435D01*
X45320750Y-26504630D01*
X45320745Y-26504631D01*
X45150476Y-26564211D01*
X44997737Y-26660184D01*
X44870184Y-26787737D01*
X44774211Y-26940476D01*
X44714631Y-27110745D01*
X44714630Y-27110750D01*
X44694435Y-27289996D01*
X39821240Y-27289996D01*
X39826888Y-27276555D01*
X39882086Y-27237810D01*
X39952701Y-27213102D01*
X40105441Y-27117129D01*
X40232995Y-26989575D01*
X40328968Y-26836835D01*
X40388547Y-26666568D01*
X40389213Y-26660659D01*
X40408744Y-26487316D01*
X40408744Y-26487309D01*
X40388548Y-26308063D01*
X40388547Y-26308058D01*
X40382227Y-26289996D01*
X42194435Y-26289996D01*
X42194435Y-26290003D01*
X42214630Y-26469249D01*
X42214631Y-26469254D01*
X42274211Y-26639523D01*
X42367341Y-26787737D01*
X42370184Y-26792262D01*
X42497738Y-26919816D01*
X42588080Y-26976582D01*
X42632721Y-27004632D01*
X42650478Y-27015789D01*
X42788860Y-27064211D01*
X42820745Y-27075368D01*
X42820750Y-27075369D01*
X42999996Y-27095565D01*
X43000000Y-27095565D01*
X43000004Y-27095565D01*
X43179249Y-27075369D01*
X43179252Y-27075368D01*
X43179255Y-27075368D01*
X43349522Y-27015789D01*
X43502262Y-26919816D01*
X43629816Y-26792262D01*
X43725789Y-26639522D01*
X43785368Y-26469255D01*
X43788474Y-26441690D01*
X43805565Y-26290003D01*
X43805565Y-26289996D01*
X43785369Y-26110750D01*
X43785368Y-26110745D01*
X43766626Y-26057184D01*
X43725789Y-25940478D01*
X43629816Y-25787738D01*
X43502262Y-25660184D01*
X43437124Y-25619255D01*
X43349523Y-25564211D01*
X43179254Y-25504631D01*
X43179249Y-25504630D01*
X43000004Y-25484435D01*
X42999996Y-25484435D01*
X42820750Y-25504630D01*
X42820745Y-25504631D01*
X42650476Y-25564211D01*
X42497737Y-25660184D01*
X42370184Y-25787737D01*
X42274211Y-25940476D01*
X42214631Y-26110745D01*
X42214630Y-26110750D01*
X42194435Y-26289996D01*
X40382227Y-26289996D01*
X40328968Y-26137791D01*
X40232995Y-25985051D01*
X40105441Y-25857497D01*
X40000871Y-25791791D01*
X39952702Y-25761524D01*
X39782433Y-25701944D01*
X39782428Y-25701943D01*
X39603183Y-25681748D01*
X39603175Y-25681748D01*
X39423929Y-25701943D01*
X39423924Y-25701944D01*
X39253655Y-25761524D01*
X39100916Y-25857497D01*
X38973363Y-25985050D01*
X38877390Y-26137789D01*
X38817810Y-26308058D01*
X38817809Y-26308062D01*
X38803356Y-26436344D01*
X38776289Y-26500758D01*
X38721093Y-26539501D01*
X38650474Y-26564212D01*
X38497737Y-26660184D01*
X38370184Y-26787737D01*
X38274211Y-26940476D01*
X38214631Y-27110745D01*
X38214630Y-27110750D01*
X38194435Y-27289996D01*
X19730757Y-27289996D01*
X19673600Y-27167422D01*
X19673599Y-27167420D01*
X19538113Y-26973926D01*
X19538108Y-26973920D01*
X19371078Y-26806890D01*
X19185405Y-26676879D01*
X19141780Y-26622302D01*
X19134588Y-26552804D01*
X19166110Y-26490449D01*
X19185406Y-26473730D01*
X19191797Y-26469255D01*
X19371401Y-26343495D01*
X19538495Y-26176401D01*
X19674035Y-25982830D01*
X19773903Y-25768663D01*
X19835063Y-25540408D01*
X19855659Y-25305000D01*
X19835063Y-25069592D01*
X19786888Y-24889799D01*
X19773905Y-24841344D01*
X19773904Y-24841343D01*
X19773903Y-24841337D01*
X19674035Y-24627171D01*
X19662533Y-24610745D01*
X19538496Y-24433600D01*
X19524711Y-24419815D01*
X19416567Y-24311671D01*
X19404732Y-24289996D01*
X32694435Y-24289996D01*
X32694435Y-24290003D01*
X32714630Y-24469249D01*
X32714631Y-24469254D01*
X32774211Y-24639523D01*
X32810816Y-24697779D01*
X32870184Y-24792262D01*
X32997738Y-24919816D01*
X33150478Y-25015789D01*
X33304221Y-25069586D01*
X33320745Y-25075368D01*
X33320750Y-25075369D01*
X33499996Y-25095565D01*
X33500000Y-25095565D01*
X33500004Y-25095565D01*
X33679249Y-25075369D01*
X33679252Y-25075368D01*
X33679255Y-25075368D01*
X33849522Y-25015789D01*
X34002262Y-24919816D01*
X34129816Y-24792262D01*
X34225789Y-24639522D01*
X34285368Y-24469255D01*
X34286108Y-24462690D01*
X34305565Y-24290003D01*
X34305565Y-24289996D01*
X36694435Y-24289996D01*
X36694435Y-24290003D01*
X36714630Y-24469249D01*
X36714631Y-24469254D01*
X36774211Y-24639523D01*
X36810816Y-24697779D01*
X36870184Y-24792262D01*
X36997738Y-24919816D01*
X37150478Y-25015789D01*
X37304221Y-25069586D01*
X37320745Y-25075368D01*
X37320750Y-25075369D01*
X37499996Y-25095565D01*
X37500000Y-25095565D01*
X37500004Y-25095565D01*
X37679249Y-25075369D01*
X37679252Y-25075368D01*
X37679255Y-25075368D01*
X37849522Y-25015789D01*
X38002262Y-24919816D01*
X38129816Y-24792262D01*
X38225789Y-24639522D01*
X38285368Y-24469255D01*
X38286108Y-24462690D01*
X38305565Y-24290003D01*
X38305565Y-24289996D01*
X41194435Y-24289996D01*
X41194435Y-24290003D01*
X41214630Y-24469249D01*
X41214631Y-24469254D01*
X41274211Y-24639523D01*
X41310816Y-24697779D01*
X41370184Y-24792262D01*
X41497738Y-24919816D01*
X41650478Y-25015789D01*
X41804221Y-25069586D01*
X41820745Y-25075368D01*
X41820750Y-25075369D01*
X41999996Y-25095565D01*
X42000000Y-25095565D01*
X42000004Y-25095565D01*
X42179249Y-25075369D01*
X42179252Y-25075368D01*
X42179255Y-25075368D01*
X42349522Y-25015789D01*
X42502262Y-24919816D01*
X42629816Y-24792262D01*
X42725789Y-24639522D01*
X42785368Y-24469255D01*
X42786108Y-24462690D01*
X42805565Y-24290003D01*
X42805565Y-24289996D01*
X42785369Y-24110750D01*
X42785368Y-24110745D01*
X42737009Y-23972544D01*
X42725789Y-23940478D01*
X42631235Y-23789996D01*
X44694435Y-23789996D01*
X44694435Y-23790003D01*
X44714630Y-23969249D01*
X44714631Y-23969254D01*
X44774211Y-24139523D01*
X44854000Y-24266505D01*
X44870184Y-24292262D01*
X44997738Y-24419816D01*
X45150478Y-24515789D01*
X45320745Y-24575368D01*
X45320750Y-24575369D01*
X45499996Y-24595565D01*
X45500000Y-24595565D01*
X45500004Y-24595565D01*
X45679249Y-24575369D01*
X45679252Y-24575368D01*
X45679255Y-24575368D01*
X45849522Y-24515789D01*
X46002262Y-24419816D01*
X46129816Y-24292262D01*
X46131240Y-24289996D01*
X47194435Y-24289996D01*
X47194435Y-24290003D01*
X47214630Y-24469249D01*
X47214631Y-24469254D01*
X47274211Y-24639523D01*
X47310816Y-24697779D01*
X47370184Y-24792262D01*
X47497738Y-24919816D01*
X47650478Y-25015789D01*
X47804221Y-25069586D01*
X47820745Y-25075368D01*
X47820750Y-25075369D01*
X47999996Y-25095565D01*
X48000000Y-25095565D01*
X48000004Y-25095565D01*
X48179249Y-25075369D01*
X48179252Y-25075368D01*
X48179255Y-25075368D01*
X48349522Y-25015789D01*
X48502262Y-24919816D01*
X48629816Y-24792262D01*
X48725789Y-24639522D01*
X48785368Y-24469255D01*
X48786108Y-24462690D01*
X48805565Y-24290003D01*
X48805565Y-24289996D01*
X50194435Y-24289996D01*
X50194435Y-24290003D01*
X50214630Y-24469249D01*
X50214631Y-24469254D01*
X50274211Y-24639523D01*
X50310816Y-24697779D01*
X50370184Y-24792262D01*
X50497738Y-24919816D01*
X50650478Y-25015789D01*
X50804221Y-25069586D01*
X50820745Y-25075368D01*
X50820750Y-25075369D01*
X50999996Y-25095565D01*
X51000000Y-25095565D01*
X51000004Y-25095565D01*
X51179249Y-25075369D01*
X51179252Y-25075368D01*
X51179255Y-25075368D01*
X51349522Y-25015789D01*
X51502262Y-24919816D01*
X51629816Y-24792262D01*
X51631240Y-24789996D01*
X57194435Y-24789996D01*
X57194435Y-24790003D01*
X57214630Y-24969249D01*
X57214631Y-24969254D01*
X57274211Y-25139523D01*
X57350384Y-25260750D01*
X57370184Y-25292262D01*
X57497738Y-25419816D01*
X57588080Y-25476582D01*
X57632721Y-25504632D01*
X57650478Y-25515789D01*
X57780607Y-25561323D01*
X57820745Y-25575368D01*
X57820750Y-25575369D01*
X57999996Y-25595565D01*
X58000000Y-25595565D01*
X58000004Y-25595565D01*
X58179249Y-25575369D01*
X58179252Y-25575368D01*
X58179255Y-25575368D01*
X58349522Y-25515789D01*
X58502262Y-25419816D01*
X58629816Y-25292262D01*
X58725789Y-25139522D01*
X58785368Y-24969255D01*
X58788919Y-24937738D01*
X58805565Y-24790003D01*
X58805565Y-24789996D01*
X58785369Y-24610750D01*
X58785368Y-24610745D01*
X58738129Y-24475743D01*
X58725789Y-24440478D01*
X58629816Y-24287738D01*
X58502262Y-24160184D01*
X58469379Y-24139522D01*
X58349523Y-24064211D01*
X58179254Y-24004631D01*
X58179249Y-24004630D01*
X58000004Y-23984435D01*
X57999996Y-23984435D01*
X57820750Y-24004630D01*
X57820745Y-24004631D01*
X57650476Y-24064211D01*
X57497737Y-24160184D01*
X57370184Y-24287737D01*
X57274211Y-24440476D01*
X57214631Y-24610745D01*
X57214630Y-24610750D01*
X57194435Y-24789996D01*
X51631240Y-24789996D01*
X51725789Y-24639522D01*
X51785368Y-24469255D01*
X51786108Y-24462690D01*
X51805565Y-24290003D01*
X51805565Y-24289997D01*
X51798285Y-24225389D01*
X51810339Y-24156567D01*
X51857688Y-24105188D01*
X51925298Y-24087563D01*
X51935385Y-24088284D01*
X51961857Y-24091267D01*
X51999998Y-24095565D01*
X52000000Y-24095565D01*
X52000004Y-24095565D01*
X52179249Y-24075369D01*
X52179252Y-24075368D01*
X52179255Y-24075368D01*
X52349522Y-24015789D01*
X52502262Y-23919816D01*
X52629816Y-23792262D01*
X52725789Y-23639522D01*
X52785368Y-23469255D01*
X52785369Y-23469249D01*
X52805565Y-23290003D01*
X52805565Y-23289996D01*
X52785369Y-23110750D01*
X52785368Y-23110745D01*
X52725788Y-22940476D01*
X52686582Y-22878080D01*
X52629816Y-22787738D01*
X52502262Y-22660184D01*
X52469379Y-22639522D01*
X52349523Y-22564211D01*
X52179254Y-22504631D01*
X52179249Y-22504630D01*
X52000004Y-22484435D01*
X51999996Y-22484435D01*
X51820750Y-22504630D01*
X51820745Y-22504631D01*
X51650476Y-22564211D01*
X51497737Y-22660184D01*
X51370184Y-22787737D01*
X51274211Y-22940476D01*
X51214631Y-23110745D01*
X51214630Y-23110750D01*
X51194435Y-23289996D01*
X51194435Y-23290004D01*
X51201714Y-23354611D01*
X51189659Y-23423433D01*
X51142310Y-23474812D01*
X51074699Y-23492436D01*
X51064611Y-23491714D01*
X51000004Y-23484435D01*
X50999996Y-23484435D01*
X50820750Y-23504630D01*
X50820745Y-23504631D01*
X50650476Y-23564211D01*
X50497737Y-23660184D01*
X50370184Y-23787737D01*
X50274211Y-23940476D01*
X50214631Y-24110745D01*
X50214630Y-24110750D01*
X50194435Y-24289996D01*
X48805565Y-24289996D01*
X48785369Y-24110750D01*
X48785368Y-24110745D01*
X48737009Y-23972544D01*
X48725789Y-23940478D01*
X48629816Y-23787738D01*
X48502262Y-23660184D01*
X48469379Y-23639522D01*
X48349523Y-23564211D01*
X48179254Y-23504631D01*
X48179249Y-23504630D01*
X48000004Y-23484435D01*
X47999996Y-23484435D01*
X47820750Y-23504630D01*
X47820745Y-23504631D01*
X47650476Y-23564211D01*
X47497737Y-23660184D01*
X47370184Y-23787737D01*
X47274211Y-23940476D01*
X47214631Y-24110745D01*
X47214630Y-24110750D01*
X47194435Y-24289996D01*
X46131240Y-24289996D01*
X46225789Y-24139522D01*
X46285368Y-23969255D01*
X46288342Y-23942863D01*
X46305565Y-23790003D01*
X46305565Y-23789996D01*
X46285369Y-23610750D01*
X46285368Y-23610745D01*
X46269085Y-23564211D01*
X46225789Y-23440478D01*
X46129816Y-23287738D01*
X46002262Y-23160184D01*
X45934027Y-23117309D01*
X45849523Y-23064211D01*
X45679254Y-23004631D01*
X45679249Y-23004630D01*
X45500004Y-22984435D01*
X45499996Y-22984435D01*
X45320750Y-23004630D01*
X45320745Y-23004631D01*
X45150476Y-23064211D01*
X44997737Y-23160184D01*
X44870184Y-23287737D01*
X44774211Y-23440476D01*
X44714631Y-23610745D01*
X44714630Y-23610750D01*
X44694435Y-23789996D01*
X42631235Y-23789996D01*
X42629816Y-23787738D01*
X42502262Y-23660184D01*
X42469379Y-23639522D01*
X42349523Y-23564211D01*
X42179254Y-23504631D01*
X42179249Y-23504630D01*
X42000004Y-23484435D01*
X41999996Y-23484435D01*
X41820750Y-23504630D01*
X41820745Y-23504631D01*
X41650476Y-23564211D01*
X41497737Y-23660184D01*
X41370184Y-23787737D01*
X41274211Y-23940476D01*
X41214631Y-24110745D01*
X41214630Y-24110750D01*
X41194435Y-24289996D01*
X38305565Y-24289996D01*
X38285369Y-24110750D01*
X38285368Y-24110745D01*
X38237009Y-23972544D01*
X38225789Y-23940478D01*
X38129816Y-23787738D01*
X38002262Y-23660184D01*
X37969379Y-23639522D01*
X37849523Y-23564211D01*
X37679254Y-23504631D01*
X37679249Y-23504630D01*
X37500004Y-23484435D01*
X37499996Y-23484435D01*
X37320750Y-23504630D01*
X37320745Y-23504631D01*
X37150476Y-23564211D01*
X36997737Y-23660184D01*
X36870184Y-23787737D01*
X36774211Y-23940476D01*
X36714631Y-24110745D01*
X36714630Y-24110750D01*
X36694435Y-24289996D01*
X34305565Y-24289996D01*
X34285369Y-24110750D01*
X34285368Y-24110745D01*
X34237009Y-23972544D01*
X34225789Y-23940478D01*
X34129816Y-23787738D01*
X34002262Y-23660184D01*
X33969379Y-23639522D01*
X33849523Y-23564211D01*
X33679254Y-23504631D01*
X33679249Y-23504630D01*
X33500004Y-23484435D01*
X33499996Y-23484435D01*
X33320750Y-23504630D01*
X33320745Y-23504631D01*
X33150476Y-23564211D01*
X32997737Y-23660184D01*
X32870184Y-23787737D01*
X32774211Y-23940476D01*
X32714631Y-24110745D01*
X32714630Y-24110750D01*
X32694435Y-24289996D01*
X19404732Y-24289996D01*
X19383084Y-24250351D01*
X19388068Y-24180659D01*
X19429939Y-24124725D01*
X19460915Y-24107810D01*
X19592331Y-24058796D01*
X19707546Y-23972546D01*
X19793796Y-23857331D01*
X19844091Y-23722483D01*
X19850500Y-23662873D01*
X19850499Y-22289996D01*
X57194435Y-22289996D01*
X57194435Y-22290003D01*
X57214630Y-22469249D01*
X57214631Y-22469254D01*
X57274211Y-22639523D01*
X57367341Y-22787737D01*
X57370184Y-22792262D01*
X57497738Y-22919816D01*
X57588080Y-22976582D01*
X57632721Y-23004632D01*
X57650478Y-23015789D01*
X57788860Y-23064211D01*
X57820745Y-23075368D01*
X57820750Y-23075369D01*
X57999996Y-23095565D01*
X58000000Y-23095565D01*
X58000004Y-23095565D01*
X58179249Y-23075369D01*
X58179252Y-23075368D01*
X58179255Y-23075368D01*
X58349522Y-23015789D01*
X58502262Y-22919816D01*
X58629816Y-22792262D01*
X58725789Y-22639522D01*
X58785368Y-22469255D01*
X58805565Y-22290000D01*
X58785368Y-22110745D01*
X58725789Y-21940478D01*
X58629816Y-21787738D01*
X58502262Y-21660184D01*
X58408476Y-21601254D01*
X58349523Y-21564211D01*
X58179254Y-21504631D01*
X58179249Y-21504630D01*
X58000004Y-21484435D01*
X57999996Y-21484435D01*
X57820750Y-21504630D01*
X57820745Y-21504631D01*
X57650476Y-21564211D01*
X57497737Y-21660184D01*
X57370184Y-21787737D01*
X57274211Y-21940476D01*
X57214631Y-22110745D01*
X57214630Y-22110750D01*
X57194435Y-22289996D01*
X19850499Y-22289996D01*
X19850499Y-21867128D01*
X19844091Y-21807517D01*
X19802521Y-21696063D01*
X19793797Y-21672671D01*
X19793793Y-21672664D01*
X19707547Y-21557455D01*
X19707544Y-21557452D01*
X19592335Y-21471206D01*
X19592328Y-21471202D01*
X19457482Y-21420908D01*
X19457483Y-21420908D01*
X19397883Y-21414501D01*
X19397881Y-21414500D01*
X19397873Y-21414500D01*
X19397864Y-21414500D01*
X17602129Y-21414500D01*
X17602123Y-21414501D01*
X17542516Y-21420908D01*
X17407671Y-21471202D01*
X17407664Y-21471206D01*
X17292455Y-21557452D01*
X17292452Y-21557455D01*
X17223766Y-21649208D01*
X17167832Y-21691079D01*
X17098141Y-21696063D01*
X17036818Y-21662577D01*
X17003334Y-21601254D01*
X17000500Y-21574897D01*
X17000500Y-19970000D01*
X64589157Y-19970000D01*
X65443012Y-19970000D01*
X65425795Y-19979940D01*
X65369940Y-20035795D01*
X65330444Y-20104204D01*
X65310000Y-20180504D01*
X65310000Y-20259496D01*
X65330444Y-20335796D01*
X65369940Y-20404205D01*
X65425795Y-20460060D01*
X65443012Y-20470000D01*
X64589157Y-20470000D01*
X64600350Y-20526274D01*
X64600351Y-20526276D01*
X64679500Y-20717358D01*
X64679505Y-20717368D01*
X64794410Y-20889335D01*
X64794413Y-20889339D01*
X64940660Y-21035586D01*
X64940664Y-21035589D01*
X65112631Y-21150494D01*
X65112641Y-21150499D01*
X65303725Y-21229649D01*
X65303733Y-21229651D01*
X65506579Y-21269999D01*
X65506583Y-21270000D01*
X65860000Y-21270000D01*
X65860000Y-20520000D01*
X66360000Y-20520000D01*
X66360000Y-21270000D01*
X66713417Y-21270000D01*
X66713420Y-21269999D01*
X66916266Y-21229651D01*
X66916274Y-21229649D01*
X67107358Y-21150499D01*
X67107368Y-21150494D01*
X67279335Y-21035589D01*
X67279339Y-21035586D01*
X67425586Y-20889339D01*
X67425589Y-20889335D01*
X67540494Y-20717368D01*
X67540499Y-20717358D01*
X67619648Y-20526276D01*
X67619649Y-20526274D01*
X67630843Y-20470000D01*
X66776988Y-20470000D01*
X66794205Y-20460060D01*
X66850060Y-20404205D01*
X66889556Y-20335796D01*
X66910000Y-20259496D01*
X66910000Y-20180504D01*
X66889556Y-20104204D01*
X66850060Y-20035795D01*
X66794205Y-19979940D01*
X66776988Y-19970000D01*
X67630843Y-19970000D01*
X67619649Y-19913725D01*
X67619648Y-19913723D01*
X67540499Y-19722641D01*
X67540494Y-19722631D01*
X67425589Y-19550664D01*
X67425586Y-19550660D01*
X67279339Y-19404413D01*
X67279335Y-19404410D01*
X67107368Y-19289505D01*
X67107358Y-19289500D01*
X66916274Y-19210350D01*
X66916266Y-19210348D01*
X66713420Y-19170000D01*
X66360000Y-19170000D01*
X66360000Y-19920000D01*
X65860000Y-19920000D01*
X65860000Y-19170000D01*
X65506579Y-19170000D01*
X65303733Y-19210348D01*
X65303725Y-19210350D01*
X65112641Y-19289500D01*
X65112631Y-19289505D01*
X64940664Y-19404410D01*
X64940660Y-19404413D01*
X64794413Y-19550660D01*
X64794410Y-19550664D01*
X64679505Y-19722631D01*
X64679500Y-19722641D01*
X64600351Y-19913723D01*
X64600350Y-19913725D01*
X64589157Y-19970000D01*
X17000500Y-19970000D01*
X17000500Y-18570697D01*
X17020185Y-18503658D01*
X17072989Y-18457903D01*
X17142147Y-18447959D01*
X17205703Y-18476984D01*
X17209737Y-18480885D01*
X17209793Y-18480825D01*
X17384091Y-18642548D01*
X17405521Y-18662433D01*
X17622296Y-18810228D01*
X17622301Y-18810230D01*
X17622302Y-18810231D01*
X17622303Y-18810232D01*
X17747843Y-18870688D01*
X17858673Y-18924061D01*
X17858674Y-18924061D01*
X17858677Y-18924063D01*
X18109385Y-19001396D01*
X18368818Y-19040500D01*
X18631182Y-19040500D01*
X18890615Y-19001396D01*
X19141323Y-18924063D01*
X19377704Y-18810228D01*
X19594479Y-18662433D01*
X19765598Y-18503658D01*
X19786801Y-18483985D01*
X19786801Y-18483983D01*
X19786805Y-18483981D01*
X19950386Y-18278857D01*
X19983644Y-18221251D01*
X20034208Y-18173039D01*
X20102815Y-18159815D01*
X20167680Y-18185783D01*
G37*
%TD.AperFunction*%
%TD*%
M02*
